<svg width="657" height="262" viewBox="0 0 657 262" fill="none" xmlns="http://www.w3.org/2000/svg">
<path d="M169.5 144C154.25 144 139.625 137.942 128.841 127.159C118.058 116.375 112 101.75 112 86.5C112 71.2501 118.058 56.6247 128.841 45.8414C139.625 35.058 154.25 29 169.5 29L345 29V58.054H169.5C161.956 58.054 154.72 61.051 149.386 66.3856C144.051 71.7203 141.054 78.9557 141.054 86.5C141.054 94.0443 144.051 101.28 149.386 106.614C154.72 111.949 161.956 114.946 169.5 114.946H243.5V144H169.5Z" fill="#FD801A"/>
<path d="M287.5 115C302.75 115 317.375 121.058 328.159 131.841C338.942 142.625 345 157.25 345 172.5C345 187.75 338.942 202.375 328.159 213.159C317.375 223.942 302.75 230 287.5 230L112 230L112 200.946L287.5 200.946C295.044 200.946 302.28 197.949 307.614 192.614C312.949 187.28 315.946 180.044 315.946 172.5C315.946 164.956 312.949 157.72 307.614 152.386C302.28 147.051 295.044 144.054 287.5 144.054L195 144.054L195 115L287.5 115Z" fill="#FD801A"/>
<path d="M-5.46392e-06 125L84 -1.75819e-06L50.5 124.999L84 250L-5.46392e-06 125Z" fill="#AF52DE"/>
<path d="M657 126.5L573 246L606.5 126.501L573 7L657 126.5Z" fill="#AF52DE"/>
<rect x="511.484" width="21.7305" height="288.97" transform="rotate(30 511.484 0)" fill="#AF52DE"/>
</svg>
