<svg width="1340" height="420" viewBox="0 0 1340 420" fill="none" xmlns="http://www.w3.org/2000/svg">
<path d="M318.375 371.688C318.375 372.646 318.083 373.271 317.5 373.562C316.958 373.854 316.292 374 315.5 374C314.792 374 314.083 373.938 313.375 373.812C312.708 373.729 312.062 373.542 311.438 373.25C310.854 372.958 310.333 372.562 309.875 372.062C309.458 371.562 309.167 370.917 309 370.125C308.417 367.625 308.083 365.188 308 362.812C307.917 360.396 307.875 357.917 307.875 355.375V347.688C307.875 344.188 308.021 340.562 308.312 336.812C308.604 333.021 308.917 329.375 309.25 325.875C309.25 325.75 309.271 325.604 309.312 325.438C309.354 325.271 309.375 325.146 309.375 325.062C309.417 324.604 309.479 324.104 309.562 323.562C309.646 323.021 309.771 322.542 309.938 322.125C310.146 321.667 310.417 321.292 310.75 321C311.125 320.708 311.604 320.562 312.188 320.562C312.854 320.562 313.479 320.708 314.062 321C314.688 321.25 315.229 321.604 315.688 322.062C316.146 322.479 316.5 323 316.75 323.625C317.042 324.25 317.188 324.896 317.188 325.562C317.188 326.396 317.146 327.271 317.062 328.188C317.021 329.062 316.958 329.917 316.875 330.75C316.792 331.333 316.729 331.771 316.688 332.062C316.688 332.354 316.667 332.833 316.625 333.5C317.125 332.625 317.688 331.75 318.312 330.875C318.979 329.958 319.708 329.167 320.5 328.5C321.292 327.792 322.146 327.229 323.062 326.812C324.021 326.354 325.042 326.125 326.125 326.125C327.208 326.125 328.104 326.312 328.812 326.688C329.521 327.021 330.083 327.5 330.5 328.125C330.917 328.708 331.208 329.417 331.375 330.25C331.542 331.083 331.625 331.958 331.625 332.875C331.625 333.458 331.604 334.021 331.562 334.562C331.562 335.104 331.542 335.646 331.5 336.188C331.458 336.729 331.417 337.271 331.375 337.812C331.375 338.312 331.375 338.854 331.375 339.438C331.375 340.521 331.396 341.562 331.438 342.562C331.521 343.521 331.604 344.542 331.688 345.625C332.104 344.25 332.604 342.688 333.188 340.938C333.812 339.188 334.521 337.396 335.312 335.562C336.146 333.729 337.042 331.938 338 330.188C339 328.396 340.062 326.812 341.188 325.438C342.354 324.062 343.604 322.958 344.938 322.125C346.271 321.25 347.667 320.812 349.125 320.812C351.417 320.812 353.021 321.479 353.938 322.812C354.896 324.146 355.375 325.854 355.375 327.938C355.375 328.521 355.354 329.146 355.312 329.812C355.271 330.438 355.208 331.042 355.125 331.625C354.917 333.875 354.75 336.188 354.625 338.562C354.542 340.938 354.5 343.25 354.5 345.5V346.688C354.5 349.604 354.625 352.354 354.875 354.938C355.125 357.521 355.625 360.25 356.375 363.125L356.875 364.812C357.042 365.396 357.229 366.042 357.438 366.75C357.688 367.458 357.896 368.146 358.062 368.812C358.229 369.479 358.375 370.104 358.5 370.688C358.625 371.271 358.688 371.729 358.688 372.062C358.688 372.938 358.375 373.521 357.75 373.812C357.125 374.104 356.479 374.25 355.812 374.25C355.396 374.25 354.917 374.229 354.375 374.188C353.833 374.188 353.292 374.125 352.75 374C352.25 373.917 351.75 373.771 351.25 373.562C350.792 373.354 350.417 373.083 350.125 372.75V372.812C349.75 372.438 349.479 371.979 349.312 371.438C349.146 370.896 349.021 370.354 348.938 369.812L348.812 369.25C348.229 367 347.729 364.979 347.312 363.188C346.938 361.396 346.625 359.604 346.375 357.812C346.125 356.021 345.938 354.167 345.812 352.25C345.729 350.333 345.688 348.125 345.688 345.625C345.688 343.5 345.771 341.333 345.938 339.125C346.146 336.917 346.354 334.75 346.562 332.625C346.562 332.417 346.562 332.188 346.562 331.938C346.604 331.646 346.646 331.396 346.688 331.188C345.104 333.646 343.708 336.354 342.5 339.312C341.333 342.229 340.271 345.229 339.312 348.312C338.396 351.396 337.583 354.5 336.875 357.625C336.208 360.708 335.604 363.646 335.062 366.438C335.062 366.479 335.146 366.729 335.312 367.188C335.521 367.604 335.708 368.104 335.875 368.688C336.083 369.229 336.271 369.771 336.438 370.312C336.604 370.812 336.688 371.146 336.688 371.312C336.688 372.271 336.375 372.854 335.75 373.062C335.125 373.271 334.479 373.375 333.812 373.375C333.312 373.375 332.771 373.354 332.188 373.312C331.604 373.271 331.021 373.167 330.438 373C329.896 372.833 329.375 372.604 328.875 372.312C328.417 372.062 328.042 371.688 327.75 371.188C327.5 370.771 327.208 369.792 326.875 368.25C326.542 366.667 326.188 364.833 325.812 362.75C325.438 360.625 325.083 358.354 324.75 355.938C324.417 353.521 324.104 351.229 323.812 349.062C323.521 346.896 323.292 345 323.125 343.375C322.958 341.75 322.875 340.646 322.875 340.062V339.125C321.542 342 320.438 345.083 319.562 348.375C318.688 351.667 318.021 354.896 317.562 358.062L317.312 359.188C317.229 359.521 317.167 359.854 317.125 360.188C317.083 360.479 317.062 360.771 317.062 361.062C317.062 361.521 317.104 362.083 317.188 362.75C317.312 363.417 317.458 364.146 317.625 364.938C317.833 366.021 318 367.146 318.125 368.312C318.292 369.438 318.375 370.562 318.375 371.688ZM389.25 371.188C389.25 372.021 389.042 372.583 388.625 372.875C388.208 373.208 387.625 373.375 386.875 373.375C384.917 373.375 383.5 372.854 382.625 371.812C381.792 370.771 381.167 369.396 380.75 367.688C380.625 367.104 380.5 366.521 380.375 365.938C380.25 365.312 380.146 364.708 380.062 364.125C379.979 363.583 379.896 363.208 379.812 363C379.729 362.792 379.646 362.396 379.562 361.812C379.062 363.021 378.438 364.292 377.688 365.625C376.979 366.917 376.146 368.125 375.188 369.25C374.229 370.333 373.146 371.229 371.938 371.938C370.771 372.646 369.479 373 368.062 373C366.562 373 365.312 372.646 364.312 371.938C363.312 371.188 362.521 370.271 361.938 369.188C361.396 368.062 361 366.833 360.75 365.5C360.542 364.167 360.438 362.896 360.438 361.688C360.438 358.854 360.708 355.792 361.25 352.5C361.833 349.167 362.625 345.854 363.625 342.562C364.625 339.229 365.792 336.042 367.125 333C368.458 329.917 369.917 327.229 371.5 324.938V325L371.875 324.438C372.333 323.812 372.854 323.146 373.438 322.438C374.062 321.688 374.792 321.312 375.625 321.312C376.417 321.312 377.104 321.667 377.688 322.375C378.271 323.042 378.688 323.75 378.938 324.5C380.021 324.708 380.896 324.979 381.562 325.312C382.229 325.604 382.75 325.979 383.125 326.438C383.5 326.896 383.75 327.438 383.875 328.062C384 328.646 384.062 329.292 384.062 330C384.062 330.292 384.062 330.604 384.062 330.938C384.062 331.271 384.042 331.604 384 331.938C383.958 332.271 383.938 332.667 383.938 333.125C383.938 333.583 383.938 334 383.938 334.375C383.938 334.792 384 335.333 384.125 336C384.292 336.667 384.458 337.354 384.625 338.062L385.062 340.375C385.271 341.583 385.438 342.958 385.562 344.5C385.729 346.042 385.917 347.583 386.125 349.125C386.292 350.708 386.458 352.25 386.625 353.75C386.792 355.208 386.958 356.562 387.125 357.812L388.625 367.062L388.812 368.125C388.896 368.667 388.979 369.167 389.062 369.625C389.188 370.083 389.25 370.604 389.25 371.188ZM374.938 335.25C374.938 335.167 374.917 335.042 374.875 334.875C374.833 334.667 374.792 334.458 374.75 334.25C373.792 336.292 372.938 338.521 372.188 340.938C371.479 343.312 370.875 345.75 370.375 348.25C369.917 350.708 369.562 353.188 369.312 355.688C369.104 358.146 369 360.479 369 362.688C369 362.896 369 363.083 369 363.25C369 363.417 369.021 363.583 369.062 363.75V363.812C370.062 362.271 370.917 360.25 371.625 357.75C372.375 355.208 373 352.562 373.5 349.812C374 347.021 374.354 344.333 374.562 341.75C374.812 339.125 374.938 336.958 374.938 335.25ZM424 372.938C424 373.396 423.75 373.812 423.25 374.188C422.75 374.562 422.167 374.875 421.5 375.125C420.875 375.375 420.229 375.562 419.562 375.688C418.896 375.854 418.375 375.938 418 375.938C417.292 375.938 416.646 375.792 416.062 375.5C415.479 375.25 414.938 374.917 414.438 374.5C413.938 374.083 413.458 373.625 413 373.125C412.583 372.625 412.188 372.125 411.812 371.625C410.354 369.833 408.854 367.833 407.312 365.625C405.771 363.417 404.396 361.312 403.188 359.312C403.188 359.479 403.208 359.688 403.25 359.938C403.292 360.188 403.312 360.396 403.312 360.562C403.396 361.438 403.458 362.312 403.5 363.188C403.583 364.021 403.688 364.875 403.812 365.75C403.854 366.25 403.896 366.75 403.938 367.25C404.021 367.708 404.104 368.208 404.188 368.75C404.271 369.417 404.354 370.083 404.438 370.75C404.521 371.417 404.562 372.104 404.562 372.812C404.562 373.688 404.312 374.271 403.812 374.562C403.312 374.896 402.646 375.062 401.812 375.062C401.229 375.062 400.604 375.021 399.938 374.938C399.271 374.854 398.625 374.688 398 374.438C397.375 374.188 396.812 373.854 396.312 373.438C395.812 373.021 395.438 372.479 395.188 371.812C395.062 371.312 394.938 370.375 394.812 369C394.688 367.625 394.583 366.104 394.5 364.438C394.417 362.729 394.333 361.021 394.25 359.312C394.208 357.604 394.167 356.188 394.125 355.062C394.125 354.812 394.104 354.604 394.062 354.438C394.062 354.271 394.062 354.104 394.062 353.938C393.729 353.646 393.438 353.292 393.188 352.875C392.938 352.458 392.812 352.062 392.812 351.688C392.812 351.146 392.917 350.667 393.125 350.25C393.333 349.833 393.562 349.438 393.812 349.062C393.562 343.938 393.438 338.833 393.438 333.75C393.438 329.542 393.479 325.375 393.562 321.25C393.688 317.083 393.792 312.917 393.875 308.75L394.062 300.375C394.104 299.958 394.125 299.417 394.125 298.75C394.125 298.083 394.125 297.375 394.125 296.625C394.125 295.708 394.125 294.75 394.125 293.75C394.125 292.75 394.146 291.812 394.188 290.938C394.229 290.062 394.271 289.271 394.312 288.562C394.354 287.854 394.438 287.333 394.562 287V287.062C394.729 286.438 394.958 285.979 395.25 285.688C395.542 285.396 396.042 285.25 396.75 285.25C398.5 285.25 399.854 285.771 400.812 286.812C401.771 287.854 402.25 289.25 402.25 291C402.25 293.792 402.229 296.583 402.188 299.375C402.188 302.125 402.167 304.896 402.125 307.688C402.083 310.479 402.042 313.271 402 316.062C402 318.812 402 321.583 402 324.375C402 325.375 402 326.396 402 327.438C402.042 328.438 402.062 329.458 402.062 330.5C402.104 331.333 402.125 332.188 402.125 333.062C402.125 333.938 402.125 334.854 402.125 335.812L408.875 325.062V325.125L409.438 324C409.562 323.792 409.625 323.646 409.625 323.562C409.667 323.479 409.708 323.375 409.75 323.25C409.833 323.083 409.979 322.833 410.188 322.5C410.438 322.167 410.854 321.667 411.438 321C411.646 320.792 411.896 320.604 412.188 320.438C412.479 320.271 412.854 320.188 413.312 320.188C413.771 320.188 414.229 320.333 414.688 320.625C415.188 320.875 415.625 321.208 416 321.625C416.375 322.042 416.688 322.5 416.938 323C417.188 323.5 417.312 323.958 417.312 324.375C417.312 324.708 417.125 325.292 416.75 326.125C416.375 326.917 415.875 327.896 415.25 329.062C414.667 330.229 414 331.5 413.25 332.875C412.5 334.208 411.708 335.562 410.875 336.938C410.083 338.312 409.312 339.646 408.562 340.938C407.812 342.229 407.146 343.375 406.562 344.375L404.938 347C405.896 348.667 407 350.521 408.25 352.562C409.542 354.562 410.896 356.583 412.312 358.625C413.729 360.667 415.167 362.625 416.625 364.5C418.125 366.375 419.583 368.021 421 369.438L421.625 369.938C422.125 370.312 422.646 370.771 423.188 371.312C423.729 371.812 424 372.354 424 372.938ZM446.25 360.562C446.25 361.812 445.896 363.104 445.188 364.438C444.521 365.771 443.646 367 442.562 368.125C441.479 369.208 440.229 370.104 438.812 370.812C437.438 371.521 436.062 371.875 434.688 371.875C432.729 371.875 431.042 371.5 429.625 370.75C428.208 369.958 426.979 368.917 425.938 367.625C424.896 366.292 424.042 364.792 423.375 363.125C422.75 361.458 422.25 359.75 421.875 358C421.5 356.208 421.229 354.438 421.062 352.688C420.938 350.896 420.875 349.271 420.875 347.812C420.875 346.562 420.938 345.083 421.062 343.375C421.229 341.667 421.479 339.896 421.812 338.062C422.188 336.229 422.688 334.417 423.312 332.625C423.938 330.833 424.708 329.229 425.625 327.812C426.583 326.396 427.708 325.25 429 324.375C430.333 323.5 431.854 323.062 433.562 323.062C434.896 323.062 436.083 323.333 437.125 323.875C438.208 324.417 439.104 325.146 439.812 326.062C440.562 326.938 441.125 327.958 441.5 329.125C441.917 330.292 442.125 331.5 442.125 332.75C442.125 334.375 441.75 336.146 441 338.062C440.25 339.979 439.271 341.833 438.062 343.625C436.896 345.417 435.562 347.042 434.062 348.5C432.604 349.917 431.146 351 429.688 351.75C429.771 352.5 429.938 353.604 430.188 355.062C430.438 356.479 430.771 357.896 431.188 359.312C431.646 360.729 432.167 361.958 432.75 363C433.375 364.042 434.104 364.562 434.938 364.562C435.354 364.562 435.708 364.438 436 364.188C436.333 363.938 436.625 363.604 436.875 363.188C437.125 362.771 437.333 362.312 437.5 361.812C437.708 361.312 437.896 360.833 438.062 360.375L438.438 359.5C438.521 359.375 438.562 359.292 438.562 359.25C438.604 359.208 438.646 359.146 438.688 359.062C438.979 358.521 439.25 358.021 439.5 357.562C439.792 357.104 440.188 356.708 440.688 356.375H440.625C440.792 356.208 440.958 356.125 441.125 356.125C441.333 356.083 441.521 356.062 441.688 356.062C442.146 356.062 442.646 356.208 443.188 356.5C443.729 356.792 444.229 357.167 444.688 357.625C445.146 358.042 445.521 358.521 445.812 359.062C446.104 359.562 446.25 360.062 446.25 360.562ZM433.875 333C433.875 332.583 433.854 332.146 433.812 331.688C433.771 331.229 433.667 330.833 433.5 330.5C432.917 331.208 432.396 332.062 431.938 333.062C431.521 334.021 431.167 335.042 430.875 336.125C430.583 337.167 430.333 338.229 430.125 339.312C429.958 340.396 429.833 341.396 429.75 342.312C430.833 341.021 431.792 339.562 432.625 337.938C433.458 336.271 433.875 334.625 433.875 333ZM524.438 298.75C524.438 303.833 524.396 308.917 524.312 314C524.229 319.083 524.021 324.167 523.688 329.25C523.396 334.292 522.958 339.333 522.375 344.375C521.792 349.417 521.021 354.458 520.062 359.5L519.062 364.5C519.188 364.792 519.396 365.271 519.688 365.938C520.021 366.562 520.354 367.25 520.688 368C521.021 368.708 521.312 369.375 521.562 370C521.812 370.625 521.938 371.042 521.938 371.25C521.938 371.792 521.708 372.208 521.25 372.5C520.833 372.792 520.333 373 519.75 373.125C519.167 373.292 518.562 373.396 517.938 373.438C517.312 373.479 516.812 373.5 516.438 373.5C515.979 373.5 515.542 373.479 515.125 373.438C514.708 373.438 514.312 373.375 513.938 373.25C512.979 372.917 512.333 372.542 512 372.125C511.667 371.708 511.271 371.083 510.812 370.25C509.062 366.917 507.521 363.479 506.188 359.938C504.896 356.354 503.75 352.729 502.75 349.062C501.75 345.354 500.854 341.646 500.062 337.938C499.271 334.188 498.521 330.458 497.812 326.75C496.312 340.5 493.938 354.125 490.688 367.625C491.062 368.375 491.479 369.208 491.938 370.125C492.438 371 492.688 371.875 492.688 372.75C492.688 373.333 492.5 373.792 492.125 374.125C491.75 374.458 491.271 374.688 490.688 374.812C490.146 374.938 489.562 375 488.938 375C488.354 375.042 487.854 375.042 487.438 375C487.312 375.083 487.188 375.146 487.062 375.188C486.938 375.229 486.771 375.25 486.562 375.25C485.104 375.25 483.938 374.812 483.062 373.938C482.229 373.062 481.562 372 481.062 370.75C479.604 366.958 478.312 362.938 477.188 358.688C476.062 354.438 475.083 350.125 474.25 345.75C473.417 341.375 472.688 337.021 472.062 332.688C471.479 328.312 470.979 324.083 470.562 320C469.979 315.042 469.417 310.104 468.875 305.188C468.333 300.271 468.062 295.292 468.062 290.25C468.062 289.375 468.188 288.708 468.438 288.25C468.688 287.75 469.312 287.5 470.312 287.5C471.854 287.5 473.042 287.75 473.875 288.25C474.75 288.708 475.396 289.354 475.812 290.188C476.271 290.979 476.562 291.917 476.688 293C476.854 294.083 476.979 295.25 477.062 296.5C477.896 305.75 478.917 314.958 480.125 324.125C481.333 333.292 483.062 342.375 485.312 351.375C486.438 345.583 487.292 339.792 487.875 334C488.5 328.167 489.104 322.333 489.688 316.5C489.812 314.958 489.896 313.396 489.938 311.812C489.979 310.229 490.042 308.646 490.125 307.062C490.25 305.438 490.396 303.833 490.562 302.25C490.771 300.667 491.104 299.125 491.562 297.625C491.938 296.292 492.542 295.271 493.375 294.562C494.208 293.854 495.354 293.5 496.812 293.5C498.229 293.5 499.333 293.812 500.125 294.438C500.917 295.062 501.521 295.854 501.938 296.812C502.396 297.729 502.708 298.771 502.875 299.938C503.042 301.104 503.188 302.208 503.312 303.25C504.312 310.792 505.604 318.25 507.188 325.625C508.812 333 510.729 340.333 512.938 347.625C513.771 341.167 514.292 334.729 514.5 328.312C514.708 321.896 514.812 315.417 514.812 308.875C514.812 305.167 514.771 301.438 514.688 297.688C514.646 293.938 514.396 290.167 513.938 286.375C513.938 285.917 513.896 285.5 513.812 285.125C513.729 284.75 513.688 284.333 513.688 283.875C513.688 283 513.958 282.375 514.5 282C515.042 281.583 515.729 281.375 516.562 281.375C517.104 281.375 517.688 281.438 518.312 281.562C518.979 281.646 519.625 281.792 520.25 282C520.917 282.167 521.521 282.396 522.062 282.688C522.646 282.979 523.104 283.333 523.438 283.75C523.604 283.958 523.729 284.417 523.812 285.125C523.938 285.833 524.042 286.688 524.125 287.688C524.208 288.688 524.271 289.75 524.312 290.875C524.354 292 524.375 293.083 524.375 294.125C524.417 295.167 524.438 296.104 524.438 296.938C524.438 297.771 524.438 298.375 524.438 298.75ZM555 360.562C555 361.812 554.646 363.104 553.938 364.438C553.271 365.771 552.396 367 551.312 368.125C550.229 369.208 548.979 370.104 547.562 370.812C546.188 371.521 544.812 371.875 543.438 371.875C541.479 371.875 539.792 371.5 538.375 370.75C536.958 369.958 535.729 368.917 534.688 367.625C533.646 366.292 532.792 364.792 532.125 363.125C531.5 361.458 531 359.75 530.625 358C530.25 356.208 529.979 354.438 529.812 352.688C529.688 350.896 529.625 349.271 529.625 347.812C529.625 346.562 529.688 345.083 529.812 343.375C529.979 341.667 530.229 339.896 530.562 338.062C530.938 336.229 531.438 334.417 532.062 332.625C532.688 330.833 533.458 329.229 534.375 327.812C535.333 326.396 536.458 325.25 537.75 324.375C539.083 323.5 540.604 323.062 542.312 323.062C543.646 323.062 544.833 323.333 545.875 323.875C546.958 324.417 547.854 325.146 548.562 326.062C549.312 326.938 549.875 327.958 550.25 329.125C550.667 330.292 550.875 331.5 550.875 332.75C550.875 334.375 550.5 336.146 549.75 338.062C549 339.979 548.021 341.833 546.812 343.625C545.646 345.417 544.312 347.042 542.812 348.5C541.354 349.917 539.896 351 538.438 351.75C538.521 352.5 538.688 353.604 538.938 355.062C539.188 356.479 539.521 357.896 539.938 359.312C540.396 360.729 540.917 361.958 541.5 363C542.125 364.042 542.854 364.562 543.688 364.562C544.104 364.562 544.458 364.438 544.75 364.188C545.083 363.938 545.375 363.604 545.625 363.188C545.875 362.771 546.083 362.312 546.25 361.812C546.458 361.312 546.646 360.833 546.812 360.375L547.188 359.5C547.271 359.375 547.312 359.292 547.312 359.25C547.354 359.208 547.396 359.146 547.438 359.062C547.729 358.521 548 358.021 548.25 357.562C548.542 357.104 548.938 356.708 549.438 356.375H549.375C549.542 356.208 549.708 356.125 549.875 356.125C550.083 356.083 550.271 356.062 550.438 356.062C550.896 356.062 551.396 356.208 551.938 356.5C552.479 356.792 552.979 357.167 553.438 357.625C553.896 358.042 554.271 358.521 554.562 359.062C554.854 359.562 555 360.062 555 360.562ZM542.625 333C542.625 332.583 542.604 332.146 542.562 331.688C542.521 331.229 542.417 330.833 542.25 330.5C541.667 331.208 541.146 332.062 540.688 333.062C540.271 334.021 539.917 335.042 539.625 336.125C539.333 337.167 539.083 338.229 538.875 339.312C538.708 340.396 538.583 341.396 538.5 342.312C539.583 341.021 540.542 339.562 541.375 337.938C542.208 336.271 542.625 334.625 542.625 333ZM586.625 336.688C586.625 338.396 586.542 340.292 586.375 342.375C586.208 344.417 585.958 346.542 585.625 348.75C585.292 350.958 584.833 353.188 584.25 355.438C583.708 357.646 583.042 359.771 582.25 361.812C581.458 363.854 580.521 365.75 579.438 367.5C578.396 369.208 577.208 370.646 575.875 371.812C574.917 372.646 573.833 373.312 572.625 373.812C571.458 374.354 570.25 374.625 569 374.625C568.542 374.625 568.062 374.542 567.562 374.375C567.062 374.25 566.688 373.917 566.438 373.375C565.521 373.292 564.604 373.104 563.688 372.812C562.812 372.562 562.083 371.979 561.5 371.062C561.375 370.771 561.271 370.417 561.188 370C561.104 369.583 561.021 369.146 560.938 368.688C560.896 368.479 560.854 368.292 560.812 368.125C560.771 367.917 560.729 367.729 560.688 367.562C559.479 360.062 558.646 352.562 558.188 345.062C557.771 337.562 557.562 330 557.562 322.375C557.562 321.708 557.562 320.542 557.562 318.875C557.562 317.208 557.562 315.312 557.562 313.188C557.604 311.062 557.625 308.833 557.625 306.5C557.667 304.167 557.708 301.979 557.75 299.938C557.792 297.896 557.854 296.146 557.938 294.688C558.021 293.188 558.104 292.229 558.188 291.812C558.354 291.229 558.583 290.75 558.875 290.375C559.167 290 559.667 289.812 560.375 289.812C562.333 289.812 563.729 290.438 564.562 291.688C565.438 292.896 565.875 294.396 565.875 296.188V312.25C565.875 314.208 565.875 315.979 565.875 317.562C565.875 319.104 565.875 320.625 565.875 322.125C565.917 323.583 565.958 325.104 566 326.688C566.042 328.229 566.104 329.958 566.188 331.875C566.688 330.75 567.292 329.646 568 328.562C568.75 327.479 569.583 326.5 570.5 325.625C571.417 324.75 572.438 324.042 573.562 323.5C574.688 322.958 575.938 322.688 577.312 322.688C579.312 322.688 580.917 323.125 582.125 324C583.375 324.875 584.312 326 584.938 327.375C585.604 328.708 586.042 330.208 586.25 331.875C586.5 333.542 586.625 335.146 586.625 336.688ZM578 335.25C578 334.417 577.958 333.5 577.875 332.5C577.833 331.5 577.583 330.625 577.125 329.875C576.75 330.167 576.417 330.479 576.125 330.812C575.875 331.146 575.604 331.521 575.312 331.938L575.188 332.125V332.062C574.021 333.979 573.062 336.208 572.312 338.75C571.604 341.292 571.021 343.938 570.562 346.688C570.146 349.396 569.854 352.104 569.688 354.812C569.521 357.479 569.438 359.896 569.438 362.062C569.438 362.521 569.438 363.208 569.438 364.125C569.479 365 569.562 365.729 569.688 366.312C571.312 364.938 572.646 362.938 573.688 360.312C574.771 357.646 575.625 354.792 576.25 351.75C576.917 348.667 577.375 345.646 577.625 342.688C577.875 339.729 578 337.25 578 335.25ZM631.062 326.188C631.062 326.688 630.875 327.104 630.5 327.438C630.167 327.771 629.75 328.062 629.25 328.312C628.75 328.521 628.229 328.667 627.688 328.75C627.188 328.833 626.771 328.875 626.438 328.875C625.938 328.875 625.458 328.833 625 328.75C624.542 328.625 624.083 328.5 623.625 328.375C623.167 328.25 622.729 328.146 622.312 328.062C621.896 327.938 621.458 327.875 621 327.875C620.375 327.875 619.75 327.979 619.125 328.188C618.5 328.396 617.938 328.688 617.438 329.062C616.938 329.438 616.521 329.896 616.188 330.438C615.896 330.979 615.75 331.583 615.75 332.25C615.75 333.25 615.958 334.25 616.375 335.25C616.792 336.208 617.333 337.188 618 338.188C618.708 339.188 619.5 340.208 620.375 341.25C621.292 342.25 622.25 343.271 623.25 344.312C624.458 345.646 625.667 347 626.875 348.375C628.125 349.75 629.229 351.188 630.188 352.688C631.188 354.188 632 355.771 632.625 357.438C633.25 359.104 633.562 360.854 633.562 362.688C633.562 364.271 633.292 365.688 632.75 366.938C632.25 368.188 631.521 369.25 630.562 370.125C629.646 371 628.521 371.667 627.188 372.125C625.896 372.625 624.479 372.875 622.938 372.875C622.521 372.875 621.875 372.792 621 372.625C620.167 372.458 619.208 372.229 618.125 371.938C617.042 371.604 615.917 371.25 614.75 370.875C613.625 370.5 612.583 370.104 611.625 369.688C610.708 369.229 609.938 368.792 609.312 368.375C608.729 367.917 608.438 367.5 608.438 367.125C608.438 366.625 608.667 366.125 609.125 365.625C609.583 365.083 610.125 364.604 610.75 364.188C611.375 363.729 612.021 363.354 612.688 363.062C613.396 362.771 613.979 362.625 614.438 362.625C615.062 362.625 615.708 362.771 616.375 363.062C617.083 363.354 617.792 363.688 618.5 364.062C619.292 364.479 620.083 364.854 620.875 365.188C621.708 365.521 622.562 365.688 623.438 365.688C624.104 365.688 624.479 365.458 624.562 365C624.688 364.542 624.75 364.021 624.75 363.438C624.75 361.979 624.5 360.604 624 359.312C623.5 357.979 622.854 356.688 622.062 355.438C621.271 354.188 620.354 352.979 619.312 351.812C618.271 350.604 617.229 349.417 616.188 348.25C615.104 347.083 614.042 345.917 613 344.75C612 343.583 611.104 342.396 610.312 341.188C609.521 339.938 608.875 338.667 608.375 337.375C607.917 336.083 607.688 334.708 607.688 333.25C607.688 331.458 608.083 329.854 608.875 328.438C609.667 326.979 610.688 325.729 611.938 324.688C613.229 323.646 614.667 322.854 616.25 322.312C617.875 321.729 619.5 321.438 621.125 321.438C621.667 321.438 622.5 321.562 623.625 321.812C624.75 322.021 625.854 322.333 626.938 322.75C628.021 323.167 628.979 323.667 629.812 324.25C630.646 324.833 631.062 325.479 631.062 326.188ZM644.625 319.438C644.625 320.146 644.458 320.667 644.125 321C643.833 321.292 643.271 321.438 642.438 321.438C642.062 321.438 641.479 321.396 640.688 321.312C639.896 321.188 639.083 321.021 638.25 320.812C637.458 320.604 636.75 320.312 636.125 319.938C635.542 319.562 635.25 319.104 635.25 318.562C635.25 318.396 635.312 317.938 635.438 317.188C635.562 316.396 635.708 315.562 635.875 314.688C636.083 313.812 636.25 313.021 636.375 312.312C636.542 311.604 636.667 311.208 636.75 311.125V311.188C636.958 310.854 637.208 310.646 637.5 310.562C637.792 310.479 638.083 310.438 638.375 310.438C638.75 310.438 639.229 310.5 639.812 310.625C640.438 310.708 641.042 310.854 641.625 311.062C642.25 311.229 642.812 311.458 643.312 311.75C643.812 312.042 644.125 312.354 644.25 312.688C644.375 313.021 644.438 313.479 644.438 314.062C644.479 314.604 644.479 315.104 644.438 315.562C644.438 315.729 644.417 315.938 644.375 316.188C644.375 316.396 644.375 316.562 644.375 316.688C644.375 316.896 644.375 317.104 644.375 317.312C644.417 317.521 644.458 317.729 644.5 317.938C644.542 318.146 644.562 318.375 644.562 318.625C644.604 318.875 644.625 319.146 644.625 319.438ZM646.938 369.25C646.938 370.208 646.708 370.896 646.25 371.312C645.833 371.688 645.146 371.875 644.188 371.875C643.688 371.875 643.125 371.812 642.5 371.688C641.917 371.562 641.333 371.396 640.75 371.188C640.167 370.938 639.625 370.646 639.125 370.312C638.625 369.979 638.25 369.604 638 369.188C637.833 368.938 637.688 368.167 637.562 366.875C637.438 365.583 637.333 363.979 637.25 362.062C637.208 360.146 637.146 358 637.062 355.625C637.021 353.25 636.979 350.854 636.938 348.438C636.938 346.021 636.938 343.667 636.938 341.375C636.938 339.083 636.938 337.083 636.938 335.375V330.562C636.938 330.146 636.938 329.729 636.938 329.312C636.979 328.896 637.062 328.542 637.188 328.25C637.354 327.917 637.583 327.646 637.875 327.438C638.208 327.229 638.667 327.125 639.25 327.125C641.083 327.125 642.417 327.646 643.25 328.688C644.125 329.688 644.667 331.042 644.875 332.75C645.083 335.292 645.229 337.833 645.312 340.375C645.438 342.875 645.542 345.417 645.625 348C645.708 350.333 645.771 352.646 645.812 354.938C645.896 357.188 646.042 359.438 646.25 361.688C646.292 362.146 646.333 362.583 646.375 363C646.417 363.417 646.479 363.833 646.562 364.25C646.646 365.083 646.729 365.917 646.812 366.75C646.896 367.542 646.938 368.375 646.938 369.25ZM662.875 371.688C662.875 372.646 662.583 373.271 662 373.562C661.458 373.854 660.792 374 660 374C659.292 374 658.583 373.938 657.875 373.812C657.208 373.729 656.562 373.542 655.938 373.25C655.354 372.958 654.833 372.562 654.375 372.062C653.958 371.562 653.667 370.917 653.5 370.125C652.917 367.625 652.583 365.188 652.5 362.812C652.417 360.396 652.375 357.917 652.375 355.375V347.688C652.375 344.188 652.521 340.562 652.812 336.812C653.104 333.021 653.417 329.375 653.75 325.875C653.75 325.75 653.771 325.604 653.812 325.438C653.854 325.271 653.875 325.146 653.875 325.062C653.917 324.604 653.979 324.104 654.062 323.562C654.146 323.021 654.271 322.542 654.438 322.125C654.646 321.667 654.917 321.292 655.25 321C655.625 320.708 656.104 320.562 656.688 320.562C657.354 320.562 657.979 320.708 658.562 321C659.188 321.25 659.729 321.604 660.188 322.062C660.646 322.479 661 323 661.25 323.625C661.542 324.25 661.688 324.896 661.688 325.562C661.688 326.396 661.646 327.271 661.562 328.188C661.521 329.062 661.458 329.917 661.375 330.75C661.292 331.333 661.229 331.771 661.188 332.062C661.188 332.354 661.167 332.833 661.125 333.5C661.625 332.625 662.188 331.75 662.812 330.875C663.479 329.958 664.208 329.167 665 328.5C665.792 327.792 666.646 327.229 667.562 326.812C668.521 326.354 669.542 326.125 670.625 326.125C671.708 326.125 672.604 326.312 673.312 326.688C674.021 327.021 674.583 327.5 675 328.125C675.417 328.708 675.708 329.417 675.875 330.25C676.042 331.083 676.125 331.958 676.125 332.875C676.125 333.458 676.104 334.021 676.062 334.562C676.062 335.104 676.042 335.646 676 336.188C675.958 336.729 675.917 337.271 675.875 337.812C675.875 338.312 675.875 338.854 675.875 339.438C675.875 340.521 675.896 341.562 675.938 342.562C676.021 343.521 676.104 344.542 676.188 345.625C676.604 344.25 677.104 342.688 677.688 340.938C678.312 339.188 679.021 337.396 679.812 335.562C680.646 333.729 681.542 331.938 682.5 330.188C683.5 328.396 684.562 326.812 685.688 325.438C686.854 324.062 688.104 322.958 689.438 322.125C690.771 321.25 692.167 320.812 693.625 320.812C695.917 320.812 697.521 321.479 698.438 322.812C699.396 324.146 699.875 325.854 699.875 327.938C699.875 328.521 699.854 329.146 699.812 329.812C699.771 330.438 699.708 331.042 699.625 331.625C699.417 333.875 699.25 336.188 699.125 338.562C699.042 340.938 699 343.25 699 345.5V346.688C699 349.604 699.125 352.354 699.375 354.938C699.625 357.521 700.125 360.25 700.875 363.125L701.375 364.812C701.542 365.396 701.729 366.042 701.938 366.75C702.188 367.458 702.396 368.146 702.562 368.812C702.729 369.479 702.875 370.104 703 370.688C703.125 371.271 703.188 371.729 703.188 372.062C703.188 372.938 702.875 373.521 702.25 373.812C701.625 374.104 700.979 374.25 700.312 374.25C699.896 374.25 699.417 374.229 698.875 374.188C698.333 374.188 697.792 374.125 697.25 374C696.75 373.917 696.25 373.771 695.75 373.562C695.292 373.354 694.917 373.083 694.625 372.75V372.812C694.25 372.438 693.979 371.979 693.812 371.438C693.646 370.896 693.521 370.354 693.438 369.812L693.312 369.25C692.729 367 692.229 364.979 691.812 363.188C691.438 361.396 691.125 359.604 690.875 357.812C690.625 356.021 690.438 354.167 690.312 352.25C690.229 350.333 690.188 348.125 690.188 345.625C690.188 343.5 690.271 341.333 690.438 339.125C690.646 336.917 690.854 334.75 691.062 332.625C691.062 332.417 691.062 332.188 691.062 331.938C691.104 331.646 691.146 331.396 691.188 331.188C689.604 333.646 688.208 336.354 687 339.312C685.833 342.229 684.771 345.229 683.812 348.312C682.896 351.396 682.083 354.5 681.375 357.625C680.708 360.708 680.104 363.646 679.562 366.438C679.562 366.479 679.646 366.729 679.812 367.188C680.021 367.604 680.208 368.104 680.375 368.688C680.583 369.229 680.771 369.771 680.938 370.312C681.104 370.812 681.188 371.146 681.188 371.312C681.188 372.271 680.875 372.854 680.25 373.062C679.625 373.271 678.979 373.375 678.312 373.375C677.812 373.375 677.271 373.354 676.688 373.312C676.104 373.271 675.521 373.167 674.938 373C674.396 372.833 673.875 372.604 673.375 372.312C672.917 372.062 672.542 371.688 672.25 371.188C672 370.771 671.708 369.792 671.375 368.25C671.042 366.667 670.688 364.833 670.312 362.75C669.938 360.625 669.583 358.354 669.25 355.938C668.917 353.521 668.604 351.229 668.312 349.062C668.021 346.896 667.792 345 667.625 343.375C667.458 341.75 667.375 340.646 667.375 340.062V339.125C666.042 342 664.938 345.083 664.062 348.375C663.188 351.667 662.521 354.896 662.062 358.062L661.812 359.188C661.729 359.521 661.667 359.854 661.625 360.188C661.583 360.479 661.562 360.771 661.562 361.062C661.562 361.521 661.604 362.083 661.688 362.75C661.812 363.417 661.958 364.146 662.125 364.938C662.333 366.021 662.5 367.146 662.625 368.312C662.792 369.438 662.875 370.562 662.875 371.688ZM715.812 355.75C715.812 357.75 715.792 359.583 715.75 361.25C715.75 362.917 715.792 364.75 715.875 366.75L717 365.938L717.688 365.5C719.729 363.875 721.5 361.896 723 359.562C724.542 357.188 725.812 354.667 726.812 352C727.812 349.333 728.542 346.604 729 343.812C729.5 340.979 729.75 338.292 729.75 335.75C729.75 335.25 729.729 334.562 729.688 333.688C729.688 332.771 729.604 331.875 729.438 331C729.271 330.125 729.021 329.375 728.688 328.75C728.354 328.083 727.875 327.75 727.25 327.75C726.25 327.75 725.229 328.354 724.188 329.562C723.146 330.771 722.167 332.208 721.25 333.875C720.375 335.542 719.583 337.229 718.875 338.938C718.167 340.604 717.646 341.917 717.312 342.875C717.312 342.917 717.292 342.938 717.25 342.938C717.25 342.938 717.25 342.958 717.25 343V343.062C717 343.646 716.729 344.271 716.438 344.938C716.188 345.604 716.021 346.229 715.938 346.812C715.854 347.396 715.792 348.062 715.75 348.812C715.708 349.521 715.688 350.271 715.688 351.062C715.688 351.479 715.688 351.896 715.688 352.312C715.729 352.688 715.75 353.042 715.75 353.375C715.75 353.833 715.75 354.271 715.75 354.688C715.792 355.062 715.812 355.417 715.812 355.75ZM719.25 412.875C719.25 413.792 719 414.417 718.5 414.75C718 415.083 717.333 415.25 716.5 415.25C715.5 415.25 714.396 415.083 713.188 414.75C711.979 414.458 711.021 413.896 710.312 413.062C710.104 412.771 709.896 411.917 709.688 410.5C709.521 409.083 709.354 407.417 709.188 405.5C709.021 403.625 708.875 401.667 708.75 399.625C708.625 397.625 708.5 395.854 708.375 394.312L708.125 391C707.625 382.083 707.375 373.167 707.375 364.25C707.375 359.042 707.458 353.938 707.625 348.938C707.833 343.896 708.042 338.792 708.25 333.625L708.5 327.062C708.5 326.396 708.5 325.75 708.5 325.125C708.542 324.458 708.625 323.812 708.75 323.188C708.958 322.646 709.208 322.229 709.5 321.938C709.833 321.604 710.354 321.438 711.062 321.438C712.854 321.438 714.167 321.979 715 323.062C715.833 324.104 716.312 325.396 716.438 326.938C717.771 325.104 719.354 323.646 721.188 322.562C723.062 321.479 725.208 320.938 727.625 320.938C729.667 320.938 731.375 321.396 732.75 322.312C734.167 323.229 735.292 324.417 736.125 325.875C736.958 327.292 737.542 328.896 737.875 330.688C738.25 332.438 738.438 334.167 738.438 335.875C738.438 339.167 738.146 342.458 737.562 345.75C736.979 349 736.062 352.167 734.812 355.25C733.604 358.292 732.062 361.188 730.188 363.938C728.312 366.646 726.104 369.062 723.562 371.188C723.229 371.479 722.833 371.792 722.375 372.125C721.917 372.458 721.438 372.771 720.938 373.062C720.438 373.354 719.917 373.604 719.375 373.812C718.875 374.021 718.417 374.125 718 374.125C717.542 374.125 717.146 374.021 716.812 373.812C716.479 373.604 716.188 373.354 715.938 373.062C716.021 375.938 716.125 378.917 716.25 382C716.417 385.083 716.604 388.167 716.812 391.25C717.021 394.375 717.271 397.458 717.562 400.5C717.896 403.542 718.292 406.479 718.75 409.312C718.875 409.854 718.979 410.417 719.062 411C719.188 411.625 719.25 412.25 719.25 412.875ZM758.062 373.812C758.062 374.396 757.917 374.875 757.625 375.25C757.333 375.625 756.958 375.917 756.5 376.125C756.083 376.375 755.604 376.542 755.062 376.625C754.562 376.75 754.104 376.812 753.688 376.812C752.229 376.812 750.958 376.396 749.875 375.562C748.792 374.729 747.854 373.646 747.062 372.312C746.271 371.021 745.625 369.542 745.125 367.875C744.625 366.167 744.208 364.479 743.875 362.812C743.542 361.104 743.292 359.479 743.125 357.938C742.958 356.354 742.833 355 742.75 353.875C742.375 350 742.104 346.062 741.938 342.062C741.812 338.062 741.75 334.104 741.75 330.188C741.75 319.479 742.125 308.875 742.875 298.375C742.875 298.208 742.875 298.021 742.875 297.812C742.917 297.604 742.938 297.396 742.938 297.188C742.979 296.312 743.021 295.312 743.062 294.188C743.104 293.021 743.167 291.875 743.25 290.75C743.333 289.625 743.417 288.604 743.5 287.688C743.625 286.729 743.771 286.062 743.938 285.688V285.75C744.104 285.167 744.333 284.729 744.625 284.438C744.917 284.146 745.417 284 746.125 284C747.625 284 748.896 284.5 749.938 285.5C750.979 286.5 751.5 287.75 751.5 289.25C751.5 289.583 751.479 289.917 751.438 290.25C751.438 290.542 751.417 290.833 751.375 291.125C751.333 291.417 751.292 291.708 751.25 292C751.25 292.25 751.25 292.479 751.25 292.688C751.125 294.312 751.021 295.938 750.938 297.562C750.896 299.146 750.833 300.75 750.75 302.375C750.542 305.958 750.375 309.542 750.25 313.125C750.167 316.667 750.125 320.25 750.125 323.875C750.125 325.417 750.146 327.438 750.188 329.938C750.229 332.438 750.312 335.167 750.438 338.125C750.562 341.042 750.729 344.062 750.938 347.188C751.188 350.312 751.5 353.292 751.875 356.125C752.25 358.958 752.688 361.521 753.188 363.812C753.729 366.104 754.354 367.875 755.062 369.125C755.438 369.292 755.792 369.562 756.125 369.938C756.5 370.271 756.812 370.667 757.062 371.125C757.354 371.542 757.583 371.979 757.75 372.438C757.958 372.938 758.062 373.396 758.062 373.812ZM783.25 360.562C783.25 361.812 782.896 363.104 782.188 364.438C781.521 365.771 780.646 367 779.562 368.125C778.479 369.208 777.229 370.104 775.812 370.812C774.438 371.521 773.062 371.875 771.688 371.875C769.729 371.875 768.042 371.5 766.625 370.75C765.208 369.958 763.979 368.917 762.938 367.625C761.896 366.292 761.042 364.792 760.375 363.125C759.75 361.458 759.25 359.75 758.875 358C758.5 356.208 758.229 354.438 758.062 352.688C757.938 350.896 757.875 349.271 757.875 347.812C757.875 346.562 757.938 345.083 758.062 343.375C758.229 341.667 758.479 339.896 758.812 338.062C759.188 336.229 759.688 334.417 760.312 332.625C760.938 330.833 761.708 329.229 762.625 327.812C763.583 326.396 764.708 325.25 766 324.375C767.333 323.5 768.854 323.062 770.562 323.062C771.896 323.062 773.083 323.333 774.125 323.875C775.208 324.417 776.104 325.146 776.812 326.062C777.562 326.938 778.125 327.958 778.5 329.125C778.917 330.292 779.125 331.5 779.125 332.75C779.125 334.375 778.75 336.146 778 338.062C777.25 339.979 776.271 341.833 775.062 343.625C773.896 345.417 772.562 347.042 771.062 348.5C769.604 349.917 768.146 351 766.688 351.75C766.771 352.5 766.938 353.604 767.188 355.062C767.438 356.479 767.771 357.896 768.188 359.312C768.646 360.729 769.167 361.958 769.75 363C770.375 364.042 771.104 364.562 771.938 364.562C772.354 364.562 772.708 364.438 773 364.188C773.333 363.938 773.625 363.604 773.875 363.188C774.125 362.771 774.333 362.312 774.5 361.812C774.708 361.312 774.896 360.833 775.062 360.375L775.438 359.5C775.521 359.375 775.562 359.292 775.562 359.25C775.604 359.208 775.646 359.146 775.688 359.062C775.979 358.521 776.25 358.021 776.5 357.562C776.792 357.104 777.188 356.708 777.688 356.375H777.625C777.792 356.208 777.958 356.125 778.125 356.125C778.333 356.083 778.521 356.062 778.688 356.062C779.146 356.062 779.646 356.208 780.188 356.5C780.729 356.792 781.229 357.167 781.688 357.625C782.146 358.042 782.521 358.521 782.812 359.062C783.104 359.562 783.25 360.062 783.25 360.562ZM770.875 333C770.875 332.583 770.854 332.146 770.812 331.688C770.771 331.229 770.667 330.833 770.5 330.5C769.917 331.208 769.396 332.062 768.938 333.062C768.521 334.021 768.167 335.042 767.875 336.125C767.583 337.167 767.333 338.229 767.125 339.312C766.958 340.396 766.833 341.396 766.75 342.312C767.833 341.021 768.792 339.562 769.625 337.938C770.458 336.271 770.875 334.625 770.875 333ZM831.5 371.188C831.5 372.021 831.292 372.583 830.875 372.875C830.458 373.208 829.875 373.375 829.125 373.375C827.167 373.375 825.75 372.854 824.875 371.812C824.042 370.771 823.417 369.396 823 367.688C822.875 367.104 822.75 366.521 822.625 365.938C822.5 365.312 822.396 364.708 822.312 364.125C822.229 363.583 822.146 363.208 822.062 363C821.979 362.792 821.896 362.396 821.812 361.812C821.312 363.021 820.688 364.292 819.938 365.625C819.229 366.917 818.396 368.125 817.438 369.25C816.479 370.333 815.396 371.229 814.188 371.938C813.021 372.646 811.729 373 810.312 373C808.812 373 807.562 372.646 806.562 371.938C805.562 371.188 804.771 370.271 804.188 369.188C803.646 368.062 803.25 366.833 803 365.5C802.792 364.167 802.688 362.896 802.688 361.688C802.688 358.854 802.958 355.792 803.5 352.5C804.083 349.167 804.875 345.854 805.875 342.562C806.875 339.229 808.042 336.042 809.375 333C810.708 329.917 812.167 327.229 813.75 324.938V325L814.125 324.438C814.583 323.812 815.104 323.146 815.688 322.438C816.312 321.688 817.042 321.312 817.875 321.312C818.667 321.312 819.354 321.667 819.938 322.375C820.521 323.042 820.938 323.75 821.188 324.5C822.271 324.708 823.146 324.979 823.812 325.312C824.479 325.604 825 325.979 825.375 326.438C825.75 326.896 826 327.438 826.125 328.062C826.25 328.646 826.312 329.292 826.312 330C826.312 330.292 826.312 330.604 826.312 330.938C826.312 331.271 826.292 331.604 826.25 331.938C826.208 332.271 826.188 332.667 826.188 333.125C826.188 333.583 826.188 334 826.188 334.375C826.188 334.792 826.25 335.333 826.375 336C826.542 336.667 826.708 337.354 826.875 338.062L827.312 340.375C827.521 341.583 827.688 342.958 827.812 344.5C827.979 346.042 828.167 347.583 828.375 349.125C828.542 350.708 828.708 352.25 828.875 353.75C829.042 355.208 829.208 356.562 829.375 357.812L830.875 367.062L831.062 368.125C831.146 368.667 831.229 369.167 831.312 369.625C831.438 370.083 831.5 370.604 831.5 371.188ZM817.188 335.25C817.188 335.167 817.167 335.042 817.125 334.875C817.083 334.667 817.042 334.458 817 334.25C816.042 336.292 815.188 338.521 814.438 340.938C813.729 343.312 813.125 345.75 812.625 348.25C812.167 350.708 811.812 353.188 811.562 355.688C811.354 358.146 811.25 360.479 811.25 362.688C811.25 362.896 811.25 363.083 811.25 363.25C811.25 363.417 811.271 363.583 811.312 363.75V363.812C812.312 362.271 813.167 360.25 813.875 357.75C814.625 355.208 815.25 352.562 815.75 349.812C816.25 347.021 816.604 344.333 816.812 341.75C817.062 339.125 817.188 336.958 817.188 335.25ZM867.375 356.5C867.375 356.917 867.25 357.417 867 358C866.792 358.542 866.5 359.125 866.125 359.75C865.792 360.333 865.417 360.938 865 361.562C864.583 362.188 864.188 362.75 863.812 363.25L862.875 364.562L861.938 366.188L861.125 367.688C861.167 368.521 861.229 369.417 861.312 370.375C861.396 371.333 861.479 372.25 861.562 373.125C862.021 377.417 862.417 381.792 862.75 386.25C863.125 390.708 863.312 395.083 863.312 399.375C863.312 401.667 863.125 403.979 862.75 406.312C862.375 408.688 861.667 410.812 860.625 412.688C859.625 414.604 858.229 416.167 856.438 417.375C854.646 418.583 852.354 419.188 849.562 419.188C847.646 419.188 846.021 418.833 844.688 418.125C843.354 417.417 842.271 416.458 841.438 415.25C840.646 414.083 840.062 412.708 839.688 411.125C839.312 409.542 839.125 407.896 839.125 406.188C839.125 402.812 839.521 399.396 840.312 395.938C841.104 392.479 842.125 389.062 843.375 385.688C844.667 382.312 846.125 379 847.75 375.75C849.375 372.542 851.021 369.458 852.688 366.5C852.688 366.417 852.688 366.333 852.688 366.25C852.688 366.125 852.667 365.938 852.625 365.688C852.083 366.688 851.458 367.729 850.75 368.812C850.083 369.854 849.312 370.792 848.438 371.625C847.604 372.458 846.667 373.146 845.625 373.688C844.625 374.229 843.5 374.5 842.25 374.5C840.5 374.5 839.042 374.083 837.875 373.25C836.708 372.417 835.771 371.354 835.062 370.062C834.396 368.771 833.917 367.354 833.625 365.812C833.333 364.271 833.188 362.812 833.188 361.438C833.188 359.854 833.271 358.292 833.438 356.75C833.646 355.208 833.875 353.708 834.125 352.25C834.542 349.917 835.062 347.396 835.688 344.688C836.354 341.938 837.167 339.229 838.125 336.562C839.083 333.854 840.188 331.312 841.438 328.938C842.729 326.562 844.229 324.542 845.938 322.875L846.438 322.438C846.979 321.896 847.604 321.375 848.312 320.875C849.021 320.333 849.75 320.062 850.5 320.062C850.958 320.062 851.354 320.188 851.688 320.438C852.062 320.688 852.375 321.021 852.625 321.438C852.875 321.812 853.062 322.229 853.188 322.688C853.354 323.146 853.438 323.583 853.438 324C853.438 324.5 853.25 325.042 852.875 325.625H853C855.542 325.625 857.25 326.792 858.125 329.125C858.583 329.542 858.917 330.042 859.125 330.625C859.375 331.208 859.5 331.833 859.5 332.5C859.5 332.833 859.479 333.208 859.438 333.625C859.396 334 859.333 334.354 859.25 334.688C859.167 335.062 859.104 335.417 859.062 335.75C859.021 336.083 859 336.396 859 336.688C859 337.646 859.021 338.833 859.062 340.25C859.104 341.667 859.167 343.146 859.25 344.688C859.333 346.229 859.417 347.75 859.5 349.25C859.625 350.708 859.729 351.979 859.812 353.062C860.104 352.688 860.438 352.354 860.812 352.062C861.229 351.771 861.708 351.625 862.25 351.625C862.708 351.625 863.229 351.792 863.812 352.125C864.438 352.458 865 352.875 865.5 353.375C866.042 353.875 866.479 354.417 866.812 355C867.188 355.542 867.375 356.042 867.375 356.5ZM850.188 330.75C850.188 330.5 850.188 330.229 850.188 329.938C850.229 329.646 850.292 329.333 850.375 329L849.938 329.562C849.604 329.938 849.292 330.292 849 330.625C848.708 330.958 848.438 331.312 848.188 331.688C847.104 333.271 846.146 335.333 845.312 337.875C844.521 340.375 843.854 343.021 843.312 345.812C842.771 348.562 842.354 351.271 842.062 353.938C841.812 356.604 841.688 358.896 841.688 360.812C841.688 361.771 841.708 362.729 841.75 363.688C841.792 364.646 842 365.583 842.375 366.5C842.958 365.875 843.438 365.208 843.812 364.5C844.188 363.75 844.542 362.979 844.875 362.188C845.792 360.146 846.583 357.771 847.25 355.062C847.917 352.354 848.458 349.562 848.875 346.688C849.292 343.812 849.604 341 849.812 338.25C850.021 335.458 850.146 332.958 850.188 330.75ZM854.938 397.5C854.938 394.667 854.875 392 854.75 389.5C854.625 387.042 854.438 384.396 854.188 381.562C853.438 383.354 852.667 385.271 851.875 387.312C851.125 389.396 850.458 391.479 849.875 393.562C849.292 395.688 848.812 397.792 848.438 399.875C848.062 401.958 847.875 403.938 847.875 405.812V406.25C847.875 407.208 847.938 408.229 848.062 409.312C848.188 410.438 848.583 411.354 849.25 412.062H849.938C850.771 412.062 851.458 411.771 852 411.188C852.583 410.646 853.062 409.938 853.438 409.062C853.812 408.188 854.104 407.208 854.312 406.125C854.521 405.042 854.667 403.958 854.75 402.875C854.833 401.792 854.875 400.771 854.875 399.812C854.917 398.854 854.938 398.083 854.938 397.5ZM895.625 371.188C895.625 372.021 895.417 372.583 895 372.875C894.583 373.208 894 373.375 893.25 373.375C891.292 373.375 889.875 372.854 889 371.812C888.167 370.771 887.542 369.396 887.125 367.688C887 367.104 886.875 366.521 886.75 365.938C886.625 365.312 886.521 364.708 886.438 364.125C886.354 363.583 886.271 363.208 886.188 363C886.104 362.792 886.021 362.396 885.938 361.812C885.438 363.021 884.812 364.292 884.062 365.625C883.354 366.917 882.521 368.125 881.562 369.25C880.604 370.333 879.521 371.229 878.312 371.938C877.146 372.646 875.854 373 874.438 373C872.938 373 871.688 372.646 870.688 371.938C869.688 371.188 868.896 370.271 868.312 369.188C867.771 368.062 867.375 366.833 867.125 365.5C866.917 364.167 866.812 362.896 866.812 361.688C866.812 358.854 867.083 355.792 867.625 352.5C868.208 349.167 869 345.854 870 342.562C871 339.229 872.167 336.042 873.5 333C874.833 329.917 876.292 327.229 877.875 324.938V325L878.25 324.438C878.708 323.812 879.229 323.146 879.812 322.438C880.438 321.688 881.167 321.312 882 321.312C882.792 321.312 883.479 321.667 884.062 322.375C884.646 323.042 885.062 323.75 885.312 324.5C886.396 324.708 887.271 324.979 887.938 325.312C888.604 325.604 889.125 325.979 889.5 326.438C889.875 326.896 890.125 327.438 890.25 328.062C890.375 328.646 890.438 329.292 890.438 330C890.438 330.292 890.438 330.604 890.438 330.938C890.438 331.271 890.417 331.604 890.375 331.938C890.333 332.271 890.312 332.667 890.312 333.125C890.312 333.583 890.312 334 890.312 334.375C890.312 334.792 890.375 335.333 890.5 336C890.667 336.667 890.833 337.354 891 338.062L891.438 340.375C891.646 341.583 891.812 342.958 891.938 344.5C892.104 346.042 892.292 347.583 892.5 349.125C892.667 350.708 892.833 352.25 893 353.75C893.167 355.208 893.333 356.562 893.5 357.812L895 367.062L895.188 368.125C895.271 368.667 895.354 369.167 895.438 369.625C895.562 370.083 895.625 370.604 895.625 371.188ZM881.312 335.25C881.312 335.167 881.292 335.042 881.25 334.875C881.208 334.667 881.167 334.458 881.125 334.25C880.167 336.292 879.312 338.521 878.562 340.938C877.854 343.312 877.25 345.75 876.75 348.25C876.292 350.708 875.938 353.188 875.688 355.688C875.479 358.146 875.375 360.479 875.375 362.688C875.375 362.896 875.375 363.083 875.375 363.25C875.375 363.417 875.396 363.583 875.438 363.75V363.812C876.438 362.271 877.292 360.25 878 357.75C878.75 355.208 879.375 352.562 879.875 349.812C880.375 347.021 880.729 344.333 880.938 341.75C881.188 339.125 881.312 336.958 881.312 335.25ZM907.625 319.438C907.625 320.146 907.458 320.667 907.125 321C906.833 321.292 906.271 321.438 905.438 321.438C905.062 321.438 904.479 321.396 903.688 321.312C902.896 321.188 902.083 321.021 901.25 320.812C900.458 320.604 899.75 320.312 899.125 319.938C898.542 319.562 898.25 319.104 898.25 318.562C898.25 318.396 898.312 317.938 898.438 317.188C898.562 316.396 898.708 315.562 898.875 314.688C899.083 313.812 899.25 313.021 899.375 312.312C899.542 311.604 899.667 311.208 899.75 311.125V311.188C899.958 310.854 900.208 310.646 900.5 310.562C900.792 310.479 901.083 310.438 901.375 310.438C901.75 310.438 902.229 310.5 902.812 310.625C903.438 310.708 904.042 310.854 904.625 311.062C905.25 311.229 905.812 311.458 906.312 311.75C906.812 312.042 907.125 312.354 907.25 312.688C907.375 313.021 907.438 313.479 907.438 314.062C907.479 314.604 907.479 315.104 907.438 315.562C907.438 315.729 907.417 315.938 907.375 316.188C907.375 316.396 907.375 316.562 907.375 316.688C907.375 316.896 907.375 317.104 907.375 317.312C907.417 317.521 907.458 317.729 907.5 317.938C907.542 318.146 907.562 318.375 907.562 318.625C907.604 318.875 907.625 319.146 907.625 319.438ZM909.938 369.25C909.938 370.208 909.708 370.896 909.25 371.312C908.833 371.688 908.146 371.875 907.188 371.875C906.688 371.875 906.125 371.812 905.5 371.688C904.917 371.562 904.333 371.396 903.75 371.188C903.167 370.938 902.625 370.646 902.125 370.312C901.625 369.979 901.25 369.604 901 369.188C900.833 368.938 900.688 368.167 900.562 366.875C900.438 365.583 900.333 363.979 900.25 362.062C900.208 360.146 900.146 358 900.062 355.625C900.021 353.25 899.979 350.854 899.938 348.438C899.938 346.021 899.938 343.667 899.938 341.375C899.938 339.083 899.938 337.083 899.938 335.375V330.562C899.938 330.146 899.938 329.729 899.938 329.312C899.979 328.896 900.062 328.542 900.188 328.25C900.354 327.917 900.583 327.646 900.875 327.438C901.208 327.229 901.667 327.125 902.25 327.125C904.083 327.125 905.417 327.646 906.25 328.688C907.125 329.688 907.667 331.042 907.875 332.75C908.083 335.292 908.229 337.833 908.312 340.375C908.438 342.875 908.542 345.417 908.625 348C908.708 350.333 908.771 352.646 908.812 354.938C908.896 357.188 909.042 359.438 909.25 361.688C909.292 362.146 909.333 362.583 909.375 363C909.417 363.417 909.479 363.833 909.562 364.25C909.646 365.083 909.729 365.917 909.812 366.75C909.896 367.542 909.938 368.375 909.938 369.25ZM925.875 371.688C925.875 372.646 925.583 373.271 925 373.562C924.458 373.854 923.792 374 923 374C922.292 374 921.583 373.938 920.875 373.812C920.208 373.729 919.562 373.542 918.938 373.25C918.354 372.958 917.833 372.562 917.375 372.062C916.958 371.562 916.667 370.917 916.5 370.125C915.917 367.625 915.583 365.188 915.5 362.812C915.417 360.396 915.375 357.917 915.375 355.375V347.688C915.375 344.188 915.521 340.562 915.812 336.812C916.104 333.021 916.417 329.375 916.75 325.875C916.75 325.75 916.771 325.604 916.812 325.438C916.854 325.271 916.875 325.146 916.875 325.062C916.917 324.604 916.979 324.104 917.062 323.562C917.146 323.021 917.271 322.542 917.438 322.125C917.646 321.667 917.917 321.292 918.25 321C918.625 320.708 919.104 320.562 919.688 320.562C920.354 320.562 920.979 320.708 921.562 321C922.188 321.25 922.729 321.604 923.188 322.062C923.646 322.479 924 323 924.25 323.625C924.542 324.25 924.688 324.896 924.688 325.562C924.688 326.271 924.667 327.062 924.625 327.938C924.583 328.771 924.521 329.562 924.438 330.312C924.438 330.521 924.417 330.75 924.375 331C924.375 331.25 924.354 331.479 924.312 331.688C924.896 330.521 925.562 329.312 926.312 328.062C927.062 326.771 927.917 325.604 928.875 324.562C929.875 323.479 930.958 322.604 932.125 321.938C933.333 321.271 934.667 320.938 936.125 320.938C937.333 320.938 938.333 321.125 939.125 321.5C939.917 321.875 940.542 322.417 941 323.125C941.5 323.792 941.833 324.583 942 325.5C942.208 326.417 942.312 327.396 942.312 328.438C942.312 329.854 942.271 331.292 942.188 332.75C942.104 334.167 942.021 335.583 941.938 337C941.812 338.458 941.708 339.896 941.625 341.312C941.542 342.729 941.5 344.167 941.5 345.625C941.5 347.375 941.542 349.188 941.625 351.062C941.708 352.896 941.833 354.667 942 356.375C942.167 358.042 942.354 359.562 942.562 360.938C942.771 362.271 942.979 363.312 943.188 364.062C943.354 364.688 943.521 365.417 943.688 366.25C943.896 367.042 944.083 367.875 944.25 368.75C944.458 369.583 944.625 370.396 944.75 371.188C944.875 371.979 944.938 372.688 944.938 373.312C944.938 374.229 944.562 374.812 943.812 375.062C943.104 375.312 942.396 375.438 941.688 375.438C940.979 375.438 940.167 375.375 939.25 375.25C938.375 375.167 937.583 374.938 936.875 374.562C936 373.938 935.417 373.062 935.125 371.938C934.875 370.812 934.708 369.708 934.625 368.625L934.438 366.938C934.312 365.938 934.146 364.625 933.938 363C933.729 361.375 933.521 359.583 933.312 357.625C933.146 355.667 933 353.646 932.875 351.562C932.75 349.438 932.688 347.375 932.688 345.375C932.688 343.583 932.75 341.854 932.875 340.188C933.042 338.521 933.208 336.833 933.375 335.125C933.458 334.25 933.521 333.542 933.562 333C933.604 332.458 933.667 331.75 933.75 330.875C932.917 332.208 932.083 333.771 931.25 335.562C930.417 337.354 929.625 339.229 928.875 341.188C928.125 343.104 927.438 344.979 926.812 346.812C926.229 348.646 925.771 350.25 925.438 351.625L925.062 353C924.854 353.667 924.667 354.333 924.5 355C924.375 355.667 924.312 356.292 924.312 356.875C924.312 357.625 924.354 358.5 924.438 359.5C924.521 360.458 924.625 361.375 924.75 362.25C924.875 363.292 925.021 364.354 925.188 365.438C925.188 365.521 925.229 365.792 925.312 366.25C925.396 366.708 925.479 367.25 925.562 367.875C925.646 368.5 925.708 369.167 925.75 369.875C925.833 370.542 925.875 371.146 925.875 371.688Z" fill="#AF52DE"/>
<path d="M59 121C43.75 121 29.1247 114.942 18.3414 104.159C7.55802 93.3753 1.5 78.7499 1.5 63.5C1.5 48.2501 7.55802 33.6247 18.3414 22.8414C29.1247 12.058 43.7501 6 59 6L178.5 6V35.054H59C51.4557 35.054 44.2203 38.051 38.8856 43.3856C33.551 48.7203 30.554 55.9557 30.554 63.5C30.554 71.0443 33.551 78.2797 38.8856 83.6144C44.2203 88.949 51.4557 91.946 59 91.946H109V121H59Z" fill="#FD801A"/>
<path d="M1163.98 117.887C1148.73 117.887 1134.11 111.829 1123.32 101.045C1112.54 90.262 1106.48 75.6367 1106.48 60.3867C1106.48 45.1368 1112.54 30.5114 1123.32 19.7281C1134.11 8.94474 1148.73 2.88672 1163.98 2.88672L1339.48 2.88672V31.9407H1163.98C1156.44 31.9407 1149.2 34.9377 1143.87 40.2724C1138.53 45.607 1135.54 52.8424 1135.54 60.3867C1135.54 67.9311 1138.53 75.1664 1143.87 80.5011C1149.2 85.8357 1156.44 88.8327 1163.98 88.8327H1237.98V117.887H1163.98Z" fill="#FD801A"/>
<path d="M123.5 91.9999C138.75 91.9999 153.375 98.0579 164.159 108.841C174.942 119.625 181 134.25 181 149.5C181 164.75 174.942 179.375 164.159 190.159C153.375 200.942 138.75 207 123.5 207L0 207L2.53999e-06 177.946L123.5 177.946C131.044 177.946 138.28 174.949 143.614 169.614C148.949 164.28 151.946 157.044 151.946 149.5C151.946 141.956 148.949 134.72 143.614 129.386C138.28 124.051 131.044 121.054 123.5 121.054L83 121.054L83 91.9999L123.5 91.9999Z" fill="#FD801A"/>
<path d="M1281.98 88.8867C1297.23 88.8867 1311.86 94.9447 1322.64 105.728C1333.42 116.511 1339.48 131.137 1339.48 146.387C1339.48 161.637 1333.42 176.262 1322.64 187.045C1311.86 197.829 1297.23 203.887 1281.98 203.887L1106.48 203.887L1106.48 174.833L1281.98 174.833C1289.53 174.833 1296.76 171.836 1302.1 166.501C1307.43 161.166 1310.43 153.931 1310.43 146.387C1310.43 138.842 1307.43 131.607 1302.1 126.272C1296.76 120.938 1289.53 117.941 1281.98 117.941L1189.48 117.941L1189.48 88.8867L1281.98 88.8867Z" fill="#FD801A"/>
<path d="M1006.91 203.448C1022.16 203.417 1039.23 197.337 1049.99 186.559C1060.76 175.781 1066.78 161.18 1066.75 145.967L1066.48 0.0571015L1037.7 0.0571056L1037.7 146.025C1037.72 153.551 1034.73 160.774 1029.41 166.107C1024.08 171.439 1016.86 174.443 1009.31 174.458C982.411 174.511 963.907 174.458 953.407 174.458C953.407 185.944 953.405 189.911 953.405 203.45C963.905 203.449 990.654 203.48 1006.91 203.448Z" fill="#FD801A"/>
<path d="M792 5.00098C807.25 5.00098 821.875 11.0591 832.659 21.8424C843.442 32.6258 849.5 47.2513 849.5 62.5012C849.5 77.7512 843.442 92.3767 832.659 103.16C821.875 113.943 807.25 120.001 792 120.001L696 120.001L696 209.502L667 209.502L667 90.9474L752.5 90.9474L792 90.9474C799.544 90.9474 806.78 87.9504 812.114 82.6158C817.449 77.2811 820.446 70.0456 820.446 62.5012C820.446 54.9569 817.449 47.7214 812.114 42.3868C806.78 37.0521 799.544 34.0551 792 34.0551L667 34.0551L667 5.00098L792 5.00098Z" fill="#FD801A"/>
<rect x="320" y="28" width="181" height="29" transform="rotate(90 320 28)" fill="#FD801A"/>
<rect x="215" y="6" width="182" height="29" fill="#FD801A"/>
<rect x="431" y="5" width="182" height="29" fill="#FD801A"/>
<rect x="431" y="92" width="182" height="29" fill="#FD801A"/>
<rect x="431" y="180" width="182" height="29" fill="#FD801A"/>
<circle cx="881" cy="175" r="32" fill="#AF52DE"/>
</svg>
