<svg width="1024" height="2048" viewBox="0 0 1024 2048" fill="none" xmlns="http://www.w3.org/2000/svg">
<path d="M78.4102 1788.78C79.274 1777.05 88.9043 1741.92 92.2201 1729.22C117.641 1631.72 150.45 1536.3 190.361 1443.79C193.321 1436.94 205.427 1405.09 211.483 1404.99C212.392 1407.53 211.787 1408.62 211.051 1411.25C230.539 1419.13 258.671 1429.01 278.823 1435.57C281.04 1430.95 280.064 1431.37 283.804 1428.7L285.489 1428.93C286.427 1432.45 286.116 1431.5 284.876 1435.41C298.502 1440.99 312.671 1445.11 325.737 1450.4C327.627 1446.32 326.794 1446.6 330.048 1444.31L331.622 1444.95C332.588 1447.43 332.617 1447.75 332.335 1450.39C335.755 1453.37 374.569 1465.61 379.842 1466.71C381.839 1462.97 380.892 1463.51 384.184 1461.55L386 1462.36C387.111 1466.02 386.698 1465.18 385.645 1469.34C388.785 1472.37 407.987 1478.74 413.745 1480.96C415.02 1477.03 415.277 1474.66 419.437 1473.33C421.306 1476.27 418.971 1481.65 417.612 1484.96C407.1 1510.55 397.746 1535.92 388.532 1561.99C372.755 1606.79 358.574 1652.14 346.016 1697.95C338.482 1724.63 329.111 1758.37 324.035 1785.7C347.824 1814.53 375.388 1841.78 398.574 1871.31C400.287 1873.49 401.653 1875.26 400.985 1877.9C395.192 1880.13 326.221 1862.82 312.733 1861.81C294.345 1891.45 276.139 1921.2 258.117 1951.07C250.344 1963.95 235.588 1990.1 227.232 2001.43C215.041 1991.25 200.752 1973.36 188.099 1961.72C191.752 1919.48 195.687 1877.26 199.902 1835.07C168.838 1832.77 136.737 1832.39 105.415 1830.75C97.0543 1816.02 87.0312 1803.2 78.4102 1788.78Z" fill="#020302"/>
<path d="M102.427 1788.44C122.144 1782.77 205.786 1758.66 221.128 1752.02C222.736 1751.32 255.079 1646.24 259.109 1634.48C275.573 1586.92 293.398 1539.85 312.562 1493.32C316.028 1484.96 327.5 1457.1 332.335 1450.39C335.755 1453.37 374.569 1465.61 379.842 1466.71C376.208 1478.69 368.763 1496.91 364.23 1509.22C354.019 1536.62 344.196 1564.17 334.763 1591.85C321.809 1629.63 309.86 1667.74 298.931 1706.15C292.712 1727.94 287.335 1749.92 281.115 1771.62C306.366 1796.57 331.058 1821.85 356.522 1846.65C331.099 1838.78 305.572 1831.24 279.95 1824.04L194.063 1953.99C198.052 1904.84 204.14 1855.11 207.388 1805.91C173.34 1799.94 136.499 1793.12 102.427 1788.44Z" fill="#EF6E63"/>
<path d="M211.051 1411.25C230.539 1419.13 258.671 1429.01 278.823 1435.57C235.241 1530.23 205.642 1624.06 176.935 1723.7C146.628 1742.78 115.863 1763.57 85.1133 1781.68C88.8952 1761.94 95.0668 1739.95 100.2 1720.2C119.363 1647.51 142.804 1576.02 170.398 1506.09C181.098 1478.67 197.468 1437.32 211.051 1411.25Z" fill="#B6D2B2"/>
<path d="M284.876 1435.41C298.502 1440.99 312.671 1445.11 325.737 1450.4C313.634 1474.68 301.37 1506.04 291.389 1531.56C270.25 1585.23 251.114 1639.67 234.024 1694.76C228.531 1712.24 223.869 1729.93 218.485 1747.47C208.925 1751.63 176.924 1761.22 166.091 1764.15C140.667 1771.05 111.303 1781.37 86.3291 1787.34C118.361 1767.85 150.015 1747.75 181.273 1727.05C208.725 1630.33 242.274 1526.28 284.876 1435.41Z" fill="#FCCE6B"/>
<path d="M385.645 1469.34C388.785 1472.37 407.987 1478.74 413.745 1480.96C383.226 1551.39 360.818 1627.89 339.496 1701.62C336.361 1712.46 316.942 1784.13 318.659 1789.67C317.067 1792.3 314.302 1793.2 311.5 1794.49C303.173 1786.51 294.999 1778.37 286.982 1770.08C308.381 1687.32 334.058 1605.74 363.912 1525.64C367.321 1516.31 381.721 1475.9 385.645 1469.34Z" fill="#B6D2B2"/>
<path d="M282.698 1830.22C293.66 1833.45 358.86 1853.97 364.395 1851.81L365.599 1849.14L369.035 1844.81C376.321 1853.36 384.519 1863.47 391.977 1871.68C367.947 1867.66 344.025 1861.74 320.086 1857.14C316.917 1856.53 313.843 1855.84 310.768 1854.85C281.681 1899.64 254.872 1948.56 226.188 1993.4C217.411 1984.25 204.135 1971.22 196.271 1961.85C199.271 1954.5 223.193 1918.97 229.512 1909.85C247.23 1884.29 264.691 1855.04 282.698 1830.22Z" fill="#B6D2B2"/>
<path d="M318.659 1789.67C325.753 1793.65 361.13 1835.83 369.035 1844.81L365.599 1849.14C361.924 1844.37 350.602 1833.35 346.092 1828.88C334.481 1817.5 322.95 1806.04 311.5 1794.49C314.302 1793.2 317.067 1792.3 318.659 1789.67Z" fill="#9CC9B0"/>
<path d="M86.4854 1791.81C95.1557 1792.32 104.537 1793.92 113.133 1795.43C142.659 1800.6 172.813 1804.52 202.152 1810.61C201.743 1816.69 201.284 1822.76 200.775 1828.83C197.086 1830.1 116.698 1825.88 108.568 1824.93C101.306 1813.83 93.9456 1802.78 86.4854 1791.81Z" fill="#B6D2B2"/>
<path d="M789.403 190.271C778.801 186.746 690.441 160.295 687.614 157.237C689.569 151.017 720.131 139.364 727.148 136.094L816.055 94.9824L880.045 65.0786C890.218 60.2993 906.93 51.7609 917.103 48.3789C919.149 64.2711 920.434 80.5195 921.997 96.5035C928.429 162.273 935.714 227.988 944.101 293.536C944.472 296.439 944.592 300.558 943.449 303.246C937.81 303.578 879.954 256.206 871.54 249.364C849.579 297.905 829.733 354.056 813.651 404.799C809.262 418.608 805.092 432.486 801.143 446.427C799.205 453.367 790.572 488.783 788.713 491.805L786.628 492.492L784.73 491.163C780.483 488.515 747.442 487.108 740.915 487.016L739.399 491.154C736.9 493.204 737.893 493.025 735.351 492.829C733.724 489.598 734.305 490.302 735.183 485.959C720.913 483.893 696.147 483.007 680.989 482.068C679.315 486.078 678.992 487.56 675.604 489.583L674.103 488.999C673.448 484.774 673.947 485.441 675.702 480.903C666.917 480.35 637.566 477.961 630.115 479.609C627.667 481.546 628.677 481.342 626.138 481.129C624.172 474.815 636.736 453.43 639.977 447.04C648.271 430.511 656.69 414.044 665.232 397.643C693.329 344.193 723.727 291.987 756.343 241.169C765.631 226.637 779.54 203.538 789.403 190.271Z" fill="#FCCE6B"/>
<path d="M680.989 482.068C706.51 419.509 735.349 358.355 767.383 298.868C798.842 239.524 831.048 182.105 868.742 126.382C877.478 113.468 887.342 101.349 895.909 88.6343C899.375 124.105 903.274 159.532 907.605 194.907C909.154 207.797 913.985 239.91 914.289 251.876C903.776 244.023 893.553 235.79 883.64 227.194C876.744 221.26 867.413 212.604 860.105 207.662C829.297 262.068 796.166 333.217 772.41 391.17C763.798 412.353 755.424 433.631 747.291 455.002C745.295 460.255 737.022 483.057 735.183 485.959C720.913 483.893 696.147 483.007 680.989 482.068Z" fill="#EF6E63"/>
<path d="M789.403 190.271C778.801 186.746 690.441 160.295 687.614 157.237C689.569 151.017 720.131 139.364 727.148 136.094L816.055 94.9824L880.045 65.0786C890.218 60.2993 906.93 51.7609 917.103 48.3789C919.149 64.2711 920.434 80.5195 921.997 96.5035C928.429 162.273 935.714 227.988 944.101 293.536C944.472 296.439 944.592 300.558 943.449 303.246C937.81 303.578 879.954 256.206 871.54 249.364C849.579 297.905 829.733 354.056 813.651 404.799C809.262 418.608 805.092 432.486 801.143 446.427C799.205 453.367 790.572 488.783 788.713 491.805L786.628 492.492L784.73 491.163C785.079 484.14 792.463 457.749 794.564 450.287C809.402 397.946 826.777 346.359 846.629 295.707C853.379 278.572 861.613 256.992 869.745 240.806C893.011 259.685 914.757 276.699 938.718 294.886C933.085 259.12 928.777 216.256 924.973 180.126C920.431 138.794 916.331 97.4144 912.674 55.9946C907.445 57.7682 895.289 63.9579 889.829 66.5207L845.74 87.0321L696.497 156.007C711.745 161.618 785.374 181.265 794.488 187.233C795.439 192.625 778.92 215.467 775.039 221.499C762.64 240.807 750.392 260.212 738.297 279.712C710.964 324.312 685.295 369.91 661.344 416.413C651.134 436.157 638.804 459.373 630.115 479.609C627.667 481.546 628.677 481.342 626.138 481.129C624.172 474.815 636.736 453.43 639.977 447.04C648.271 430.511 656.69 414.044 665.232 397.643C693.329 344.193 723.727 291.987 756.343 241.169C765.631 226.637 779.54 203.538 789.403 190.271Z" fill="#020302"/>
<path d="M675.702 480.903C726.454 357.532 793.012 231.006 866.958 119.765C871.531 112.887 891.515 83.5868 897.054 80.251C901.238 81.9596 902.7 90.263 902.353 93.8796C900.157 116.77 923.836 244.135 918.643 257.742L916.72 259.235C906.853 256.687 872.426 223.269 861.481 215.38C813.064 304.838 776.136 391.791 740.915 487.016L739.399 491.154C736.9 493.204 737.893 493.025 735.351 492.829C733.724 489.598 734.305 490.302 735.183 485.959C737.022 483.057 745.295 460.255 747.291 455.002C755.424 433.631 763.798 412.353 772.41 391.17C796.166 333.217 829.297 262.068 860.105 207.662C867.413 212.604 876.744 221.26 883.64 227.194C893.553 235.79 903.776 244.023 914.289 251.876C913.985 239.91 909.154 207.797 907.605 194.907C903.274 159.532 899.375 124.105 895.909 88.6342C887.342 101.349 877.478 113.468 868.742 126.382C831.048 182.105 798.842 239.524 767.383 298.868C735.349 358.355 706.51 419.509 680.989 482.068C679.315 486.078 678.992 487.56 675.604 489.583L674.103 488.999C673.448 484.774 673.947 485.441 675.702 480.903Z" fill="#020302"/>
<path d="M245.801 1112.84C262.556 1118.66 286.045 1126.1 301.922 1133.13C293.45 1166.06 288.834 1205.35 287.9 1239.4C287.261 1262.7 288.831 1307.11 307.163 1323.72C344.234 1357.31 368.457 1293.28 375.164 1266.2C387.554 1222.04 388.944 1183.19 387.995 1138.81C405.221 1139.36 427.546 1141.71 445.23 1143.03C447.063 1159.03 445.478 1187.82 444.562 1203.75C437.983 1264.52 422.975 1352.48 363.668 1385.67C322.66 1408.62 268.306 1385.72 248.981 1343.72C222.923 1287.1 226.912 1220.72 235.709 1160.34C237.82 1145.67 241.356 1126.59 245.801 1112.84Z" fill="#FCCE6B"/>
<path d="M548.101 1111.42C567.473 1109.21 595.932 1117.87 612.596 1127.98C632.189 1139.71 646.194 1158.88 651.415 1181.11C669.598 1256.07 612.705 1290.8 548.891 1306.25C549.309 1321.3 550.337 1336.63 550.845 1351.75C551.469 1363.12 551.918 1374.49 552.189 1385.87C534.101 1388.35 515.975 1390.54 497.817 1392.43C494.605 1332.41 490.901 1272.42 486.707 1212.46C484.848 1184.99 483.435 1156.15 481.065 1128.87C502.373 1117.66 524.247 1112.69 548.101 1111.42Z" fill="#F4984F"/>
<path d="M560.155 740.141C601.498 738.201 626.919 760.962 635.773 800.467C642.05 828.677 636.707 858.227 620.949 882.454C607.323 903.702 590.981 916.449 566.273 921.885C467.438 930.309 458.646 763.182 560.155 740.141Z" fill="#EF6E63"/>
<path d="M702.973 732.415C755.392 729.111 795.272 776.836 767.392 826.459C754.519 849.371 729.612 859.108 704.996 865.085C705.134 875.06 705.706 885.265 706.152 895.249C705.972 899.366 707.076 911.245 707.044 917.466C697.382 918.567 682.563 921.454 672.885 923.38L663.037 744.209C678.017 737.59 686.716 734.237 702.973 732.415Z" fill="#FCCE6B"/>
<path d="M283.202 732.276C283.854 732.203 284.507 732.146 285.161 732.103C304.077 730.877 323.014 744.907 336.43 756.718C328.709 766.141 320.946 776.27 313.295 785.842C307.263 780.587 287.933 760.687 278.113 776.504C269.839 789.83 301.835 809.912 312.286 820.27C341.074 848.802 342.646 896.924 304.084 918.199C299.354 920.848 294.122 921.871 288.264 923.135C262.168 923.159 246.421 913.168 234.713 889.775L254.156 866.62C262.236 877.082 284.263 892.839 294.723 876.802C307.943 855.193 267.749 832.897 254.705 819.09C226.174 788.888 240.918 738.432 283.202 732.276Z" fill="#FCCE6B"/>
<path d="M706.443 1111.63C725.214 1113.08 750.047 1115.32 768.474 1118.28L757.019 1292.75C756.873 1297.06 756.391 1301.71 756.029 1306.03L707.366 1304.76L707.023 1187.98C706.992 1163.11 707.441 1136.37 706.443 1111.63Z" fill="#EF6E63"/>
<path d="M471.057 736.416C472.473 736.133 472.657 736.329 474.115 736.595C476.443 741.534 476.817 767.909 477.065 774.614C463.667 775.184 450.288 776.135 436.943 777.465C436.89 822.537 441.335 870.322 441.59 915.381C430.561 918.739 418.648 920.978 407.323 923.322C407.409 908.989 406.734 893.115 406.431 878.666C406.643 847.042 405.565 813.355 405.227 781.525C389.193 782.685 375.387 785.423 359.904 789.08L359.392 750.252C396.57 745.29 433.793 740.677 471.057 736.416Z" fill="#EF6E63"/>
<path d="M318.714 546.184L343.628 547.108C338.271 593.541 329.879 643.862 323.484 690.642C301.94 665.738 277.974 630.789 256.661 607.829L254.709 608.037C250.133 612.582 245.029 677.369 243.053 689.753C235.054 688.606 226.611 687.947 218.534 687.199C223.588 643.9 232.046 589.183 238.987 546.117C262.248 572.391 284.296 606.631 307.639 632.781C309.484 624.97 310.883 609.867 311.903 601.5L318.714 546.184Z" fill="#EF6E63"/>
<path d="M718.582 539.2C719.096 539.152 719.61 539.111 720.124 539.075C744.577 537.393 766.462 555.407 768.025 580.419C768.941 595.062 762.376 610.926 750.01 619.071C744.854 622.467 738.206 625.208 734.004 629.847C733.947 634.086 762.227 663.677 767.456 669.674C761.642 676.478 755.692 683.164 749.609 689.729L732.566 666.484C728.498 661.022 718.224 646.317 713.453 642.468L711.909 642.795C707.618 649.049 704.727 680.858 703.574 690.255L678.881 690.125C683.118 649.565 687.965 609.072 693.42 568.657C691.171 563.695 689.226 558.593 687.228 553.523C699.201 545.175 703.987 542.058 718.582 539.2Z" fill="#EF6E63"/>
<path d="M375.745 546.112C398.613 546.292 421.482 546.321 444.351 546.201L440.707 569.985L394.463 569.804C392.759 582.09 391.286 594.633 389.714 606.958C402.033 607.373 414.982 607.023 427.349 606.886L423.67 628.928C415.261 629.027 395.234 627.071 389.62 629.933C384.301 634.884 383.678 654.038 382.627 662.762C382.537 663.106 382.753 664.55 382.805 665.009C386.02 667.586 421.929 666.484 429.799 666.822C428.294 674.633 427.157 682.161 425.987 690.031C402.615 689.574 379.138 690.015 355.753 689.31C360.21 658.706 364.401 628.064 368.324 597.387C369.766 586.259 373.175 555.195 375.745 546.112Z" fill="#EF6E63"/>
<path d="M599.273 546.004L667.688 546.246C667.004 554.089 666.051 561.907 664.832 569.685C649.495 569.232 634.153 568.993 618.81 568.968C617.186 581.536 615.311 594.228 613.527 606.785C623.513 607.465 638.931 607.094 649.318 607.137C648.78 613.981 647.657 621.895 646.849 628.799C606.312 629.315 611.064 621.153 606.706 662.772C606.379 663.692 606.687 664.25 606.896 665.37C610.773 668.125 647.609 666.94 655.553 666.98C654.499 674.749 653.565 682.704 651.732 690.313C630.631 690.984 603.236 689.991 581.479 689.908C581.733 684.832 582.385 680.111 582.975 675.081C588.026 632.056 594.664 589.066 599.273 546.004Z" fill="#EF6E63"/>
<path d="M483.484 548.019C490.584 549.786 498.506 625.096 505.681 632.687H507.887C510.435 629.736 511.566 627.123 513.365 623.69C526.761 598.134 541.352 573.342 554.695 547.732C560.975 553.277 565.975 558.111 571.874 564.071C564.384 578.017 555.42 592.829 547.433 606.613C531.404 635.499 513.484 664.374 497.155 693.382C485.726 647.59 472.195 604.349 460.637 559.328C468.321 555.698 475.938 551.928 483.484 548.019Z" fill="#EF6E63"/>
<path d="M705.013 1708.48C709.473 1712.22 719.38 1743.79 722.103 1751.72C729.49 1753.76 760.745 1760.14 764.127 1763.66L764.044 1765.72C761.85 1768.79 737.903 1788.64 732.93 1793.05C733.24 1801.54 737.788 1833.61 735.023 1837.84C729.813 1838.86 702.362 1820.02 695.557 1815.85C687.389 1817.57 658.903 1834.31 654.644 1831.54C652.97 1825.77 662.148 1795.44 664.09 1786.94C656.267 1777.84 647.535 1769.15 639.879 1759.94C637.804 1757.44 637.823 1756.18 638.285 1753.61C643.234 1749.67 671.08 1748.97 679.657 1748.3C684.745 1739.72 698.899 1715.14 705.013 1708.48Z" fill="#020302"/>
<path d="M703.556 1720.49C706.688 1722.51 715.791 1750.37 717.793 1755.74C729.7 1759.72 743.425 1762.84 755.67 1765.8C747.767 1773.91 735.946 1782.24 726.763 1791.69C727.931 1804.79 729.272 1817.87 730.786 1830.94C719.086 1823.66 707.288 1816.53 695.395 1809.57C685.513 1813.32 669.701 1820.82 660.148 1825.51L670.427 1785.72C662.006 1775.59 653.124 1765.85 643.809 1756.54L682.154 1753.88C689.51 1743.03 696.546 1731.6 703.556 1720.49Z" fill="#FCCE6B"/>
<path d="M431.854 977.165C486.223 971.461 489.393 1051.64 432.048 1068.84C411.68 1071.97 396.654 1059.03 392.233 1039.63C389.193 1025.82 391.747 1011.36 399.336 999.42C407.37 986.704 417.606 980.485 431.854 977.165Z" fill="#5DAAA6"/>
<path d="M335.515 977.325C341.902 976.489 354.095 979.099 359.144 982.982C392.956 1008.99 370.512 1061.04 333.534 1068.58C276.083 1072.16 279.897 984.422 335.515 977.325Z" fill="#5DAAA6"/>
<path d="M752.72 976.142C767.977 974.827 775.757 979.979 785.691 990.673C781.906 993.263 778.108 996.455 774.513 999.348C770.805 996.904 766.633 993.98 762.313 992.97C755.926 991.511 749.22 992.703 743.728 996.276C715.417 1014.63 721.953 1073.88 760.155 1049.78C763.246 1047.83 771.5 1040.09 772.158 1036.29C768.99 1032.26 759.431 1035.45 752.801 1034.57C751.254 1031.48 750.954 1028.12 752.681 1025.02L755.051 1024.48C768.443 1022.4 774.419 1021.67 787.825 1022.87C786.981 1027.82 786.01 1032.8 784.836 1037.68C779.243 1060.96 752.168 1075.95 730.218 1064.69C721.924 1060.47 715.703 1053.06 712.984 1044.15C704.423 1016.1 724.859 984.152 752.72 976.142Z" fill="#5DAAA6"/>
<path d="M469.44 345.222C556.445 336.676 542.009 465.025 522.328 470.387C519.822 467.667 523.219 463.254 524.572 459.919C542.408 415.948 530.89 343.63 468.955 350.664C453.105 352.463 434.007 364.885 424.365 378.081C439.31 389.188 453.752 405.934 444.905 426.164C437.034 444.164 408.2 451.136 401.183 429.006C396.25 413.449 408.05 393.437 415.586 379.784C386.859 371.626 370.092 375.005 342.63 386.689C303.01 407.045 285.862 434.123 253.018 462.39C249.272 465.614 240.444 467.128 236.185 469.63C225.727 475.776 212.523 489.23 199.222 487.676L198.947 486.525C203.279 482.442 211.289 479.767 216.748 476.601C221.717 473.72 224.545 471.458 229.038 467.887C224.057 461.469 224.169 459.945 221.576 453.453C213.238 432.582 242.765 410.158 251.55 434.609C254.478 442.761 245.102 457.107 240.311 464.069C253.066 456.684 263.072 446.655 273.255 436.194C296.672 412.137 318.339 390.223 350.409 377.71C371.799 369.364 397.338 366.343 418.931 375.777C434.656 358.467 446.421 349.777 469.44 345.222Z" fill="#020302"/>
<path d="M420.476 382.444C442.094 396.896 453.752 419.622 427.524 436.822L426.729 437.057C418.301 439.463 408.067 438.245 406.147 428.181C403.112 412.268 412.229 395.356 420.476 382.444Z" fill="#FBEFC1"/>
<path d="M238.753 428.791C241.505 429.29 241.964 429.663 244.354 431.157C251.348 441.188 240.083 455.983 233.362 463.393C221.302 454.378 222.859 434.517 238.753 428.791Z" fill="#FBEFC1"/>
<path d="M694.024 978.596L695.438 979.485C692.563 1008.1 688.097 1038.26 685.674 1066.29C670.074 1049.89 655.117 1030.24 639.093 1013.22C635.662 1026.41 632.57 1052.78 630.549 1067.12L616.634 1066.92C618.287 1039.62 626.694 1006.41 628.437 978.108C641.424 994.597 654.75 1011.72 668.621 1027.53C670.901 1030.13 672.5 1031.99 675.544 1029.97C677.152 1025.27 679.852 987.082 680.53 979.082L694.024 978.596Z" fill="#5DAAA6"/>
<path d="M516.504 1536.4C542.627 1533.97 556.806 1544.91 569.89 1565.94C596.132 1550.12 631.727 1529.96 663.635 1540.36C672.671 1543.31 678.592 1549.75 684.957 1556.39C685.667 1555.99 686.382 1555.6 687.102 1555.22C733.789 1530.51 740.377 1607.86 702.392 1598.21C690.768 1595.26 689.813 1566.58 675.556 1554.6C652.351 1535.11 627.791 1543.21 602.721 1554.34C593.797 1557.84 580.59 1566.15 572.121 1571.31C577.126 1594.01 574.554 1620.43 556.453 1636.92C541.214 1650.8 515.88 1642.59 520.214 1620.56C524.493 1598.81 548.151 1580.76 565.24 1568.75C546.904 1534.14 512.554 1536.12 482.927 1553.64C478.14 1556.47 466.987 1565.76 462.461 1563.9L462.043 1562.16C463.962 1558.5 468.935 1555.82 472.341 1553.49C486.174 1544.06 499.887 1538.26 516.504 1536.4Z" fill="#020302"/>
<path d="M566.473 1574.8C576.137 1589.43 563.155 1647.38 531.154 1637.21C511.21 1615.34 550.304 1585.87 566.473 1574.8Z" fill="#FBEFC1"/>
<path d="M699.816 1556.21C710.403 1555.16 714.841 1559.14 720.769 1567.13C722.57 1579.38 722.422 1586.24 711.731 1594.02C707.045 1594.07 702.798 1592.97 700.213 1588.74C696.984 1583.44 688.93 1566.42 689.993 1560.75C692.214 1558.04 696.359 1557.25 699.816 1556.21Z" fill="#FBEFC1"/>
<path d="M499.185 977.961L516.464 978.187C514.391 989.048 513.156 1002.06 511.855 1013.15C521.798 1002.36 536.411 988.868 547.067 978.343C550.679 982.214 554.252 986.12 557.787 990.062C545.617 999.93 532.779 1011.77 520.963 1022.26C526.703 1029.89 535.021 1037.56 541.92 1044.35L551.442 1054.1C547.422 1057.57 544.489 1060.57 540.823 1064.35C530.783 1054.21 520.837 1043.98 510.989 1033.66C508.703 1043.77 507.268 1056.77 506.544 1067.06L490.772 1067.14C492.451 1038.23 497.036 1007.25 499.185 977.961Z" fill="#5DAAA6"/>
<path d="M349.252 152.635C354.76 154.93 365.73 176.479 369.421 182.722C382.511 182.652 395.595 183.289 408.616 184.629C402.229 193.34 392.238 204.093 384.937 212.403C386.316 220.326 394.784 244.788 389.765 249.394C383.593 250.218 366.092 240.243 359.663 236.993C352.092 240.6 334.229 254.261 329.007 254.418C326.58 250.924 330.155 226.068 330.481 219.418C320.284 211.087 310.211 204.413 299.715 196.588C311.446 193.776 324.105 189.816 335.837 186.448C340.378 178.033 345.627 162.321 349.252 152.635Z" fill="#020302"/>
<path d="M350.857 163.472C356.48 171.285 361.602 180.446 366.512 188.802C377.824 187.943 386.683 188.409 397.96 188.879L378.996 210.665C381.541 221.04 383.836 232.711 386.109 243.237C377.45 239.377 368.838 235.415 360.272 231.353C356.044 231.237 338.476 243.629 333.596 246.79C337.64 211.029 340.124 220.3 312.591 199.033C322.14 195.909 330.684 193.791 340.391 191.39C343.801 183.357 347.727 171.865 350.857 163.472Z" fill="#FCCE6B"/>
<path d="M722.466 1331.65C739.932 1327.11 757.751 1337.67 762.148 1355.17C766.545 1372.68 755.834 1390.41 738.296 1394.66C720.961 1398.86 703.478 1388.3 699.132 1371C694.786 1353.7 705.202 1336.14 722.466 1331.65Z" fill="#EF6E63"/>
<path d="M903.867 1370.56C906.179 1371.92 905.392 1371.16 906.795 1373.55C905.776 1376.69 872.606 1413.9 867.689 1420.06C889.201 1455.75 851.894 1501.95 815.528 1476.93C785.564 1450.61 819.601 1392.57 862.836 1416.48C875.343 1402.18 890.652 1383.31 903.867 1370.56Z" fill="#020302"/>
<path d="M839.84 1416.13C880.648 1413.51 876.716 1469.63 839.291 1478.82C802.21 1481.19 797.744 1426.71 839.84 1416.13Z" fill="#FBEFC1"/>
<path d="M233.452 980.012L247.337 979.635C245.262 1003.09 239.872 1027.57 238.288 1050.4C250.582 1049.91 262.917 1048.53 275.166 1047.31C275.163 1052.15 275.867 1062.31 272.674 1065.56C256.274 1064.62 237.131 1065.01 220.69 1065.1C225.06 1038.44 231.019 1006.66 233.452 980.012Z" fill="#5DAAA6"/>
<path d="M585.347 977.979L599.505 977.924C595.657 1007.48 590.682 1037.51 587.531 1066.99L572.84 1066.94C577.966 1042.69 582.063 1003.44 585.347 977.979Z" fill="#5DAAA6"/>
<path d="M114.943 1191.36C110.353 1190.63 104.893 1191.07 100.368 1192.09C84.4335 1195.66 71.3285 1206.46 62.8235 1220.14C51.2535 1238.76 49.2085 1262.13 54.1535 1283.17C53.2685 1282.55 52.3735 1281.95 51.4335 1281.41C43.5785 1276.97 33.4635 1275.51 24.7385 1277.9C15.9835 1280.31 8.55851 1286.79 4.22351 1294.68C-0.171489 1302.82 -1.1815 1312.36 1.4035 1321.25C4.0035 1330.04 10.5385 1337.09 18.5385 1341.39C25.1985 1344.96 32.5135 1345.66 39.7485 1343.41C48.1485 1340.79 55.0035 1335.28 59.0935 1327.46C64.3135 1317.48 64.0235 1306.35 60.7635 1295.84C71.8485 1301.82 83.6335 1306.4 95.8435 1309.48C98.9135 1334.2 105.744 1358.13 110.664 1382.48C102.204 1386.16 94.4485 1390.16 87.4335 1396.27C70.2185 1411.25 60.1635 1434.97 58.6135 1457.52C59.3585 1458.27 60.1535 1458.96 60.9635 1459.63C77.4235 1473.39 106.283 1475.38 126.703 1473.61C134.173 1493.59 138.394 1511.72 141.519 1532.81C139.954 1533.1 137.609 1533.33 136.274 1534.26C135.344 1534.9 134.984 1535.67 134.794 1536.74C133.979 1541.27 138.574 1548.24 141.029 1551.87C144.474 1556.97 149.073 1562.19 155.443 1563.28C158.868 1563.87 162.249 1563.2 165.084 1561.17C168.024 1559.06 169.959 1556.07 170.529 1552.49C171.134 1548.73 170.434 1544.7 168.144 1541.6C163.409 1535.18 154.258 1534 146.928 1533.08C144.898 1520.9 143.068 1508.94 139.813 1497C137.508 1488.81 134.714 1480.96 131.544 1473.06C145.329 1470.95 157.773 1467.23 170.608 1461.85C191.593 1476.68 206.908 1492.22 222.448 1512.63C220.303 1514.49 217.593 1516.38 216.948 1519.28C217.303 1520.86 218.424 1521.9 219.649 1522.88C225.554 1527.64 238.354 1534.82 245.969 1533.87C249.444 1533.44 252.843 1531.96 254.993 1529.12C257.053 1526.39 257.839 1522.79 257.289 1519.44C256.689 1515.75 253.609 1512.08 250.599 1510.03C243.504 1505.19 235.378 1509.07 227.923 1510.63C222.088 1505.04 217.353 1497.54 212.073 1491.35C201.228 1478.64 188.933 1468.84 175.263 1459.38C188.313 1452.95 201.388 1444.67 211.813 1434.49C214.093 1436.31 216.593 1438.78 219.673 1438.76C221.953 1436.82 221.568 1432.22 223.008 1429.46C228.373 1428.45 229.408 1425.68 232.513 1421.48C231.153 1420.98 229.443 1420.17 228.018 1420.07C226.968 1419.99 226.849 1420.21 226.159 1420.89C226.234 1422.3 226.294 1423.41 225.849 1424.78C224.804 1425.68 224.163 1425.91 222.813 1426.19C221.853 1425.64 221.768 1425.55 221.263 1424.56C221.968 1420.35 229.684 1418.68 231.659 1414.98C232.294 1413.79 232.164 1413.52 231.794 1412.32L230.743 1411.92C227.413 1412.68 224.758 1415.33 222.483 1417.74C218.498 1413.68 214.069 1409.9 210.339 1405.62C205.904 1400.52 202.079 1394.82 197.719 1389.62C175.564 1363.22 156.133 1336.29 141.948 1304.7C158.173 1297.1 164.813 1289.21 172.608 1273.34C174.213 1273.54 175.843 1273.76 177.453 1273.5C178.883 1273.26 180.653 1272.44 181.363 1271.12C181.948 1270.03 181.869 1268.89 181.409 1267.78C180.319 1265.12 177.253 1264.17 174.808 1263.24C176.058 1247.8 171.229 1233.01 161.839 1220.75C150.954 1206.53 132.958 1193.7 114.943 1191.36Z" fill="#3C3D4F"/>
<path d="M140.154 1207.64C139.484 1208.46 139.179 1220.95 138.854 1223.27C137.824 1230.59 136.024 1237.37 133.269 1244.21C126.144 1261.92 113.159 1281.89 97.3989 1293.07C92.8789 1296.27 88.054 1298.5 82.974 1300.67C93.229 1303.96 102.164 1305.85 112.959 1305.72C116.374 1305.55 119.779 1305.2 123.154 1304.67C138.319 1302.18 152.684 1295.54 161.794 1282.76C168.794 1272.95 171.619 1262.4 169.604 1250.46C166.529 1232.23 154.904 1218.04 140.154 1207.64Z" fill="white"/>
<path d="M152.463 1249.38C152.063 1249.59 151.668 1249.82 151.293 1250.07C150.038 1250.88 149.518 1251.62 149.253 1253.12C148.928 1254.99 149.888 1257.14 151.023 1258.56C153.023 1261.07 154.588 1261.96 157.738 1262.33C159.118 1261.84 160.068 1261.56 161.033 1260.38C160.863 1257.47 156.628 1255.6 154.858 1253.45C153.878 1252.27 153.173 1250.73 152.463 1249.38Z" fill="#3C3D4F"/>
<path d="M119.723 1388.93C117.838 1391.45 117.153 1396.29 116.418 1399.44C110.968 1422.71 110.848 1445.95 113.168 1469.59C124.228 1469.21 134.923 1467.75 145.698 1465.21C150.428 1463.79 155.008 1462.27 159.608 1460.46C150.773 1437.43 142.498 1414.18 134.803 1390.73C129.708 1390.63 124.708 1389.99 119.723 1388.93Z" fill="#FE8168"/>
<path d="M114.559 1386.41C108.239 1388.77 102.404 1391.58 96.8386 1395.43C75.8386 1409.97 68.0686 1431.31 63.5686 1455.45C66.4586 1457.46 69.3686 1459.11 72.5086 1460.7C83.9736 1466.13 95.3586 1467.98 107.834 1469.25C107.559 1461.47 106.634 1453.73 106.464 1445.93C106.019 1425.27 109.499 1406.34 114.559 1386.41Z" fill="#FE8168"/>
<path d="M160.024 1387.6C153.219 1389.01 146.529 1390.02 139.609 1390.58C144.159 1401.62 147.784 1413.09 151.669 1424.37C155.664 1435.84 159.789 1447.27 164.034 1458.65C168.344 1457.06 172.419 1455.17 176.559 1453.19C185.684 1448.54 194.349 1443.04 202.429 1436.74C192.394 1424.63 183.429 1411.08 172.864 1399.5C168.914 1395.17 164.464 1391.4 160.024 1387.6Z" fill="#FE8168"/>
<path d="M137.413 1306.05C126.208 1310.32 112.983 1311.76 101.083 1310.29C102.093 1316.71 103.168 1323.12 104.298 1329.52L109.173 1327.09C110.713 1325.8 114.178 1322.83 116.173 1322.79C117.608 1322.05 118.448 1321.36 120.083 1321.44C128.348 1327.87 135.358 1336.28 142.688 1343.76L173.108 1374.4C180.993 1382.32 188.628 1390.34 197.073 1397.69C190.173 1388.11 182.083 1379.22 174.888 1369.84C159.743 1350.25 147.153 1328.82 137.413 1306.05Z" fill="#FE8168"/>
<path d="M113.273 1196.09C107.658 1197.61 102.003 1202.26 97.9684 1206.35C81.9284 1222.6 72.5384 1247.05 67.0934 1268.97C65.6934 1274.62 64.1634 1280.76 64.1884 1286.6C79.6934 1270.47 107.663 1218.09 113.273 1196.09Z" fill="#FCD683"/>
<path d="M104.818 1330.14C104.243 1339.45 113.194 1370.74 115.854 1382.08C128.084 1387.25 140.388 1386.1 153.148 1383.86L154.784 1383.34L154.854 1382.51C144.154 1372.1 133.738 1361.4 123.623 1350.42C117.443 1343.67 111.778 1336.1 104.818 1330.14Z" fill="#FE8168"/>
<path d="M119.508 1197.2C118.833 1197.16 118.589 1197.31 117.979 1197.57C114.789 1203.28 112.559 1211.98 109.979 1218.28C104.149 1232.55 97.2185 1246.69 89.2385 1259.88C86.9635 1263.65 69.5135 1288.6 69.3235 1290.16C70.7185 1290.43 71.3535 1290.04 72.6785 1289.57C73.9385 1288.86 75.1285 1288.06 76.3135 1287.23C104.573 1267.52 120.619 1232.28 126.479 1199.3L119.508 1197.2Z" fill="#FCD683"/>
<path d="M131.019 1201.51C129.329 1206.85 129.029 1212.84 127.459 1218.29C121.254 1239.85 110.409 1260.49 95.1637 1277.03C90.8837 1281.68 86.3087 1286.13 81.2587 1289.95C79.3087 1291.43 75.6087 1292.83 74.2637 1294.69C74.8937 1295.91 75.7687 1295.88 77.0187 1296.31C77.6937 1296.3 78.3437 1296.28 79.0137 1296.19C91.4437 1294.52 102.984 1282.96 110.284 1273.56C122.174 1258.25 131.229 1241.31 134.164 1221.93C134.809 1217.67 135.379 1212.88 134.744 1208.6C134.259 1205.29 133.689 1203.55 131.019 1201.51Z" fill="#FCD683"/>
<path d="M116.174 1322.79C114.179 1322.83 110.714 1325.8 109.174 1327.09C114.539 1332.02 119.114 1338.47 124.049 1343.9C132.329 1353 171.284 1394.5 180.659 1396.84C181.964 1395.93 182.429 1393.93 182.974 1392.48C175.794 1385.72 169.269 1378.13 162.304 1371.12C151.494 1360.38 140.814 1349.5 130.279 1338.48C125.594 1333.61 119.704 1328.53 116.174 1322.79Z" fill="white"/>
<path d="M101.724 1196.7C87.8586 1199.81 75.2486 1209.53 67.6686 1221.39C56.8686 1238.3 54.2436 1260.2 58.5886 1279.55C58.8386 1280.69 58.5636 1280.25 59.2886 1280.94C61.5936 1274.95 62.3386 1267.81 64.0836 1261.53C70.6586 1237.87 81.7936 1211.93 101.724 1196.7Z" fill="#FCD683"/>
<path d="M150.224 1538.33C150.039 1538.31 149.859 1538.28 149.674 1538.29C147.869 1538.33 143.944 1543.24 142.569 1544.7C143.324 1546.36 144.169 1547.93 145.159 1549.46C148.394 1554.5 151.949 1557.5 157.854 1558.8C158.899 1558.54 159.874 1558.28 160.839 1557.79C162.929 1556.73 165.289 1554.83 165.859 1552.44C166.439 1550.01 165.409 1547.26 163.989 1545.31C160.744 1540.86 155.424 1539.16 150.224 1538.33Z" fill="#FE8168"/>
<path d="M244.074 1512.26C238.954 1512.05 235.184 1513.42 230.484 1515.18C230.204 1517.68 229.489 1520.11 228.874 1522.54C232.139 1524.66 235.379 1526.64 238.849 1528.4C241.734 1529.48 244.319 1530.22 247.374 1529.26C249.504 1528.59 251.244 1527.17 252.144 1525.11C253.074 1522.98 252.899 1520.55 251.944 1518.47C250.349 1514.98 247.509 1513.52 244.074 1512.26Z" fill="#FE8168"/>
<path d="M205.744 1411.14C203.419 1409.45 187.944 1396.46 187.264 1396.23C186.409 1396.89 185.984 1397.5 185.369 1398.37C184.934 1398.99 184.384 1399.43 183.804 1399.9C184.884 1400.76 186.394 1401.78 187.169 1402.91C188.024 1404.15 188.339 1406.31 188.929 1407.74C190.709 1412.04 193.029 1415.39 195.894 1419.02C197.309 1418.62 198.804 1418.69 200.264 1418.66C201.864 1415.89 203.624 1413.55 205.744 1411.14Z" fill="white"/>
<path d="M218.994 1421.14C216.379 1418.58 213.809 1415.83 210.839 1413.68C208.524 1416.11 206.859 1419.41 203.509 1420.48C201.874 1420.15 201.509 1419.72 200.264 1418.66C198.804 1418.69 197.309 1418.62 195.894 1419.02C199.269 1423.67 202.819 1428.18 206.539 1432.56C210.539 1428.57 214.759 1424.87 218.994 1421.14Z" fill="#FCD683"/>
<path d="M219.359 1427.32C217.414 1428.25 214.804 1430.49 214.064 1432.53L214.929 1433.46C215.319 1433.69 215.709 1433.94 216.114 1434.14C217.399 1434.81 217.449 1434.84 218.779 1434.42C220.259 1432.46 219.614 1429.6 219.359 1427.32Z" fill="white"/>
</svg>
