<svg width="807" height="977" viewBox="0 0 807 977" fill="none" xmlns="http://www.w3.org/2000/svg">
<path d="M691.32 604.177C695.91 603.442 701.37 603.887 705.895 604.902C721.83 608.472 734.935 619.277 743.44 632.957C755.01 651.572 757.055 674.947 752.11 695.982C752.995 695.367 753.89 694.762 754.83 694.227C762.685 689.787 772.8 688.322 781.525 690.717C790.28 693.122 797.705 699.602 802.04 707.492C806.435 715.637 807.445 725.177 804.86 734.062C802.26 742.857 795.725 749.902 787.725 754.202C781.065 757.777 773.75 758.477 766.515 756.222C758.115 753.602 751.26 748.092 747.17 740.272C741.95 730.297 742.24 719.162 745.5 708.657C734.415 714.632 722.63 719.212 710.42 722.292C707.35 747.017 700.52 770.947 695.6 795.297C704.06 798.972 711.815 802.977 718.83 809.082C736.045 824.062 746.1 847.787 747.65 870.332C746.905 871.082 746.11 871.772 745.3 872.447C728.84 886.202 699.98 888.197 679.56 886.427C672.09 906.407 667.87 924.537 664.745 945.622C666.31 945.917 668.655 946.142 669.99 947.072C670.92 947.717 671.28 948.487 671.47 949.552C672.285 954.087 667.69 961.057 665.235 964.687C661.79 969.787 657.19 975.002 650.82 976.097C647.395 976.682 644.015 976.012 641.18 973.982C638.24 971.877 636.305 968.887 635.735 965.307C635.13 961.542 635.83 957.512 638.12 954.412C642.855 947.997 652.005 946.817 659.335 945.892C661.365 933.712 663.195 921.757 666.45 909.817C668.755 901.622 671.55 893.772 674.72 885.872C660.935 883.767 648.49 880.042 635.655 874.662C614.67 889.492 599.355 905.037 583.815 925.447C585.96 927.302 588.67 929.192 589.315 932.097C588.96 933.672 587.84 934.712 586.615 935.697C580.71 940.457 567.91 947.637 560.295 946.687C556.82 946.257 553.42 944.777 551.27 941.932C549.21 939.207 548.425 935.607 548.975 932.257C549.575 928.567 552.655 924.897 555.665 922.842C562.76 918.002 570.885 921.887 578.34 923.447C584.175 917.857 588.91 910.357 594.19 904.162C605.035 891.452 617.33 881.652 631 872.197C617.95 865.767 604.875 857.487 594.45 847.307C592.17 849.122 589.67 851.592 586.59 851.572C584.31 849.637 584.695 845.032 583.255 842.277C577.89 841.267 576.855 838.492 573.75 834.292C575.11 833.797 576.82 832.987 578.245 832.882C579.295 832.807 579.415 833.027 580.105 833.707C580.03 835.112 579.97 836.227 580.415 837.592C581.46 838.492 582.1 838.727 583.45 839.002C584.41 838.452 584.495 838.362 585 837.377C584.295 833.162 576.58 831.492 574.605 827.797C573.97 826.602 574.1 826.337 574.47 825.132L575.52 824.732C578.85 825.497 581.505 828.147 583.78 830.552C587.765 826.492 592.195 822.717 595.925 818.432C600.36 813.337 604.185 807.637 608.545 802.437C630.7 776.032 650.13 749.102 664.315 717.512C648.09 709.912 641.45 702.022 633.655 686.157C632.05 686.357 630.42 686.572 628.81 686.312C627.38 686.077 625.61 685.257 624.9 683.932C624.315 682.847 624.395 681.702 624.855 680.592C625.945 677.937 629.01 676.982 631.455 676.057C630.205 660.617 635.035 645.827 644.425 633.562C655.31 619.342 673.305 606.512 691.32 604.177Z" fill="#3C3D4F"/>
<path d="M666.11 620.453C666.78 621.273 667.085 633.763 667.41 636.078C668.44 643.403 670.24 650.178 672.995 657.018C680.12 674.733 693.105 694.703 708.865 705.878C713.385 709.083 718.21 711.313 723.29 713.478C713.035 716.773 704.1 718.658 693.305 718.528C689.89 718.358 686.485 718.008 683.11 717.478C667.945 714.993 653.58 708.348 644.47 695.573C637.47 685.758 634.645 675.208 636.66 663.268C639.735 645.043 651.36 630.853 666.11 620.453Z" fill="white"/>
<path d="M653.8 662.191C654.2 662.401 654.595 662.631 654.97 662.881C656.225 663.696 656.745 664.431 657.01 665.936C657.335 667.806 656.375 669.951 655.24 671.376C653.24 673.881 651.675 674.776 648.525 675.141C647.145 674.656 646.195 674.376 645.23 673.196C645.4 670.286 649.635 668.416 651.405 666.266C652.385 665.086 653.09 663.546 653.8 662.191Z" fill="#3C3D4F"/>
<path d="M686.54 801.738C688.425 804.258 689.11 809.098 689.845 812.248C695.295 835.523 695.415 858.758 693.095 882.403C682.035 882.023 671.34 880.558 660.565 878.018C655.835 876.603 651.255 875.078 646.655 873.273C655.49 850.238 663.765 826.988 671.46 803.543C676.555 803.443 681.555 802.798 686.54 801.738Z" fill="#FE8168"/>
<path d="M691.705 799.219C698.025 801.584 703.86 804.389 709.425 808.239C730.425 822.779 738.195 844.119 742.695 868.264C739.805 870.269 736.895 871.924 733.755 873.509C722.29 878.944 710.905 880.794 698.43 882.064C698.705 874.284 699.63 866.539 699.8 858.744C700.245 838.084 696.765 819.154 691.705 799.219Z" fill="#FE8168"/>
<path d="M646.24 800.41C653.045 801.825 659.735 802.835 666.655 803.395C662.105 814.435 658.48 825.9 654.595 837.185C650.6 848.655 646.475 860.08 642.23 871.465C637.92 869.87 633.845 867.985 629.705 866.005C620.58 861.355 611.915 855.85 603.835 849.555C613.87 837.445 622.835 823.89 633.4 812.31C637.35 807.985 641.8 804.21 646.24 800.41Z" fill="#FE8168"/>
<path d="M763.02 700.068C770.385 699.228 777.835 700.468 784.525 703.653C791.615 707.058 797.15 712.433 799.61 720.053C801.595 726.203 800.685 732.778 797.57 738.393C794.08 744.683 787.465 749.943 780.525 751.833C774.065 753.588 767.18 751.928 761.505 748.608C755.365 745.013 751.14 739.313 749.405 732.418C747.35 724.253 747.32 716.558 751.745 709.123C755.47 707.883 759.32 707.043 763.225 706.623C771.1 705.828 780.155 706.363 786.42 711.763C789.735 714.618 792.07 718.608 792.385 723.018C792.775 728.493 790.43 733.058 786.955 737.063C786.345 737.588 785.715 738.093 785.075 738.578C781.73 741.073 777.665 742.178 773.535 741.558C769.855 741.008 766.67 739.323 764.485 736.258C762.925 734.068 762.6 731.463 763.055 728.868C763.47 726.513 764.315 723.538 766.58 722.298C770.935 719.913 774.81 724.048 778.685 725.153C779.895 724.698 779.86 724.753 780.42 723.588C780.35 721.493 779.555 719.748 778.04 718.293C776.505 716.818 773.25 716.393 771.185 716.418C767.365 716.468 763.755 718.383 761.155 721.123C758.72 723.703 757.4 726.913 757.52 730.478C757.665 734.818 759.765 738.858 762.945 741.768C766.91 745.373 772.175 747.203 777.52 746.833C783.16 746.408 788.915 743.333 792.44 738.923C796.07 734.378 797.75 728.103 796.96 722.343C796.125 716.253 792.595 710.398 787.68 706.728C777.875 699.403 764.485 701.698 753.245 703.183C756.485 701.998 759.675 700.913 763.02 700.068Z" fill="#FCD683"/>
<path d="M668.85 718.863C680.055 723.128 693.28 724.568 705.18 723.103C704.17 729.523 703.095 735.933 701.965 742.333L697.09 739.903C695.55 738.608 692.085 735.638 690.09 735.598C688.655 734.858 687.815 734.173 686.18 734.253C677.915 740.678 670.905 749.088 663.575 756.573L633.155 787.208C625.27 795.133 617.635 803.148 609.19 810.498C616.09 800.918 624.18 792.033 631.375 782.648C646.52 763.063 659.11 741.628 668.85 718.863Z" fill="#FE8168"/>
<path d="M692.99 608.898C698.605 610.418 704.26 615.073 708.295 619.163C724.335 635.413 733.725 659.863 739.17 681.783C740.57 687.433 742.1 693.568 742.075 699.413C726.57 683.283 698.6 630.903 692.99 608.898Z" fill="#FCD683"/>
<path d="M701.445 742.953C702.02 752.263 693.07 783.553 690.41 794.893C678.18 800.063 665.875 798.908 653.115 796.673L651.48 796.153L651.41 795.323C662.11 784.913 672.525 774.208 682.64 763.228C688.82 756.478 694.485 748.913 701.445 742.953Z" fill="#FE8168"/>
<path d="M686.755 610.016C687.43 609.971 687.675 610.121 688.285 610.386C691.475 616.091 693.705 624.791 696.285 631.096C702.115 645.361 709.045 659.506 717.025 672.696C719.3 676.461 736.75 701.416 736.94 702.971C735.545 703.246 734.91 702.851 733.585 702.386C732.325 701.676 731.135 700.876 729.95 700.046C701.69 680.336 685.645 645.091 679.785 612.111L686.755 610.016Z" fill="#FCD683"/>
<path d="M675.245 614.324C676.935 619.659 677.235 625.649 678.805 631.104C685.01 652.664 695.855 673.304 711.1 689.844C715.38 694.494 719.955 698.944 725.005 702.759C726.955 704.239 730.655 705.644 732 707.504C731.37 708.724 730.495 708.689 729.245 709.124C728.57 709.114 727.92 709.094 727.25 709.004C714.82 707.334 703.28 695.774 695.98 686.374C684.09 671.064 675.035 654.124 672.1 634.739C671.455 630.479 670.885 625.694 671.52 621.409C672.005 618.104 672.575 616.364 675.245 614.324Z" fill="#FCD683"/>
<path d="M690.09 735.602C692.085 735.642 695.55 738.612 697.09 739.907C691.725 744.832 687.15 751.287 682.215 756.712C673.935 765.812 634.98 807.317 625.605 809.652C624.3 808.742 623.835 806.747 623.29 805.292C630.47 798.532 636.995 790.942 643.96 783.937C654.77 773.192 665.45 762.312 675.985 751.297C680.67 746.422 686.56 741.347 690.09 735.602Z" fill="white"/>
<path d="M704.54 609.516C718.405 612.621 731.015 622.341 738.595 634.206C749.395 651.116 752.02 673.016 747.675 692.366C747.425 693.506 747.7 693.066 746.975 693.756C744.67 687.766 743.925 680.621 742.18 674.346C735.605 650.681 724.47 624.746 704.54 609.516Z" fill="#FCD683"/>
<path d="M656.04 951.138C656.225 951.123 656.405 951.093 656.59 951.098C658.395 951.143 662.32 956.053 663.695 957.508C662.94 959.173 662.095 960.738 661.105 962.273C657.87 967.308 654.315 970.308 648.41 971.608C647.365 971.353 646.39 971.088 645.425 970.598C643.335 969.543 640.975 967.643 640.405 965.253C639.825 962.818 640.855 960.073 642.275 958.123C645.52 953.668 650.84 951.973 656.04 951.138Z" fill="#FE8168"/>
<path d="M562.19 925.068C567.31 924.858 571.08 926.228 575.78 927.993C576.06 930.493 576.775 932.923 577.39 935.353C574.125 937.468 570.885 939.448 567.415 941.208C564.53 942.293 561.945 943.033 558.89 942.073C556.76 941.398 555.02 939.978 554.12 937.918C553.19 935.793 553.365 933.363 554.32 931.283C555.915 927.793 558.755 926.333 562.19 925.068Z" fill="#FE8168"/>
<path d="M600.52 823.949C602.845 822.259 618.32 809.269 619 809.039C619.855 809.699 620.28 810.309 620.895 811.184C621.33 811.804 621.88 812.239 622.46 812.714C621.38 813.574 619.87 814.594 619.095 815.719C618.24 816.964 617.925 819.119 617.335 820.549C615.555 824.849 613.235 828.204 610.37 831.829C608.955 831.429 607.46 831.504 606 831.474C604.4 828.699 602.64 826.359 600.52 823.949Z" fill="white"/>
<path d="M587.27 833.951C589.885 831.391 592.455 828.646 595.425 826.496C597.74 828.926 599.405 832.226 602.755 833.291C604.39 832.961 604.755 832.531 606 831.476C607.46 831.506 608.955 831.431 610.37 831.831C606.995 836.481 603.445 840.996 599.725 845.371C595.725 841.386 591.505 837.681 587.27 833.951Z" fill="#FCD683"/>
<path d="M586.905 840.137C588.85 841.062 591.46 843.307 592.2 845.347L591.335 846.272C590.945 846.507 590.555 846.752 590.15 846.957C588.865 847.622 588.815 847.652 587.485 847.237C586.005 845.277 586.65 842.417 586.905 840.137Z" fill="white"/>
<path d="M53.3848 76.2695C58.0848 77.6075 62.5638 81.152 66.3933 84.067C97.6258 107.845 115.003 140.197 124.861 177.455C127.627 187.909 130.041 198.337 131.5 209.056C137.402 209.888 143.409 210.609 149.209 212.003C151.374 212.523 154.634 213.175 155.884 215.187C155.643 216.268 155.473 216.43 154.711 217.252C149.161 218.069 136.864 214.352 130.816 213.167C127.913 217.288 124.829 221.307 122.013 225.485C107.981 246.302 94.4303 282.841 99.4018 308.145C101.281 317.712 105.875 326.737 114.21 332.187C119.923 335.922 127.144 337.777 133.89 336.248C139.482 334.981 144.38 331.172 147.282 326.261C150.036 321.602 150.821 316.158 149.293 310.95C145.078 296.582 135.581 301.665 129.134 297.528C128.276 296.978 128.552 297.278 128.292 296.234C128.415 296.105 128.525 295.962 128.661 295.847C130.535 294.272 134.239 293.625 136.635 293.824C141.882 294.261 146.57 297.696 149.711 301.749C153.678 306.865 155.699 313.257 154.828 319.719C153.926 326.408 150.338 332.749 144.797 336.663C138.367 341.204 129.868 342.374 122.231 340.953C113.578 339.343 106.715 334.201 101.787 327.028C89.9883 309.85 93.0578 290.343 96.6383 271.146C89.4533 285.636 80.1308 302.656 76.2903 318.287C74.5378 325.42 75.3703 333.779 75.7918 341.078C77.2743 364.29 82.1923 387.152 90.3848 408.92C94.4083 419.526 99.3418 429.521 102.64 440.435C104.766 447.673 106.229 456.717 104.203 464.129C103.401 467.061 101.799 470.109 99.0153 471.588C96.6638 472.837 94.0148 472.709 91.5743 471.797C83.0988 468.631 76.2903 457.221 72.6108 449.45C49.1458 399.897 60.7808 334.55 83.0468 286.639C87.7863 276.441 92.8623 266.223 98.2183 256.34C101.458 250.361 105.697 244.466 107.934 238.046L108.165 237.369C104.072 241.174 100.511 245.598 96.5353 249.54C81.6303 264.315 67.9718 268.571 47.4973 269.837C45.4963 269.961 44.2868 270.041 42.7388 268.687C42.5058 267.711 42.4478 267.101 42.6708 266.1C43.2428 263.538 45.3328 260.35 46.5883 257.977C55.0528 241.978 66.9563 229.145 82.9333 220.559C78.2863 221.05 73.6783 220.887 69.0298 220.472C47.3453 218.537 27.3708 209.261 10.3998 195.829C7.49578 193.53 3.79479 191.085 1.50029 188.166C0.482787 186.871 -0.0317184 185.78 0.121282 184.091C3.12128 180.604 12.9023 178.52 17.4338 177.223C42.2363 170.126 64.0863 171.502 87.0078 183.17C92.7313 186.084 98.0178 189.658 103.634 192.749C85.1718 176.329 71.3103 160.658 61.5803 137.59C55.7838 123.849 47.7058 90.2735 53.3848 76.2695Z" fill="#3C3D4F"/>
<path d="M56.5322 83.582C58.2082 84.292 59.7887 85.313 61.2922 86.3305C99.3137 112.058 116.903 156.675 125.078 200C112.453 182.188 97.3842 165.12 88.4262 145.043L87.3522 143.318C86.2877 142.849 86.0847 142.838 84.9247 142.969L84.2472 143.915C83.3277 154.964 111.105 187.596 118.078 198.728L118.495 199.4C111.581 194 104.967 188.227 98.6827 182.106C69.6212 153.938 57.1352 123.645 56.5322 83.582Z" fill="#FCD683"/>
<path d="M46.3069 177.727C73.7034 177.426 93.8474 192.381 116.136 205.977C104.568 204.071 92.8119 203.675 81.2709 201.378C75.2854 200.187 69.5953 196.832 63.5593 196.208C62.3733 196.754 62.1994 196.952 61.4284 198.017C61.4234 198.837 61.2334 199.198 61.8079 199.866C65.2054 203.812 87.8044 207.432 93.5344 207.939C99.7429 208.879 106.039 209.491 112.27 210.3C102.255 213.974 91.8879 215.637 81.2444 216.029C52.8884 217.075 26.8149 204.891 6.29785 185.837C19.3229 181.243 32.5129 178.499 46.3069 177.727Z" fill="#FCD683"/>
<path d="M69.7916 341.434L70.1856 341.92C71.7156 357.611 74.0116 373.383 78.1831 388.607C80.4176 396.764 83.1026 404.948 86.1836 412.825C91.8266 427.254 103.914 448.434 98.8961 464.236C98.3116 466.077 97.6291 466.584 95.9656 467.495C90.1821 466.225 86.1421 461.715 82.8716 457.036C68.4376 436.388 64.0951 402.112 65.2436 377.102C65.7976 365.033 67.6631 353.311 69.7916 341.434Z" fill="white"/>
<path d="M109.522 217.164L109.862 217.36C109.68 218.494 105.35 220.343 104.016 221.084C94.2195 226.521 84.5155 233.002 76.1085 240.428C74.1865 242.127 71.816 244.138 71.667 246.856C72.315 247.95 72.503 248.098 73.6125 248.731C77.35 248.271 81.6025 242.592 84.3635 240.119C92.611 232.733 104.123 225.81 114.095 221.041C108.765 228.225 103.145 235.19 97.25 241.919C82.8045 257.297 69.2995 263.712 48.311 265.098C50.9305 260.137 53.8105 255.318 56.9385 250.661C69.983 231.595 86.957 221.433 109.522 217.164Z" fill="#FCD683"/>
<path d="M345.97 286.704C346.742 286.653 347.515 286.668 348.288 286.68C359.966 286.856 372.337 290.837 380.557 299.405C387.326 306.461 390.697 315.735 390.388 325.493C389.901 340.916 380.615 355.503 369.518 365.674C353.645 380.22 332.281 387.833 310.963 388.779C304.927 389.047 298.819 388.631 292.786 388.374C293.878 397.683 296.647 407.881 302.46 415.411C307.475 421.907 314.517 426.03 322.68 427.024C343.765 429.59 359.584 412.613 374.608 400.779C376.113 400.188 377.069 399.97 378.651 400.411C379.2 401.171 379.466 401.362 379.595 402.331C380.298 407.583 374.304 416.063 371.139 419.939C361.243 432.057 344.133 442.895 328.357 444.473C315.368 445.772 302.329 442.141 292.249 433.749C279.375 423.031 272.453 406.48 270.984 390.071C268.553 362.924 277.858 336.212 295.259 315.539C308.661 299.616 324.835 288.531 345.97 286.704Z" fill="#F59A41"/>
<path d="M370.771 69.6708C372.853 69.4888 375.078 69.4783 377.137 69.8373C379.661 70.2773 384.528 71.3293 385.898 73.7388C387.319 76.2378 382.548 78.1568 380.986 79.0773C365.831 88.0083 352.3 98.6463 341.463 112.632C321.357 138.578 310.646 172.306 302.052 203.526C298.808 215.31 296.111 227.615 292.056 239.142C290.906 242.409 288.313 249.175 285.003 250.566C283.467 251.212 281.769 251.028 280.28 250.342C266.707 244.089 249.657 194.957 244.335 179.519C234.192 191.927 221.052 218.79 214.141 233.453C210.834 240.469 206.263 253.799 201.115 259.242C199.973 260.449 197.935 261.45 196.238 261.385C194.148 261.305 192.515 260.361 191.089 258.862C188.073 255.691 186.58 250.968 185.161 246.915C175.669 219.781 174.335 187.408 174.28 158.91C174.403 147.865 175.426 115.099 181.894 107.01C183.633 104.834 186.469 103.967 189.146 103.71C194.066 103.238 200.2 104.495 203.983 107.848C206.128 109.749 206.934 111.931 206.997 114.756C207.103 119.539 206.186 124.543 205.628 129.3C204.62 137.887 203.575 146.465 202.917 155.087C201.193 177.678 201.443 200.141 202.111 222.761C210.905 208.533 231.917 159.885 245.146 153.372C247.361 152.281 250.01 151.687 252.381 152.641C253.945 153.27 255.459 154.714 256.136 156.255C259.006 162.791 261.461 174.318 263.679 181.591C267.564 194.333 272.233 206.653 277.174 219.012C280.768 208.968 282.853 198.259 285.752 187.989C294.116 158.352 305.68 123.98 324.779 99.6223C336.417 84.7798 351.45 72.0488 370.771 69.6708Z" fill="#DA4827"/>
<path d="M377.943 685.155C386.883 684.4 395.685 684.91 403.68 689.4C412.39 694.29 417.64 702.92 420.185 712.385C426.08 734.3 418.295 763.525 407.205 782.72C397.805 798.99 384.867 811.235 366.504 816.205C356.924 817.425 348.774 816.59 340.678 810.835C331.012 803.97 325.302 792.7 323.352 781.21C319.378 757.78 326.765 731.095 340.43 711.925C349.831 698.735 361.54 687.905 377.943 685.155Z" fill="#AE7567"/>
<path d="M456.525 275.203C456.89 275.174 457.255 275.142 457.62 275.126C469.375 274.629 482.285 276.768 491.125 285.149C497.62 291.304 501.405 299.79 501.635 308.736C501.835 317.163 498.825 325.216 492.945 331.292C487.1 337.33 478.465 341.757 469.94 341.704C462.79 341.659 458.015 338.511 453.24 333.57C460.175 335.778 466.575 337.567 473.795 335.246C480.68 333.032 486.755 327.596 489.965 321.151C492.615 315.824 493.31 309.697 491.375 304.024C489.315 297.989 484.54 293.102 478.875 290.313C472.41 287.131 464.245 286.369 457.47 288.945C450.305 291.668 445.59 298.35 442.745 305.187C432.005 330.996 454.78 346.872 470.605 362.859C479.745 372.099 488.255 382.165 493.19 394.334C499.34 409.5 498.925 425.481 492.44 440.452C485.11 457.369 470.905 468.474 454.11 475.118C438.33 480.623 419.025 480.223 403.745 473.298C393.04 468.444 383.276 460.573 379.096 449.267C375.936 440.718 376.545 430.474 380.478 422.272C383.213 416.567 389.252 408.323 395.595 406.559C396.88 406.2 397.43 406.277 398.52 406.989C399.875 412.667 385.934 424.005 386.455 435.625C386.736 441.87 390.046 447.656 394.715 451.691C402.045 457.963 411.61 460.992 421.215 460.083C432.255 459.069 442.545 454.044 449.61 445.442C454.105 440.003 457.11 433.488 458.325 426.538C464.62 390.42 414.19 375.441 410.095 332.832C408.695 318.29 411.975 303.189 421.485 291.824C430.68 280.829 442.545 276.384 456.525 275.203Z" fill="#F59A41"/>
<path d="M460.175 670.202C468.03 669.507 475.94 670.397 483.445 672.817C494.055 676.327 503.55 683.437 508.505 693.622C512.855 702.572 513.04 712.962 509.68 722.262C503.395 739.642 488.545 749.022 472.58 756.447C474.85 762.782 478.71 769.207 481.665 775.272C488.63 789.587 495.18 804.307 503.64 817.817C511.83 830.902 521.21 841.672 536.85 845.197C537.605 845.367 538.325 845.482 539.04 845.802C540.175 846.307 540.14 846.547 540.535 847.662C540.405 848.677 540.26 849.217 539.65 850.072C537.32 853.342 530.96 855.197 527.135 855.887C514.74 858.112 500.8 851.867 490.87 844.977C464.865 825.927 458.565 792.017 448.53 763.492C446.875 771.482 438.34 826.157 436.63 828.147C435.6 829.347 435.19 829.307 433.71 829.467C430.005 828.182 427.265 824.882 425.43 821.507C424.54 819.867 423.87 818.107 423.65 816.242C422.865 809.537 424.14 801.872 424.83 795.172C426.75 776.477 429.86 757.882 433.2 739.397C437.27 716.882 441.77 694.247 448.6 672.382C452.275 670.887 456.265 670.582 460.175 670.202Z" fill="#AE7567"/>
<path d="M577.15 270.706C583.235 270.594 589.305 271.353 595.175 272.958C604.61 275.619 612.925 281.286 617.705 290.005C621.525 296.933 622.38 305.113 620.075 312.682C617.415 321.452 610.985 328.269 602.93 332.433C596.975 335.511 588.785 337.925 582.24 335.576C579.665 334.651 574.19 332.041 573.07 329.475C573.71 328.672 573.9 328.645 574.975 328.859C576.425 329.149 577.875 329.97 579.325 330.355C582.79 331.28 587.435 330.745 590.8 329.759C598.405 327.53 605.115 322.231 608.755 315.153C611.405 309.996 612.195 304.248 610.19 298.725C608.015 292.747 603.26 288.022 597.495 285.436C590.97 282.507 582.645 282.05 575.975 284.752C569.275 287.464 564.57 293.139 561.775 299.647C555.165 315.028 561.57 329.798 572.96 340.803C578.84 346.486 585.585 351.196 591.42 356.954C599.75 365.171 607.28 375.088 611.665 386.009C617.85 401.371 617.59 418.578 610.935 433.743C603.87 449.94 590.895 460.848 574.625 467.194C574.595 467.205 574.565 467.217 574.535 467.227C556.905 472.992 537.23 473.315 520.455 464.583C511.045 459.683 502.77 451.867 499.585 441.523C497.03 433.226 497.57 424.087 501.75 416.419C504.625 411.149 511.23 402.85 517.285 401.364C518.215 401.137 517.83 401.137 518.73 401.639C520.33 407.705 505.485 418.242 506.315 431.656C506.65 437.057 509.41 441.915 513.44 445.447C521.17 452.229 532.61 454.342 542.595 453.587C553.295 452.778 561.965 448.831 568.945 440.588C573.735 434.934 576.48 428.267 577.57 420.966C583.19 383.293 531.475 367.58 528.015 324.946C526.89 311.081 530.835 297.14 540.04 286.586C549.79 275.406 562.81 271.653 577.15 270.706Z" fill="#F59A41"/>
<path d="M372.361 507.645C381.699 507.1 390.093 508.49 398 513.78C405.955 519.105 410.61 527.69 412.425 536.935C416.955 559.99 410.235 589.17 397.06 608.465C387.355 622.685 375.209 633.23 358.031 636.47C349.587 636.785 342.755 635.52 335.79 630.485C325.355 622.94 318.969 611 316.994 598.425C313.614 576.92 320.616 551.665 333.374 534.21C342.988 521.055 355.925 510.28 372.361 507.645Z" fill="#EE7E63"/>
<path d="M456.785 499.209C464.005 498.824 471.56 499.279 478.495 501.449C486.405 503.929 493.205 508.494 496.96 516.134C502.06 526.504 500.635 539.829 496.965 550.419C491.11 567.284 478.32 576.619 462.875 584.119C474.035 596.824 480.32 611.904 490.06 625.489C495.57 633.169 504.81 644.494 514.885 645.964C517.585 646.354 520.24 645.539 523.005 646.004C523.745 646.529 524.115 646.559 524.355 647.489C524.71 648.864 524.44 649.999 523.76 651.209C521.15 655.839 514.445 659.184 509.35 660.324C498.615 662.734 488.755 658.814 479.81 653.164C467.295 644.099 458.005 629.989 453.06 615.474C450.6 608.254 448.48 600.444 444.38 593.959C443.425 592.449 442.34 590.654 440.49 590.249C436.11 593.169 433.68 632.879 428.84 638.929C428.355 639.539 427.995 639.839 427.225 639.939C425.265 640.189 423.32 638.999 421.81 637.874C418.175 635.184 416.11 631.679 415.58 627.174C414.72 619.869 418.24 606.939 419.625 599.504C424.28 574.494 429.555 549.669 434.785 524.784C435.95 519.244 436.425 513.454 437.765 507.994C438.155 506.399 438.815 504.849 439.885 503.589C443.59 499.204 451.58 499.549 456.785 499.209Z" fill="#EE7E63"/>
<path d="M339.141 491.601C342.338 491.381 345.826 491.106 348.949 491.941C350.909 492.461 351.865 493.151 352.843 494.921C352.795 499.911 344.328 504.576 340.673 507.386C324.844 519.551 313.089 532.551 303.589 550.256C295.178 565.931 289.577 582.601 284.568 599.621C281.457 610.191 272.381 651.111 267.71 657.391C266.272 658.081 265.391 658.341 263.849 657.741C247.372 651.346 238.386 605.671 231.073 590.326L230.767 589.691C218.89 602.961 209.391 632.766 199.899 649.391C197.86 652.961 193.463 659.836 189.17 660.526C187.574 660.781 186.237 660.381 185.026 659.346C181.334 656.176 180.047 649.756 178.669 645.251C171.634 622.256 168.065 598.896 167.08 574.906C166.991 563.321 166.756 537.891 173.292 528.711C175.063 526.226 177.5 524.556 180.562 524.181C184.588 523.681 189.504 525.286 192.583 527.901C194.818 529.796 195.615 531.801 195.739 534.691C195.917 538.861 195.014 543.311 194.544 547.456C193.898 553.261 193.411 559.086 193.083 564.916C192.04 586.606 192.448 608.721 193.602 630.396C198.866 619.696 223.778 570.011 231.544 565.881C233.658 564.756 236.285 564.681 238.52 565.476C240.35 566.126 241.852 567.331 242.637 569.131C245.206 575.021 246.275 582.551 247.874 588.811C251.218 601.901 255.043 615.016 260.571 627.366C262.863 619.241 264.043 610.546 265.977 602.291C271.876 577.121 280.085 551.981 293.919 529.971C304.582 513.006 318.816 496.216 339.141 491.601Z" fill="#EE7E63"/>
<path d="M544.39 65.1027C545.1 65.0802 545.79 65.0637 546.5 65.1217C551.38 65.5207 557.585 67.9862 560.78 71.8327C561.755 73.0077 562.995 75.2942 562.59 76.9037C561.87 79.7552 555.08 87.0747 553.035 89.7062C526.605 123.709 508.745 165.17 504.975 208.21C508.61 197.753 512.5 187.68 518.025 178.047C525.55 164.926 535.945 151.116 551.31 147.128C558.04 145.382 566.355 145.172 572.435 148.942C574.895 150.466 577.76 153.183 577.81 156.317C577.89 161.636 571.63 171.457 569.415 176.511C563.795 189.322 557.095 212.279 560.575 226.281C561.39 229.562 563.2 233.304 566.285 234.997C569.49 236.757 574.03 236.841 577.445 235.685C590.18 231.372 601.985 215.87 606.765 203.87C608.76 198.859 609.73 192.818 612.29 188.13C613.05 186.736 613.73 186.226 615.23 185.79C617.425 186.435 618.445 187.818 619.64 189.691C623.71 196.082 623.94 202.505 622.275 209.688C621.92 211.126 621.405 212.538 620.855 213.913C615.12 228.247 600.975 240.938 586.93 246.834C578.775 250.255 569.38 251.815 560.995 248.222C553.255 244.906 548.245 238.067 545.27 230.428C536.79 208.658 542.305 182.314 551.27 161.651C551.01 161.78 550.745 161.904 550.49 162.036C530.83 172.114 514.905 206.02 508.65 226.545C507.02 231.894 507.01 237.733 505.22 242.981C504.585 244.843 503.855 245.909 502.06 246.839C501.27 246.878 500.66 246.911 499.935 246.514C494.405 243.479 492.94 232.957 491.815 227.254C483.225 183.656 500.64 117.625 525.26 81.0462C530 74.0022 535.6 66.7932 544.39 65.1027Z" fill="#DA4827"/>
<path d="M195.771 679.109C199.157 678.819 202.88 679.009 205.825 680.909C207.811 682.189 208.633 684.244 209.281 686.439C210.411 690.269 210.589 694.544 211.096 698.504C211.828 704.214 212.663 709.899 213.901 715.524C216.744 728.439 226.641 769.184 237.793 775.684C249.133 782.294 297.226 694.809 306.937 684.709C308.314 683.274 309.656 682.219 311.6 681.704C313.579 681.179 316.165 681.189 317.874 682.489C319.297 683.569 319.584 685.179 319.702 686.864C320.232 694.409 312.243 727.249 310.448 736.754C307.218 753.669 304.763 770.724 303.089 787.859C302.073 797.739 301.151 807.704 300.644 817.624C300.4 822.399 301.052 827.384 300.354 832.094C300.109 833.749 299.715 834.859 298.654 836.144C297.451 836.734 296.88 837.129 295.49 836.814C291.956 836.014 288.622 831.714 286.722 828.769C277.765 814.884 285.697 776.989 289.03 761.394C290.297 755.794 296.996 729.444 296.092 725.804L295.42 725.724C294.04 726.724 293.125 727.969 292.203 729.399C289.49 733.599 287.221 738.234 284.746 742.594C279.178 752.399 273.507 762.254 267.072 771.514C261.558 779.449 253.36 791.124 243.033 792.719C214.115 797.189 208.46 724.789 202.572 720.329C199.707 723.659 198.036 790.729 198.072 799.624C198.102 807.004 199.743 821.969 198.582 828.254C198.356 829.474 197.606 830.399 196.508 830.974C195.472 831.519 194.242 831.429 193.164 831.089C189.46 829.929 186.725 825.844 184.942 822.589C166.666 789.254 178.633 726.709 188.832 691.739C190.119 687.324 191.485 681.459 195.771 679.109Z" fill="#AE7567"/>
<path d="M211.441 276.105C212.865 275.939 214.288 275.792 215.723 275.92C219.665 276.272 224.724 278.07 227.178 281.353C229.6 284.593 229.047 289.441 228.683 293.258C228.069 299.705 226.526 306.168 225.322 312.531C223.14 324.128 220.896 335.713 218.588 347.285C214.326 368.988 210.241 390.725 206.334 412.495C203.947 425.304 201.313 438.076 199.181 450.93C215.64 444.955 251.686 428.996 268.367 433.449C272.095 434.444 276.128 436.742 278.041 440.224C279.279 442.493 279.477 445.187 278.583 447.613C277.059 451.718 273.018 453.807 269.31 455.562C255.56 461.501 238.711 464.518 224.219 468.317C212.405 471.415 200.501 475.454 188.536 477.829C185.968 478.339 183.478 478.599 180.86 478.339C179.598 477.689 178.957 476.684 178.354 475.439C175.286 469.085 176.267 459.119 176.271 452.25C176.292 416.834 180.678 381.378 186.437 346.48C189.454 328.196 192.585 308.89 199.121 291.477C201.621 284.815 204.666 279.209 211.441 276.105Z" fill="#F59A41"/>
<path d="M489.685 870.696C494.6 870.291 499.785 870.496 504.22 872.876C506.12 873.896 508.08 875.461 508.38 877.766C508.555 879.121 508.095 880.016 507.235 880.991C503.19 885.586 490.715 893.206 485.075 897.146C440.385 928.391 385.55 953.056 330.007 952.171C318.284 951.991 306.61 950.606 295.171 948.036C288.643 946.561 281.994 943.986 275.325 943.421C269.289 942.916 262.71 944.191 256.622 944.321C244.108 944.586 228.589 943.066 219.207 933.746C214.597 929.226 212.034 923.021 212.113 916.566C212.199 910.546 214.819 905.176 219.191 901.091C226.057 894.681 233.847 893.291 242.904 893.526C245.929 894.231 248.805 894.951 251.534 896.516C256.277 899.236 259.193 903.781 260.458 909.026C261.145 911.871 261.727 915.831 259.888 918.371C259.145 919.396 258.421 919.741 257.233 919.991C254.565 917.951 255.875 907.516 251.219 902.711C248.195 899.586 243.384 898.701 239.212 898.656C233.121 898.586 226.537 900.661 222.21 905.091C218.938 908.441 216.986 913.156 217.255 917.861C217.561 923.196 220.679 927.966 224.69 931.326C235.153 940.091 251.156 939.661 263.962 938.781C316.861 935.161 370.107 912.281 419.06 892.921C441.735 883.951 465.2 873.021 489.685 870.696Z" fill="#3C3D4F"/>
<path d="M494.12 876.219C496.66 876.299 499.225 876.054 501.17 877.904C500.865 879.319 500.345 879.874 499.18 880.754C495.16 883.789 490.54 886.379 486.395 889.304C477.865 895.324 469.4 901.459 460.465 906.864C423.225 929.389 378.21 946.539 334.222 946.829C323.482 946.899 312.993 945.684 302.393 944.089C297.81 943.114 293.154 942.359 288.546 941.504C316.227 936.769 348.703 926.179 374.854 916.074C397.405 907.359 419.705 897.999 442.36 889.554C453.61 885.364 465.09 880.754 476.825 878.119C482.605 876.824 488.225 876.414 494.12 876.219Z" fill="white"/>
<path d="M575.675 674.627C579.305 674.147 583.165 674.162 586.8 674.637C594.38 675.632 601.635 678.962 606.235 685.282C611.16 692.047 612.41 701.167 611.15 709.297C608.845 724.187 598.7 737.087 586.79 745.782C572.16 756.452 555.79 760.567 538 757.797C539.14 767.062 541.135 775.452 548.29 782.057C553.045 786.442 559.285 788.832 565.76 788.472C581.305 787.617 590.95 775.002 600.66 764.557L601.78 764.092C602.82 764.607 602.865 764.827 603.19 765.977C604.795 771.627 600.225 780.882 597.32 785.407C591.495 794.497 581.125 801.372 570.61 803.627C560.08 805.882 549.085 803.762 540.15 797.742C529.535 790.682 523.84 779.072 521.465 766.822C517.245 745.027 523.805 721.147 536.18 703.047C545.665 689.172 558.83 677.757 575.675 674.627Z" fill="#AE7567"/>
<path d="M534.89 507.125C536.08 507.13 537.34 507.195 538.52 507.39C541.305 507.86 543.915 509.55 545.355 511.99C546.295 513.58 547.02 515.985 546.795 517.835C545.88 525.44 540.27 536.645 537.57 544.135C533.935 554.105 530.82 564.26 528.245 574.555L534.505 567.43C546.44 553.985 586.03 511.88 603.815 511.305C606.555 511.22 608.545 512.065 610.435 514.025C612.215 515.87 612.84 517.625 612.71 520.165C612.61 522.15 611.95 523.72 610.66 525.235C605.875 530.865 598.995 535.59 593.22 540.27C575.795 554.39 556.995 567.325 540.375 582.365C549.195 591.73 560.905 599.355 571.33 606.825C584.18 615.07 597.29 622.21 612.555 624.865C616.34 625.525 621.03 625.13 624.215 627.54C624.685 628.625 624.885 628.87 624.36 630.035C622.81 633.455 615.59 636.435 612.11 637.15C591.59 641.39 562.255 620.34 546.825 607.76C540.19 602.355 533.86 595.965 526.725 591.275L526.14 590.895C524.345 600.855 526.36 623.315 523.71 630.585C523.29 631.735 521.99 632.86 520.8 633.195C519.2 633.65 517.74 632.95 516.45 632.04C512.26 629.085 510.15 623.14 509.335 618.255C505.53 595.35 512.055 531.465 526.14 512.35C528.64 508.965 530.765 507.745 534.89 507.125Z" fill="#EE7E63"/>
<path d="M448.53 104.197C450.675 104.034 452.785 103.977 454.935 104.064C462.545 104.374 470.445 106.805 475.64 112.656C479.845 117.48 481.895 123.812 481.32 130.185C480.8 136.277 478.23 141.651 473.515 145.587C468.845 149.484 461.845 152.122 455.75 151.45C451.575 150.989 447.875 149.671 445.17 146.338L445.33 145.618C449.57 144.987 453.515 147.246 458.1 146.46C462.755 145.66 467.23 143.413 469.935 139.426C472.42 135.769 472.92 131.228 472.01 126.968C471.105 122.71 468.76 118.92 465.05 116.566C460.17 113.467 453.765 113.267 448.3 114.695C443.01 116.078 438.645 118.799 436.03 123.685C424.445 145.304 453.52 162.511 464.66 176.553C467.995 180.75 470.455 185.714 472.01 190.833C475.53 202.398 474.74 215.912 468.97 226.625C462.34 238.936 450.905 246.201 437.77 250.045C428.9 251.936 419.5 252.116 410.74 249.553C401.71 246.913 393.245 240.884 388.863 232.424C385.716 226.348 385.234 218.926 387.326 212.422C389.373 206.059 395.075 199.189 401.27 196.364C402.925 195.62 404.805 195.559 406.5 196.192L406.85 197.147C405.715 199.545 403.6 201.338 401.765 203.219C397.48 207.617 394.78 212.979 394.995 219.263C395.215 224.423 397.575 229.258 401.515 232.599C406.685 237.023 414.14 238.576 420.805 237.873C428.225 237.09 435.96 232.583 440.47 226.658C455.82 206.497 432.545 186.094 422.135 170.439C417.37 163.277 413.57 155.498 412.425 146.889C411.15 137.286 413.42 126.22 419.56 118.543C426.665 109.666 437.495 105.304 448.53 104.197Z" fill="#DA4827"/>
<path d="M689.385 349.57C698.5 348.811 705.68 351.258 713.255 356.182C734.455 369.966 746.105 396.761 751.08 420.747C760.015 463.858 749.04 510.998 724.905 547.543C719.39 555.893 702.97 576.253 693.005 578.278C691.655 577.943 691.625 577.953 690.785 576.848C690.645 575.728 690.355 575.153 691.23 574.273C692.935 572.548 695.57 571.053 697.545 569.593C703.735 565.018 709.285 559.818 713.205 553.138C710.15 532.243 699.375 513.003 693.265 492.878C691.71 486.988 690.075 480.493 690.725 474.353C691.11 470.678 692.485 466.281 695.58 463.983C697.745 462.378 700.34 462.065 702.94 462.6C707.565 463.553 711.17 466.985 713.695 470.816C724.445 487.118 725.85 521.813 722.065 540.888C723.285 539.253 724.45 537.583 725.565 535.873C730.29 528.498 733.925 520.098 737.04 511.913C748.365 482.173 752.035 450.413 744.96 419.169C739.9 396.842 729.12 372.578 708.955 360.097C703.225 356.549 695.985 353.528 689.17 355.372C677.925 358.413 683.345 368.997 679.55 374.345C679.08 375.008 678.705 374.801 677.97 374.839C676.47 374.01 675.49 373.265 674.93 371.569C673.68 367.761 675.405 361.372 677.315 358.002C680.06 353.143 684.19 350.941 689.385 349.57Z" fill="#3C3D4F"/>
<path d="M700.095 467.371C701.52 467.598 703.06 468.083 704.295 468.836C711.01 472.93 713.71 483.738 715.24 490.913C716.935 498.853 720.19 531.963 716.52 537.598L715.745 536.873C709.805 521.748 696.2 492.763 696.175 477.643C696.165 473.288 697.005 470.431 700.095 467.371Z" fill="white"/>
<path d="M312.924 1.19796C316.409 0.74926 321.329 0.75451 324.516 2.32816C327.052 3.58061 329.063 6.08251 329.816 8.80311C330.537 11.4089 329.872 14.0621 328.561 16.3654C316.448 37.647 238.624 64.023 214.519 70.4035C209.195 71.6845 203.872 72.7435 198.401 73.0925C207.357 67.534 216.416 63.856 225.053 57.3535C251.641 37.3375 277.937 5.00336 312.924 1.19796Z" fill="#3C3D4F"/>
<path d="M315.189 6.20573C317.447 6.04903 319.929 6.14874 322.043 7.03534C323.186 7.51464 324.2 8.30579 324.567 9.53584C324.967 10.8749 324.735 12.1968 324.129 13.4251C316.528 28.8253 255.676 52.0218 238.627 57.7203L230.434 60.1903L254.579 39.8438C272.059 25.1918 291.511 8.22788 315.189 6.20573Z" fill="white"/>
<path d="M365.307 129.563C370.397 129.345 374.921 130.22 379.172 133.255C382.016 135.285 384.271 138.161 384.802 141.692C385.126 143.847 384.555 146.034 383.953 148.092C382.344 153.593 379.794 158.926 377.789 164.305C374.49 173.156 371.756 182.521 369.787 191.754C368.334 198.566 367.428 205.804 366.898 212.747C366.464 218.444 366.642 224.65 365.147 230.182C364.64 232.057 363.754 233.527 362.645 235.101C362.424 235.196 362.207 235.3 361.981 235.385C360.286 236.02 358.667 236.175 356.991 235.356C351.905 232.871 349.122 225.682 347.46 220.575C340.889 200.39 342.989 159.337 352.806 140.275C355.697 134.663 359.372 131.483 365.307 129.563Z" fill="#DA4827"/>
<path d="M382.647 87.6372C387.851 86.7362 393.14 88.7032 396.49 92.7867C399.84 96.8702 400.735 102.44 398.835 107.368C396.935 112.297 392.535 115.824 387.309 116.602C379.362 117.786 371.942 112.356 370.665 104.424C369.388 96.4912 374.73 89.0072 382.647 87.6372Z" fill="#DA4827"/>
<path d="M507.67 901.01C509.92 900.125 512.48 900.525 514.35 902.06C516.225 903.595 517.12 906.02 516.69 908.405C516.26 910.79 514.575 912.75 512.285 913.535C508.855 914.715 505.11 912.935 503.855 909.53C502.6 906.125 504.295 902.345 507.67 901.01Z" fill="#3C3D4F"/>
<path d="M174.238 63.8455C177.587 62.7205 181.224 64.462 182.447 67.7765C183.67 71.091 182.037 74.778 178.76 76.0985C176.552 76.988 174.036 76.6065 172.191 75.103C170.346 73.5995 169.464 71.2115 169.89 68.8695C170.316 66.528 171.982 64.603 174.238 63.8455Z" fill="#3C3D4F"/>
<path d="M538.94 866.847C540.605 866.257 542.455 866.627 543.76 867.812C545.07 868.992 545.62 870.797 545.195 872.512C544.775 874.222 543.445 875.562 541.74 876.002C539.255 876.637 536.71 875.212 535.965 872.762C535.215 870.312 536.53 867.702 538.94 866.847Z" fill="#3C3D4F"/>
<path d="M131.602 83.9728C134.072 83.6328 136.357 85.3408 136.73 87.8058C137.104 90.2708 135.428 92.5783 132.968 92.9858C131.347 93.2543 129.706 92.6293 128.675 91.3498C127.643 90.0703 127.38 88.3348 127.986 86.8073C128.593 85.2798 129.974 84.1968 131.602 83.9728Z" fill="#3C3D4F"/>
<path d="M543.675 899.143C545.73 898.403 548 899.483 548.72 901.548C549.44 903.613 548.34 905.873 546.265 906.573C544.22 907.263 542 906.178 541.29 904.143C540.58 902.103 541.64 899.873 543.675 899.143Z" fill="#3C3D4F"/>
</svg>
