<svg width="1024" height="2048" viewBox="0 0 1024 2048" fill="none" xmlns="http://www.w3.org/2000/svg">
<path d="M334.384 2048C335.604 2042.88 343.454 2024.12 345.846 2018.18C355.013 1995.29 364.483 1972.53 374.255 1949.9C395.89 1899.61 418.373 1851.16 449.56 1805.96C505.876 1724.34 585.724 1655.64 660.047 1590.36C706.739 1549.78 752.57 1508.22 797.508 1465.71C888.109 1379.37 955.882 1302.53 1024 1197.95V1414.35V1620.69V1849.22V2048H866.517H688.697H460.29H334.384Z" fill="#EE9978"/>
<path d="M914.402 1761.21C943.864 1731.88 969.174 1704.08 992.871 1669.55C1003.62 1653.88 1013.86 1636.85 1024 1620.69V1849.22V2048H866.517H688.697C719.408 2010.48 749.218 1963.52 777.628 1923.9C760.532 1914.31 739.914 1904.84 722.391 1895.63C719.336 1894.02 708.806 1894.66 703.669 1892.25C697.35 1889.28 696.69 1882.85 692.227 1880.64C682.18 1875.67 671.739 1870.79 661.611 1865.95C642.347 1856.53 622.913 1847.46 603.319 1838.74C593.821 1834.56 581.588 1831.04 579.345 1819.9C580.904 1814.34 671.777 1684.88 681.683 1672.22C717.415 1665.4 757.405 1680.22 787.134 1699.44C798.834 1708.35 805.825 1714.41 814.986 1726.05C855.86 1724.93 883.188 1735.08 914.402 1761.21Z" fill="#133851"/>
<path d="M914.402 1761.21C943.864 1731.88 969.174 1704.08 992.871 1669.55C1003.62 1653.88 1013.86 1636.85 1024 1620.69V1849.22V2048H866.517H688.697C719.408 2010.48 749.218 1963.52 777.628 1923.9C806.047 1937.64 833.704 1953.17 862.288 1966.5C867.897 1961.15 875.509 1950.5 880.4 1944.04L908.469 1906.87C926.587 1882.87 950.35 1854.01 966.774 1830C962.156 1822.49 953.653 1816.93 948.425 1808.77C943.137 1800.53 940.525 1790.61 935.173 1782.95C930.112 1775.71 920.982 1767.52 914.402 1761.21Z" fill="#B1D3E5"/>
<path d="M1024 1849.22V2048H866.517C875.309 2037.88 886.801 2018.03 894.952 2006.53C925.36 1963.62 958.141 1923.27 992.944 1883.88C1003.1 1872.39 1014.48 1861.1 1024 1849.22Z" fill="#FADB8A"/>
<path d="M686.025 1679.2C692.96 1678.58 699.934 1678.52 706.879 1679.02C746.117 1681.86 782.584 1700.3 808.134 1730.22C800.71 1739.51 793.038 1751.19 785.784 1760.91C762.548 1792.02 740.85 1824.34 718.873 1856.38C715.277 1857.24 702.516 1842.04 697.204 1838.02C663.464 1812.47 638.786 1806.67 597.941 1805.63C626.433 1763.63 657.121 1721.6 686.025 1679.2Z" fill="#FDFBF1"/>
<path d="M653.091 1778.81C678.689 1778.47 715.079 1797 730.998 1817.77C733.236 1820.68 732.714 1822.44 732.045 1825.69C727.506 1825.95 715.855 1815.4 712.534 1811.72C694.999 1792.29 674.165 1794.53 654.82 1785.71C652.423 1782.66 653.151 1783.46 653.091 1778.81Z" fill="#133851"/>
<path d="M685.149 1736.01C692.018 1737 698.766 1738.69 705.288 1741.06C720.509 1746.49 750.678 1762.19 759.895 1777.61C761.233 1779.85 759.499 1782.3 758.393 1784.62C754.007 1783.27 722.392 1753.12 709.123 1751.01C705.726 1750.47 685.801 1745.13 683.409 1741.92C683.274 1738.12 682.961 1739.65 685.149 1736.01Z" fill="#133851"/>
<path d="M815.49 1734.06C866.594 1731.49 898.19 1753.33 931.246 1789.87C923.638 1798.03 908.7 1819.28 901.046 1829.48C880.241 1857.48 859.182 1885.29 837.872 1912.91C806.336 1879.28 770.035 1860.35 723.182 1865.04C752.64 1823.13 783.929 1774.29 815.49 1734.06Z" fill="#FDFBF1"/>
<path d="M786.027 1785.25C815.695 1787.06 848.546 1799.09 869.723 1820.5C871.37 1822.17 870.457 1824.67 870.064 1826.65C869.523 1826.6 868.982 1826.56 868.441 1826.52L867.738 1826.44C862.536 1825.84 826.752 1796.99 812.612 1797.43C810.374 1797.5 787.706 1793.62 785.193 1790.91C784.55 1787.65 784.59 1788.95 786.027 1785.25Z" fill="#133851"/>
<path d="M757.891 1826.16C782.588 1826.48 824.304 1841.92 840.564 1863.02C841.614 1864.38 840.17 1867 839.545 1868.57C834.608 1868.04 799.072 1840.24 786.309 1838.57C781.054 1837.88 760.473 1834.98 757.381 1831.91C756.551 1828.65 756.658 1829.96 757.891 1826.16Z" fill="#133851"/>
<path d="M699.503 1869.33C698.56 1869.99 694.982 1872.41 693.873 1871.96C683.198 1867.59 672.787 1862.31 662.366 1857.34L601.464 1828.8C596.827 1826.59 590.278 1824.45 588.591 1819.68L589.574 1819.02C602.256 1819 683.16 1859.07 699.902 1867.17C735.734 1883.62 770.729 1902.42 805.733 1920.57C818.642 1927.26 831.876 1936.32 845.398 1941.44C849.227 1942.89 852.449 1943.44 856.429 1941.83C864.444 1938.59 936.53 1839.06 949.976 1822.94L956.854 1829.28L894.701 1911.41C884.408 1924.98 870.901 1943.95 860.25 1956.69L771.536 1911.27C759.26 1904.96 734.585 1893.48 724.575 1885.64C719.152 1886.79 711.982 1887.84 706.841 1885.2C703.417 1882.22 702.793 1878.44 702.496 1874.05C702.459 1873.49 702.429 1872.94 702.407 1872.39C701.478 1871.37 700.523 1870.24 699.503 1869.33Z" fill="#B1D3E5"/>
<path d="M934.379 1799.68C936.065 1802.08 941.738 1814.49 943.341 1817.85C935.666 1826.38 926.079 1840.41 918.601 1849.78C896.838 1877.05 875.631 1907.76 853.385 1934.34L843.41 1920.28C870.875 1881.72 905.153 1837.11 934.379 1799.68Z" fill="#FDFBF1"/>
<path d="M730.549 1872.31C737.237 1872.06 743.934 1872.37 750.569 1873.25C787.746 1878.17 817.019 1899.22 839.405 1928.36C834.761 1927.13 820.845 1919.46 815.951 1916.7C788.474 1901.18 757.47 1888.25 730.549 1872.31Z" fill="#FDFBF1"/>
<path d="M604.586 1814.36C643.564 1812.43 683.711 1832.39 709.04 1861.38C701.265 1859 666.344 1842.14 656.892 1837.52C640.469 1829.5 620.008 1821.95 604.586 1814.36Z" fill="#FDFBF1"/>
<path d="M603.319 1838.74C622.913 1847.46 642.347 1856.53 661.611 1865.95C671.739 1870.79 682.18 1875.67 692.227 1880.64C696.69 1882.85 697.35 1889.28 703.669 1892.25C708.806 1894.66 719.336 1894.02 722.391 1895.63C739.914 1904.84 760.532 1914.31 777.628 1923.9C749.218 1963.52 719.408 2010.48 688.697 2048H460.29C461.588 2043.59 475.07 2020.03 477.625 2015.55C513.476 1952.54 555.587 1893.31 603.319 1838.74Z" fill="#FADB8A"/>
<path d="M1024 1414.35V1620.69C1013.86 1636.85 1003.62 1653.88 992.871 1669.55C969.174 1704.08 943.864 1731.88 914.402 1761.21C883.188 1735.08 855.86 1724.93 814.986 1726.05C805.825 1714.41 798.834 1708.35 787.134 1699.44C791.726 1693.31 801.983 1682.79 807.671 1676.66C822.909 1660.18 838.46 1644 854.316 1628.11C920.182 1562.01 983.978 1499.78 1024 1414.35Z" fill="#FADB8A"/>
<path d="M0 0H150.794H291.61H472.008H731.662C717.491 18.6019 703.953 35.6352 687.765 52.4292C616.632 126.221 521.158 179.224 432.719 229.816C303.011 304.017 183.158 383.615 102.523 513.196C70.796 564.182 42.3364 626.884 22.8972 684.114C17.9878 698.477 13.3674 712.937 9.03888 727.486C7.05242 734.303 2.68763 751.679 0 757.363V568.232V400.04V240.009V0Z" fill="#EE9978"/>
<path d="M0 0H150.794H291.61H472.008C388.116 53.2182 292.188 122.581 222.884 193.996C184.207 234.045 149.237 277.516 118.403 323.875C92.4322 362.036 69.3333 402.075 49.2975 443.66C28.614 487.365 15.4644 522.998 0 568.232V400.04V240.009V0Z" fill="#FADB8A"/>
<path d="M0 0H150.794H291.61C177.323 105.068 81.2807 223.297 16.3816 365.332C12.7401 373.302 4.25656 393.813 0 400.04V240.009V0Z" fill="#B1D3E5"/>
<path d="M0 0H150.794C141.909 9.12757 127.872 28.4488 120.169 38.899C86.3548 84.8701 55.6642 133.059 28.3042 183.141C18.6564 201.182 9.34126 223.252 0 240.009V0Z" fill="#FADB8A"/>
<path d="M846.784 205.375C852.022 204.692 860.698 204.681 865.904 204.957C896.935 206.529 926.03 220.511 946.646 243.756C966.579 266.103 976.148 293.2 974.67 323.204C971.561 386.315 889.699 427.792 856.069 475.88C847.707 487.836 845.503 519.436 837.253 526.674C827.118 532.631 794.269 556.11 784.612 554.217C778.943 551.132 777.391 545.826 774.883 540.184C768.67 526.205 762.229 512.367 755.672 498.547C758.256 489.002 768.31 458.439 768.799 450.447C773.586 372.209 710.412 272.832 800.251 221.237C817.331 211.428 827.906 207.918 846.784 205.375Z" fill="#133851"/>
<path d="M847.521 213.335C848.143 213.216 848.768 213.118 849.395 213.04C875.763 209.656 904.756 218.812 925.718 234.88C948.092 251.886 962.739 277.131 966.398 304.995C974.624 368.749 911.539 403.544 873.608 444.254C863.354 455.259 855.287 463.771 846.083 475.706C841.729 474.091 835.674 472.489 831.108 471.135C835.182 441.835 857.693 393.743 870.161 365.896C887.064 368.03 902.478 367.847 918.75 359.165C939.797 347.935 940.422 319.257 915.732 312.328C907.877 310.123 900.247 314.43 893.556 318.879C880.359 329.937 873.058 342.385 865.848 357.656C851.536 354.273 845.724 352.24 832.469 345.877C835.223 329.443 837.514 320.394 835.114 304.01C829.627 266.563 779.501 273.274 787.718 308.947C791.417 325.003 809.767 341.433 823.764 349.636C814.868 392.91 806.906 415.887 791.201 457.139L777.484 452.485C775.825 414.256 768.996 372.637 761.721 334.918C749.226 270.128 780.63 222.841 847.521 213.335Z" fill="#FADB8A"/>
<path d="M830.997 354.247C842.593 359.032 850.006 361.538 862.155 364.675C849.167 391.704 830.662 434.569 824.249 462.765C823.405 466.274 824.143 465.337 821.829 467.071C814.792 466.413 805.399 462.09 798.582 459.406C813.696 420.665 822.563 394.975 830.997 354.247Z" fill="#FADB8A"/>
<path d="M906.516 320.065C934.286 316.707 937.194 351.929 894.226 358.801C887.291 359.432 880.496 359.056 873.536 358.846C880.911 343.31 891.236 328.55 906.516 320.065Z" fill="#FADB8A"/>
<path d="M769.788 477.36C792.802 485.238 815.873 492.949 838.999 500.492L833.223 517.705C826.227 517.232 774.511 498.346 765.34 495.051C766.932 489.463 768.376 483.062 769.788 477.36Z" fill="#B1D3E5"/>
<path d="M803.958 287.047C834.266 284.54 829.029 320.353 825.568 340.085L824.095 340.737L821.479 339.23C807.823 329.123 779.94 300.642 803.958 287.047Z" fill="#FADB8A"/>
<path d="M768.094 504.872C787.018 510.682 806.719 517.971 825.923 524.05L810.785 533.06L787.19 547.184C780.653 533.778 774.094 518.593 768.094 504.872Z" fill="#B1D3E5"/>
<path d="M774.736 459.771C790.366 466.401 827.902 478.493 844.226 483.051L841.065 492.644C838.957 492.809 778.483 471.729 773.538 469.466C772.555 466.317 773.862 463.061 774.736 459.771Z" fill="#B1D3E5"/>
<path d="M835.833 670.339C870.53 664.542 903.294 688.159 908.764 722.909C914.233 757.66 890.308 790.199 855.508 795.341C821.169 800.414 789.154 776.875 783.757 742.585C778.359 708.296 801.595 676.06 835.833 670.339Z" fill="#133851"/>
<path d="M837.87 678.497C867.926 673.792 896.085 694.4 900.69 724.472C905.295 754.543 884.593 782.634 854.507 787.139C824.561 791.623 796.631 771.04 792.047 741.109C787.464 711.178 807.955 683.18 837.87 678.497Z" fill="#B1D3E5"/>
<path d="M889.945 596.462C909.829 592.56 929.088 605.592 932.859 625.5C936.63 645.409 923.472 664.582 903.539 668.222C883.79 671.828 864.834 658.818 861.098 639.094C857.362 619.37 870.246 600.328 889.945 596.462Z" fill="#133851"/>
<path d="M891.237 604.473C906.424 601.27 921.353 610.913 924.678 626.074C928.003 641.235 918.479 656.24 903.345 659.687C888.039 663.172 872.825 653.516 869.462 638.182C866.1 622.849 875.877 607.713 891.237 604.473Z" fill="#FDFBF1"/>
<path d="M874.8 142.178C878.512 143.18 877.86 142.435 880.105 144.983C882.218 152.259 879.83 177.483 877.392 184.704C873.546 183.884 874.585 184.604 872.139 182.355C869.934 175.543 872.373 148.926 874.8 142.178Z" fill="#133851"/>
<path d="M793.348 157.412C803.152 157.819 810.079 190.412 807.158 197.202C804.36 196.617 802.309 195.871 801.294 192.958C798.738 185.623 790.589 164.272 793.348 157.412Z" fill="#133851"/>
<path d="M957.108 177.626C960.341 179.575 959.973 178.682 961.088 181.647C959.808 188.808 945.215 206.542 939.944 212.425C936.652 211.514 936.616 211.31 935.616 208.523C936.868 202.089 952.212 182.716 957.108 177.626Z" fill="#133851"/>
<path d="M728.197 203.654C737.156 203.505 755.334 224.085 755.432 233.182C745.987 233.074 728.284 213.168 728.197 203.654Z" fill="#133851"/>
<path d="M1007.39 240.921C1011.1 240.949 1009.99 240.44 1012.37 242.28L1012.44 244.77C1008.64 250.469 991.146 258.826 984.335 262.393C981.292 262.823 982.546 262.932 979.511 261.739C976.276 254.805 1001.42 244.059 1007.39 240.921Z" fill="#133851"/>
<path d="M123.802 1370.28C125.846 1367.62 127.554 1365.59 131.042 1365.13C134.592 1364.66 138.122 1365.48 140.899 1367.77C151.005 1376.12 151.402 1400.19 153.393 1401.53C159.27 1404.44 162.229 1418.57 164.338 1424.82C173.828 1452.96 194.082 1514.93 193.318 1542.81C192.849 1559.92 187.727 1576.41 180.239 1591.71C177.93 1596.44 175.309 1601.5 171.955 1605.56C176.289 1611.63 182.04 1616.65 187.03 1622.18C194.013 1629.9 200.717 1637.97 207.406 1645.95C221.635 1662.92 234.431 1681.01 248.264 1698.29C256.774 1708.92 266.202 1718.65 274.89 1729.07C276.399 1730.7 276.655 1730.78 276.874 1732.96C275.937 1735.19 274.706 1736.97 273.29 1738.93C288.409 1739.01 367.976 1734.81 376.345 1742.9C376.641 1743.19 376.947 1743.46 377.243 1743.74C385.604 1751.67 392.747 1761.98 400.196 1770.85L445.029 1824.43C456.314 1837.86 467.67 1851.89 480.422 1863.94C491.924 1856.55 513.433 1849.54 527.241 1852.49C529.426 1852.96 530.564 1853.74 532.136 1855.29C533.135 1857.5 533.301 1859.11 532.46 1861.44C528.675 1871.85 492.283 1900.38 481.598 1905.2C480.242 1905.8 477.927 1906.8 476.495 1906.25C471.013 1904.17 464.766 1893.3 461.21 1888.41C458.428 1884.14 455.013 1880.96 451.217 1877.63C439.76 1869 428.928 1859.4 417.949 1850.15C402.467 1837.25 387.163 1824.14 372.041 1810.82C364.066 1803.68 356.576 1795.92 348.44 1788.97C334.349 1792.14 320.232 1795.19 306.089 1798.11C325.151 1835.44 345.81 1872.05 365.844 1908.86L387.007 1947.52C390.785 1954.38 394.346 1961.93 398.906 1968.27C399.718 1969.4 400.296 1969.94 401.596 1970.39L401.797 1971.07C400.384 1972.45 399.955 1973.04 398.015 1973.58C398.532 1974.94 398.918 1975.06 398.342 1976.49C395.674 1983.11 386.81 1987.41 380.563 1990C379.335 1988.24 378.145 1986.13 376.725 1984.54L374.617 1987.09C348.299 1955.54 323.676 1922.25 298.711 1889.62C280.441 1865.74 261.574 1842.25 243.091 1818.53L238.037 1812.18C232.817 1812.83 227.576 1813.27 222.323 1813.51C203.671 1814.27 179.855 1809.37 165.71 1796.3C158.162 1799.01 135.408 1810.98 128.339 1808.3C127.484 1807.98 127.436 1807.79 126.779 1807.14C123.758 1803.05 124.988 1776.79 124.885 1770.67C123.53 1741.81 120.638 1713.18 113.882 1685.04C109.145 1665.3 102.637 1645.93 97.3858 1626.32C98.4825 1625.08 100.131 1623.54 100.618 1621.94C101.351 1619.53 99.442 1616.88 98.1887 1614.95C86.963 1622.24 73.5589 1625.41 60.2602 1623.92C45.2402 1622.22 29.8229 1614.14 20.5157 1602.12C10.1034 1588.69 6.4084 1570.69 8.61233 1554.02C10.657 1538.56 18.8413 1522.26 31.3823 1512.68C45.6868 1501.74 56.6245 1503.76 73.2101 1506.07C71.5101 1506.73 69.2585 1507.13 68.2755 1508.78C68.1879 1508.93 68.1653 1509.1 68.1101 1509.27L66.6589 1509.56C67.8542 1511.7 68.9876 1514.37 70.6173 1516.18C72.0057 1513.34 73.9746 1512.09 76.5405 1510.38C77.5897 1510.73 76.9953 1510.64 78.3403 1510.49L77.8606 1507.34L86.5673 1508.91C92.9943 1510.36 107.434 1513.74 112.133 1518.62C112.245 1518.74 112.301 1518.9 112.385 1519.03C114.28 1521.53 115.811 1522.6 118.619 1523.95C119.559 1524.41 119.219 1524.24 120.267 1524.98L120.097 1528.69L122.109 1528.5C126.066 1534.85 128.481 1540.87 129.766 1548.29L130.604 1558.23C134.261 1559.87 137.723 1561.66 141.198 1563.66C144.921 1553.72 146.154 1542.98 146.122 1532.42C146.008 1494.33 134.653 1455.7 129.171 1418.22C128.844 1415.98 128.643 1414.21 129.65 1412.14C126.179 1401.76 118.512 1391.96 116.299 1381.34C115.711 1378.51 115.554 1375.27 117.429 1372.87C118.934 1370.94 121.555 1370.71 123.802 1370.28Z" fill="#D77B70"/>
<path d="M169.166 1793.24C171.609 1798.05 186.569 1803.6 191.828 1805.3C227.579 1816.89 272.375 1801.74 307.637 1793.68C321.417 1790.53 336.104 1788.49 349.487 1784C359.64 1794.76 445.677 1871.78 454.053 1873.28L455 1873.91L454.708 1874.29C452.948 1874.84 452.235 1875.99 451.157 1877.38C439.713 1868.72 428.894 1859.1 417.928 1849.83C402.467 1836.9 387.181 1823.76 372.078 1810.42C364.113 1803.25 356.63 1795.48 348.504 1788.51C334.432 1791.69 320.331 1794.74 306.205 1797.67C325.246 1835.09 345.878 1871.78 365.887 1908.67L387.024 1947.42C390.798 1954.3 394.354 1961.87 398.908 1968.22C399.719 1969.36 400.296 1969.9 401.595 1970.35L401.797 1971.03C400.386 1972.41 399.958 1973 398.019 1973.54C398.535 1974.9 398.922 1975.03 398.345 1976.46C395.682 1983.09 386.827 1987.41 380.589 1990C379.361 1988.24 378.174 1986.12 376.756 1984.53L374.65 1987.08C348.364 1955.46 323.771 1922.09 298.836 1889.39C280.589 1865.46 261.745 1841.91 243.285 1818.14L238.236 1811.77C233.024 1812.42 227.789 1812.86 222.542 1813.11C203.913 1813.87 180.126 1808.96 166 1795.86C167.018 1794.75 167.867 1794 169.166 1793.24Z" fill="#38394F"/>
<path d="M393.853 1966L398.38 1973.08C398.902 1974.48 399.292 1974.61 398.71 1976.08C396.021 1982.9 387.081 1987.34 380.782 1990C379.542 1988.19 378.344 1986.01 376.911 1984.38L374 1980.04C381.491 1976.07 387.937 1972.23 393.853 1966Z" fill="#F7D89C"/>
<path d="M244.185 1814.53L243 1812.72C243.871 1811.35 246.4 1811.19 248.007 1810.84C265.872 1806.93 284.086 1804.09 301.69 1799C313.001 1815.43 321.404 1834.6 330.879 1852.18C351.061 1889.65 371.081 1927.42 392 1964.46C385.288 1968.28 378.946 1974.07 372.99 1979C370.223 1976.16 367.826 1972.41 365.365 1969.27L348.288 1947.46L275.404 1853.5C265.278 1840.63 255.697 1826.12 244.185 1814.53Z" fill="#7F4143"/>
<path d="M480.268 1864.01C491.804 1856.69 513.376 1849.76 527.224 1852.68C529.416 1853.15 530.557 1853.92 532.133 1855.45C533.136 1857.64 533.302 1859.23 532.458 1861.53C528.662 1871.83 492.164 1900.04 481.449 1904.8C480.088 1905.4 477.766 1906.38 476.331 1905.84C470.833 1903.79 464.566 1893.04 461 1888.21L463.124 1885.71C464.837 1884.21 467.81 1883.03 469.819 1881.75L467.252 1880.55C472.603 1876.6 475.677 1873.47 478.205 1867.28L478.577 1866.32C479.095 1868.43 478.297 1869.99 477.715 1872.07L478.117 1872.49C478.301 1872.29 478.506 1872.12 478.666 1871.9C480.358 1869.63 480.571 1866.7 480.268 1864.01Z" fill="#D77B70"/>
<path d="M480.268 1864.01C491.804 1856.69 513.376 1849.76 527.224 1852.68C529.416 1853.15 530.557 1853.92 532.133 1855.45C533.136 1857.64 533.302 1859.23 532.458 1861.53C528.662 1871.83 492.164 1900.04 481.449 1904.8C480.088 1905.4 477.766 1906.38 476.331 1905.84C470.833 1903.79 464.566 1893.04 461 1888.21L463.124 1885.71C467.866 1891.47 471.902 1897.72 476.708 1903.44C486.909 1898.91 525.627 1869.08 529.222 1859.74C528.842 1858.16 528.738 1857.57 527.072 1856.82C518.43 1852.92 491.396 1862.64 482.338 1866.06C479.551 1873.48 476.305 1877.16 469.819 1881.75L467.252 1880.55C472.603 1876.6 475.677 1873.47 478.205 1867.28L478.577 1866.32C479.095 1868.43 478.297 1869.99 477.715 1872.07L478.117 1872.49C478.301 1872.29 478.506 1872.12 478.666 1871.9C480.358 1869.63 480.571 1866.7 480.268 1864.01Z" fill="#353858"/>
<path d="M274.479 1729C275.995 1730.62 276.253 1730.71 276.473 1732.88C275.53 1735.11 274.294 1736.88 272.873 1738.84C288.057 1738.92 367.961 1734.73 376.366 1742.8C376.662 1743.09 376.969 1743.36 377.269 1743.64C385.665 1751.55 392.837 1761.84 400.318 1770.69L445.341 1824.15C456.676 1837.55 468.078 1851.55 480.884 1863.58C481.187 1866.3 480.974 1869.25 479.281 1871.55C479.12 1871.76 478.915 1871.94 478.731 1872.14L478.328 1871.72C478.911 1869.62 479.71 1868.05 479.191 1865.92L478.818 1866.88C476.287 1873.13 473.209 1876.29 467.851 1880.27L470.422 1881.48C468.41 1882.78 465.433 1883.97 463.718 1885.48L461.591 1888C458.797 1883.74 455.369 1880.57 451.557 1877.24C452.641 1875.86 453.358 1874.72 455.128 1874.17L455.421 1873.79L454.469 1873.16C459.002 1867.69 464.55 1863.16 468.331 1857.08C463.865 1849.73 450.693 1836.42 444.59 1829.08L402.968 1779.65C393.156 1767.77 383.681 1754.75 372.773 1743.87C361.883 1742.11 350.357 1742.47 339.334 1742.33C314.889 1742.04 290.43 1742.79 266 1742.43C267.936 1738.85 270.864 1736.09 272.837 1732.61C273.417 1731.59 273.113 1731.51 272.787 1730.47L274.479 1729Z" fill="#4C3F51"/>
<path d="M454.827 1873.93C460.721 1868.68 465.459 1866.14 469.459 1859C472.217 1861.77 474.899 1864.69 478 1867.09C475.493 1873.27 472.445 1876.4 467.138 1880.35L469.684 1881.55C467.692 1882.83 464.743 1884.01 463.044 1885.51L460.938 1888C458.171 1883.78 454.775 1880.64 451 1877.35C452.074 1875.98 452.784 1874.85 454.537 1874.3L454.827 1873.93Z" fill="#F7D89C"/>
<path d="M451 1877.11C452.092 1875.71 452.814 1874.56 454.596 1874C457.187 1876.79 459.975 1879.52 462.298 1882.52L467.41 1880.18L470 1881.4C467.974 1882.71 464.976 1883.92 463.248 1885.45L461.106 1888C458.292 1883.69 454.839 1880.48 451 1877.11Z" fill="#4C3F51"/>
<path d="M168.314 1612C172.386 1616.36 176.522 1620.7 180 1625.59C179.729 1625.54 179.457 1625.49 179.186 1625.43C177.991 1625.18 178.457 1625.3 177.258 1624.86L176.502 1626C172.937 1623.73 168.918 1617.67 166 1614.31C167.141 1613.77 167.546 1613.01 168.314 1612Z" fill="#4C3F51"/>
<path d="M98 1614.68C86.7977 1621.96 73.4217 1625.13 60.1509 1623.64C45.1622 1621.94 29.7772 1613.86 20.4895 1601.85C10.099 1588.42 6.41173 1570.43 8.61105 1553.76C10.6515 1538.3 18.8186 1522 31.3333 1512.42C45.6079 1501.49 56.5227 1503.51 73.0737 1505.82C71.3772 1506.48 69.1303 1506.88 68.1493 1508.53C68.0619 1508.68 68.0394 1508.85 67.9843 1509.02L66.5361 1509.31C67.729 1511.45 68.8599 1514.12 70.4862 1515.93L70.8515 1516.62L70.9796 1517.23C73.9769 1530.99 82.7011 1551.01 75.0589 1564.85C73.9135 1567.76 72.7641 1570.36 70.4726 1572.56C72.2296 1576.62 75.2082 1579.31 78.3761 1582.29C83.8871 1584.9 87.7527 1585.85 93.6586 1583.92L91.6724 1586.2C92.9877 1586.83 92.3667 1586.64 93.5011 1586.88L95.5276 1587.09C99.3951 1592.61 95.3755 1613.26 98 1614.68Z" fill="#4C3F51"/>
<path d="M77.4679 1584.46C76.8932 1584.2 76.515 1584.06 75.991 1583.75C72.6709 1581.86 68.8543 1578.73 68 1575.09C68.7247 1573.6 68.6402 1573.62 70.2622 1573C72.061 1576.87 75.1106 1579.43 78.3539 1582.27C83.9961 1584.77 87.9536 1585.67 94 1583.83L91.9667 1586C93.3133 1586.61 92.6773 1586.42 93.8387 1586.65C92.9696 1587.06 92.0963 1587.45 91.1511 1587.68C86.3879 1588.85 81.4698 1586.6 77.4679 1584.46Z" fill="#38394F"/>
<path d="M78.2372 1507L86.9201 1508.57C93.3295 1510.02 107.73 1513.41 112.416 1518.31C112.528 1518.43 112.583 1518.59 112.667 1518.73C114.557 1521.23 116.083 1522.31 118.884 1523.66C119.821 1524.12 119.483 1523.95 120.527 1524.69L120.358 1528.42L122.364 1528.22C126.31 1534.6 128.719 1540.64 130 1548.08L126.834 1549.4C127.014 1554.01 127.104 1558.61 127.106 1563.22C125.207 1575.46 119.992 1586.13 117.297 1598.03C111.509 1601.29 105.629 1603.64 99.4413 1606C99.5485 1598.82 99.7974 1591.6 99.6475 1584.42C104.077 1581.05 106.962 1577.64 109.792 1572.76C108.24 1571.51 107.817 1571.33 107.202 1569.46L105.609 1570.56C102.52 1570.87 98.7889 1570.93 96.0368 1569.37C95.7509 1569.48 95.4628 1569.6 95.1789 1569.73C95.0998 1569.77 95.0256 1569.81 94.9486 1569.85L95.7117 1567.88L94.105 1568.95L93.2787 1568.43C92.7864 1570.5 92.7417 1570.83 93.3838 1572.84C96.2053 1575.34 100.176 1575.03 103.732 1575.17C100.735 1578.53 97.8408 1581.44 94.171 1584.09C88.2689 1586.03 84.406 1585.07 78.8985 1582.45C75.7326 1579.46 72.7558 1576.76 71 1572.7C73.29 1570.49 74.4388 1567.88 75.5835 1564.95C83.2207 1551.07 74.5021 1530.98 71.5067 1517.17L71.3788 1516.56L71.0137 1515.86C72.3983 1513.01 74.3618 1511.76 76.9206 1510.04C77.967 1510.4 77.3744 1510.31 78.7156 1510.16L78.2372 1507Z" fill="#F7D89C"/>
<path d="M78.1486 1507L86.7414 1508.61C93.0844 1510.11 107.335 1513.59 111.973 1518.62C112.083 1518.74 112.139 1518.91 112.222 1519.05C114.092 1521.62 115.602 1522.72 118.374 1524.12C119.301 1524.59 118.967 1524.42 120 1525.18L119.833 1529L117.092 1528.34C108.173 1519.4 97.8605 1514.19 85.5406 1512.92C80.4556 1513.69 76.1061 1514.65 71.3613 1516.82L71 1516.11C72.3702 1513.18 74.3133 1511.89 76.8456 1510.13C77.8811 1510.49 77.2947 1510.4 78.622 1510.24L78.1486 1507Z" fill="#303255"/>
<path d="M93 1568.5C94.0935 1565.95 95.3113 1564.55 97.8584 1563.64C100.702 1562.63 104.111 1562.76 106.727 1564.4C108.077 1565.25 109.251 1566.49 109.753 1568.11C110.296 1569.85 109.848 1571.35 109.324 1573C107.79 1571.7 107.371 1571.51 106.764 1569.56L105.188 1570.71C102.135 1571.03 98.4469 1571.1 95.7265 1569.47C95.4438 1569.59 95.159 1569.71 94.8784 1569.85C94.8002 1569.89 94.7268 1569.93 94.6507 1569.97L95.4051 1567.92L93.8169 1569.04L93 1568.5Z" fill="#38394F"/>
<path d="M96 1569.64C97.656 1568.18 99.1406 1566.97 101.443 1567C103.769 1567.03 105.359 1568.14 107 1569.73L105.43 1570.82C102.387 1571.13 98.7112 1571.2 96 1569.64Z" fill="white"/>
<path d="M117 1528L119.901 1528.65L122.002 1528.46C126.135 1534.94 128.658 1541.08 130 1548.65L126.684 1550C125.111 1541.41 122.66 1534.91 117 1528Z" fill="#38394F"/>
<path d="M95.0051 1537C95.8925 1537.03 96.6657 1537.42 97.5011 1537.72L98 1538.97C97.8016 1539.8 97.783 1540.05 97.3733 1540.89C95.8039 1544.09 92.2536 1545.29 89.2382 1546C88.3122 1545.36 87.7189 1545.02 87.2065 1543.94C86.7435 1542.95 87.1609 1542.51 87.4672 1541.54C89.6581 1539.32 92.2761 1538.28 95.0051 1537Z" fill="#303255"/>
<path d="M87.9883 1523C88.2755 1523.02 88.5634 1523.02 88.8486 1523.06C91.326 1523.33 93.2605 1523.93 94.8525 1525.72C95.2128 1527.8 94.9147 1528.07 93.9396 1529.92C92.9255 1529.97 91.7842 1530.07 90.7803 1529.93C88.9723 1529.66 88.2379 1528.91 87.1595 1527.69C86.7711 1525.62 87.1089 1524.85 87.9883 1523Z" fill="#303255"/>
<path d="M123.672 1370.27C125.697 1367.62 127.39 1365.59 130.847 1365.13C134.366 1364.66 137.864 1365.48 140.617 1367.77C150.633 1376.1 151.027 1400.13 153 1401.47L151.23 1403.13L148.791 1403.27C142.932 1403.94 137.269 1406.23 132.113 1409.06L130.634 1409.42C130.399 1410.25 130.11 1411.1 129.959 1411.95L132.027 1412.71C137.589 1451.58 154.209 1512.2 148.291 1549.42C145.446 1567.31 137.755 1583.85 127.082 1598.34C119.601 1608.49 109.882 1617.16 103.111 1627.74C101.485 1635.78 112.345 1663.64 115.012 1673.36C123.04 1702.61 128.453 1736.09 128.13 1766.5H127.344L126.256 1763.57L125.68 1763.33C125.872 1766.28 126.416 1767.49 124.744 1770C123.401 1741.19 120.535 1712.6 113.839 1684.51C109.144 1664.81 102.694 1645.47 97.4887 1625.89C98.5758 1624.65 100.209 1623.11 100.693 1621.51C101.419 1619.11 99.5269 1616.46 98.2847 1614.54C95.6781 1613.12 99.6704 1592.5 95.829 1586.99L93.8161 1586.78C92.6894 1586.54 93.3064 1586.73 92 1586.1L93.9726 1583.83C97.6199 1581.19 100.496 1578.29 103.475 1574.94C99.9403 1574.81 95.9944 1575.12 93.1903 1572.63C92.5521 1570.63 92.5965 1570.3 93.0857 1568.24L93.907 1568.76L95.5038 1567.69L94.7454 1569.66C94.8219 1569.61 94.8957 1569.57 94.9743 1569.54C95.2565 1569.41 95.5428 1569.29 95.827 1569.17C98.5621 1570.73 102.27 1570.67 105.34 1570.36L106.924 1569.26C107.535 1571.12 107.956 1571.31 109.498 1572.55C106.685 1577.4 103.818 1580.8 99.4155 1584.15C99.5645 1591.3 99.3172 1598.48 99.2106 1605.63C105.361 1603.28 111.204 1600.95 116.956 1597.7C119.635 1585.86 124.818 1575.23 126.705 1563.06C126.704 1558.47 126.615 1553.89 126.436 1549.31L129.582 1547.99L130.414 1557.91C134.038 1559.55 137.469 1561.34 140.913 1563.33C144.604 1553.41 145.826 1542.69 145.794 1532.14C145.681 1494.12 134.426 1455.55 128.993 1418.13C128.668 1415.9 128.47 1414.13 129.468 1412.07C126.028 1401.7 118.428 1391.92 116.235 1381.31C115.652 1378.49 115.496 1375.26 117.354 1372.86C118.846 1370.93 121.444 1370.7 123.672 1370.27Z" fill="#353858"/>
<path d="M127.867 1371.49C129.505 1369.76 131.181 1368.05 133.739 1368C136.164 1367.96 138.324 1369.91 139.718 1371.73C146.366 1380.43 147.819 1392.63 149 1403.2C143.179 1403.87 137.552 1406.17 132.429 1409C129.336 1400.44 120.026 1385.85 120 1377.38C119.995 1375.69 120.295 1375.11 121.488 1374.01C123.258 1374.54 123.689 1376.15 124.712 1377.66C125.735 1379.17 126.128 1380.38 127.947 1380.7C128.901 1378.43 128.026 1374.03 127.867 1371.49Z" fill="#F7D89C"/>
<path d="M130.21 1562C133.606 1562.94 137.068 1564.42 140 1566.4C138.658 1572.72 128.222 1594.15 122.479 1597.53C121.966 1597.83 121.574 1597.87 121 1598C121.788 1589.48 126.824 1580.95 128.606 1572.36C129.443 1568.88 129.877 1565.54 130.21 1562Z" fill="#7F4143"/>
<path d="M127 1549.35L130.164 1548L131 1558.17L130.866 1562.46C130.538 1566.06 130.11 1569.47 129.285 1573C129.487 1569.01 129.827 1566.7 127.271 1563.44C127.27 1558.74 127.18 1554.05 127 1549.35Z" fill="#303255"/>
<path d="M109.022 1609.5L112.341 1609L113 1609.77C111.676 1611.72 109.228 1613.82 108.362 1615.85C106.858 1617.14 106.473 1617.66 104.476 1618C103.255 1616.77 103.326 1616.33 103 1614.6C103.945 1612.09 106.736 1611.94 108.573 1610.05C108.738 1609.88 108.872 1609.69 109.022 1609.5Z" fill="#D77B70"/>
<path d="M153.783 1402C159.647 1404.9 162.599 1418.98 164.703 1425.22C174.172 1453.27 194.379 1515.05 193.615 1542.85C193.148 1559.91 188.037 1576.35 180.568 1591.6C178.263 1596.31 175.648 1601.36 172.301 1605.41C176.627 1611.45 182.364 1616.47 187.341 1621.97C194.309 1629.67 200.997 1637.72 207.671 1645.68C221.867 1662.59 234.634 1680.63 248.436 1697.85C256.925 1708.45 266.331 1718.15 275 1728.54L273.319 1730C263.779 1723.03 255.168 1711.39 247.728 1702.23C229.191 1679.42 211.884 1655.83 192.856 1633.36C185.578 1624.77 178.447 1615.54 169.873 1608.21L169.35 1608.58C168.843 1607.69 168.217 1607.07 167.523 1606.33C170.319 1600.97 174.077 1595.97 176.913 1590.51C188.7 1567.87 192.047 1547.07 187.821 1521.96C185.301 1506.98 159.678 1410.86 152.744 1405.95L153.189 1404.82L152 1403.66L153.783 1402Z" fill="#38394F"/>
<path d="M240.195 1741L241 1750.22C228.072 1760.14 183.938 1788.12 169.023 1793.16C167.726 1793.91 166.876 1794.64 165.859 1795.74C158.324 1798.42 135.613 1810.27 128.557 1807.61C127.705 1807.29 127.656 1807.11 127 1806.47L127.666 1804.82L129.635 1804.38C152.626 1802.63 213.187 1765.22 233.376 1751.17C235.398 1749.77 237.005 1748.9 237.455 1746.42C237.891 1743.53 237.956 1742.9 240.195 1741Z" fill="#353858"/>
<path d="M176 1626.07L176.761 1625C177.969 1625.41 177.499 1625.3 178.703 1625.54C178.976 1625.59 179.249 1625.64 179.523 1625.69C199.521 1647.54 215.937 1674.1 227.78 1700.96C230.018 1706.04 232.785 1711.76 234 1717.16L231.429 1719C223.671 1696.07 211.248 1670.65 195.379 1652.05L191.603 1646.82C187.136 1639.35 180.54 1633.44 176 1626.07Z" fill="#38394F"/>
<path d="M167.201 1606C167.884 1606.76 168.5 1607.4 169 1608.31C168.622 1609.73 168.361 1610.75 168.351 1612.24C167.603 1613.21 167.209 1613.95 166.098 1614.47C159.071 1618.66 150.491 1637.46 142.71 1640L142 1639.22C143.237 1635.23 163.485 1610.95 167.201 1606Z" fill="#38394F"/>
<path d="M125.138 1770.66C126.575 1768.16 126.108 1766.95 125.943 1764L126.438 1764.24L127.372 1767.17H128.048C129.389 1779.58 128.022 1792.4 129 1804.9L127.32 1805.34L126.751 1807C124.179 1802.92 125.226 1776.76 125.138 1770.66Z" fill="#38394F"/>
<path d="M194.189 1654.07L194.438 1655.11C193.624 1656.55 193.344 1657.26 191.579 1657.77C188.771 1658.57 185.576 1657.17 183.381 1655.52C181.549 1654.15 181.251 1652.93 181 1650.77C181.789 1648.65 183.065 1647.63 184.731 1646.19C186.649 1645.77 187.157 1646.09 189.046 1646.72C190.076 1646.95 191.169 1646.92 192.225 1646.97L196 1652.18L194.189 1654.07Z" fill="#38394F"/>
<path d="M192.117 1646.24L196 1651.41L194.136 1653.28C191.857 1654.08 189.079 1654.42 186.874 1653.19C185.243 1652.28 185.249 1651.47 185 1649.89C185.817 1647.84 187.016 1647.17 188.85 1646C189.91 1646.22 191.033 1646.2 192.117 1646.24Z" fill="#FFE058"/>
<path d="M132.206 1409.19C137.489 1406.24 143.29 1403.85 149.293 1403.14L151.79 1403L153 1404.21L152.548 1405.39C145.704 1407.79 138.739 1410 132.118 1413L130 1412.21C130.155 1411.32 130.451 1410.43 130.692 1409.56L132.206 1409.19Z" fill="#303255"/>
<path d="M233.383 1717C234.999 1721.95 236.538 1726.93 238 1731.94L235.279 1735C234.239 1729.55 232.509 1724.2 231 1718.89L233.383 1717Z" fill="#353858"/>
<path d="M238.482 1732L240 1740.72C238.072 1742.57 238.017 1743.18 237.641 1746C237.348 1742.2 236.718 1738.61 236 1734.89L238.482 1732Z" fill="#38394F"/>
<path d="M210.72 1699.13C212.071 1699.02 213.39 1698.87 214.729 1699.21C216.573 1699.68 218.153 1700.89 219.123 1702.56C220.044 1704.14 220.221 1705.87 219.742 1707.63C218.951 1710.55 216.963 1711.68 214.529 1713C211.48 1712.77 208.662 1712.6 206.425 1710.16C205.245 1708.87 204.775 1707.19 205.101 1705.46C205.7 1702.28 208.284 1700.77 210.72 1699.13Z" fill="#38394F"/>
<path d="M212.835 1700.05C215.25 1699.69 217.513 1701.32 217.932 1703.73C218.353 1706.13 216.777 1708.43 214.38 1708.91C212.778 1709.23 211.13 1708.66 210.072 1707.41C209.014 1706.17 208.713 1704.45 209.287 1702.92C209.86 1701.39 211.219 1700.29 212.835 1700.05Z" fill="#FFE058"/>
<path d="M177.174 1629.81C177.621 1630.32 178.176 1630.9 178.492 1631.5C179.245 1632.94 179.049 1634.16 178.624 1635.63C177.258 1637.54 175.939 1638.58 173.609 1638.92C171.488 1639.22 169.385 1638.73 167.822 1637.12C166.621 1635.88 165.888 1634.19 166.014 1632.41C166.161 1630.33 167.435 1628.6 169.018 1627.42C170.775 1626.1 172.342 1625.78 174.471 1626.14C175.846 1627.36 176.098 1627.62 176.707 1629.38L177.174 1629.81Z" fill="#38394F"/>
<path d="M177.493 1629.69L178 1632.69C177.244 1634.7 177.204 1634.82 175.408 1635.98C173.686 1636.07 172.228 1635.85 170.851 1634.68C169.284 1633.35 169.207 1632.41 169 1630.54C169.751 1628.69 170.504 1628.12 172.129 1627C174.627 1627.06 175.035 1627.74 176.97 1629.23L177.493 1629.69Z" fill="#FFE058"/>
<path d="M199.169 1672.11C200.847 1671.97 202.744 1671.85 204.325 1672.49C206.166 1673.23 206.39 1674.01 207 1675.53C206.469 1677.65 205.938 1678.07 204.349 1679.66C202.678 1680.07 201.001 1680.2 199.354 1679.55C197.94 1678.99 197.21 1677.89 197.033 1676.59C196.782 1674.75 198.025 1673.49 199.169 1672.11Z" fill="#FFE058"/>
<path d="M222.235 1728.18C223.818 1727.72 225.526 1728.15 226.689 1729.32C227.851 1730.49 228.284 1732.2 227.813 1733.78C227.344 1735.36 226.048 1736.56 224.436 1736.9C222.069 1737.4 219.729 1735.94 219.137 1733.6C218.546 1731.25 219.914 1728.86 222.235 1728.18Z" fill="#FFE058"/>
<path d="M66.5323 1406.66C62.2475 1400.11 56.5895 1388.74 58.3196 1380.82C58.989 1377.64 60.9368 1374.88 63.6996 1373.2C67.5327 1370.83 72.7382 1370.43 76.9922 1371.74C82.2883 1373.38 85.8043 1377.66 88.0734 1382.58C91.3908 1389.77 92.7962 1398.43 93.3407 1406.28C103.008 1414.98 115.238 1480.48 117.741 1496.05C119.495 1506.95 120.422 1517.9 122 1528.81L119.997 1529L120.165 1525.27C119.123 1524.53 119.46 1524.7 118.525 1524.24C115.728 1522.88 114.203 1521.81 112.316 1519.3C112.232 1519.16 112.177 1519 112.065 1518.89C107.385 1513.98 93.0043 1510.59 86.6034 1509.13L77.9321 1507.56L78.4099 1510.72C77.0704 1510.87 77.6623 1510.96 76.6173 1510.61C74.0619 1512.33 72.1011 1513.58 70.7183 1516.43C69.0953 1514.62 67.9666 1511.94 66.7761 1509.79L68.2213 1509.49C68.2762 1509.33 68.2989 1509.15 68.3861 1509C69.3651 1507.35 71.6074 1506.94 73.3005 1506.28L74.0928 1505.97C76.1944 1498.64 67.1894 1426.42 65.9385 1415.05C65.4483 1413.47 66.0401 1412.47 66.7266 1411.03C67.591 1409.22 67.0129 1408.53 66.5323 1406.66Z" fill="#D77B70"/>
<path d="M68.6338 1404.56L68.2215 1403.39C65.8587 1396.84 58.6616 1387.11 61.7635 1379.87C62.4403 1378.3 63.4079 1377.2 65.1258 1376.83C68.69 1376.05 71.4456 1376.51 75.007 1375C77.7071 1375.21 79.5763 1376.09 81.4261 1378.13C87.589 1384.91 88.6357 1397.14 90.1697 1405.82L92 1407.53L90.3369 1409.4L89.6761 1409.6C83.7242 1411.35 74.1144 1411.5 69.3556 1415.4L68.7649 1417C67.7002 1415.83 67.2948 1415.75 65.7692 1415.25C65.2736 1413.65 65.8719 1412.66 66.566 1411.21C67.4399 1409.39 66.8555 1408.7 66.3696 1406.82L68.6338 1404.56Z" fill="#F7D89C"/>
<path d="M66.7704 1407.19L68.9992 1405C69.9851 1407.07 70.1723 1408.19 72.1906 1409.39C78.3897 1409.85 84.1598 1407.33 90.1983 1406.21L92 1407.87L90.3629 1409.67L89.7125 1409.86C83.8537 1411.55 74.3941 1411.69 69.7098 1415.46L69.1283 1417C68.0802 1415.87 67.6812 1415.79 66.1794 1415.31C65.6916 1413.77 66.2806 1412.81 66.9638 1411.42C67.824 1409.66 67.2487 1409 66.7704 1407.19Z" fill="#303255"/>
<path d="M66.5323 1406.66C62.2475 1400.11 56.5895 1388.74 58.3196 1380.82C58.989 1377.64 60.9368 1374.88 63.6996 1373.2C67.5327 1370.83 72.7382 1370.43 76.9922 1371.74C82.2883 1373.38 85.8043 1377.66 88.0734 1382.58C91.3908 1389.77 92.7962 1398.43 93.3407 1406.28C103.008 1414.98 115.238 1480.48 117.741 1496.05C119.495 1506.95 120.422 1517.9 122 1528.81L119.997 1529L120.165 1525.27C119.123 1524.53 119.46 1524.7 118.525 1524.24C115.728 1522.88 114.203 1521.81 112.316 1519.3C114.19 1520.22 115.992 1521.44 117.778 1522.53C113.006 1487.17 106.966 1448.46 94.5538 1414.93C93.5384 1412.18 93.0008 1410.49 90.2395 1409.23L91.8845 1407.37L90.074 1405.66C88.5567 1397.01 87.5214 1384.83 81.4253 1378.08C79.5956 1376.05 77.7467 1375.18 75.076 1374.97C71.5532 1376.47 68.8275 1376.02 65.302 1376.78C63.6028 1377.16 62.6457 1378.25 61.9763 1379.82C58.908 1387.02 66.027 1396.72 68.3641 1403.24L68.7719 1404.4L66.5323 1406.66Z" fill="#353858"/>
<path d="M66 1415C67.452 1415.5 67.8378 1415.58 68.8512 1416.74C73.4649 1426.73 78.5285 1494.56 77.5402 1507.16L78 1510.31C76.7111 1510.46 77.2806 1510.55 76.2751 1510.2C73.8164 1511.91 71.9296 1513.16 70.5992 1516C69.0375 1514.19 67.9514 1511.52 66.8059 1509.38L68.1965 1509.08C68.2494 1508.92 68.2712 1508.75 68.3551 1508.59C69.2971 1506.95 71.4547 1506.55 73.0837 1505.88L73.8461 1505.57C75.8682 1498.27 67.2036 1426.32 66 1415Z" fill="#353858"/>
<path d="M68.4687 1509C71.3352 1509.27 74.1934 1509.46 77 1510.12C74.4034 1511.86 72.411 1513.12 71.0059 1516C69.3567 1514.17 68.2097 1511.47 67 1509.3L68.4687 1509Z" fill="#F7D89C"/>
<path d="M401.782 1969.93C414.122 1962.87 435.774 1956.29 449.964 1960.14C451.991 1960.69 454.306 1961.84 455.354 1963.79C456.385 1965.71 456.049 1968.08 455.273 1970.01C451.246 1980.04 411.43 2006.18 400.186 2010.48C398.424 2011.15 394.518 2012.67 392.735 2011.66C387.887 2008.92 378.921 1992.4 375 1986.85L377.093 1984.27C378.503 1985.88 379.682 1988.02 380.903 1989.81C387.104 1987.18 395.905 1982.82 398.552 1976.11C399.125 1974.66 398.741 1974.53 398.227 1973.16C400.155 1972.61 400.58 1972.02 401.983 1970.62L401.782 1969.93Z" fill="#353858"/>
<path d="M438.382 1963.21C439.493 1963.09 439.227 1963.09 440.169 1963.08C443.698 1963.04 447.928 1962.46 450.639 1965.16C451.043 1966.82 451.227 1967.33 450.545 1968.98C446.625 1978.48 405.933 2003.68 395.936 2008L394.038 2007.94C388.945 2004.9 385.528 1997.07 382 1992.22C389.157 1988.58 395.177 1985.42 399.94 1978.6C400.905 1977.22 400.215 1975.5 401.176 1974.28C405.981 1968.11 430.673 1963.87 438.382 1963.21Z" fill="#D77B70"/>
<path d="M191.164 921.612C194.192 919.486 197.124 917.279 199.953 915C196.782 918.898 192.554 924.414 189.11 928L185.953 926.207L191.164 921.612Z" fill="#F5E4AD"/>
<path d="M472.646 388.173C473.166 388.144 473.686 388.12 474.206 388.102C566.298 384.532 569.655 475.805 520.357 511.449C501.405 525.153 484.681 529.294 458.289 530C373.116 526.108 355.623 463.728 402.114 420.75C417.218 406.787 447.706 390.441 472.646 388.173Z" fill="#FBD473"/>
<path d="M523.917 1177.21C582.369 1172.97 582.341 1233.12 556.152 1256C544.934 1265.8 534.278 1267.75 517.823 1269C508.012 1268.38 500.216 1267.85 491.151 1264.54C480.521 1260.74 472.581 1253.96 469.217 1245.84C458.37 1220.34 488.12 1184.85 523.917 1177.21Z" fill="#A6A877"/>
<path d="M432.66 1176.67C443.529 1176.04 480.192 1174.01 483.953 1182.56C482.452 1190.71 469.38 1188.84 460.616 1189.66C456.208 1190.08 451.261 1190.19 446.785 1190.45C437.982 1216.3 424.217 1241.38 419.614 1268.57L417.73 1269.77C405.209 1271.46 401.099 1263.36 402.509 1255.8C406.63 1233.71 413.319 1212.49 423.281 1191.38C414.788 1192.05 395.602 1195.25 392.409 1187.9C391.554 1185.89 391.913 1183.72 393.397 1181.9C398.933 1177.68 423.933 1177.12 432.66 1176.67Z" fill="#F59B71"/>
<path d="M606.768 389C612.59 389.358 631.246 392.104 630.562 397.732C629.474 406.678 624.787 416.001 621.559 424.757C613.752 445.927 606.612 468.623 609.731 490.597C610.607 496.384 613.844 506.866 620.535 510.381C623.795 512.094 628.328 512.565 632.089 512.002C672.002 506.026 684.37 442.636 691.171 418.516C693.919 410.227 692.934 399.004 698.844 391.574C701.911 387.719 713.49 390.087 717.141 392.702C723.534 397.28 722.734 403.652 722.953 409.532C722.625 421.317 721.183 433.073 718.636 444.722C713.277 470.115 700.815 504.594 670.503 521.454C657.329 528.38 641.039 528.863 625.693 527.197C570.233 520.747 573.399 477.517 581.395 447.478C585.611 431.641 590.225 416.09 596.868 400.691C598.838 396.125 601.171 391.794 606.768 389Z" fill="#A6A877"/>
<path d="M467.983 866.216C470.845 866.061 473.714 865.99 476.584 866.001C488.838 866.096 500.522 869.722 508.998 876.06C539.39 898.426 527.987 940.307 498.723 960.546C487.791 968.101 477.072 969.243 462.732 968.962C364.715 961.996 399.24 878.152 467.983 866.216Z" fill="#FBD473"/>
<path d="M607.695 866.064C682.865 863.26 678.668 953.564 619.047 967.439C612.899 968.864 607.088 968.95 600.767 969C541.066 964.325 528.635 932.257 555.25 896.54C565.412 882.903 586.272 869.853 607.695 866.064Z" fill="#A6A877"/>
<path d="M401.92 1013.08C403.19 1013.03 404.461 1013.01 405.732 1013C415.225 1012.99 425.979 1017.11 432.5 1022.1C462.078 1044.75 450.711 1090.21 423.351 1111.29C412.753 1119.47 397.369 1120.1 383.038 1119.99C374.079 1118.91 367.332 1118.07 359.123 1114.9C325.462 1101.94 332.188 1067.54 347.867 1047.48C359.768 1032.25 377.971 1018.1 401.92 1013.08Z" fill="#FBD473"/>
<path d="M243.163 390C268.005 390.429 265.119 398.947 271.272 413.183C274.292 420.026 277.602 426.801 281.198 433.5C283.598 438.095 287.325 447.805 292.872 449.614C299.594 447.76 344.53 393.458 356.548 390.759C361.967 389.541 369.265 389.827 374.341 391.684C377.315 392.773 379.646 394.556 380.543 396.889C381.643 399.749 380.368 402.799 378.619 405.381C374.029 412.16 366.208 418.494 359.933 424.562C349.843 434.319 339.984 444.046 331.137 454.411C312.465 475.863 289.765 502.882 285.329 528.048C227.126 536.006 264.411 491.921 276.557 475.183C269.066 463.491 227.491 401.729 234.814 391.993C237.016 390.486 240.118 390.37 243.163 390Z" fill="#A6A877"/>
<path d="M616.167 1305C618.692 1305.34 621.556 1305.72 623.709 1306.77C641.605 1315.44 649.383 1363.91 653.303 1379.52C657.478 1369.38 661.334 1359.17 664.865 1348.9C668.885 1337.11 672.416 1320.34 680.263 1309.73C681.689 1307.81 682.354 1307.12 685.267 1306.51C686.614 1306.8 688.04 1307.12 689.203 1307.71C692.42 1309.33 694.761 1312.06 695.442 1314.81C698.993 1329.17 683.122 1375.45 675.934 1389.07C671.246 1398.22 664.921 1406.89 657.117 1414.88L655.52 1415.58C653.265 1415.76 651.595 1415.62 649.608 1414.79C629.695 1406.53 626.262 1360.64 620.279 1345.19C616.324 1354.24 612.692 1363.37 609.385 1372.56C606.984 1379.37 599.463 1410.85 595.081 1414.85C593.912 1415.91 592.717 1415.81 590.965 1416C588.387 1415.45 586.257 1414.74 584.12 1413.56C580.486 1411.55 578.54 1408.57 578.098 1405.34C577.211 1398.85 580.62 1391.81 582.383 1385.45C587.275 1367.8 601.311 1318.18 616.167 1305Z" fill="#FBD473"/>
<path d="M315.618 717C318.647 717.233 325.55 717.778 326.657 720.177C334.144 736.398 307.466 811.483 291.059 817.916C285.003 818.528 271.426 815.732 269.615 811.571C261.194 792.219 254.727 772.329 248.008 752.632C239.868 768.82 232.415 783.345 227.632 800.406C226.722 803.657 224.079 816.044 221.878 817.754L218.326 817.798C215.882 817.316 213.399 816.83 211.058 816.127C207.937 815.188 205.086 814.015 203.863 811.603C202.349 808.616 203.111 804.138 203.423 800.98C205.835 776.514 219.594 747.475 235.43 725.557C237.207 723.097 240.157 718.89 244.175 718.129C247.274 717.542 250.89 718.231 253.555 719.435C270.654 727.159 279.666 768.733 284.377 782.999C288.411 772.091 294.07 760.564 298.642 749.688C301.508 742.871 308.141 720.396 315.618 717Z" fill="#F59B71"/>
<path d="M386.636 578.089C446.641 575.424 431.17 633.372 422.626 658.495C421.113 662.943 420.438 666.745 417.995 671.047C414.693 673.179 412.608 673.043 408.18 672.964C387.127 672.584 398.535 650.881 400.102 641.037C390.236 642.033 374.739 644.694 364.581 646.217L345.326 648.557C343.335 651.305 337.188 661 336.36 663.63C332.465 676.013 314.977 674.749 309.199 667.082C306.978 664.134 320.436 641.245 323.568 636.564C337.139 616.288 355.869 586.48 386.636 578.089Z" fill="#FBD473"/>
<path d="M702.762 719.126C730.962 717.568 752.957 730.656 759.953 749.501C753.914 766.758 732.386 772.35 712.086 779.592C711.356 780.825 714.079 782.038 715.816 782.871C725.341 787.453 754.393 800.51 755.884 809.274C758.922 827.128 734.915 812.57 729.928 809.402C718.515 802.029 697.331 792.15 683.2 787.327C680.083 795.867 680.628 821.032 664.033 817.582C661.429 817.04 655.085 814.219 655.011 812.183C654.064 786.167 664.879 752.064 676.565 727.386C685.124 721.665 691.602 720.444 702.762 719.126Z" fill="#F59B71"/>
<path d="M434.518 1305.11C439.742 1304.76 443.739 1305.18 448.042 1307.48C458.754 1313.19 463.046 1325 464.742 1334.09C466.127 1341.52 466.191 1349.09 465.599 1356.57C464.654 1368.5 458.114 1407.14 448.633 1416.04C446.51 1416.69 445.768 1416.96 443.411 1416.76C440.552 1416.51 436.329 1415.11 434.684 1413.41C429.219 1407.76 437.329 1385.52 439.313 1378.03C429.928 1379.89 420.407 1381.49 410.966 1383.2C406.354 1383.86 401.687 1384.37 397.05 1384.93C391.371 1394.57 388.308 1407.91 379.93 1416.28C377.73 1417.07 376.966 1417.24 374.465 1416.63C372.014 1416.02 369.79 1414.27 368.695 1412.63C361.698 1402.18 377.659 1371.03 383.417 1359.89C393.144 1341.09 407.819 1313.9 434.518 1305.11Z" fill="#FBD473"/>
<path d="M564.931 1014.04C587.404 1013.24 611.762 1025.19 623.477 1038.5C633.105 1049.64 636.26 1063.06 632.262 1075.86C627.419 1091 614.192 1099.9 596.591 1107.76C584.468 1112.68 570.005 1117.79 556.255 1119.8C545.168 1121.64 542.94 1110.12 542.953 1104.63C543.024 1075 558.364 1046.87 561.459 1017.63C561.61 1016.19 563.617 1015.04 564.931 1014.04Z" fill="#FBD473"/>
<path d="M496.675 578.151C525.246 576.245 563.127 592.576 548.837 616.689C542.517 627.352 516.695 633.76 501.594 636.699C513.563 640.81 557.742 659.372 546.844 671.605C539.468 675.714 528.303 668.19 523.16 664.885C506.489 653.698 497.122 651.272 476.527 644.177C474.574 652.413 473.497 661.261 469.376 669.047C464.136 676.997 449.561 671.573 448.147 664.903C447.505 661.877 448.594 656.103 449.421 652.862C455.289 629.857 458.871 605.163 471.315 583.479C473.379 579.883 491.974 578.571 496.675 578.151Z" fill="#F59B71"/>
<path d="M521.085 1307.32C526.832 1306.78 532.309 1306.82 537.818 1308.25C549.569 1311.29 558.653 1317.87 563.718 1325.97C568.99 1334.3 569.355 1343.78 564.73 1352.31C557.775 1365.04 543.501 1371.13 526.968 1376.3C539.601 1382.08 552.437 1388.4 558.174 1398.81C560.1 1402.3 562.891 1409.74 560.442 1413.33C559.407 1414.85 558.638 1414.85 556.527 1415.43C549.336 1415.01 541.908 1407.71 537.063 1404.05C527.033 1396.76 515.971 1391.3 503.826 1386.02C501.451 1393.82 501.332 1402.08 498.581 1409.76C497.51 1412.75 496.374 1414.42 492.642 1415.99C491.01 1416.04 489.748 1415.77 488.313 1415.24C484.686 1413.92 481.319 1411.9 480.212 1408.98C477.449 1401.71 497.575 1320.1 502.82 1313.96C506.181 1310.02 515.302 1308.36 521.085 1307.32Z" fill="#A6A877"/>
<path d="M455.825 717C469.125 717.267 472.856 719.902 471.6 729.097C468.717 750.186 467.925 770.897 472.655 791.873C487.262 770.405 501.271 751.257 521.256 732.029C525.991 727.474 538.319 714.727 548.19 719.759C561.163 726.374 549.074 736.604 542.68 742.825C528.25 757.195 515.012 772.159 503.035 787.639C501.111 790.175 499.046 793.903 497.096 796.128C490.008 804.211 488.478 819.758 471.29 817.837C450.096 815.468 450.326 808.762 447.828 795.934C443.24 772.379 441.85 748.673 448.557 725.291C449.798 721.006 450.539 719.306 455.825 717Z" fill="#FBD473"/>
<path d="M630.058 579.45C636.748 578.844 647.225 578.718 653.791 579.911C658.826 580.826 666.434 585.889 664.702 589.897C659.288 591.572 623.243 595.199 613.623 596.774C609.525 604.623 605.624 612.522 601.92 620.468C615.125 619.015 628.914 617.178 642.261 617.341C648.622 617.419 655.396 623.03 654.594 627.114C649.2 628.955 606.248 634.409 596.498 636.14C593.669 643.626 591.706 649.953 589.534 657.515C597.975 657.107 606.38 656.383 614.714 655.345C626.875 654.095 638.105 652.51 650.328 653.764C654.217 656.232 658.936 658.595 659.451 662.286C657.715 664.331 656.111 664.946 652.823 665.504C634.574 668.605 585.743 676.182 570.136 669.004C567.223 667.665 565.999 666.099 565.327 663.73C562.024 652.098 581.441 594.235 591.389 584.835C596.498 580.007 621.782 579.988 630.058 579.45Z" fill="#A6A877"/>
<path d="M615.936 718.488C636.34 717.711 643.075 716.107 652.953 730.059C634.359 731.496 615.79 733.086 597.667 736.466C593.633 745.182 589.839 753.954 586.287 762.776C608.53 761.064 626.04 753.489 638.427 770.618C620.16 774.016 598.767 775.308 580.506 779.474C577.313 787.052 575.196 794.128 572.821 801.836C578.412 801.705 584.179 801.707 589.663 800.98C599.753 800.035 635.074 794.817 634.637 807.612C629.728 813.545 551.324 822.753 550.973 808.248C550.401 784.635 562.381 742.178 578.94 721.706C590.478 719.509 603.938 719.078 615.936 718.488Z" fill="#A6A877"/>
<path d="M408.65 717.262C417.756 716.491 426.74 717.115 431.93 723.368C433.053 732.964 393.129 733.915 382.566 735.036C377.945 744.646 374.054 754.017 370.009 763.764C379.282 762.324 427.186 752.925 417.293 770.023C415.04 773.917 372.459 776.381 365.232 776.75C361.943 785.724 360.267 793.517 358.776 802.639C368.411 801.92 378.009 800.968 387.555 799.786C397.892 798.228 411.402 795.17 417.256 803.699C417.41 810.452 403.42 813.244 395.883 813.68C378.713 814.675 334.856 824.963 335.974 803.404C337.307 777.716 346.95 746.624 361.432 723.158C363.616 719.619 401.483 717.795 408.65 717.262Z" fill="#A6A877"/>
<path d="M349.148 1306.28C351.7 1306.07 354.34 1305.82 356.885 1306.19C361.221 1306.82 364.469 1309.55 366.739 1312.11C369.246 1314.94 370.646 1317.61 369.607 1320.95C363.6 1326.28 335.679 1325.92 325.755 1326.87C321.248 1337.4 316.557 1348.02 313.705 1358.85C322.528 1356.9 340.12 1351.21 348.906 1354.13C351.195 1354.89 352.438 1355.99 353.232 1357.67C354.682 1360.72 355.173 1362.97 353.202 1365.88C346.674 1370.11 321.019 1372.66 311.056 1374.41C308.06 1383.36 304.817 1392.44 303.985 1401.64C310.402 1401.04 316.578 1400.02 322.861 1398.93C328.027 1398.21 333.07 1396.53 338.279 1396.1C341.344 1395.85 343.9 1396.38 346.274 1397.8C348.897 1399.37 350.319 1401.43 350.612 1403.83C349.848 1406.17 348.492 1407.49 345.734 1408.76C336.888 1412.84 308.041 1417.53 297.783 1415.52C293.767 1414.73 290.963 1412.62 289.085 1410.03C277.553 1394.11 300.972 1331.39 309.192 1313.28C321.638 1308.58 335.373 1307.51 349.148 1306.28Z" fill="#A6A877"/>
<path d="M339.595 866.684C351.277 866.01 363.237 866.216 374.946 866.061C383.791 865.944 414.77 865.069 409.313 876.613C402.759 881.393 381.676 880.854 371.952 881.122C356.118 911.909 349.448 933.573 344.179 965.724C338.932 969.077 328.852 968.607 323.927 965.09C322.041 963.759 320.849 962.001 320.548 960.114C319.085 950.51 332.374 912.372 335.806 902.359C336.705 899.734 341.409 887.112 340.885 885.582C338.71 879.24 310.893 887.804 302.885 882.664C300.596 881.202 299.195 879.157 298.979 876.964C297.928 865.696 328.723 867.109 339.595 866.684Z" fill="#A6A877"/>
<path d="M494.677 1014C499.915 1014.08 512.381 1016.44 512.476 1019.22C512.701 1025.86 503.579 1047.86 501.593 1053.75C496.216 1069.97 491.674 1086.32 487.979 1102.78C497.779 1101.64 522.186 1099.07 525.675 1108.43C526.261 1109.96 525.912 1111.58 524.717 1112.91C522.397 1115.5 521.26 1115.26 517.653 1115.77C502.511 1116.43 486.096 1121.92 473.862 1119.29C471.31 1118.74 467.579 1114.42 467.017 1112.54C460.848 1091.91 483.02 1030.9 494.677 1014Z" fill="#A6A877"/>
<path d="M250.33 1305.01C252.403 1304.99 254.508 1304.96 256.511 1305.39C260.285 1306.21 263.513 1308.04 265.344 1310.52L265.612 1310.9C266.953 1312.73 267.359 1314.16 266.852 1316.22C264.343 1326.41 258.887 1336.53 255.559 1346.66C249.836 1364.08 245.904 1381.85 241.524 1399.46C249.11 1397.93 258.453 1395.54 266.093 1398.06C268.387 1398.82 269.861 1399.82 270.727 1401.53C271.273 1402.61 270.747 1404.02 270.045 1404.99C267.734 1408.21 264.575 1409.16 259.92 1410.25C251.622 1412.05 237.713 1417.81 229.424 1415.44C223.73 1413.81 221.251 1409.07 218.953 1405.35C219.551 1389.96 240.099 1316.66 250.33 1305.01Z" fill="#F59B71"/>
<path d="M729.522 1306C730.171 1306.06 730.819 1306.13 731.465 1306.2C736.182 1306.72 740.702 1307.71 743.581 1310.67C751.322 1318.61 737.791 1355.01 736.029 1366C735.146 1371.51 736.898 1377.29 735.581 1382.72C734.965 1385.26 731.756 1386.59 729.046 1388C728.245 1387.99 727.457 1387.96 726.658 1387.91C722.949 1387.66 719.871 1386.63 717.521 1384.51C710.622 1378.31 711.683 1368.12 712.682 1360.64C714.24 1349 720.194 1318.9 725.893 1309.14C726.661 1307.82 728.015 1306.9 729.522 1306Z" fill="#F59B71"/>
<path d="M715.902 1400C720.298 1400.09 724.609 1400.48 728.666 1401.82C732.274 1403 737.623 1405.68 738.688 1408.68C739.268 1410.31 738.858 1411.49 737.825 1412.91C735.892 1415.59 732.194 1416.25 728.522 1417C724.75 1416.65 720.889 1416.14 717.272 1415.27C712.487 1414.12 707.42 1411.93 705.133 1408.52C705.067 1407.72 704.741 1406.65 705.175 1405.91C707.177 1402.53 711.535 1401.34 715.902 1400Z" fill="#A6A877"/>
</svg>
