<svg width="1024" height="2048" viewBox="0 0 1024 2048" fill="none" xmlns="http://www.w3.org/2000/svg">
<path d="M1024.3 1743.51C1005.51 1723.84 983.167 1705.76 954.466 1705.02C937.432 1704.59 920.933 1710.99 908.639 1722.78C886.026 1744.58 883.626 1775.65 889.066 1804.89C860.878 1779.02 831.3 1761.89 791.689 1763.56C760.22 1764.83 730.568 1778.63 709.341 1801.9C686.48 1826.82 677.977 1852.6 678.069 1885.86C662.717 1869.71 647.547 1855.54 623.644 1854.83C611.271 1854.5 599.281 1859.14 590.356 1867.72C581.32 1876.26 576.092 1888.07 575.847 1900.5C575.664 1909.41 577.653 1915.71 580.581 1923.91C525.656 1882.24 457.783 1884.46 414.71 1941.5C392.229 1971.32 382.354 2008.77 387.211 2045.79C387.302 2046.45 387.404 2047.11 387.515 2047.76H392.518H1024.3V1750.17V1743.51Z" fill="#D7EEF4"/>
<path d="M1024.3 1743.51C1005.51 1723.84 983.167 1705.76 954.466 1705.02C937.432 1704.59 920.933 1710.99 908.639 1722.78C886.026 1744.58 883.626 1775.65 889.066 1804.89C860.878 1779.02 831.3 1761.89 791.689 1763.56C760.22 1764.83 730.568 1778.63 709.341 1801.9C686.48 1826.82 677.977 1852.6 678.069 1885.86C662.717 1869.71 647.547 1855.54 623.644 1854.83C611.271 1854.5 599.281 1859.14 590.356 1867.72C581.32 1876.26 576.092 1888.07 575.847 1900.5C575.664 1909.41 577.653 1915.71 580.581 1923.91C525.656 1882.24 457.783 1884.46 414.71 1941.5C392.229 1971.32 382.354 2008.77 387.211 2045.79C387.302 2046.45 387.404 2047.11 387.515 2047.76H392.518C391.302 2041.7 391.05 2035.71 390.981 2029.59C389.923 1935.88 477.446 1865.58 564.36 1917.66C572.983 1922.83 580.486 1931.23 589.383 1936.61L590.529 1936.28C589.493 1926.1 578.671 1911.81 580.518 1898.46C582.192 1886.37 585.206 1877.94 594.992 1869.88C603.98 1862.38 615.609 1858.83 627.253 1860.01C657.706 1863.17 668.536 1883.94 684.87 1903.71C682.098 1870.27 681.859 1848.67 701.608 1819.35C718.405 1793.98 744.631 1776.37 774.467 1770.41C813.135 1762.93 845.853 1774.77 875.862 1799.16C882.37 1804.45 888.648 1813.32 894.502 1817.26L896.088 1816.76L896.64 1814.77C888.631 1784.78 887.715 1750.56 911.229 1726.9C922.382 1715.8 937.501 1709.59 953.242 1709.65C983.26 1709.93 1004.82 1730.4 1024.3 1750.17V1743.51Z" fill="#010201"/>
<path d="M1024.48 1221.24C1009.42 1200.62 991.128 1182.15 964.772 1177.9C924.808 1171.46 894.876 1200.45 890.788 1238.91C889.79 1247.83 889.17 1255.19 889.101 1264.25C875.62 1246.89 859.897 1230.29 836.969 1227.53C803.362 1223.49 787.781 1253.5 784.97 1281.94C782.294 1309 787.993 1331.66 793.581 1357.45C781.996 1341.83 764.001 1326.77 744.168 1323.89C721.273 1320.57 701.834 1335.96 699.497 1358.97C697.444 1379.18 707.178 1397.18 719.635 1412.32C720.779 1413.72 721.984 1415.07 723.246 1416.37C709.71 1410.81 693.322 1404.87 678.777 1410.81C672.56 1413.29 667.597 1418.16 664.996 1424.33C658.561 1439.84 666.564 1455.93 674.608 1469.03C654.891 1459.79 631.84 1450.02 610.018 1457.53C590.925 1464.11 582.303 1483.71 589.551 1502.29C595.103 1517.44 609.871 1531.04 624.941 1537.05C679.409 1558.77 747.818 1545.53 800.874 1524.62C863.891 1499.78 921.659 1460.07 973.27 1416.8C990.754 1402.14 1007.53 1386.37 1024.48 1371.14V1363.78V1230.53V1221.24Z" fill="#D7EEF4"/>
<path d="M1024.48 1221.24C1009.42 1200.62 991.128 1182.15 964.772 1177.9C924.808 1171.46 894.876 1200.45 890.788 1238.91C889.79 1247.83 889.17 1255.19 889.101 1264.25C875.62 1246.89 859.897 1230.29 836.969 1227.53C803.362 1223.49 787.781 1253.5 784.97 1281.94C782.294 1309 787.993 1331.66 793.581 1357.45C781.996 1341.83 764.001 1326.77 744.168 1323.89C721.274 1320.57 701.834 1335.96 699.497 1358.97C697.444 1379.18 707.178 1397.18 719.635 1412.32C720.779 1413.72 721.984 1415.07 723.246 1416.37C709.71 1410.81 693.322 1404.87 678.777 1410.81C672.56 1413.29 667.597 1418.16 664.996 1424.33C658.561 1439.84 666.564 1455.93 674.608 1469.03C654.891 1459.79 631.84 1450.02 610.018 1457.53C590.925 1464.11 582.303 1483.71 589.551 1502.29C595.103 1517.44 609.871 1531.04 624.941 1537.05C679.409 1558.77 747.818 1545.53 800.874 1524.62C863.891 1499.78 921.659 1460.07 973.27 1416.8C990.754 1402.14 1007.53 1386.37 1024.48 1371.14V1363.78C936.8 1449.76 760.841 1585.88 621.933 1530.05C602.402 1522.19 585.574 1497.57 595.686 1475.5C613.32 1437.01 681.051 1480.25 685.411 1478.97C685.849 1473.43 676.404 1463.79 673.897 1458.27C651.838 1409.72 695.793 1404.28 727.821 1424.68C731.175 1426.81 741.858 1434.25 745.074 1435.31L747.042 1434.23C746.92 1430.23 708.441 1402.25 704.626 1370.36C703.371 1359.86 705.75 1347.66 712.442 1339.26C717.743 1332.61 725.462 1329.48 733.772 1328.6C754.881 1326.36 775.492 1342.7 788.047 1358.17C791.874 1362.89 794.728 1369.15 799.434 1372.97L800.9 1372.66C802.856 1366.7 798.417 1355.72 796.955 1349.43C789.311 1317.68 781.672 1271.62 804.353 1244.18C825.131 1219.04 863.506 1237.38 878.949 1259.2C882.741 1264.56 887.951 1275.38 892.222 1279.13L893.68 1278.85C894.948 1275.33 894.547 1272.14 894.485 1268.45C894.205 1251.39 895.064 1233.46 901.53 1217.54C917.36 1178.58 962.674 1172.08 993.935 1195.92C1008.13 1206.75 1014.86 1215.79 1024.48 1230.53V1221.24Z" fill="#010201"/>
<path d="M536.349 41.4444C576.812 39.6891 617.317 43.76 656.621 53.5322C725.147 70.345 802.45 107.381 839.973 169.25C875.19 150.178 921.518 161.116 921.263 208.972C921.152 229.733 906.487 246.942 891.78 260.442C936.988 268.989 969.038 302.675 969.491 349.658C969.891 373.747 960.621 396.993 943.754 414.196C909.816 448.572 867.195 442.606 834.562 410.26C817.724 477.424 746.195 460.788 746.783 386.255C734.76 395.718 724.422 401.821 709.823 405.491C651.103 420.254 614.322 359.721 635.975 308.865C638.559 302.795 641.212 298.442 644.623 292.92C599.329 255.374 539.279 239.864 481.25 240.631C412.602 243.172 347.02 269.711 295.925 315.627C297.202 317.267 298.426 318.947 299.594 320.666C305.922 330.166 304.276 338.764 302.154 348.996C304.63 349.003 307.095 349.311 309.496 349.914C346.571 358.924 328.156 420.734 273.993 404.42C275.265 428.991 269.886 452.429 243.912 462.496C232.433 466.94 219.645 466.563 208.448 461.448C193.362 454.592 187.288 444.385 181.944 429.885C168.847 448.008 152.712 463.677 128.667 463.968C118.461 464.163 108.607 460.24 101.328 453.085C77.3891 429.628 92.8457 398.358 112.586 378.743C91.8727 379.541 71.1755 373.472 61.8473 353.052C57.2025 342.916 56.8334 331.337 60.8232 320.926C70.9428 294.253 102.65 280.879 129.226 289.857C132.457 290.949 135.639 292.14 138.821 293.365C223.124 142.186 362.576 50.1673 536.349 41.4444Z" fill="#010201"/>
<path d="M519.91 96.4365C671.526 85.8158 848.644 188.357 898.888 340.174C903.062 352.786 896.952 367.605 885.023 374.136C878.244 377.897 870.226 378.742 862.811 376.477C847.193 371.635 841.084 350.153 833.189 334.849C789.163 249.508 719.243 188.388 627.633 159.11C590.652 143.689 522.686 139.628 483.053 143.779C399.572 153.242 321.283 189.08 259.564 246.083C241.379 262.915 228.086 278.395 212.613 297.512C201.753 289.756 197.455 288.781 184.785 289.594L184.12 288.719C189.898 278.39 213.161 249.039 221.73 239.545C301.07 151.642 402.446 103.447 519.91 96.4365Z" fill="#FADA76"/>
<path d="M866.03 165.261C896.436 163.151 919.506 179.884 916.172 213.05C913.888 235.772 895.913 251.029 878.715 264.114L882.025 264.456C908.038 267.246 929.024 275.158 945.907 296.313C960.266 314.597 966.796 337.825 964.067 360.912C961.507 383.316 950.179 403.794 932.562 417.869C905.627 438.964 870.84 436.89 845.86 413.991C839.174 407.862 834.942 402.453 829.339 395.222C829.185 413.179 827.538 427.854 812.366 440.256C797.002 452.815 776.324 448.423 764.623 433.108C750.193 414.22 750.945 394.558 753.717 372.277C751.504 374.289 749.39 376.745 747.182 378.814C718.469 405.719 679.955 414.348 650.359 383.877C642.76 374.763 637.692 363.811 635.665 352.12C632.13 331.706 637.132 312.687 648.892 295.877C664.135 309.138 672.095 318.608 684.21 334.796C689.694 341.624 698.725 348.195 707.84 348.343C730.58 348.713 741.825 334.874 743.366 314.098C752.444 326.701 759.102 339.349 767.29 352.325C786.321 382.483 823.195 373.072 829.442 338.396C839.294 356.536 845.22 382.541 871.05 382.619C880.151 382.701 888.897 379.094 895.293 372.619C901.843 365.913 905.365 356.819 905.04 347.45C904.711 337.435 898.358 324 894.137 314.832C874.03 270.526 845.233 230.709 809.453 197.738C829.364 180.827 840.564 170.775 866.03 165.261Z" fill="#D7EEF4"/>
<path d="M527.467 46.3997C567.607 43.9885 607.887 47.2016 647.138 55.9458C718.083 72.1667 796.057 107.923 835.891 171.366C825.054 178.363 815.732 186.332 805.749 194.476C770.526 163.439 730.308 138.584 686.796 120.962C580.41 77.9411 471.849 83.6558 367.112 128.001C363.868 129.459 360.632 130.934 357.404 132.427C285.231 165.862 224.555 219.877 180.441 285.62C170.51 300.42 166.349 298.521 160.466 314.556C154.71 307.403 150.103 301.824 142.774 296.26C218.915 149.492 363.802 58.5318 527.467 46.3997Z" fill="#F6C6D2"/>
<path d="M494.309 147.421C496.656 147.057 499.538 147.085 501.945 146.954C623.211 140.35 743.723 200.152 809.291 302.869C816.847 314.706 826.804 328.581 823.621 343.425C822.035 350.606 817.658 356.862 811.456 360.813C805.135 364.918 797.442 366.345 790.07 364.78C773.814 361.167 766.932 341.072 757.986 327.05C712.982 256.517 654.49 215.723 573.378 197.167C510.348 184.985 453.256 188.346 392.48 209.789C341.687 227.625 296.019 257.595 259.444 297.095C250.394 306.748 238.019 321.325 232.331 333.217C228.908 319.024 225.154 312.28 216.602 300.618C221.393 294.033 227.48 286.621 232.831 280.4C299.199 203.525 393.092 155.774 494.309 147.421Z" fill="#F6C6D2"/>
<path d="M104.374 292.153C137.266 290.253 146.916 303.952 163.482 328.431C164.196 322.022 164.763 314.257 167.993 309.147C187.993 277.553 221.552 301.791 226.815 330.493C227.556 334.533 227.987 345.518 231.399 347.286C233.425 345.564 234.587 341.258 235.576 338.032C243.247 313.02 285.593 297.664 297.622 327.058C301.713 337.056 297.759 345.254 293.242 354.825C295.532 354.508 297.835 354.294 300.144 354.184C323.732 353.206 332.864 376.709 316.115 393.103C299.662 409.208 285.327 399.345 268.654 399.406C269.215 414.274 270.885 424.838 264.378 438.578C243.894 470.435 200.267 467.93 188.276 431.846C186.79 427.374 188.401 420.939 183.613 419.334C181.446 420.661 178.701 426.15 176.954 428.794C166.197 445.066 146.75 460.776 125.971 459.347C116.768 458.717 108.227 454.341 102.341 447.239C95.9827 439.618 93.2559 429.494 94.3941 419.718C97.1231 396.279 114.835 383.962 131.333 370.568C113.292 373.595 96.9459 377.531 80.0046 367.076C71.6681 361.992 65.7328 353.762 63.54 344.247C57.1899 317.036 80.1292 297.831 104.374 292.153Z" fill="#D7EEF4"/>
<path d="M480.233 195.571C571.197 187.346 672.304 222.896 729.208 295.671C735.012 303.094 739.407 311.275 737.848 320.931C734.068 344.342 703.157 352.179 688.752 333.314C683.401 326.446 678.077 318.087 672.183 311.682C636.302 272.691 587.572 249.214 535.896 240.184L535.141 240.049C463.814 227.329 395.817 243.932 334.197 281.131C318.354 290.696 306.453 301.516 291.701 311.818C275.822 303.486 267.607 304.9 252.148 312.239C309.498 244.391 391.654 202.367 480.233 195.571Z" fill="#F6C6D2"/>
<path d="M148.568 1284.4C121.001 1283.05 94.2825 1284.57 67.3795 1291.29C54.8535 1294.42 41.4835 1297.97 34.4965 1309.81C26.4045 1323.53 20.7985 1341.45 16.2355 1356.75C-7.52948 1436.41 -3.50848 1520.43 17.3115 1600.25C38.6455 1682.04 78.2336 1756.96 138.819 1816.43C151.261 1828.64 164.891 1841.99 179.953 1850.83C163.638 1863.59 146.469 1876.73 131.539 1891.07C125.824 1886.54 120.378 1883.95 113.489 1881.81C111.5 1883.47 109.436 1885.14 107.615 1886.98C105.714 1888.9 104.756 1891.57 104.996 1894.26C105.682 1902.35 130.487 1929.23 137.363 1935.35C172.981 1911.34 203.089 1881.01 237.065 1855.1C239.673 1857.28 242.515 1859.23 245.258 1861.24C229.107 1879.89 211.535 1896.62 194.518 1914.38C182.667 1926.75 171.449 1939.89 159.982 1952.62C165.828 1960.47 171.928 1968.12 178.27 1975.57C184.197 1982.34 192.23 1994.45 201.596 1995.27C204.297 1994.26 205.629 1993.63 206.926 1990.87C211.049 1982.1 208.868 1972.17 205.988 1963.48C231.62 1937.74 254.919 1909.15 276.922 1880.28C280.863 1881.27 286.003 1882.81 289.938 1881.14C301.529 1876.24 314.359 1839.2 319.124 1827.5C323.964 1833.5 329.317 1839.08 336.255 1842.66C347.399 1848.41 360.592 1846.68 372.119 1842.97C386.938 1838.21 403.901 1828.19 411.027 1813.77C413.051 1809.68 414.5 1804.31 412.793 1799.86C411.93 1797.6 410.417 1796.02 408.221 1795.03C395.361 1789.23 370.396 1806.65 357.871 1811.31C368.146 1780.05 381.704 1749.74 393.621 1719.08C407.09 1683.53 420.005 1647.78 432.364 1611.84C442.995 1581.6 455.441 1551.04 458.763 1518.9C461.23 1495.02 431.327 1454.89 416.221 1436.37C352.117 1357.79 250.402 1294.66 148.568 1284.4Z" fill="#010201"/>
<path d="M44.3757 1313.86C44.2177 1314.13 43.9197 1314.59 43.8137 1314.92C41.8477 1321.02 46.7166 1368.91 47.5836 1379.87C50.2916 1413.55 53.9756 1447.14 58.6296 1480.61C73.7076 1597.48 98.0306 1703.89 149.409 1810.93C147.963 1801.27 147.893 1791.49 147.851 1781.75C146.905 1773.27 147.871 1763.52 148.312 1754.93C150.692 1708.63 160.636 1664.77 176.808 1621.41C154.142 1561.69 128.54 1502.92 103.843 1444.01C92.0627 1415.61 79.8126 1387.42 67.0986 1359.43C60.0866 1344.09 53.4147 1328.13 44.3757 1313.86Z" fill="#F6C6D2"/>
<path d="M50.6398 1313.03C50.5908 1317.64 73.6027 1361.7 77.6627 1370.94C101.521 1425.86 124.871 1480.99 147.709 1536.34C158.428 1562.58 169.632 1588.73 179.463 1615.32C187.453 1598.24 196.86 1582.41 208.356 1567.46C223 1550.23 239.206 1535.41 258.428 1523.42C215.292 1448.33 121.364 1362.4 50.6398 1313.03Z" fill="#FADA76"/>
<path d="M39.156 1311.64C35.851 1315.87 33.652 1322.99 31.595 1328.04C17.184 1364.25 8.48705 1402.49 5.81305 1441.37C-2.31895 1571.23 41.154 1699.05 126.775 1797.03C133.426 1804.27 140.145 1811.15 147.498 1817.69C90.876 1705.93 65.5461 1583.86 51.2191 1460.27C45.4131 1410.89 41.39 1361.31 39.156 1311.64Z" fill="#FADA76"/>
<path d="M204.614 1581.9C204.485 1582.05 204.353 1582.19 204.226 1582.34C194.84 1593.29 187.632 1608.68 182.037 1621.82C155.164 1684.91 149.167 1755.81 154.671 1823.5C163.638 1832.36 173.363 1840.21 183.271 1847.98C191.786 1840.87 200.34 1833.81 208.932 1826.8C208.345 1824.12 207.718 1821.38 207.945 1818.63C209.139 1804.16 254.721 1770.54 266.781 1760.38C247.989 1736.82 240.902 1709.28 237.16 1679.74C235.93 1670.02 233.587 1656.6 240.273 1648.31C243.663 1644.11 248.187 1643.93 253.193 1643.34C238.185 1621.44 223.652 1600.65 204.614 1581.9Z" fill="#D7EEF4"/>
<path d="M312.355 1517.37C296.702 1514.08 277.79 1519.93 263.592 1526.04C264.006 1553.05 261.587 1580.58 260.363 1607.58C259.885 1618.15 258.591 1629.53 259.477 1640.05C260.015 1646.44 266.535 1651.37 268.071 1658.05C271.471 1672.83 270.647 1688.65 273.915 1703.78C279.499 1694.94 286.788 1686.2 296.231 1681.37C306.741 1675.98 317.208 1677.18 328.032 1680.73C345.548 1688.51 354.402 1700.08 361.685 1717.18C367.325 1659.23 369.773 1601.12 374.149 1543.09C357.571 1528.17 334.074 1520.3 312.355 1517.37Z" fill="#D7EEF4"/>
<path d="M53.4487 1307.23L51.9717 1307.35C52.5687 1308.88 112.327 1355.44 118.412 1360.58C174.179 1406.78 222.888 1460.89 262.991 1521.19C267.822 1519.06 272.625 1517.12 277.724 1515.71C307.517 1507.52 337.26 1514.85 363.621 1529.73L373.889 1536.24C370.578 1529.41 367.105 1522.79 363.023 1516.38C304.034 1423.76 160.059 1330.88 53.4487 1307.23Z" fill="#F6C6D2"/>
<path d="M78.5071 1294.54C73.0141 1293.02 58.3121 1299.07 53.2591 1301.73C66.2701 1305.2 79.3481 1308.7 92.1081 1313.02C181.498 1343.25 276.814 1406.59 338.984 1477.62C352.969 1493.6 366.518 1510.53 375.952 1529.63C379.739 1527.42 382.075 1519.1 384.968 1515.38C389.511 1509.53 395.424 1504.86 401.079 1500.16C388.726 1480.07 374.773 1461.02 359.354 1443.18C290.713 1363.97 184.239 1302.04 78.5071 1294.54Z" fill="#F6C6D2"/>
<path d="M149.945 1289.43C134.167 1285.97 108.899 1289.47 92.6819 1290.89C198.734 1302.89 305.994 1369.68 372.454 1451.77C378.721 1459.44 384.708 1467.33 390.405 1475.44C393.701 1480.18 402.382 1496.44 406.084 1498.21L408.295 1497.25C426.138 1493.91 439.24 1499.41 454.09 1508.44C444.478 1483.01 428.801 1458.58 411.489 1437.69C348.527 1361.74 249.556 1298.67 149.945 1289.43Z" fill="#FADA76"/>
<path d="M398.358 1509.62C388.289 1514.39 382.13 1529.16 379.687 1539.58C376.005 1555.27 376.678 1573.76 375.756 1589.88C373.819 1623.74 367.647 1748.85 357.801 1773.6C353.452 1784.53 348.473 1786.2 338.647 1790.34L340.257 1792.64C342.524 1793.65 343.77 1794.23 346.315 1793.58C354.385 1791.51 361.209 1783.73 365.106 1776.79C376.231 1754.81 384.458 1730.3 393.128 1707.2C411.114 1658.11 428.646 1608.85 445.724 1559.44C438.926 1553.18 433.062 1545.39 426.814 1538.54C417.677 1528.54 408.076 1519.05 398.358 1509.62Z" fill="#D7EEF4"/>
<path d="M309.185 1766.66C293.622 1789.07 276.504 1813.85 262.185 1836.79C261.116 1838.07 261.116 1838.05 259.735 1838.98C256.904 1844.17 251.433 1852 247.534 1856.54C259.037 1865.82 272.95 1875.75 287.943 1878.02C291.387 1874.48 294.816 1871.09 295.978 1866.1L298.768 1862.95C301.554 1855.88 305.945 1847.76 308.923 1840.21C312.435 1831.31 315.494 1818.9 321.08 1811.48H322.316C323.112 1815.75 321.896 1818.14 320.457 1822.29C343.904 1848.92 357.899 1845.13 388.21 1830.78C382.209 1823.37 378.036 1817.75 373.166 1809.61C369.279 1811.65 362.457 1815.55 357.656 1816.07C339.81 1817.98 339.364 1792.58 327.608 1785.24C324.462 1783.28 324.152 1777.15 323.94 1773.68L309.185 1766.66Z" fill="#F2885B"/>
<path d="M262.186 1836.79C261.117 1838.07 261.117 1838.05 259.736 1838.98C256.905 1844.17 251.434 1852 247.535 1856.54C259.038 1865.82 272.951 1875.75 287.944 1878.02C291.388 1874.48 294.817 1871.09 295.979 1866.1L298.769 1862.95C291.121 1860.22 269.07 1842.3 262.186 1836.79Z" fill="#FADA76"/>
<path d="M262.186 1836.79C261.117 1838.07 261.117 1838.05 259.736 1838.98C269.523 1847.18 284.988 1860.14 295.979 1866.1L298.769 1862.95C291.121 1860.22 269.07 1842.3 262.186 1836.79Z" fill="#010201"/>
<path d="M264.787 1674.27C256.953 1678.41 250.507 1678.49 241.942 1677.97C244.766 1701.35 249.517 1728.75 263.346 1748.45C267.341 1754.14 272.547 1758.54 276.718 1764L275.822 1765.18C274.996 1765.13 274.17 1765.1 273.344 1765.08C271.67 1765.05 269.731 1764.93 268.222 1765.77C257.285 1771.85 234.521 1793.61 224.611 1803.11C229.237 1808.62 234.882 1813.44 240.126 1818.37L258.213 1833.84C273.518 1810.65 289.726 1787.96 304.445 1764.4C301.351 1762.58 298.216 1760.51 295.411 1758.26C271.785 1739.25 267.792 1702.3 264.787 1674.27Z" fill="#F2885B"/>
<path d="M258.479 1528.63C238.613 1539.8 220.907 1559.18 207.098 1576.96C216.37 1586.99 225.232 1597.3 234.002 1607.77C241.4 1617.54 248.117 1627.83 254.973 1637.99C254.902 1601.57 257.86 1565.07 258.479 1528.63Z" fill="#D7EEF4"/>
<path d="M212.408 1830.56C193.611 1843.05 174.066 1861.48 156.413 1876.02C162.569 1884.49 167.989 1893.53 174.736 1901.56C194.304 1885.22 213.598 1868.56 232.609 1851.57C225.377 1845.07 218.626 1838.04 212.408 1830.56Z" fill="#FADA76"/>
<path d="M250.472 1864.81C247.438 1865.55 201.4 1914.59 195.543 1921.16C197.76 1923.66 200.213 1924.32 203.447 1925.14C209.668 1926.72 213.444 1929.3 218.496 1933.13L224.207 1937.34C240.882 1918.07 257.121 1898.43 272.913 1878.43C264.91 1874.79 257.627 1869.87 250.472 1864.81Z" fill="#FADA76"/>
<path d="M143.806 1886.42C143.261 1886.77 142.707 1887.13 142.199 1887.54C138.635 1890.38 138.981 1896.85 138.344 1901.11L136.947 1901.36L135.816 1897.01L134.613 1896.95L133.602 1900.27L132.072 1900.89L130.499 1899.85L130.85 1896.06C130.384 1895.47 129.993 1894.98 129.41 1894.49C125.965 1891.63 118.617 1886.64 114.105 1887.21C112.132 1888.58 110.893 1889.49 110.316 1892.03C109.037 1897.65 118.8 1907.73 122.274 1912.22C127.107 1918.23 132.372 1923.86 137.584 1929.54C144.868 1924.53 151.78 1918.74 158.786 1913.34C154.641 1904.14 148.795 1895.23 143.806 1886.42Z" fill="#F2885B"/>
<path d="M182.915 1934.68C176.806 1940.05 171.344 1946.85 165.847 1952.85C175.666 1965.82 186.084 1977.65 197.451 1989.27C198.315 1990.05 199.106 1990.16 200.209 1990.42C201.113 1989.64 202.015 1988.81 202.722 1987.84C212.648 1974.22 196.686 1969.64 195.587 1961.47L199.249 1959.4L199.647 1957.92C196.302 1949.65 188.51 1941.6 182.915 1934.68Z" fill="#F2885B"/>
<path d="M321.943 1695.15C311.911 1694.2 306.033 1696.66 297.75 1701.94C305.426 1713.96 305.031 1720.95 319.195 1727.58C324.089 1728.75 329.169 1729.79 334.026 1727.85C336.687 1726.79 338.815 1724.86 339.943 1722.2C341.499 1718.55 340.965 1714.13 339.511 1710.53C336.087 1702.06 329.952 1698.49 321.943 1695.15Z" fill="#D7EEF4"/>
<path d="M315.875 1682.17C311.224 1682 306.706 1682.07 302.289 1683.69C293.838 1686.79 279.312 1700.06 276.266 1708.78C275.387 1711.3 276.124 1714.8 277.16 1717.12L278.325 1717.2C281.907 1711.67 285.894 1706.27 290.72 1701.75C298.233 1694.73 307.739 1689.64 318.265 1690.13C327.485 1690.62 336.125 1694.79 342.259 1701.69C350.545 1710.97 353.515 1723.05 352.749 1735.23C351.786 1740.49 350.368 1745.32 347.521 1749.9C341.081 1760.25 331.118 1764.64 319.778 1767.37C328.378 1769.09 333.012 1770.51 340.952 1765.52C349.995 1759.84 355.042 1748.31 357.113 1738.14C359.553 1726.16 356.717 1714.66 349.985 1704.54C341.913 1692.41 330.044 1685.02 315.875 1682.17Z" fill="#FADA76"/>
<path d="M221.773 1806.09C218.931 1808.65 214.973 1811.77 213.482 1815.37C212.329 1818.16 212.538 1820.46 213.796 1823.16C217.831 1831.82 235.634 1850.21 244.24 1853.64C248.637 1848.27 252.441 1842.32 256.372 1836.59C244.353 1826.99 232.807 1816.81 221.773 1806.09Z" fill="#FADA76"/>
<path d="M294.699 1704.77C288.044 1710.89 283.926 1717.37 279.476 1725.11C284.007 1737.66 289.394 1747.07 299.809 1755.69C302.605 1757.37 305.466 1758.97 308.297 1760.6L309.297 1760.01C309.331 1741.41 302.733 1721.29 294.699 1704.77Z" fill="#D7EEF4"/>
<path d="M425.458 1501.05L423.747 1501.41C423.102 1507.22 442.668 1540.49 446.748 1547.88L448.305 1547.1C450.85 1536.67 453.093 1526.17 455.032 1515.62C445.928 1507.94 436.812 1504.05 425.458 1501.05Z" fill="#D7EEF4"/>
<path d="M407.701 1799.04C396.815 1797.72 386.309 1802.31 377.41 1808.19C380.14 1813.15 383.474 1817.63 386.793 1822.2L391.48 1828.5C397.478 1823.6 404.843 1817.82 407.878 1810.53C409.627 1806.33 409.457 1803.16 407.701 1799.04Z" fill="#FADA76"/>
<path d="M257.5 1647.93C254.268 1647.89 250.478 1647.63 247.5 1649.11C244.279 1650.7 241.838 1654.47 240.668 1657.78C239.221 1661.87 239.669 1667.28 241.718 1671.1C242.873 1673.26 244.658 1673.35 246.827 1674.09C250.967 1673.96 256.714 1673.75 260.183 1671.31C262.609 1669.62 264.154 1666.94 264.396 1663.99C264.843 1658.76 260.738 1651.78 257.5 1647.93Z" fill="#FADA76"/>
<path d="M416.749 1500.64C411.147 1501.29 406.311 1503.43 401.229 1505.69C410.135 1515.95 421.002 1525.14 430.385 1535.11L439.848 1545.59C432.904 1530.42 424.327 1515.56 416.749 1500.64Z" fill="#D7EEF4"/>
<path d="M354.64 1770.17C352.302 1766.38 352.298 1766.09 348.735 1764.92C338.49 1775.28 332.676 1771.59 329.084 1777.56C329.347 1779.64 329.587 1781.75 331.732 1782.69C344.384 1788.28 351.24 1779.63 354.64 1770.17Z" fill="#FADA76"/>
<path d="M153.025 1878.87C150.981 1880.6 148.701 1882.25 148.36 1884.92C150.941 1890.92 158.191 1906.82 163.49 1910.19L170.782 1904.1C164.233 1896.14 159.664 1886.79 153.025 1878.87Z" fill="#97CDDB"/>
<path d="M200.497 1934.05C195.735 1936.79 197.548 1938.55 194.193 1941.13C197.791 1946.22 201.546 1952.17 205.027 1957.42L212.563 1949.83C208.334 1943.79 205.318 1939.59 200.497 1934.05Z" fill="#97CDDB"/>
<path d="M359.34 1791.53C353.786 1794.88 348.965 1796.92 342.673 1798.38C344.198 1801.21 345.858 1803.98 347.451 1806.77C348.581 1807.98 349.937 1809.01 351.208 1810.07L353.124 1809.64C356.767 1804.98 357.732 1797.23 359.34 1791.53Z" fill="#D7EEF4"/>
<path d="M205.213 1928.74L203.58 1929.61C204.825 1933.93 211.78 1943.22 215.21 1946.26C217.58 1943.85 219.03 1943.24 219.235 1939.8C216.516 1934.91 209.837 1931.79 205.213 1928.74Z" fill="#97CDDB"/>
<path d="M200.497 1934.05C197.998 1931.25 196.277 1928.86 192.822 1927.42L190.111 1927.44C185.771 1932.69 190.6 1936.77 194.193 1941.13C197.548 1938.55 195.735 1936.79 200.497 1934.05Z" fill="#97CDDB"/>
<path d="M358.144 1751.26C355.242 1756.06 352.02 1760.39 348.735 1764.92C352.298 1766.09 352.302 1766.38 354.64 1770.17C355.512 1764.3 357.039 1757.2 358.144 1751.26Z" fill="#EFE1AD"/>
<path d="M459.165 458.835C464.822 458.371 487.017 457.952 491.824 458.387C506.496 459.714 583.234 455.438 591.068 461.246C593.063 464.818 593.62 468.126 593.714 472.202C593.87 478.902 595.099 499.072 590.362 503.534C584.531 509.027 521.622 506.609 510.546 506.584L510.588 527.764C521.667 527.926 547.981 524.85 556.484 530.328C563.153 534.624 563.134 564.152 557.1 569.053C549.695 575.069 520.965 572.056 510.676 571.941C510.592 576.669 509.315 590.381 512.497 593.201C537.021 593.154 561.765 592.591 586.289 593.951C597.664 595.011 593.512 610.552 594.566 618.575C595.303 624.188 595.479 635.57 590.175 639.07C575.508 643.024 538.793 640.089 522.318 640.881C511.116 641.419 464.722 642.019 456.428 637.551C451.592 627.034 455.946 551.244 454.876 535.046C453.581 515.437 454.873 486.376 455.09 465.969C455.119 463.307 457.4 460.723 459.165 458.835Z" fill="#C04000"/>
<path d="M462.438 463.299C499.807 462.879 551.277 461.614 588.02 463.414C588.616 470.626 589.321 493.258 587.31 499.321C581.81 503.369 517.322 501.809 505.753 501.787L505.842 532.735C522.416 532.625 538.992 532.683 555.565 532.909C555.895 544.143 555.711 555.679 555.668 566.938C540.173 567.491 521.556 566.978 505.814 566.965L505.867 592.068C505.805 593.117 505.698 593.995 506.087 594.993C509.267 603.14 573.788 593.563 585.316 599.206C587.06 600.059 588.888 601.446 589.43 603.407C590.794 608.332 590.187 629.952 588.183 634.238C578.781 637.652 476.788 635.735 459.761 635.548C458.328 581.056 460.678 523.536 459.887 468.806C459.845 465.902 460.509 465.211 462.438 463.299Z" fill="#F2885B"/>
<path d="M616.116 458.791C630.634 457.731 752.033 457.119 756.262 461.114C759.474 464.148 759.381 472.559 759.468 476.754C759.588 482.508 761.145 499.274 756.958 503.153C749.418 510.139 722.942 506.934 712.484 506.886L711.895 597.872C711.724 607.718 715.146 629.765 708.952 637.337C707.151 639.537 704.822 640.31 702.085 640.495C693.828 641.051 667.767 642.684 661.9 637.158C657.78 633.276 659.386 520.943 659.368 506.823C649.456 506.625 622.071 509.561 616.233 504.164C609.658 498.086 609.256 466.315 616.116 458.791Z" fill="#C04000"/>
<path d="M617.84 463.073C646.583 463.383 675.328 463.485 704.073 463.378C717.101 463.349 742.107 462.641 753.883 463.93C757.297 513.29 752.562 501.744 707.556 501.843C707 530.016 707.352 559.31 707.311 587.568C707.166 598.411 707.277 609.255 707.645 620.093C708.224 638.568 700.585 635.843 685.423 635.937C678.582 635.98 671.574 635.677 664.728 635.533C663.999 620.65 664.45 602.278 664.443 587.152L664.157 502.137C655.967 501.73 621.71 503.421 617.751 499.925C616.221 495.751 616.024 467.429 617.84 463.073Z" fill="#FADA76"/>
<path d="M319.545 458.849C319.977 458.812 320.41 458.786 320.844 458.771C327.894 458.49 361.987 456.866 365.574 460.668C370.932 466.348 368.559 575.012 368.539 590.739C381.209 590.938 425.701 588.652 433.844 593.805C436.596 597.864 436.789 603.863 436.256 608.612C435.018 619.67 440.328 631.68 431.644 640.175C403.818 643.207 369.278 639.055 340.992 640.907C334.586 641.327 321.815 640.915 316.675 637.371C315.134 633.821 314.6 627.8 314.601 623.843C314.606 571.045 314.127 518.164 314.961 465.386C314.989 463.59 318.261 460.211 319.545 458.849Z" fill="#C04000"/>
<path d="M321.359 463.015C329.674 463.193 355.629 462.327 361.876 464.393C365.065 471.402 363.668 580.117 363.655 595.434C385.973 595.747 408.534 595.622 430.871 595.667C431.058 603.387 432.238 630.035 429.774 635.786L319.803 635.756C319.451 629.162 319.154 602.588 319.526 597.762C320.838 580.747 316.769 469.694 321.359 463.015Z" fill="#F2885B"/>
<path d="M453.737 708.907C487.992 705.852 518.257 731.099 521.395 765.346C524.533 799.594 499.36 829.92 465.12 833.141C430.763 836.373 400.309 811.095 397.161 776.729C394.012 742.364 419.365 711.972 453.737 708.907Z" fill="#C04000"/>
<path d="M451.023 713.932C482.505 709.324 511.785 731.049 516.501 762.516C521.217 793.982 499.593 823.336 468.143 828.16C436.539 833.008 407.011 811.256 402.272 779.636C397.533 748.016 419.386 718.562 451.023 713.932Z" fill="#FADA76"/>
<path d="M662.696 710.271C699.503 708.237 743.318 726.19 721.947 772.855C719.027 779.23 712.565 784.94 707.24 789.562C713.761 796.745 748.147 827.389 716.941 832.023C711.187 832.878 706.78 827.966 702.842 824.079C693.532 814.335 681.502 803.821 671.525 793.796C671.66 803.437 673.226 821.906 667.049 828.942C665.17 831.114 662.48 832.418 659.61 832.548C647.888 833.157 642.743 827.239 642.812 816.091C643.016 783.506 641.861 750.541 643.45 718.012C643.842 709.998 657.104 710.397 662.696 710.271Z" fill="#C04000"/>
<path d="M650.979 715.032C679.057 714.588 724.991 713.167 722.571 756.928C721.807 770.735 709.779 781.192 699.416 789.148C705.106 794.705 731.549 816.763 722.685 825.905C717.15 831.614 711.715 826.402 707.405 822.162C693.671 808.956 680.034 795.65 666.493 782.245C666.296 794.882 668.854 811.868 664.683 823.512C662.12 830.667 647.578 829.318 647.53 819.391C647.373 786.649 646.791 753.708 647.786 720.992C647.87 718.218 649.348 717.01 650.979 715.032Z" fill="#FADA76"/>
<path d="M404.751 1105.51C415.853 1106.42 420.342 1111.61 418.598 1122.92C414.118 1151.7 407.209 1180.25 401.472 1208.8C400.346 1214.47 398.81 1221.17 393.416 1224.33C377.326 1233.76 366.844 1186.46 363.199 1175.56C360.428 1184.28 352.231 1211.48 348.069 1217.61C327.323 1248.19 321.74 1193.84 319.587 1181.57C315.789 1162.08 311.247 1138.22 308.752 1118.75C311.092 1113.12 312.751 1108.53 318.981 1106.39C333.712 1105.9 338.985 1151.74 341.509 1163.97C346.36 1152.6 350.906 1126.09 360.46 1120.46C375.242 1111.74 382.604 1153.58 386.152 1161.61L386.481 1162.34C389.469 1147.21 393.371 1124.4 399.611 1110.11C400.186 1108.79 403.454 1106.42 404.751 1105.51Z" fill="#C04000"/>
<path d="M406.27 1109.47C416.88 1113.5 414.959 1122.63 412.38 1131.64C407.739 1147.84 400.2 1210.93 389.97 1220.52C388.711 1220.93 387.78 1221.57 386.527 1220.95C381.384 1218.43 366.345 1169.63 363.11 1160.44C359.276 1171.9 355.531 1183.53 351.533 1194.92C348.762 1202.81 345.57 1217.97 337.089 1220.68C328.397 1217.72 322.471 1170.19 320.513 1159.6C318.851 1151.22 307.048 1110.71 321.117 1111.59C330.082 1118.22 337.243 1168.68 340.024 1182.3C344.953 1171.02 357.818 1127.8 363.767 1123.62L365.863 1124.08C372.597 1131.26 381.898 1168.06 387.174 1181.07C390.32 1167.87 399.18 1117.08 406.27 1109.47Z" fill="#F2885B"/>
<path d="M545.616 850.767C554.816 850.763 557.327 852.887 560.976 861.583C569.196 881.169 577.513 901.689 583.882 921.938C586.823 931.286 582.575 943.574 570.699 937.34C564.514 934.092 562.864 926.109 560.766 919.817C551.926 920.001 543.084 920.038 534.243 919.928C527.761 932.78 523.312 948.813 508.799 931.782L506.115 932.842C502.838 937.455 501.016 938.792 495.283 938.349C486.66 937.785 455.543 941.092 450.722 934.967C446.138 929.142 448.438 875.721 448.408 867.569C448.109 853.954 454.814 849.989 467.753 851.226C477.869 852.193 506.156 848.481 508.928 859.508C513.18 876.421 476.563 871.394 471.08 873.183C469.828 876.124 469.591 876.572 469.754 879.741C475.023 887.819 494.828 877.43 496.059 892.459C497.258 907.084 479.612 903.974 469.837 903.738C469.914 908.431 469.926 913.125 469.873 917.818C482.961 917.896 501.054 912.897 508.962 924.487C517.377 907.66 533.482 859.659 545.616 850.767Z" fill="#C04000"/>
<path d="M546.667 855.408C548.372 855.552 550.685 855.397 552.112 856.353C556.803 859.497 578.71 917.517 580.311 925.815C580.878 928.756 580.179 929.827 578.664 932.194C575.162 934.043 576.5 933.909 573.171 933.564C567.801 929.98 566.358 921.837 564.464 915.543L546.339 915.709L530.484 915.686C528.146 922.549 525.222 933.053 517.302 933.687C515.797 932.507 514.642 931.542 514.775 929.296C515.568 915.993 540.402 862.619 546.667 855.408Z" fill="#F2885B"/>
<path d="M457.727 856.003C469.898 855.82 486.421 854.916 498.469 856.661C501.434 857.091 502.362 859.323 503.543 861.506C502.424 870.946 473.116 867.845 465.467 867.717L465.44 887.808C473.867 887.703 485.702 886.559 492.398 892.133C492.535 900.299 471.185 899.242 465.272 899.245L465.076 915.568C465.062 915.831 465.054 917.749 465.027 917.914C463.462 927.418 497.975 917.958 503.154 924.152C504.268 925.484 503.918 925.229 503.994 927.399C498.688 938.872 472.978 932.34 461.672 933.637C453.65 934.557 452.146 926.258 453.136 919.512C454.898 907.497 449.12 862.486 457.727 856.003Z" fill="#F2885B"/>
<path d="M316.63 979.828C330.385 979.718 345.535 978.638 358.417 984.078C378.287 992.458 381.677 1010.45 373.574 1028.97C374.523 1029.99 375.44 1031.04 376.321 1032.12C389.272 1048.06 385.101 1064.49 370.011 1076.87C357.394 1084.24 318.073 1090.67 307.918 1080.32C305.209 1071.45 305.626 1000.13 307.738 986.628C308.226 983.518 313.459 981.108 316.63 979.828Z" fill="#C04000"/>
<path d="M315.039 984.768C329.8 984.408 347.784 982.698 360.774 990.678C377.32 1000.85 375.659 1016.06 366.637 1030.77C382.58 1041.57 383.474 1056.2 370.906 1070.23C366.161 1074.07 356.461 1079.1 350.173 1079.32C341.856 1079.64 319.015 1082.81 312.963 1077.91C309.443 1075.06 311.213 1043.77 311.207 1038.38C311.189 1022.56 311.027 1007.11 311.735 991.368C311.882 988.118 313.186 987.118 315.039 984.768Z" fill="#FADA76"/>
<path d="M512.742 1173.65C512.362 1156.98 512.015 1137.84 512.883 1121.16C513.525 1115.8 515.231 1111.25 519.095 1107.95C522.777 1104.81 532.151 1109.35 532.461 1112.04C534.736 1131.82 538.501 1202.71 534.211 1219.02C517.702 1243.28 490.485 1180.11 480.127 1167.75L479.528 1167.04C479.694 1180.21 484.493 1223.92 468.644 1226.86C462.678 1225.46 459.816 1221.38 456.733 1216.44L456.307 1152.12C456.213 1140.52 455.849 1128.22 456.551 1116.67C456.864 1111.5 459.675 1109.66 463.6 1106.55C464.729 1106.63 465.864 1106.77 466.962 1107.05C475.892 1109.33 506.098 1162.84 512.742 1173.65Z" fill="#C04000"/>
<path d="M522.738 1111.12C532.499 1114.11 530.37 1125.69 530.447 1134.78C530.657 1159.55 531.228 1184.43 530.593 1209.17C530.508 1212.46 529.104 1215.77 527.218 1218.42C518.877 1223.06 513.554 1210.23 509.773 1204.38C498.206 1186.48 487.292 1167.31 474.644 1150.19C474.808 1163.29 475.067 1176.5 475.11 1189.6C475.137 1197.77 476.993 1215.13 470.022 1220.44C464.5 1221.02 462.087 1218.8 461.598 1213.07C461.452 1200.53 460.073 1118.82 462.29 1114.2C464.997 1112.37 463.77 1112.69 466.892 1112.88C473.301 1116.7 506.853 1175.19 517.342 1187.62C517.494 1166.24 516.258 1144.6 517.296 1123.21C517.591 1117.14 518.459 1115.44 522.738 1111.12Z" fill="#F2885B"/>
<path d="M539.558 709.751C562.523 709.383 554.706 732.078 556.478 749.495C565.214 835.402 607.401 808.731 606.167 739.019C605.938 726.073 608.596 696.315 628.04 713.803C634.414 719.536 632.182 738.422 631.879 746.568C631.546 756.282 630.54 765.96 628.868 775.535C625.41 794.27 617.895 816.21 601.354 827.328C580.939 841.049 558.482 830.068 546.733 810.775C534.124 790.042 530.28 764.309 530.305 740.38C530.319 726.981 526.818 717.56 539.558 709.751Z" fill="#C04000"/>
<path d="M541.252 713.656C545.814 714.654 550.702 715.701 550.966 721.181C552.088 744.516 550.869 767.805 560.573 789.786C562.504 794.158 566.41 801.107 570.942 803.453C603.157 820.134 610.184 767.868 610.35 747.236C611.571 737.988 606.148 704.637 625.137 716.786C628.747 719.096 627.555 739.349 627.491 744.068C627.596 752.815 626.264 763.645 624.801 772.54C621.861 795.565 605.309 834.625 576.123 828.208C542.719 820.863 534.491 767.886 535.042 739.604C535.238 729.528 532.197 719.411 541.252 713.656Z" fill="#FADA76"/>
<path d="M580.846 1105.01C589.959 1104.52 595.34 1105.23 603.447 1111.01C610.608 1116.11 614.775 1128.11 608.689 1135.58C602.397 1141.61 589.306 1136.51 582.583 1136.34C558.037 1136.82 561.256 1179.41 574.018 1192.17C582.47 1200.62 597.701 1194.96 596.997 1187.15C589.58 1186.36 580.951 1186.42 577.447 1178.84C576.072 1175.82 576.008 1172.37 577.269 1169.3C582.37 1156.75 601.878 1156.76 612.446 1161.27C623.806 1172.82 622.463 1194.55 614.96 1207.05C591.968 1244.6 554.273 1221.46 544.776 1187.65C535.934 1156.18 545.982 1115.07 580.846 1105.01Z" fill="#C04000"/>
<path d="M580.131 1109.88C594.032 1109.34 613.344 1115.96 604.256 1131.79C598.421 1141.94 580.335 1121 568.22 1137.48C555.088 1155.35 556.619 1181.08 571.856 1196.54C582.518 1207.36 604.913 1198.21 603.102 1183.4C598.438 1177.49 587.816 1182.65 583.949 1179.8C574.841 1173.09 586.18 1166.03 591.803 1164.11C616.747 1160.44 619.839 1177.05 613.389 1198.25C608.519 1213.4 591.674 1227.65 575.586 1219.27C535.041 1198.13 536.965 1126.81 580.131 1109.88Z" fill="#F2885B"/>
<path d="M402.066 980.048C413.274 979.918 461.593 977.018 466.547 984.268C485.341 1011.77 428.72 1005.3 416.773 1005.22L416.764 1020.32C423.49 1020.11 442.516 1018.7 445.244 1023.45C460.223 1049.54 424.801 1045.71 417.055 1045.57C417.011 1049.86 416.662 1055.56 417.769 1059.57C429.678 1059.55 441.855 1058.74 453.708 1059.55C472.872 1060.94 473.326 1084.83 453.721 1085.1C439.618 1085.3 424.806 1084.73 410.6 1085.32C398.044 1085.45 392.673 1081.54 392.97 1068.26C393.574 1041.32 392.153 1013.53 394.152 986.748C394.389 983.568 399.462 981.198 402.066 980.048Z" fill="#C04000"/>
<path d="M400.631 984.928C410.633 984.778 456.744 983.108 462.031 986.168C479.189 1006.71 420.082 1000.78 412.113 1000.71L412.122 1024.77C420.078 1024.84 437.741 1022.31 443.082 1028.01C449.945 1048.39 422.492 1037.33 413.338 1041.47C411.952 1044.29 412.433 1049.65 412.485 1053.07L412.552 1063.82C426.184 1064.08 442.692 1063.4 456.502 1064.17C459.191 1064.31 461.983 1068.17 463.462 1070.5C464.295 1078.1 456.045 1079.97 449.807 1080.45C440.584 1080.53 429.667 1081.25 420.512 1080.72C410.048 1080.12 397.369 1083.4 397.664 1069.14C397.874 1059 397.297 1045.69 397.969 1036.12C398.654 1026.37 395.006 991.568 400.631 984.928Z" fill="#FADA76"/>
<path d="M318.719 851.393C373.207 847.014 397.981 905.262 356.6 931.696C347.006 937.127 315.001 943.094 308.492 935.77C301.045 927.389 305.004 872.493 305.438 858.649C305.616 852.962 314.639 851.575 318.719 851.393Z" fill="#C04000"/>
<path d="M313.898 855.873C332.579 855.379 348.518 854.645 362.168 870.28C369.044 878.192 372.501 888.51 371.78 898.968C370.901 911.433 365.182 918.811 356.291 926.561C347.471 931.842 318.677 939.098 310.943 931.477C307.406 921.88 309.647 876.072 309.686 863.389C309.699 859.093 311.193 858.171 313.898 855.873Z" fill="#F2885B"/>
<path d="M582.119 978.958C586.599 978.518 591.11 979.348 595.149 981.328C621.822 994.408 622.731 1048.19 609.576 1070.95C604.298 1080.08 599.873 1083.43 590.159 1086.58C548.389 1088.16 541.032 996.138 582.119 978.958Z" fill="#C04000"/>
<path d="M581.744 983.879C619.503 982.489 620.319 1057.17 599.073 1076.77C596.963 1078.71 594.034 1080.23 591.499 1081.56C553.291 1083.68 548.572 1001.63 581.744 983.879Z" fill="#FADA76"/>
<path d="M651.645 1106.94C659.237 1106.3 666.043 1106.32 672.961 1110.13C678.779 1113.33 688.17 1124.22 683.938 1131.24C673.495 1148.57 667.642 1129.61 653.959 1132.7C650.641 1135.21 651.436 1133.93 650.385 1137.42C652.84 1148.71 678.544 1153.26 688.346 1164.84C695.489 1171.61 698.448 1180.34 698.179 1190.71C697.519 1216.11 676.878 1226.15 655.319 1225.74C641.746 1223.99 628.288 1218.52 623.924 1204.12C623.147 1201.55 622.934 1196.64 624.924 1194.48C637.327 1178.49 654.098 1203.31 665.752 1197.54C689.783 1185.65 647.288 1171.87 640.762 1167.31C634.477 1162.93 629.498 1157.6 627.771 1152.53C620.627 1131.55 632.774 1115 651.645 1106.94Z" fill="#C04000"/>
<path d="M651.417 1111.95C661.16 1111.14 666.403 1111.27 674.378 1117.81C677.786 1120.6 683.844 1126.83 678.841 1131C670.437 1137.99 665.2 1126.8 656.813 1126.93C654.318 1126.96 651.535 1127.2 649.667 1129.15C638.512 1141.44 652.764 1150.26 663.386 1154.71C677.278 1160.53 692.775 1170.93 693.922 1187.51C694.488 1195.69 690.515 1205.56 684.748 1211.42C676.812 1219.5 666.571 1220.77 655.873 1220.98C644.854 1219.38 620.018 1210.58 631.86 1195.64C641.742 1191.87 669.964 1214.83 676.508 1193.75C683.924 1169.87 640.99 1171.72 633.714 1152.65C626.625 1134.07 633.524 1120.29 651.417 1111.95Z" fill="#F2885B"/>
<path d="M601.806 850.627C615.332 850.75 624.718 868.49 631.013 878.643C636.422 869.79 644.889 854.304 655.49 851.522C658.092 850.839 660.652 851.121 662.92 852.623C667.673 855.77 669.752 862.655 670.798 867.92C672.577 876.886 674.162 928.629 669.783 934.29C667.743 936.928 664.364 938.226 661.12 938.433C658.395 938.608 655.481 937.779 653.493 935.857C648.635 931.161 650.558 916.68 650.557 910.173C650.671 903.287 650.558 896.129 650.549 889.217C646.927 895.092 643.219 903.244 637.593 907.194C625.198 915.898 616.537 896.96 611.443 888.287C611.521 894.788 617.046 958.517 593.847 934.715C591.571 932.38 589.907 921.071 590.335 917.445C592.485 899.236 583.858 861.255 601.806 850.627Z" fill="#C04000"/>
<path d="M600.928 855.439C613.438 854.863 624.998 877.406 631.177 886.905C636.369 879.358 648.121 857.003 657.279 855.78C669.869 859.785 667.721 888.303 667.604 899.763C667.515 908.389 669.725 928.118 663.808 933.284C660.84 933.989 660.436 934.095 657.703 932.803C653.473 928.335 655.412 920.654 655.443 914.88L655.38 882.648C655.215 880.448 655.006 880.334 653.687 878.463C646.982 880.177 641.633 900.723 633.648 904.487C623.824 909.118 617.824 881.421 608.336 878.009C603.167 884.878 611.153 921.483 604.693 932.152C601.46 934.306 602.954 933.889 599.069 933.718C593.204 929.59 594.95 905.036 595.109 897.325C595.363 885.017 593.859 865.67 600.928 855.439Z" fill="#F2885B"/>
<path d="M360.689 742.393C365.481 733.689 373.873 713.725 383.46 710.114C389.453 707.856 398.789 711.801 400.872 718.673C401.645 721.263 401.586 724.03 400.703 726.585C399.517 730.082 390.133 746.404 387.787 750.613C379.627 765.267 371.597 779.992 363.698 794.788C357.255 806.032 340.568 852.71 322.725 824.877C317.804 817.202 341.584 779.876 346.526 771.337C339.966 761.115 333.179 750.891 326.871 740.522C319.723 728.772 313.955 719.051 327.465 709.928C345.841 708.356 351.917 728.38 360.689 742.393Z" fill="#C04000"/>
<path d="M385.8 713.582C391.124 714.442 398.94 717.936 396.018 724.279C392.866 731.123 385.465 745.779 381.791 751.388C375.08 761.637 344.934 824.878 338.195 827.714C314.634 831.153 334.381 802.545 338.991 794.486C343.056 786.867 347.849 779.003 352.237 771.517C346.756 762.417 322.741 729.629 324.156 721.284C324.543 718.996 325.901 716.34 327.994 715.162C342.796 706.826 348.882 743.372 360.01 746.466C367.123 748.443 374.92 719.481 385.8 713.582Z" fill="#FADA76"/>
<path d="M687.776 979.928C721.296 977.568 736.227 999.078 727.283 1031.93C725.96 1036.79 716.249 1045.2 716.451 1050.74C716.751 1058.98 724.301 1062.87 729.633 1067.75C739.326 1082.03 726.079 1086.25 715.814 1085.98C704.668 1081.06 702.021 1074.61 697.697 1064.09C697.327 1073.51 698.595 1088.16 684.133 1085.14C682.639 1084.83 679.349 1082.37 679.141 1080.9C675.319 1053.98 678.402 1024.99 677.905 997.648C677.74 987.268 678.517 984.268 687.776 979.928Z" fill="#C04000"/>
<path d="M692.936 984.168C713.336 983.308 724.953 995.898 725.06 1015.9C725.132 1029.41 719.982 1036.37 711.035 1045.27C712.848 1070.91 723.727 1062.14 728.022 1074.14C727.61 1076.58 727.548 1078.13 725.341 1079.63C716.672 1085.51 709.474 1076.26 705.72 1070.95C702.514 1064.07 700.505 1050.4 696.452 1046.25L695.126 1046.69C688.986 1057.59 697.096 1076.21 687.466 1082.45C685.235 1081.04 684.318 1079.38 683.549 1076.86C681.445 1069.95 681.679 1008.42 682.327 998.478C682.545 995.138 682.851 990.748 684.609 987.858C686.579 984.608 689.605 984.738 692.936 984.168Z" fill="#FADA76"/>
<path d="M389.03 852.023C394.411 851.739 399.799 851.626 405.187 851.685C437.403 852.221 455.733 882.205 428.392 907.122C433.681 914.618 441.85 924.243 440.508 933.782C436.577 940.179 431.348 939.021 424.688 937.526C417.6 931.656 411.042 917.866 403.788 909.581C403.547 914.74 404.043 919.95 404.06 925.118C404.072 928.755 403.402 933.634 400.497 936.175C398.113 938.26 393.714 938.219 390.711 937.961C388.3 937.753 386.057 936.698 384.599 934.715C381.076 929.923 381.132 866.267 382.75 858.096C383.295 855.349 386.842 853.501 389.03 852.023Z" fill="#C04000"/>
<path d="M393.399 856.231C410.872 855.904 438.371 858.381 437.32 884.664C436.981 893.138 428.258 900.543 421.596 905.272C425.934 911.879 438.644 925.82 435.151 933.076C430.268 935.8 425.641 932.938 422.698 928.895L409.546 908.66C406.218 908.812 402.461 909.183 399.098 909.435C398.955 916.599 401.232 931.097 393.857 934.144C391.074 933.68 390.303 932.639 388.302 930.74C386.04 922.325 385.819 870.518 388.231 858.305C388.49 856.994 391.719 856.616 393.399 856.231Z" fill="#F2885B"/>
<path d="M626.444 979.669C628.433 979.639 630.567 979.559 632.442 980.309C644.4 985.149 636.251 1040.47 642.636 1053.73C643.77 1056.08 644.483 1056.34 646.868 1057.16C660.635 1051.27 650.559 992.599 659.087 981.909C678.643 971.159 674.963 1003.26 674.741 1013.57C674.712 1017.05 674.598 1020.53 674.401 1024C673.41 1042.85 671.498 1067.9 657.161 1082C650.239 1088.8 639.36 1087.68 633.542 1080.01C620.267 1062.16 620.718 1035.7 620.19 1014.31C619.879 1001.72 616.329 988.619 626.444 979.669Z" fill="#C04000"/>
<path d="M664.439 983.188L667.675 985.358C673.083 993.558 669.33 1024.4 668.72 1035.08C668.014 1046.17 663.978 1068.56 655.443 1076.3C624.657 1104.22 624.981 1017.48 624.674 1007.57C624.566 1001.19 622.241 984.738 630.582 984.578C632.114 985.608 633.835 986.469 634.107 988.609C635.684 1001.07 630.111 1062.54 647.035 1063.25C668.047 1055.57 654.248 994.979 663.868 983.839L664.439 983.188Z" fill="#FADA76"/>
<path d="M526.868 1009.14C530.557 1000.9 533.216 985.369 540.502 981.019C542.839 979.649 545.636 979.299 548.237 980.059C550.555 980.719 552.311 982.429 553.32 984.589C558.343 995.319 538.449 1042.41 533.594 1056.04C530.778 1064.47 524.261 1092.65 510.676 1085.31C498.44 1078.69 512.937 1049.93 516.647 1039.56C511.425 1025.31 497.848 1002.39 497.285 987.659C497.153 984.209 501.069 981.519 503.785 979.689C518.127 979.769 521.723 997.448 526.868 1009.14Z" fill="#C04000"/>
<path d="M503.326 984.509C519.348 984.979 516.298 1010.85 527.385 1017.42C536.308 1011.68 534.295 982.979 547.504 984.449C553.598 989.869 547.051 1002.31 544.897 1008.61L532.669 1044.51C528.94 1053.34 524.054 1077.57 515.179 1080.97C511.778 1080.36 512.968 1081.03 510.692 1078.47C508.577 1072.95 519.342 1046.14 522.106 1038.15C515.117 1023.43 506.692 1006.99 502.065 991.279C501.443 989.169 502.498 986.529 503.326 984.509Z" fill="#FADA76"/>
<path d="M704.349 851.035C713.751 850.535 727.332 850.139 727.128 863.833C726.93 877.024 703.106 868.6 702.646 877.2C708.285 884.841 739.887 890.964 737.024 912.228C733.812 936.084 719.432 940.265 698.298 938.636C688.462 936.141 680.072 931.705 679.507 920.413C679.161 913.481 686.466 911.733 691.795 911.939C696.712 912.129 699.601 918.102 704.035 918.608C707.134 918.962 715.461 916.807 715.5 912.77C710.065 902.639 684.043 899.572 681.021 884.023C677.429 865.544 688.1 855.515 704.349 851.035Z" fill="#C04000"/>
<path d="M703.847 855.99C710.062 855.412 715.689 854.443 720.856 858.209C722.711 861.663 722.325 860.105 722.119 864.215C716.251 871.343 705.972 865.637 700.398 870.386C698.879 871.681 697.954 873.539 697.839 875.532C697.166 885.947 722.085 889.91 727.973 900.295C730.669 903.984 733.58 908.821 732.56 913.839C728.485 933.879 713.665 935.764 697.413 933.516C692.529 931.938 687.778 930.376 684.992 925.827C684.326 922.771 683.84 921.643 685.137 918.707C692.661 914.621 706.434 925.997 711.108 923.125C735.426 908.179 702.597 897.981 696.272 894.47C676.161 883.306 683.404 861.408 703.847 855.99Z" fill="#F2885B"/>
<path d="M431.4 1106.73C441.154 1106.85 446.295 1110.19 446.647 1120.62C447.721 1152.45 448.074 1184.78 446.956 1216.58C446.821 1220.43 441.433 1224.21 438.6 1226.01C425.679 1224.77 424.387 1218.86 424.31 1206.69C424.127 1177.94 423.225 1149.14 423.695 1120.4C423.804 1113.78 426.729 1110.88 431.4 1106.73Z" fill="#C04000"/>
<path d="M432.629 1111.44C434.995 1111.53 435.913 1111.86 438.223 1112.46C439.757 1113.65 441.703 1115.32 441.828 1117.55C443.584 1148.95 443.444 1182.07 442.552 1213.54C442.475 1216.25 440.801 1218.91 439.471 1220.87C433.028 1221.03 429.518 1219.2 429.214 1212.21C428.078 1185.15 428.7 1157.93 428.549 1130.84C428.506 1123.13 427.653 1117.57 432.629 1111.44Z" fill="#F2885B"/>
<path d="M713.831 1103.79C738.873 1103.4 729.909 1144.35 728.653 1160.29C727.82 1170.87 725.891 1188.65 719.898 1197C705.894 1202.91 705.091 1161.99 704.51 1153.63C703.408 1137.75 699.763 1114.63 713.831 1103.79Z" fill="#C04000"/>
<path d="M715.912 1206C727.55 1205.94 723.384 1212.49 722.8 1215.04C722.413 1216.73 721.517 1219.57 718.731 1220.91C712.223 1221.85 711.85 1215.31 711.58 1213.97C711.068 1211.43 709.374 1207.73 715.912 1206Z" fill="#C04000"/>
<path d="M714.804 1108.49C729.147 1109.05 726.363 1131.82 725.404 1141.89C723.864 1158.07 722.559 1175.69 718.684 1191.47C716.482 1191.61 717.164 1191.57 714.942 1190.51C711.093 1183.76 710.188 1164.32 709.514 1155.87C708.147 1138.72 705.501 1123.68 714.804 1108.49Z" fill="#F2885B"/>
<path d="M716.584 1209C722.108 1209.05 721.036 1211.25 720.666 1212.22C720.073 1213.78 719.571 1215.47 718.079 1216.99C717.231 1217.01 717.493 1217 716.638 1216.9C715.155 1216.25 714.807 1214.38 714.547 1213.56C714.021 1211.91 713.002 1210.46 716.584 1209Z" fill="#F2885B"/>
</svg>
