<svg width="713" height="897" viewBox="0 0 713 897" fill="none" xmlns="http://www.w3.org/2000/svg">
<path d="M260.457 251.223C261.16 240.167 263.519 228.974 270.188 219.823C271.991 217.349 274.891 214.744 275.862 211.827C278.347 204.354 279.101 194.367 281.51 186.073C290.305 155.788 305.654 128.352 325.279 103.78C371.065 46.4538 442.7 10.1453 515.195 2.18277C525.42 1.06027 544.575 -0.941228 554.16 1.16727C565.475 3.65827 589.85 21.4418 599.215 28.9413C608.76 36.6318 618.38 47.2483 623.77 58.3403C631.53 74.3113 634.705 103.556 636.64 121.575C637.84 133.058 638.72 144.572 639.275 156.104C639.36 158.861 639.475 161.617 639.625 164.371C644.305 159.902 649.64 156.977 656.3 157.072C660.75 157.135 664.94 158.636 668.005 161.942C671.5 165.716 672.86 171.384 672.81 176.435C673.445 190.58 670.265 204.779 666.585 218.347C666.31 220.186 665.985 222.031 665.765 223.876L666.15 224.427C671.295 231.658 679.01 236.195 685.4 242.174C697.775 253.749 715.32 278.049 712.365 295.974C711.525 301.094 709.615 306.37 706.885 310.79C699.795 321.689 691.505 330.147 678.35 333.003C665.34 335.826 652.54 331.854 641.48 325.086C638.57 334.186 635.375 343.209 633.865 352.672C631.69 353.371 629.095 352.584 626.9 352.197L629.155 351.811C627.665 351.563 626.205 351.36 624.78 350.838L625.345 350.255C624.005 349.736 623.125 349.168 621.995 348.313C621.125 348.023 620.285 347.804 619.385 347.623C619.445 335.785 618.36 307.041 624.885 297.749C628.4 292.749 636.37 292.266 641.94 291.219C640.58 288.561 638.16 285.904 638.385 282.784C638.395 282.633 638.42 282.483 638.44 282.333L637.95 281.711C633.43 283.744 630.045 288.468 625.615 290.834C617.3 295.274 605.96 294.057 597.29 291.6C593.715 290.587 588.085 288.868 586.215 285.474C586.36 284.6 586.525 283.914 586.31 283.033C586.27 282.863 586.2 282.701 586.15 282.534C585.95 281.781 585.75 281.025 585.59 280.263C585.25 278.666 585.39 277.914 586.29 276.573C587.71 275.748 588.84 275.925 590.405 276.031C590.425 275.626 590.685 274.982 590.8 274.584L591.97 274.006C594.185 274.046 595.96 274.833 597.99 275.621C600.71 276.818 602.63 278.452 604.66 280.553C605.66 280.329 606.65 280.057 607.62 279.737C613.22 277.903 616.09 275.633 618.765 270.43C622.135 263.639 624.81 256.416 627.36 249.282C623.115 244.738 620.745 240.611 618.91 234.697C618.83 234.311 618.76 233.924 618.69 233.537C615.82 217.812 618.92 188.034 628.185 174.638C629.705 172.026 631.35 169.844 633.475 167.678C632.14 161.991 630.905 156.222 629.11 150.658C621.255 126.279 604.57 93.1008 584.89 76.5658C570.94 82.1648 557.885 89.7213 545.055 97.4968C496.82 126.624 454.22 164.19 419.285 208.398C414.845 214.009 403.6 227.342 400.93 233.482C400.65 234.132 400.665 234.199 400.555 234.798C403.21 234.467 405.855 234.187 408.535 234.165C419.345 234.002 429.76 238.207 437.43 245.828C444.785 253.296 448.875 263.376 448.805 273.856C448.725 284.57 444.315 294.797 436.575 302.206C428.73 309.825 418.73 313.481 407.84 313.221C389.61 312.786 378.79 302.074 366.98 289.624C365.86 301.864 363.345 312.462 355.395 322.181C347 332.538 334.772 339.06 321.494 340.264C309.355 341.362 296.393 337.207 287.139 329.295C276.389 320.102 270.9 308.11 269.809 294.171C259.425 303.877 249.275 311.741 234.585 312.968C224.047 313.848 213.165 311.143 205.019 304.21C197.769 298.04 192.682 289.293 191.964 279.718C191.147 269.938 194.356 260.248 200.849 252.889C208.099 244.553 218.179 239.793 229.178 239.181C241.849 238.476 251.19 242.986 260.457 251.223Z" fill="#353858"/>
<path d="M638.43 178.242C638.505 177.467 638.5 177.829 638.445 176.964C638.225 173.647 637.85 170.874 639.74 167.952C642.34 163.938 647.495 161.439 652.035 160.47C656.255 159.57 660.925 159.888 664.56 162.396C669.45 165.771 669.67 172.363 670.52 177.724C669.97 190.517 667.76 203.29 664.815 215.731C665.33 216.76 665.625 217.676 666.585 218.348C666.31 220.187 665.985 222.031 665.765 223.877L666.15 224.427C671.295 231.658 679.01 236.196 685.4 242.175C697.775 253.749 715.32 278.05 712.365 295.975C711.525 301.094 709.615 306.37 706.885 310.791C699.795 321.689 691.505 330.148 678.35 333.004C665.34 335.826 652.54 331.855 641.48 325.087C638.57 334.187 635.375 343.209 633.865 352.672C631.69 353.371 629.095 352.584 626.9 352.198L629.155 351.811C627.665 351.563 626.205 351.361 624.78 350.839L625.345 350.255C624.005 349.736 623.125 349.169 621.995 348.313C621.125 348.024 620.285 347.804 619.385 347.623C619.445 335.786 618.36 307.042 624.885 297.749C628.4 292.75 636.37 292.266 641.94 291.219C640.58 288.561 638.16 285.905 638.385 282.785C638.395 282.633 638.42 282.484 638.44 282.334L637.95 281.712C633.43 283.744 630.045 288.469 625.615 290.835C617.3 295.275 605.96 294.058 597.29 291.601C593.715 290.588 588.085 288.868 586.215 285.474C586.36 284.601 586.525 283.915 586.31 283.033C586.27 282.863 586.2 282.701 586.15 282.535C585.95 281.782 585.75 281.026 585.59 280.264C585.25 278.667 585.39 277.915 586.29 276.574C587.71 275.749 588.84 275.925 590.405 276.032C590.425 275.626 590.685 274.982 590.8 274.585L591.97 274.007C594.185 274.047 595.96 274.833 597.99 275.621C600.71 276.819 602.63 278.452 604.66 280.553C605.66 280.33 606.65 280.057 607.62 279.737C613.22 277.903 616.09 275.634 618.765 270.431L621.605 271.148L622.22 271.166L634.93 260.585C636.435 258.742 635.66 254.773 635.52 252.494C636.11 252.938 636.38 253.283 637.125 253.388L637.795 252.565C639.435 251.939 641.055 252.368 642.74 252.611L644.925 253.638C648.39 249.83 652.945 248.031 655.875 243.416C658.46 239.268 659.26 234.252 658.095 229.505C655.715 219.926 650.25 219.479 643.565 215.028C643.435 214.939 643.31 214.838 643.18 214.744C642.61 208.727 641.33 202.628 640.505 196.628C639.665 190.513 639.265 184.356 638.43 178.242Z" fill="#D77B70"/>
<path d="M637.125 253.386L637.795 252.563C639.435 251.937 641.055 252.366 642.74 252.609L644.925 253.636C643.24 255.678 641.6 257.729 639.705 259.582C640.11 261.096 640.48 262.258 641.925 263.09C643.965 264.268 646.075 264.946 647.885 266.539C648.945 265.223 650.08 263.375 651.725 262.853L652.69 263.461C652.905 264.728 652.875 265.304 652.065 266.365C650.12 268.913 647.665 271.274 645.555 273.707C648.79 284.635 654.16 301.768 664.99 307.58C672.89 311.82 683.275 310.263 691.44 307.609C694.965 306.463 698.17 304.964 701.505 303.381C703.825 303.211 704.875 301.792 707.29 302.148L708.195 301.899C708.19 304.205 705.875 307.767 704.8 309.781L706.885 310.789C699.795 321.687 691.505 330.146 678.35 333.002C665.34 335.824 652.54 331.853 641.48 325.085C638.57 334.185 635.375 343.207 633.865 352.67C631.69 353.369 629.095 352.582 626.9 352.196L629.155 351.809C627.665 351.561 626.205 351.359 624.78 350.837L625.345 350.253C624.005 349.734 623.125 349.167 621.995 348.311C621.125 348.022 620.285 347.802 619.385 347.621C619.445 335.784 618.36 307.04 624.885 297.747C628.4 292.748 636.37 292.264 641.94 291.217C640.58 288.559 638.16 285.903 638.385 282.783C638.395 282.631 638.42 282.482 638.44 282.332L637.95 281.71C633.43 283.742 630.045 288.467 625.615 290.833C617.3 295.273 605.96 294.056 597.29 291.599C593.715 290.586 588.085 288.866 586.215 285.472C586.36 284.599 586.525 283.913 586.31 283.031C586.27 282.861 586.2 282.699 586.15 282.533C585.95 281.78 585.75 281.024 585.59 280.262C585.25 278.665 585.39 277.913 586.29 276.572C587.71 275.747 588.84 275.923 590.405 276.03C590.425 275.624 590.685 274.98 590.8 274.583L591.97 274.005C594.185 274.045 595.96 274.831 597.99 275.619C600.71 276.817 602.63 278.45 604.66 280.551C605.66 280.328 606.65 280.055 607.62 279.735C613.22 277.901 616.09 275.632 618.765 270.429L621.605 271.146L622.22 271.164L634.93 260.583C636.435 258.74 635.66 254.771 635.52 252.492C636.11 252.936 636.38 253.281 637.125 253.386Z" fill="#82B7A9"/>
<path d="M637.125 253.386L637.795 252.563C639.435 251.937 641.055 252.366 642.74 252.609L644.925 253.636C643.24 255.678 641.6 257.729 639.705 259.582C640.11 261.096 640.48 262.258 641.925 263.09C643.965 264.268 646.075 264.946 647.885 266.539C639.15 276.741 628.375 289.998 613.995 291.211C605.885 291.896 597.05 289.828 590.295 285.26L598.235 284.627C597.535 283.652 596.62 283.421 595.54 283.008L595.03 282.819L595.265 282.192L593.845 281.741C593.885 279.936 594.16 278.817 594.89 277.171C596.1 276.808 596.93 276.273 597.99 275.619C600.71 276.817 602.63 278.45 604.66 280.551C605.66 280.328 606.65 280.055 607.62 279.735C613.22 277.901 616.09 275.632 618.765 270.429L621.605 271.146L622.22 271.164L634.93 260.583C636.435 258.74 635.66 254.771 635.52 252.492C636.11 252.936 636.38 253.281 637.125 253.386Z" fill="#82B7A9"/>
<path d="M637.125 253.386L637.795 252.563C639.435 251.937 641.055 252.366 642.74 252.609L644.925 253.636C643.24 255.678 641.6 257.729 639.705 259.582C638.88 260.283 637.995 261.217 637.05 261.728C633.35 265.44 629.21 268.996 625.08 272.222C616.97 278.986 608.625 282.872 598.235 284.627C597.535 283.652 596.62 283.421 595.54 283.008L595.03 282.819L595.265 282.192L593.845 281.741C593.885 279.936 594.16 278.817 594.89 277.171C596.1 276.808 596.93 276.273 597.99 275.619C600.71 276.817 602.63 278.45 604.66 280.551C605.66 280.328 606.65 280.055 607.62 279.735C613.22 277.901 616.09 275.632 618.765 270.429L621.605 271.146L622.22 271.164L634.93 260.583C636.435 258.74 635.66 254.771 635.52 252.492C636.11 252.936 636.38 253.281 637.125 253.386Z" fill="#303255"/>
<path d="M594.89 277.172C597 277.924 598.81 278.489 600.525 280.007L600.82 281.007C599.245 282.364 597.27 282.168 595.265 282.193L593.845 281.742C593.885 279.937 594.16 278.818 594.89 277.172Z" fill="#D2B8A3"/>
<path d="M637.125 253.386L637.795 252.563C639.435 251.937 641.055 252.366 642.74 252.609C641.715 253.828 640.48 255.753 638.955 256.233L638.01 255.803L637.125 253.386Z" fill="white"/>
<path d="M647.885 266.541C648.945 265.225 650.08 263.377 651.725 262.855L652.69 263.463C652.905 264.73 652.875 265.306 652.065 266.367C650.12 268.915 647.665 271.276 645.555 273.709C648.79 284.637 654.16 301.77 664.99 307.582C672.89 311.822 683.275 310.265 691.44 307.611C694.965 306.465 698.17 304.966 701.505 303.383C703.825 303.213 704.875 301.794 707.29 302.15C699.13 309.47 685.285 313.323 674.475 312.691C667.82 312.303 661.405 309.831 656.985 304.684C653.92 301.109 651.775 296.764 649.565 292.639C642.98 293.852 630.955 293.571 626.855 299.653C621.04 308.274 621.97 336.936 621.995 348.313C621.125 348.024 620.285 347.804 619.385 347.623C619.445 335.786 618.36 307.042 624.885 297.749C628.4 292.75 636.37 292.266 641.94 291.219C640.58 288.561 638.16 285.905 638.385 282.785C638.395 282.633 638.42 282.484 638.44 282.334L637.95 281.712C633.43 283.744 630.045 288.469 625.615 290.835C617.3 295.275 605.96 294.058 597.29 291.601C593.715 290.588 588.085 288.868 586.215 285.474C586.36 284.601 586.525 283.915 586.31 283.033C586.27 282.863 586.2 282.701 586.15 282.535C585.95 281.782 585.75 281.026 585.59 280.264C585.25 278.667 585.39 277.915 586.29 276.574C587.71 275.749 588.84 275.925 590.405 276.032C590.425 275.626 590.685 274.982 590.8 274.585L591.97 274.007C594.185 274.047 595.96 274.833 597.99 275.621C596.93 276.275 596.1 276.81 594.89 277.173C594.16 278.819 593.885 279.938 593.845 281.743L595.265 282.194L595.03 282.821L595.54 283.01C596.62 283.423 597.535 283.654 598.235 284.629L590.295 285.262C597.05 289.83 605.885 291.898 613.995 291.213C628.375 290 639.15 276.743 647.885 266.541Z" fill="#353858"/>
<path d="M590.405 276.033C590.425 275.627 590.685 274.983 590.8 274.586L591.97 274.008C594.185 274.048 595.96 274.834 597.99 275.622C596.93 276.276 596.1 276.811 594.89 277.174C594.16 278.82 593.885 279.939 593.845 281.744C593.315 281.908 592.79 281.87 592.24 281.883C590.805 281.152 590.145 280.035 589.25 278.753C589.97 278.011 590.11 277.008 590.405 276.033Z" fill="#303255"/>
<path d="M586.15 282.533C585.95 281.78 585.75 281.024 585.59 280.262C585.25 278.665 585.39 277.913 586.29 276.572C587.71 275.747 588.84 275.924 590.405 276.03C590.11 277.005 589.97 278.009 589.25 278.75C588.385 280.032 587.49 281.744 586.15 282.533Z" fill="#38394F"/>
<path d="M643.215 276.438C644.92 280.787 646.765 285.071 648.36 289.465C647.345 290.529 646.225 290.549 644.83 290.906C643.465 287.114 641.515 283.526 639.36 280.13L643.215 276.438Z" fill="#82B7A9"/>
<path d="M704.8 309.781L706.885 310.789C699.795 321.688 691.505 330.146 678.35 333.002C665.34 335.825 652.54 331.853 641.48 325.085C638.57 334.185 635.375 343.208 633.865 352.671C631.69 353.37 629.095 352.583 626.9 352.196L629.155 351.81C627.665 351.562 626.205 351.359 624.78 350.837L625.345 350.254C627.365 350.496 629.385 350.872 631.395 351.188C633.24 341.628 636.365 332.523 639.86 323.466C637.37 321.174 635.26 319.326 633.955 316.118L634.29 315.613C638.155 317.222 641.395 321.347 644.835 323.805C653.5 329.99 665.74 332.628 676.17 330.688C688.93 328.316 697.725 320.155 704.8 309.781Z" fill="#353858"/>
<path d="M648.855 176.102C649.96 174.826 651.475 173.322 653.205 172.981C655.415 172.547 656.705 173.369 658.505 174.492L660.285 172.766C665.29 181.832 662.605 195.776 659.835 205.274C659.305 207.093 658.64 208.863 657.945 210.626C659.24 213.041 660.83 217.411 663.015 218.921L663.835 218.766C664.255 217.749 664.57 216.806 664.815 215.733C665.33 216.761 665.625 217.677 666.585 218.349C666.31 220.188 665.985 222.033 665.765 223.878L666.15 224.429C671.295 231.66 679.01 236.197 685.4 242.176C697.775 253.751 715.32 278.051 712.365 295.976C711.525 301.096 709.615 306.372 706.885 310.792L704.8 309.784C705.875 307.77 708.19 304.208 708.195 301.902L707.29 302.151C704.875 301.796 703.825 303.214 701.505 303.385C705.14 301.044 707.98 298.757 709.345 294.508C713.83 280.581 694.605 254.732 685.31 245.661C678.875 239.38 671.07 234.539 665.1 227.767C661.43 223.606 658.795 218.495 656.39 213.535C651.035 202.503 642.53 187.43 646.815 175.052L648.855 176.102Z" fill="#38394F"/>
<path d="M648.855 176.102C649.96 174.826 651.475 173.322 653.205 172.981C655.415 172.547 656.705 173.369 658.505 174.492C660.325 177.533 661.075 180.732 660.275 184.24C659.155 189.176 655.24 193.589 651.965 197.307C649.215 191.185 646.43 183.281 648.655 176.599C648.715 176.43 648.79 176.267 648.855 176.102Z" fill="white"/>
<path d="M646.815 175.052C647.285 174.246 647.81 173.536 648.44 172.848C649.97 171.173 651.965 169.911 654.295 169.861C656.91 169.805 658.465 171.057 660.285 172.765L658.505 174.492C656.705 173.369 655.415 172.546 653.205 172.981C651.475 173.321 649.96 174.826 648.855 176.101L646.815 175.052Z" fill="#353858"/>
<path d="M682.775 265.82C682.905 265.902 683.055 265.958 683.165 266.064C684.285 267.127 684.2 269.943 684.38 271.468L691.675 273.279C689.305 274.737 686.945 276.213 684.595 277.707C684.23 279.555 684.245 282.421 682.94 283.799C681.565 283.907 681.35 283.566 680.17 282.812C679.205 281.881 678.19 281.023 677.175 280.15L669.655 280.963C671.255 278.912 672.99 276.957 674.68 274.978C675.39 266.201 678.27 271.506 682.775 265.82Z" fill="white"/>
<path d="M634.825 198.641L635.45 199.017L636.105 197.863C637.295 198.027 637.105 198.044 637.875 198.813L638.32 199.001C638.97 204.083 639.475 209.241 640.31 214.293L643.18 214.744C643.31 214.839 643.435 214.939 643.565 215.028C650.25 219.48 655.715 219.926 658.095 229.506C659.26 234.253 658.46 239.268 655.875 243.417C652.945 248.031 648.39 249.83 644.925 253.639L642.74 252.612C641.055 252.368 639.435 251.939 637.795 252.566L637.125 253.389C636.38 253.284 636.11 252.938 635.52 252.495C635.66 254.774 636.435 258.742 634.93 260.586L622.22 271.167L621.605 271.148L618.765 270.431C622.135 263.64 624.81 256.417 627.36 249.283C623.115 244.739 620.745 240.612 618.91 234.698L621.315 233.981C623.18 225.992 625.54 222.399 631.745 217.062C632.64 211.052 633.205 204.473 634.825 198.641Z" fill="#38394F"/>
<path d="M621.605 271.148C623.605 264.301 627.035 257.319 629.73 250.68C631.695 251.213 633.605 251.803 635.52 252.495C635.66 254.774 636.435 258.742 634.93 260.586L622.22 271.167L621.605 271.148Z" fill="#82B7A9"/>
<path d="M637.875 198.812L638.32 199C638.97 204.083 639.475 209.241 640.31 214.293L635.055 215.218C635.54 209.643 636.56 204.248 637.875 198.812Z" fill="white"/>
<path d="M606.865 67.3094C611.845 65.2924 616.9 63.4599 622.02 61.8164C625.38 70.0364 627.03 79.2164 628.63 87.9284C632.89 111.119 635.015 134.568 636.515 158.074L636.04 161.091C631.98 128.069 621.94 96.9174 606.865 67.3094Z" fill="white"/>
<path d="M631.86 173.679L633.38 172.066L634.155 172.227C636.22 175.373 634.81 180.36 635.845 183.879C635.82 188.839 635.33 193.711 634.825 198.639C633.205 204.471 632.64 211.05 631.745 217.06C625.54 222.397 623.18 225.99 621.315 233.979C617.51 215.774 622.4 189.626 631.86 173.679Z" fill="#82B7A9"/>
<path d="M639.275 156.105C639.36 158.862 639.475 161.618 639.625 164.372C639.58 164.433 639.545 164.503 639.49 164.556C638.66 165.345 638.055 165.831 636.92 165.96L636.09 165.027C635.72 163.517 635.79 162.631 636.04 161.093L636.515 158.076C636.695 158.054 636.88 158.069 637.05 158.01C638.25 157.595 638.615 157.095 639.275 156.105Z" fill="#38394F"/>
<path d="M313.843 197.199C327.202 196.174 339.279 198.743 350.4 206.437C361.61 214.192 370.885 226.92 373.575 240.4C374.605 245.574 374.515 250.897 375.475 256.095L375.61 256.789C378.88 253.877 381.18 249.882 384.375 246.828C391.01 240.479 400.62 237.102 409.745 237.371C419.615 237.566 428.995 241.732 435.755 248.929C442.385 256.041 445.89 265.507 445.5 275.22C445.04 284.878 440.735 293.952 433.545 300.414C425.87 307.238 415.77 310.676 405.53 309.951C391.84 309.045 381.88 300.615 372.855 291.016C371.16 289.215 369.75 287.127 368.04 285.367C367.205 284.51 366.31 283.719 365.055 283.709C363.995 284.588 363.61 284.797 363.375 286.247C363.1 287.964 363.42 290.094 363.335 291.891C363.105 297.039 362.055 302.118 360.225 306.936C355.615 319.161 346.51 328.155 334.748 333.538C328.164 335.956 321.765 337.105 314.728 336.665C295.811 335.391 279.801 322.221 274.902 303.904C273.803 299.9 273.617 291.338 271.068 288.421C267.979 290.202 265.426 293.261 262.883 295.743C255.912 302.545 247.223 307.667 237.542 309.343C227.84 311.096 217.839 308.909 209.753 303.267C202.618 298.229 196.841 290.604 195.606 281.764C194.286 272.946 196.604 263.969 202.029 256.892C207.92 249.139 216.405 243.993 226.082 242.729C243.193 240.496 249.577 247.275 262.041 256.796C263.748 256.387 263.567 254.171 263.693 252.575C264.741 239.213 267.449 228.215 276.052 217.488C285.714 205.442 298.617 198.893 313.843 197.199Z" fill="white"/>
<path d="M528.415 4.21531C536.805 3.40881 548.555 2.55831 556.545 5.16681C559.505 6.13481 562.27 7.95081 564.95 9.51181C522.345 14.5943 481.785 26.2353 444.345 47.5608C397.115 74.4633 357.645 117.724 337.682 168.499C334.38 176.9 332.075 185.554 329.684 194.245C320.896 193.161 313.385 193.679 304.684 195.238C294.677 198.045 287.948 201.981 279.968 208.536C287.065 165.07 308.5 126.729 337.664 94.1598C384.89 41.4213 458.005 8.05131 528.415 4.21531Z" fill="#F7D89C"/>
<path d="M568.255 12.2548C571.44 12.1763 578.2 17.3978 580.855 19.1708C548.205 22.9683 512.12 39.6178 484.665 57.2278C436.7 87.9948 400.49 134.647 379.46 187.298C375.155 198.065 370.98 208.667 368.495 220.026C365.105 215.576 361.375 211.56 357.385 207.645C349.76 201.417 342.183 198.168 332.913 195.2C341.349 164.078 354.645 137.098 374.695 111.723C423.005 50.5808 492.365 21.1638 568.255 12.2548Z" fill="#82B7A9"/>
<path d="M597.205 32.1758C602.785 33.6743 615.955 50.7648 618.885 56.0193C619.375 56.9048 619.83 57.8083 620.255 58.7288C606.405 63.9788 592.575 68.9423 579.19 75.3263C504.68 111.648 441.22 167.201 395.365 236.249C390.935 238.513 386.715 240.91 382.73 243.899C412.505 167.608 467.475 93.6538 540.805 54.6893C552.04 48.7183 563.44 42.9808 575.51 38.8763C581.495 36.8428 591.24 35.1373 596.485 32.5438C596.725 32.4248 596.965 32.2983 597.205 32.1758Z" fill="#F7D89C"/>
<path d="M582.125 21.6727C585.96 21.0147 592.32 27.3402 595.655 29.4527C585.06 32.5812 574.56 35.6517 564.365 39.9557C509.93 62.9367 462.18 103.997 428.335 152.212C408.555 180.395 392.915 211.308 379.985 243.141C379.38 244.544 378.635 245.908 377.95 247.273C377.04 238.785 374.855 232.051 370.885 224.479C377.995 190.735 394.975 157.082 414.645 128.97C454.265 72.6462 514.4 34.1192 582.125 21.6727Z" fill="#D77B70"/>
<path d="M602.665 68.9531L603.715 69.4956C614.695 87.0411 621.485 108.309 626.65 128.234C627.78 132.609 629.375 137.361 629.545 141.885C628.22 138.733 626.945 135.562 625.715 132.373C617.295 112.233 603.93 89.9236 588.065 74.8936C592.795 72.6351 597.785 70.8581 602.665 68.9531Z" fill="white"/>
<path d="M84.3524 431.81C85.8344 429.884 87.0735 428.412 89.603 428.077C92.178 427.736 94.738 428.331 96.7525 429.995C104.082 436.045 104.37 453.495 105.814 454.465C110.077 456.575 112.223 466.815 113.753 471.35C120.636 491.745 135.326 536.67 134.772 556.88C134.432 569.285 130.717 581.24 125.286 592.33C123.611 595.755 121.71 599.425 119.277 602.37C122.421 606.765 126.592 610.41 130.211 614.415C135.276 620.015 140.138 625.865 144.99 631.65C155.31 643.95 164.591 657.065 174.624 669.59C180.796 677.295 187.634 684.35 193.936 691.9C195.03 693.08 195.216 693.14 195.375 694.72C194.695 696.34 193.802 697.625 192.775 699.045C203.741 699.105 261.451 696.065 267.521 701.925C267.735 702.135 267.957 702.33 268.172 702.535C274.236 708.285 279.417 715.76 284.82 722.185L317.337 761.025C325.522 770.76 333.758 780.93 343.007 789.67C351.35 784.31 366.95 779.23 376.965 781.37C378.55 781.71 379.375 782.275 380.515 783.395C381.24 785 381.36 786.17 380.75 787.855C378.005 795.405 351.61 816.085 343.86 819.575C342.877 820.015 341.198 820.735 340.159 820.34C336.183 818.835 331.652 810.955 329.073 807.41C327.055 804.315 324.578 802.01 321.825 799.595C313.515 793.335 305.659 786.375 297.696 779.67C286.467 770.32 275.367 760.82 264.399 751.165C258.615 745.985 253.182 740.36 247.281 735.325C237.061 737.62 226.822 739.83 216.564 741.95C230.39 769.01 245.374 795.545 259.904 822.23L275.254 850.255C277.994 855.23 280.577 860.705 283.884 865.3C284.473 866.12 284.892 866.51 285.835 866.835L285.981 867.33C284.956 868.33 284.645 868.755 283.238 869.145C283.613 870.13 283.893 870.22 283.475 871.255C281.54 876.055 275.111 879.175 270.58 881.05C269.689 879.775 268.826 878.245 267.796 877.095L266.267 878.94C247.179 856.07 229.32 831.935 211.213 808.285C197.962 790.975 184.278 773.945 170.872 756.75L167.206 752.145C163.42 752.615 159.619 752.935 155.809 753.115C142.281 753.66 125.007 750.11 114.748 740.635C109.273 742.6 92.77 751.28 87.6425 749.335C87.023 749.1 86.988 748.965 86.511 748.495C84.3205 745.53 85.212 726.495 85.1375 722.055C84.1545 701.135 82.0575 680.38 77.1575 659.98C73.7215 645.675 69.0015 631.635 65.1925 617.415C65.988 616.515 67.1835 615.4 67.537 614.24C68.0685 612.495 66.6839 610.57 65.7749 609.175C57.6329 614.46 47.911 616.755 38.2655 615.675C27.3715 614.445 16.1894 608.585 9.43895 599.875C1.88695 590.135 -0.793053 577.09 0.805447 565.005C2.28845 553.8 8.22445 541.98 17.3204 535.035C27.6954 527.11 35.6285 528.575 47.658 530.245C46.425 530.725 44.7919 531.015 44.0789 532.21C44.0154 532.32 43.999 532.445 43.959 532.565L42.9064 532.78C43.7734 534.33 44.5954 536.265 45.7774 537.575C46.7844 535.515 48.2125 534.61 50.0735 533.37C50.8345 533.625 50.4034 533.56 51.3789 533.45L51.031 531.17L57.3459 532.305C62.0074 533.355 72.4805 535.805 75.8885 539.345C75.97 539.43 76.0105 539.545 76.0715 539.645C77.446 541.455 78.556 542.23 80.593 543.21C81.2745 543.54 81.0284 543.42 81.7879 543.955L81.6649 546.645L83.1239 546.505C85.9939 551.11 87.746 555.475 88.6775 560.85L89.2859 568.06C91.9379 569.25 94.449 570.545 96.9695 571.995C99.67 564.79 100.564 557.005 100.541 549.345C100.458 521.74 92.222 493.73 88.2465 466.565C88.009 464.94 87.8634 463.66 88.5939 462.16C86.0764 454.635 80.5155 447.53 78.9105 439.83C78.484 437.78 78.3695 435.431 79.7295 433.689C80.8215 432.289 82.7224 432.125 84.3524 431.81Z" fill="#D77B70"/>
<path d="M117.512 604.406C123.745 609.736 128.929 616.451 134.22 622.696C148.053 639.036 160.634 656.186 174.11 672.771C179.519 679.431 185.779 687.901 192.714 692.966L193.936 691.901C195.031 693.081 195.217 693.141 195.376 694.721C194.695 696.341 193.802 697.626 192.776 699.046C203.742 699.106 261.451 696.066 267.521 701.926C267.735 702.136 267.957 702.331 268.173 702.536C274.237 708.286 279.417 715.761 284.82 722.186L317.337 761.026C325.523 770.761 333.758 780.931 343.007 789.671C351.35 784.311 366.95 779.231 376.965 781.371C378.55 781.711 379.375 782.276 380.515 783.396C381.24 785.001 381.36 786.171 380.75 787.856C378.005 795.406 351.61 816.086 343.861 819.576C342.877 820.016 341.198 820.736 340.16 820.341C336.184 818.836 331.652 810.956 329.073 807.411C327.055 804.316 324.579 802.011 321.826 799.596C313.516 793.336 305.659 786.376 297.696 779.671C286.468 770.321 275.368 760.821 264.4 751.166C258.616 745.986 253.182 740.361 247.281 735.326C237.062 737.621 226.822 739.831 216.564 741.951C230.391 769.011 245.374 795.546 259.904 822.231L275.254 850.256C277.994 855.231 280.577 860.706 283.884 865.301C284.473 866.121 284.892 866.511 285.835 866.836L285.982 867.331C284.957 868.331 284.646 868.756 283.238 869.146C283.613 870.131 283.894 870.221 283.475 871.256C281.541 876.056 275.111 879.176 270.581 881.051C269.689 879.776 268.827 878.246 267.797 877.096L266.268 878.941C247.179 856.071 229.32 831.936 211.213 808.286C197.962 790.976 184.278 773.946 170.872 756.751L167.206 752.146C163.421 752.616 159.619 752.936 155.809 753.116C142.281 753.661 125.007 750.111 114.749 740.636C115.488 739.836 116.105 739.296 117.048 738.746C127.886 735.056 159.957 714.566 169.351 707.301L168.766 700.546L167.485 693.996C166.359 690.441 165.174 686.901 163.93 683.386C163.063 679.456 161.088 675.291 159.491 671.596C151.039 652.041 139.324 632.706 125.052 616.796C124.857 616.761 124.662 616.726 124.467 616.686C123.608 616.516 123.943 616.596 123.081 616.296L122.538 617.076C119.976 615.521 117.087 611.356 114.99 609.051C115.81 608.681 116.101 608.156 116.653 607.466C116.66 606.411 116.853 605.691 117.132 604.681L117.512 604.406Z" fill="url(#paint0_linear_448_295)"/>
<path d="M117.048 738.744C118.822 742.224 129.686 746.234 133.505 747.464C159.467 755.844 191.997 744.889 217.604 739.059C227.611 736.779 238.276 735.304 247.995 732.059C255.368 739.844 317.847 795.544 323.929 796.629L324.617 797.084L324.405 797.359C323.127 797.759 322.609 798.589 321.826 799.594C313.516 793.334 305.659 786.374 297.696 779.669C286.468 770.319 275.368 760.819 264.4 751.164C258.616 745.984 253.182 740.359 247.281 735.324C237.062 737.619 226.822 739.829 216.564 741.949C230.391 769.009 245.374 795.544 259.904 822.229L275.254 850.254C277.994 855.229 280.577 860.704 283.884 865.299C284.473 866.119 284.892 866.509 285.835 866.834L285.982 867.329C284.957 868.329 284.646 868.754 283.238 869.144C283.613 870.129 283.894 870.219 283.475 871.254C281.541 876.054 275.111 879.174 270.581 881.049C269.689 879.774 268.827 878.244 267.797 877.094L266.268 878.939C247.179 856.069 229.32 831.934 211.213 808.284C197.962 790.974 184.278 773.944 170.872 756.749L167.206 752.144C163.421 752.614 159.619 752.934 155.809 753.114C142.281 753.659 125.007 750.109 114.749 740.634C115.488 739.834 116.105 739.294 117.048 738.744Z" fill="#38394F"/>
<path d="M279.982 864.16L283.238 869.145C283.613 870.13 283.894 870.22 283.475 871.255C281.541 876.055 275.111 879.175 270.581 881.05C269.689 879.775 268.827 878.245 267.797 877.095L265.703 874.04C271.091 871.25 275.727 868.545 279.982 864.16Z" fill="#F7D89C"/>
<path d="M171.523 753.995L170.66 752.685C171.294 751.69 173.136 751.575 174.306 751.32C187.314 748.475 200.577 746.415 213.395 742.715C221.631 754.655 227.75 768.58 234.649 781.355C249.344 808.575 263.922 836.015 279.154 862.925C274.267 865.705 269.649 869.905 265.312 873.49C263.297 871.43 261.552 868.705 259.76 866.42L247.325 850.575L194.255 782.31C186.882 772.96 179.905 762.42 171.523 753.995Z" fill="#7F4143"/>
<path d="M343.007 789.668C351.35 784.308 366.95 779.228 376.965 781.368C378.55 781.708 379.375 782.273 380.515 783.393C381.24 784.998 381.36 786.168 380.75 787.853C378.005 795.403 351.61 816.083 343.861 819.573C342.877 820.013 341.198 820.733 340.16 820.338C336.184 818.833 331.652 810.953 329.073 807.408L330.609 805.578C331.848 804.478 333.998 803.613 335.451 802.673L333.594 801.793C337.464 798.898 339.687 796.603 341.515 792.068L341.784 791.368C342.159 792.913 341.582 794.058 341.161 795.578L341.452 795.888C341.585 795.743 341.733 795.613 341.849 795.458C343.072 793.788 343.226 791.643 343.007 789.668Z" fill="#D77B70"/>
<path d="M343.007 789.668C351.35 784.308 366.95 779.228 376.965 781.368C378.55 781.708 379.375 782.273 380.515 783.393C381.24 784.998 381.36 786.168 380.75 787.853C378.005 795.403 351.61 816.083 343.861 819.573C342.877 820.013 341.198 820.733 340.16 820.338C336.184 818.833 331.652 810.953 329.073 807.408L330.609 805.578C334.038 809.798 336.957 814.383 340.433 818.573C347.81 815.258 375.81 793.388 378.41 786.543C378.135 785.383 378.06 784.953 376.855 784.398C370.605 781.543 351.055 788.668 344.504 791.173C342.489 796.613 340.141 799.313 335.451 802.673L333.594 801.793C337.464 798.898 339.687 796.603 341.515 792.068L341.784 791.368C342.159 792.913 341.582 794.058 341.161 795.578L341.452 795.888C341.585 795.743 341.733 795.613 341.849 795.458C343.072 793.788 343.226 791.643 343.007 789.668Z" fill="#353858"/>
<path d="M193.936 691.898C195.031 693.078 195.217 693.138 195.376 694.718C194.695 696.338 193.802 697.623 192.776 699.043C203.742 699.103 261.451 696.063 267.521 701.923C267.735 702.133 267.957 702.328 268.173 702.533C274.237 708.283 279.417 715.758 284.82 722.183L317.337 761.023C325.523 770.758 333.758 780.928 343.007 789.668C343.226 791.643 343.072 793.788 341.849 795.458C341.733 795.613 341.585 795.743 341.452 795.888L341.161 795.578C341.582 794.058 342.159 792.913 341.784 791.368L341.515 792.068C339.687 796.603 337.464 798.898 333.594 801.793L335.451 802.673C333.998 803.613 331.848 804.478 330.609 805.578L329.073 807.408C327.055 804.313 324.579 802.008 321.826 799.593C322.609 798.588 323.127 797.758 324.405 797.358L324.617 797.083L323.929 796.628C327.203 792.653 331.21 789.363 333.941 784.948C330.715 779.603 321.202 769.938 316.794 764.603L286.734 728.693C279.647 720.063 272.804 710.608 264.926 702.703C257.061 701.423 248.737 701.683 240.776 701.583C223.121 701.373 205.456 701.918 187.812 701.653C189.21 699.053 191.325 697.048 192.75 694.523C193.169 693.778 192.949 693.718 192.714 692.963L193.936 691.898Z" fill="#4C3F51"/>
<path d="M324.617 797.087C328.915 793.242 332.37 791.372 335.287 786.137C337.298 788.172 339.254 790.312 341.515 792.072C339.687 796.607 337.464 798.902 333.594 801.797L335.451 802.677C333.998 803.617 331.848 804.482 330.609 805.582L329.073 807.412C327.055 804.317 324.579 802.012 321.826 799.597C322.609 798.592 323.127 797.762 324.405 797.362L324.617 797.087Z" fill="#F7D89C"/>
<path d="M321.826 799.594C322.609 798.589 323.127 797.759 324.405 797.359C326.263 799.359 328.262 801.319 329.928 803.474L333.594 801.794L335.451 802.674C333.998 803.614 331.848 804.479 330.609 805.579L329.073 807.409C327.055 804.314 324.579 802.009 321.826 799.594Z" fill="#4C3F51"/>
<path d="M116.653 607.465C119.58 610.455 122.552 613.435 125.052 616.795C124.857 616.76 124.662 616.725 124.467 616.685C123.608 616.515 123.943 616.595 123.081 616.295L122.538 617.075C119.976 615.52 117.087 611.355 114.99 609.05C115.81 608.68 116.101 608.155 116.653 607.465Z" fill="#4C3F51"/>
<path d="M65.7749 609.174C57.6329 614.459 47.911 616.754 38.2655 615.674C27.3715 614.444 16.1894 608.584 9.43895 599.874C1.88695 590.134 -0.793053 577.089 0.805447 565.004C2.28845 553.799 8.22445 541.979 17.3204 535.034C27.6954 527.109 35.6285 528.574 47.658 530.244C46.425 530.724 44.7919 531.014 44.0789 532.209C44.0154 532.319 43.999 532.444 43.959 532.564L42.9064 532.779C43.7734 534.329 44.5954 536.264 45.7774 537.574L46.0429 538.074L46.136 538.519C48.3145 548.499 54.6554 563.014 49.1009 573.044C48.2684 575.159 47.433 577.044 45.7675 578.639C47.0445 581.579 49.2094 583.529 51.5119 585.689C55.5174 587.584 58.327 588.274 62.6195 586.874L61.1759 588.524C62.1319 588.984 61.6805 588.844 62.505 589.019L63.9779 589.169C66.7889 593.174 63.8674 608.144 65.7749 609.174Z" fill="#4C3F51"/>
<path d="M49.1012 573.044L48.4991 572.994C48.4981 572.719 48.5247 572.449 48.4967 572.179C48.0777 568.079 48.5447 564.129 48.3857 560.029C48.0697 551.864 44.9937 541.134 41.2597 533.959C40.8122 533.104 40.5187 532.544 40.2437 531.609L40.9827 531.734L41.5862 533.194L42.2386 531.894L42.9066 532.779C43.7736 534.329 44.5956 536.264 45.7776 537.574L46.0432 538.074L46.1362 538.519C48.3147 548.499 54.6557 563.014 49.1012 573.044Z" fill="url(#paint1_linear_448_295)"/>
<path d="M50.8831 587.351C50.4751 587.156 50.2066 587.046 49.8346 586.816C47.4776 585.376 44.7681 582.996 44.1616 580.231C44.6761 579.096 44.6161 579.111 45.7676 578.641C47.0446 581.581 49.2096 583.531 51.5121 585.691C55.5176 587.586 58.3271 588.276 62.6196 586.876L61.1761 588.526C62.1321 588.986 61.6806 588.846 62.5051 589.021C61.8881 589.331 61.2681 589.626 60.5971 589.801C57.2156 590.691 53.7241 588.981 50.8831 587.351Z" fill="#38394F"/>
<path d="M51.0311 531.172L57.3461 532.307C62.0076 533.357 72.4806 535.807 75.8886 539.347C75.9701 539.432 76.0106 539.547 76.0716 539.647C77.4461 541.457 78.5561 542.232 80.5931 543.212C81.2746 543.542 81.0286 543.422 81.7881 543.957L81.6651 546.647L83.1241 546.507C85.9941 551.112 87.7461 555.477 88.6776 560.852L86.3751 561.812C86.5061 565.142 86.5716 568.467 86.5726 571.797C85.1916 580.637 81.3986 588.352 79.4386 596.947C75.2291 599.307 70.9531 601.002 66.4526 602.707C66.5306 597.517 66.7116 592.302 66.6026 587.112C69.8241 584.677 71.9221 582.212 73.9806 578.687C72.8521 577.787 72.5441 577.652 72.0971 576.302L70.9381 577.097C68.6916 577.322 65.9781 577.367 63.9766 576.237C63.7686 576.322 63.5591 576.407 63.3526 576.502C63.2951 576.527 63.2411 576.557 63.1851 576.587L63.7401 575.162L62.5716 575.937L61.9706 575.562C61.6126 577.057 61.5801 577.292 62.0471 578.747C64.0991 580.552 66.9866 580.327 69.5731 580.427C67.3936 582.857 65.2886 584.962 62.6196 586.877C58.3271 588.277 55.5176 587.587 51.5121 585.692C49.2096 583.532 47.0446 581.582 45.7676 578.642C47.4331 577.047 48.2686 575.162 49.1011 573.047C54.6556 563.017 48.3146 548.502 46.1361 538.522L46.0431 538.077L45.7776 537.577C46.7846 535.517 48.2126 534.612 50.0736 533.372C50.8346 533.627 50.4036 533.562 51.3791 533.452L51.0311 531.172Z" fill="#F7D89C"/>
<path d="M51.0309 531.172L57.3458 532.307C62.0073 533.357 72.4804 535.807 75.8884 539.347C75.9699 539.432 76.0104 539.547 76.0714 539.647C77.4459 541.457 78.5558 542.232 80.5928 543.212C81.2743 543.542 81.0283 543.422 81.7878 543.957L81.6648 546.647L79.6508 546.182C73.0963 539.897 65.5173 536.232 56.4633 535.337C52.7263 535.877 49.5298 536.552 46.0428 538.077L45.7773 537.577C46.7843 535.517 48.2123 534.612 50.0733 533.372C50.8343 533.627 50.4033 533.562 51.3788 533.452L51.0309 531.172Z" fill="#303255"/>
<path d="M61.9707 575.561C62.7752 573.796 63.6712 572.821 65.5452 572.191C67.6372 571.491 70.1457 571.581 72.0702 572.721C73.0632 573.306 73.9272 574.171 74.2967 575.291C74.6962 576.501 74.3667 577.541 73.9807 578.686C72.8522 577.786 72.5442 577.651 72.0972 576.301L70.9382 577.096C68.6917 577.321 65.9782 577.366 63.9767 576.236C63.7687 576.321 63.5592 576.406 63.3527 576.501C63.2952 576.526 63.2412 576.556 63.1852 576.586L63.7402 575.161L62.5717 575.936L61.9707 575.561Z" fill="#38394F"/>
<path d="M63.9766 576.236C65.1991 575.176 66.2951 574.301 67.9946 574.321C69.7116 574.346 70.8856 575.151 72.0971 576.301L70.9381 577.096C68.6916 577.321 65.9781 577.366 63.9766 576.236Z" fill="white"/>
<path d="M79.6509 546.18L81.6649 546.645L83.1239 546.505C85.9939 551.11 87.7459 555.475 88.6774 560.85L86.3749 561.81C85.2824 555.705 83.5809 551.09 79.6509 546.18Z" fill="#38394F"/>
<path d="M63.5614 552.426C64.2524 552.451 64.8544 552.731 65.5049 552.956L65.8934 553.866C65.7389 554.476 65.7244 554.661 65.4054 555.271C64.1834 557.611 61.4189 558.491 59.0709 559.011C58.3499 558.546 57.8879 558.296 57.4889 557.501C57.1284 556.781 57.4534 556.461 57.6919 555.746C59.3979 554.121 61.4364 553.366 63.5614 552.426Z" fill="#303255"/>
<path d="M58.1987 542.227C58.4087 542.242 58.6192 542.247 58.8277 542.272C60.6392 542.492 62.0537 542.982 63.2177 544.437C63.4812 546.137 63.2632 546.357 62.5502 547.857C61.8087 547.897 60.9742 547.982 60.2402 547.867C58.9182 547.652 58.3812 547.037 57.5927 546.042C57.3087 544.362 57.5557 543.732 58.1987 542.227Z" fill="#303255"/>
<path d="M84.3523 431.81C85.8343 429.884 87.0733 428.412 89.6028 428.077C92.1778 427.736 94.7378 428.331 96.7523 429.995C104.082 436.045 104.37 453.495 105.814 454.465L104.519 455.67L102.734 455.77C98.4468 456.26 94.3028 457.925 90.5293 459.975L89.4473 460.235C89.2753 460.84 89.0638 461.455 88.9533 462.075L90.4663 462.625C94.5368 490.85 106.699 534.87 102.368 561.89C100.286 574.88 94.6583 586.895 86.8478 597.41C81.3738 604.785 74.2613 611.075 69.3068 618.76C68.1168 624.6 76.0638 644.83 78.0153 651.885C83.8898 673.125 87.8513 697.435 87.6148 719.515H87.0398L86.2438 717.385L85.8223 717.21C85.9628 719.355 86.3608 720.235 85.1373 722.055C84.1543 701.135 82.0573 680.38 77.1573 659.98C73.7213 645.675 69.0013 631.635 65.1923 617.415C65.9878 616.515 67.1833 615.4 67.5368 614.24C68.0683 612.495 66.6838 610.57 65.7748 609.175C63.8673 608.145 66.7888 593.175 63.9778 589.17L62.5048 589.02C61.6803 588.845 62.1318 588.985 61.1758 588.525L62.6193 586.875C65.2883 584.96 67.3933 582.855 69.5728 580.425C66.9863 580.325 64.0988 580.55 62.0468 578.745C61.5798 577.29 61.6123 577.055 61.9703 575.56L62.5713 575.935L63.7398 575.16L63.1848 576.585C63.2408 576.555 63.2948 576.525 63.3523 576.5C63.5588 576.405 63.7683 576.32 63.9763 576.235C65.9778 577.365 68.6913 577.32 70.9378 577.095L72.0968 576.3C72.5438 577.65 72.8518 577.785 73.9803 578.685C71.9218 582.21 69.8238 584.675 66.6023 587.11C66.7113 592.3 66.5303 597.515 66.4523 602.705C70.9528 601 75.2288 599.305 79.4383 596.945C81.3983 588.35 85.1913 580.635 86.5723 571.795C86.5713 568.465 86.5058 565.14 86.3748 561.81L88.6773 560.85L89.2858 568.06C91.9378 569.25 94.4488 570.545 96.9693 571.995C99.6698 564.79 100.564 557.005 100.541 549.345C100.458 521.74 92.2218 493.73 88.2463 466.565C88.0088 464.94 87.8633 463.66 88.5938 462.16C86.0763 454.635 80.5153 447.53 78.9103 439.83C78.4838 437.78 78.3693 435.431 79.7293 433.689C80.8213 432.289 82.7223 432.125 84.3523 431.81Z" fill="#353858"/>
<path d="M87.1691 432.784C88.3756 431.533 89.6101 430.294 91.4941 430.258C93.2801 430.225 94.8716 431.64 95.8981 432.961C100.795 439.264 101.865 448.109 102.735 455.769C98.4471 456.259 94.3031 457.924 90.5296 459.974C88.2511 453.769 81.3936 443.194 81.3746 437.054C81.3706 435.832 81.5916 435.414 82.4706 434.613C83.7746 434.998 84.0916 436.164 84.8451 437.259C85.5986 438.354 85.8881 439.229 87.2281 439.459C87.9311 437.814 87.2861 434.628 87.1691 432.784Z" fill="#F7D89C"/>
<path d="M89.1886 571.102C91.6256 571.777 94.1091 572.847 96.2126 574.272C95.2496 578.837 87.7626 594.292 83.6421 596.727C83.2741 596.942 82.9926 596.972 82.5811 597.067C83.1466 590.922 86.7596 584.767 88.0381 578.572C88.6386 576.067 88.9496 573.652 89.1886 571.102Z" fill="#7F4143"/>
<path d="M86.375 561.812L88.6775 560.852L89.286 568.062L89.1885 571.102C88.9495 573.652 88.6385 576.067 88.038 578.572C88.185 575.747 88.4325 574.107 86.5725 571.797C86.5715 568.467 86.506 565.142 86.375 561.812Z" fill="#303255"/>
<path d="M73.4445 605.571L75.848 605.211L76.325 605.766C75.3665 607.176 73.5935 608.686 72.9665 610.151C71.8775 611.086 71.5985 611.461 70.1525 611.706C69.2685 610.821 69.3195 610.501 69.0835 609.251C69.768 607.441 71.789 607.331 73.119 605.971C73.239 605.846 73.336 605.706 73.4445 605.571Z" fill="#D77B70"/>
<path d="M105.815 454.465C110.078 456.575 112.224 466.815 113.754 471.35C120.637 491.745 135.327 536.67 134.772 556.88C134.432 569.285 130.717 581.24 125.287 592.33C123.611 595.755 121.71 599.425 119.277 602.37C122.422 606.765 126.593 610.41 130.211 614.415C135.276 620.015 140.138 625.865 144.99 631.65C155.31 643.95 164.591 657.065 174.625 669.59C180.796 677.295 187.634 684.35 193.936 691.9L192.714 692.965C185.779 687.9 179.519 679.43 174.11 672.77C160.634 656.185 148.053 639.035 134.22 622.695C128.929 616.45 123.745 609.735 117.512 604.405L117.132 604.68C116.763 604.03 116.308 603.58 115.804 603.04C117.836 599.14 120.568 595.505 122.63 591.54C131.199 575.075 133.632 559.95 130.56 541.69C128.728 530.8 110.101 460.91 105.06 457.335L105.383 456.515L104.519 455.67L105.815 454.465Z" fill="#38394F"/>
<path d="M168.766 700.547L169.351 707.302C159.957 714.567 127.886 735.057 117.048 738.747C116.105 739.297 115.488 739.837 114.749 740.637C109.273 742.602 92.7702 751.282 87.6427 749.337C87.0232 749.102 86.9882 748.967 86.5112 748.497L86.9952 747.287L88.4262 746.967C105.133 745.687 149.14 718.287 163.811 707.997C165.28 706.972 166.448 706.332 166.775 704.517C167.092 702.397 167.139 701.937 168.766 700.547Z" fill="#353858"/>
<path d="M122.538 617.077L123.081 616.297C123.943 616.597 123.608 616.517 124.467 616.687C124.662 616.727 124.857 616.762 125.052 616.797C139.324 632.707 151.039 652.042 159.491 671.597C161.088 675.292 163.063 679.457 163.93 683.387L162.095 684.727C156.559 668.037 147.693 649.532 136.368 635.992L133.673 632.182C130.485 626.747 125.778 622.442 122.538 617.077Z" fill="#38394F"/>
<path d="M115.804 603.039C116.308 603.579 116.763 604.029 117.132 604.679C116.853 605.689 116.66 606.409 116.653 607.464C116.101 608.154 115.81 608.679 114.99 609.049C109.802 612.024 103.468 625.364 97.7237 627.164L97.1997 626.614C98.1132 623.779 113.061 606.554 115.804 603.039Z" fill="#38394F"/>
<path d="M85.1375 722.056C86.361 720.236 85.963 719.356 85.8225 717.211L86.244 717.386L87.04 719.516H87.615C88.7575 728.546 87.593 737.876 88.426 746.966L86.995 747.286L86.511 748.496C84.3205 745.531 85.212 726.496 85.1375 722.056Z" fill="#38394F"/>
<path d="M135.075 637.371L135.253 638.126C134.672 639.181 134.472 639.701 133.212 640.071C131.207 640.656 128.926 639.636 127.359 638.431C126.051 637.426 125.838 636.536 125.659 634.956C126.222 633.406 127.133 632.666 128.323 631.611C129.692 631.306 130.055 631.536 131.403 632.001C132.139 632.166 132.919 632.146 133.673 632.181L136.368 635.991L135.075 637.371Z" fill="#38394F"/>
<path d="M133.672 632.18L136.368 635.99L135.074 637.37C133.491 637.965 131.562 638.215 130.031 637.305C128.899 636.635 128.903 636.035 128.73 634.87C129.297 633.36 130.13 632.865 131.403 632C132.139 632.165 132.919 632.145 133.672 632.18Z" fill="#FFE058"/>
<path d="M90.5296 459.977C94.3031 457.927 98.4471 456.262 102.735 455.772L104.519 455.672L105.383 456.517L105.06 457.337C100.171 459.002 95.1961 460.542 90.4666 462.627L88.9536 462.077C89.0641 461.457 89.2756 460.842 89.4476 460.237L90.5296 459.977Z" fill="#303255"/>
<path d="M163.93 683.387C165.174 686.902 166.359 690.442 167.485 693.997L165.39 696.172C164.589 692.302 163.257 688.502 162.095 684.727L163.93 683.387Z" fill="#353858"/>
<path d="M167.485 693.996L168.766 700.546C167.139 701.936 167.092 702.396 166.775 704.516C166.528 701.661 165.996 698.966 165.39 696.171L167.485 693.996Z" fill="#38394F"/>
<path d="M147.563 670.464C148.526 670.384 149.466 670.279 150.42 670.519C151.734 670.849 152.86 671.689 153.551 672.859C154.207 673.964 154.333 675.169 153.992 676.404C153.428 678.444 152.012 679.234 150.277 680.154C148.105 679.994 146.097 679.874 144.503 678.169C143.662 677.269 143.327 676.094 143.559 674.884C143.986 672.664 145.827 671.609 147.563 670.464Z" fill="#38394F"/>
<path d="M148.639 671.135C150.397 670.87 152.044 672.06 152.349 673.81C152.655 675.56 151.508 677.235 149.764 677.585C148.598 677.82 147.398 677.4 146.628 676.495C145.858 675.59 145.639 674.335 146.057 673.225C146.474 672.11 147.463 671.31 148.639 671.135Z" fill="#FFE058"/>
<path d="M123.136 619.981C123.47 620.346 123.885 620.761 124.121 621.196C124.684 622.231 124.537 623.106 124.22 624.166C123.199 625.536 122.213 626.286 120.472 626.526C118.887 626.741 117.315 626.391 116.147 625.236C115.25 624.346 114.702 623.126 114.796 621.851C114.906 620.351 115.858 619.111 117.041 618.261C118.354 617.316 119.525 617.081 121.116 617.341C122.144 618.221 122.332 618.406 122.787 619.671L123.136 619.981Z" fill="#38394F"/>
<path d="M123.136 619.981L123.475 622.001C122.97 623.346 122.943 623.426 121.743 624.211C120.592 624.266 119.618 624.121 118.698 623.336C117.651 622.441 117.599 621.811 117.461 620.551C117.963 619.311 118.466 618.931 119.552 618.176C121.221 618.216 121.494 618.676 122.787 619.671L123.136 619.981Z" fill="#FFE058"/>
<path d="M139.09 650.514C140.234 650.404 141.528 650.309 142.606 650.809C143.861 651.394 144.014 652.009 144.43 653.199C144.068 654.864 143.706 655.194 142.622 656.444C141.483 656.764 140.339 656.864 139.216 656.354C138.252 655.914 137.754 655.049 137.633 654.029C137.462 652.584 138.31 651.594 139.09 650.514Z" fill="#FFE058"/>
<path d="M155.709 691.632C156.825 691.307 158.03 691.612 158.85 692.437C159.67 693.262 159.975 694.467 159.643 695.582C159.312 696.697 158.398 697.542 157.261 697.782C155.592 698.137 153.941 697.107 153.524 695.452C153.107 693.797 154.072 692.112 155.709 691.632Z" fill="#FFE058"/>
<path d="M224.946 364.628C230.664 364.201 236.037 364.848 241.161 367.621C248.381 371.529 252.563 378.417 254.861 386.06C258.587 398.446 257.78 413.107 251.481 424.533C247.177 432.34 241.171 436.996 232.583 439.421C226.301 440.301 221.1 439.261 215.75 435.759C207.598 430.423 202.785 420.963 200.987 411.612C198.748 399.968 199.58 386.445 206.482 376.436C210.972 369.924 217.146 365.999 224.946 364.628Z" fill="#DA4827"/>
<path d="M363.175 364.111C368.24 363.713 373.6 364.994 378.075 367.334C385.1 371.009 389.965 377.163 392.345 384.702C396.1 396.6 395.06 412.844 389.105 423.885C384.765 431.944 378.4 437.288 369.615 439.923C363.725 440.328 358.59 439.228 353.62 435.902C345.495 430.47 340.793 420.735 339.02 411.358C336.776 399.487 338.01 385.693 344.994 375.519C349.45 369.03 355.58 365.559 363.175 364.111Z" fill="#DA4827"/>
<path d="M572.01 605.085C573.395 604.93 574.88 604.805 576.27 604.92C585.43 605.665 586.98 615.04 591.795 621.055C591.93 621.225 592.07 621.39 592.21 621.555C596.91 622.385 602.27 622.96 606.48 625.31C609.015 626.73 611.255 628.875 611.935 631.795C613.855 640.015 605.86 644.97 602.06 650.91C601.95 651.085 601.84 651.26 601.735 651.44C603.12 657 604.965 663.295 602.42 668.81C601.305 671.225 599.39 673.01 596.835 673.81C590.575 675.76 584.06 671.865 578.63 669.145C572.475 667.6 566.435 674 560.05 674.645C557.435 674.905 554.625 674.61 552.605 672.77C546.595 667.295 550.595 658.135 550.48 651.34L550.46 650.62C548.055 646.15 543.715 643.59 541.255 639.36C539.81 636.87 538.74 633.36 539.605 630.505C542.135 622.155 554.785 625.045 560.06 620.17C565.465 615.175 564.515 609.36 572.01 605.085Z" fill="#F7D89C"/>
<path d="M42.7289 458.346C39.6084 453.616 35.4879 445.411 36.7479 439.696C37.2354 437.401 38.6539 435.405 40.6659 434.191C43.4574 432.482 47.2484 432.192 50.3464 433.141C54.2034 434.324 56.7639 437.416 58.4164 440.966C60.8324 446.156 61.8559 452.406 62.2524 458.071C69.2929 464.346 78.1994 511.626 80.0224 522.861C81.2994 530.731 81.9749 538.631 83.1239 546.506L81.6649 546.646L81.7879 543.956C81.0284 543.421 81.2744 543.541 80.5929 543.211C78.5559 542.231 77.4459 541.456 76.0714 539.646C76.0104 539.546 75.9699 539.431 75.8884 539.346C72.4804 535.806 62.0074 533.356 57.3459 532.306L51.0309 531.171L51.3789 533.451C50.4034 533.561 50.8344 533.626 50.0734 533.371C48.2124 534.611 46.7844 535.516 45.7774 537.576C44.5954 536.266 43.7734 534.331 42.9064 532.781L43.9589 532.566C43.9989 532.446 44.0154 532.321 44.0789 532.211C44.7919 531.016 46.4249 530.726 47.6579 530.246L48.2349 530.021C49.7654 524.731 43.2074 472.606 42.2964 464.401C41.9394 463.256 42.3704 462.541 42.8704 461.501C43.4999 460.191 43.0789 459.696 42.7289 458.346Z" fill="#D77B70"/>
<path d="M44.3599 456.716L44.0629 455.876C42.3609 451.171 37.1764 444.171 39.4109 438.971C39.8984 437.841 40.5954 437.051 41.8329 436.781C44.4004 436.226 46.3854 436.551 48.9509 435.469C50.8959 435.622 52.2424 436.251 53.5749 437.716C58.0144 442.591 58.7684 451.381 59.8734 457.621L61.1919 458.856L59.9939 460.196L59.5179 460.341C55.2304 461.596 48.3079 461.706 44.8799 464.511L44.4544 465.661C43.6874 464.821 43.3954 464.761 42.2964 464.401C41.9394 463.256 42.3704 462.541 42.8704 461.501C43.4999 460.191 43.0789 459.696 42.7289 458.346L44.3599 456.716Z" fill="#F7D89C"/>
<path d="M42.7289 458.345L44.3599 456.715C45.0814 458.255 45.2184 459.09 46.6954 459.985C51.2319 460.33 55.4544 458.45 59.8734 457.62L61.1919 458.855L59.9939 460.195L59.5179 460.34C55.2304 461.595 48.3079 461.705 44.8799 464.51L44.4544 465.66C43.6874 464.82 43.3954 464.76 42.2964 464.4C41.9394 463.255 42.3704 462.54 42.8704 461.5C43.4999 460.19 43.0789 459.695 42.7289 458.345Z" fill="#303255"/>
<path d="M42.7289 458.346C39.6084 453.616 35.4879 445.411 36.7479 439.696C37.2354 437.401 38.6539 435.405 40.6659 434.191C43.4574 432.482 47.2484 432.192 50.3464 433.141C54.2034 434.324 56.7639 437.416 58.4164 440.966C60.8324 446.156 61.8559 452.406 62.2524 458.071C69.2929 464.346 78.1994 511.626 80.0224 522.861C81.2994 530.731 81.9749 538.631 83.1239 546.506L81.6649 546.646L81.7879 543.956C81.0284 543.421 81.2744 543.541 80.5929 543.211C78.5559 542.231 77.4459 541.456 76.0714 539.646C77.4364 540.306 78.7484 541.191 80.0489 541.976C76.5739 516.451 72.1754 488.511 63.1359 464.311C62.3964 462.331 62.0049 461.106 59.9939 460.196L61.1919 458.856L59.8734 457.621C58.7684 451.381 58.0144 442.591 53.5749 437.716C52.2424 436.251 50.8959 435.622 48.9509 435.469C46.3854 436.551 44.4004 436.226 41.8329 436.781C40.5954 437.051 39.8984 437.841 39.4109 438.971C37.1764 444.171 42.3609 451.171 44.0629 455.876L44.3599 456.716L42.7289 458.346Z" fill="#353858"/>
<path d="M42.2964 464.398C43.3954 464.758 43.6874 464.818 44.4544 465.658C47.9464 472.898 51.7789 522.038 51.0309 531.168L51.3789 533.448C50.4034 533.558 50.8344 533.623 50.0734 533.368C48.2124 534.608 46.7844 535.513 45.7774 537.573C44.5954 536.263 43.7734 534.328 42.9064 532.778L43.9589 532.563C43.9989 532.443 44.0154 532.318 44.0789 532.208C44.7919 531.013 46.4249 530.723 47.6579 530.243L48.2349 530.018C49.7654 524.728 43.2074 472.603 42.2964 464.398Z" fill="#353858"/>
<path d="M43.9588 532.566C46.0133 532.761 48.0618 532.896 50.0733 533.371C48.2123 534.611 46.7843 535.516 45.7773 537.576C44.5953 536.266 43.7732 534.331 42.9062 532.781L43.9588 532.566Z" fill="#F7D89C"/>
<path d="M241.376 545.076C245.032 544.756 248.005 545.016 251.455 546.361C258.565 549.131 263.477 555.391 266.351 562.261C270.365 571.851 270.625 583.081 266.648 592.731C263.239 601.006 257.594 606.271 249.397 609.721C244.896 610.681 240.826 610.476 236.616 608.421C229.688 605.046 225.756 597.751 223.526 590.686C220.174 580.066 220.361 567.431 225.649 557.451C229.196 550.761 234.306 547.226 241.376 545.076Z" fill="#EE7E63"/>
<path d="M459.775 546.586C463.675 546.286 467.375 546.401 471.1 547.736C477.415 550.001 482.015 555.141 484.67 561.181C488.595 570.111 488.95 581.396 485.335 590.476C481.995 598.876 476.19 605.601 467.81 609.181C463.335 610.431 458.805 610.446 454.565 608.381C448.875 605.606 445.24 599.676 443.145 593.891C439.41 583.591 439.545 570.696 444.255 560.721C447.585 553.676 452.415 549.216 459.775 546.586Z" fill="#EE7E63"/>
<path d="M445.02 362.057C446.695 361.951 448.38 361.735 449.86 362.726C451.575 363.877 452.065 365.773 452.32 367.697C453.825 379.063 452.925 391.443 452.815 402.906C452.755 409.821 453.275 417.242 452.325 424.072C452.05 426.064 451.73 427.887 450.4 429.459C449.38 430.662 447.75 431.293 446.195 431.231C444.86 431.18 443.57 430.723 442.505 429.921C435.42 424.636 423.805 405.23 416.935 397.178C416.43 406.627 418.48 422.781 416.315 431.022C415.49 434.155 414.17 435.368 411.455 436.996C409.685 437.106 408.045 437.091 406.65 435.823C402.585 432.123 403.145 419.197 403 413.815C402.78 405.628 402.345 385.548 403.61 378.218C403.995 376.017 404.92 373.603 406.545 372.016C407.825 370.765 409.28 370.23 411.085 370.39C413.225 370.579 415.315 372.233 416.8 373.66C423.055 379.688 434.075 396.208 439.895 404.1C440.23 397.177 440.335 390.244 440.21 383.313C440.155 378.392 439.735 373.153 440.375 368.285C440.78 365.171 442.665 363.851 445.02 362.057Z" fill="#DA4827"/>
<path d="M305.022 361.383C306.666 361.494 307.842 361.671 309.113 362.876C314.642 368.112 315.518 382.142 315.917 389.315C316.729 403.906 315.655 420.014 305.355 431.409C302.229 434.866 298.233 437.295 293.487 437.465C287.814 437.665 282.321 434.956 278.31 431.08C267.65 420.784 265.6 400.886 265.392 386.963C265.398 383.327 265.505 379.603 265.803 375.978C266.095 372.422 266.482 367.61 269.537 365.284C270.515 364.539 272.376 364.109 273.583 364.346C275.583 364.739 276.588 366.193 277.094 368.051C278.251 372.297 277.478 378.059 277.525 382.509C277.631 392.595 280.013 410.45 285.784 418.797C287.154 420.779 288.917 422.137 291.322 422.551C292.987 422.838 294.381 422.551 295.714 421.47C305.087 413.872 304.28 388.788 303.049 378.064C302.627 374.382 300.547 369.207 301.42 365.565C301.894 363.589 302.985 362.778 304.566 361.69L305.022 361.383Z" fill="#DA4827"/>
<path d="M505.49 354.527C506.53 354.472 507.665 354.377 508.69 354.614C514.755 356.019 523.43 379.314 526.845 385.181L527.285 385.935C530.565 376.902 534.67 360.024 543.43 355.168C545.085 354.251 546.865 353.93 548.68 354.597C550.505 355.269 552.165 356.732 552.935 358.536C555.9 365.522 543.345 387.127 540.18 393.773C538.135 398.072 536.37 402.407 534.735 406.875C532.115 413.213 525.025 438.178 520.395 441.113C519.16 441.898 517.25 442.283 515.83 441.823C514.465 441.383 513.73 440.698 513.05 439.448C509.57 433.032 519.06 408.46 521.56 401.275C517.775 394.512 499.395 365.15 501.35 358.673C501.97 356.631 503.78 355.564 505.49 354.527Z" fill="#DA4827"/>
<path d="M191.009 352.992C191.85 353.04 192.714 353.086 193.54 353.26C195.568 353.686 197.668 354.99 198.631 356.873C199.961 359.473 198.952 361.604 198.156 364.183C195.341 373.302 190.336 382.052 186.569 390.838C181.877 401.783 178.035 413.017 174.127 424.257C172.738 428.255 170.111 439.517 166.356 441.287C164.831 442.007 163.195 442.002 161.626 441.422C159.777 440.732 158.194 439.227 157.439 437.402C155.054 431.64 162.859 415.446 165.27 409.38C166.458 406.1 167.974 403.028 169.521 399.905C166.993 396.274 164.566 392.574 162.243 388.809C158.928 383.472 145.472 362.76 146.879 357.781C147.314 356.243 148.438 355.105 149.819 354.359C151.1 353.666 152.505 353.611 153.87 354.043C160.35 356.098 168.986 374.845 172.234 380.809C176.348 371.978 182.656 358.141 191.009 352.992Z" fill="#DA4827"/>
<path d="M505.935 539.078C511.58 538.508 516.75 538.933 521.485 542.368C525.89 545.563 528.46 550.498 529.245 555.818C530.215 562.358 528.725 569.903 524.715 575.208C519.2 582.498 511.15 583.413 502.8 584.528L503.44 595.373C503.605 598.748 504.395 602.968 503.74 606.243C503.41 607.908 502.81 608.793 501.38 609.758C500.045 610.053 498.705 610.248 497.41 609.638C495.84 608.903 495.03 607.693 494.53 606.088C492.175 598.488 491.63 552.603 495.755 545.468C498 541.593 501.87 540.203 505.935 539.078Z" fill="#EE7E63"/>
<path d="M523.24 251.395C523.42 251.426 523.6 251.447 523.78 251.49C529.41 252.826 531.465 259.195 534.085 263.75C538.005 264.619 542.69 265.277 546.225 267.224C547.585 267.974 548.885 269.049 549.19 270.662C550.105 275.491 543.58 280.837 540.975 284.411L540.64 284.878C541.31 288.808 542.58 293.959 540.775 297.69C540.205 298.9 539.165 299.824 537.895 300.247C533.42 301.738 527.59 298.251 523.615 296.413C520.785 296.728 515.37 299.82 511.67 300.693C510.07 301.07 508.97 301.148 507.515 300.256C504.345 295.789 506 288.581 506.685 283.465C503.635 280.465 499.34 277.212 497.845 273.151C497.395 271.94 497.375 270.594 498 269.452C500.1 265.621 509.195 264.672 513.22 263.663C515.92 258.43 517.72 254.128 523.24 251.395Z" fill="#F7D89C"/>
<path d="M472.1 355.486C473.025 355.467 474.17 355.442 475.03 355.803C476.78 356.54 477.545 358.366 477.83 360.106C478.63 364.972 477.33 370.626 476.73 375.487C475.41 386.241 470.605 414.488 475.91 423.928C481.78 434.371 493.88 427.212 502.5 429.995C503.955 430.463 505.24 431.328 505.835 432.798C506.49 434.428 506.28 436.71 505.585 438.3C504.455 440.88 502 441.995 499.55 443.01C492.695 444.595 485.575 444.415 478.715 442.89C473.135 441.645 468.035 438.705 464.995 433.748C457.015 420.735 462.85 378.577 466.46 363.808C467.53 359.425 468.24 357.866 472.1 355.486Z" fill="#DA4827"/>
<path d="M589.69 428.859C590.695 428.889 591.82 428.884 592.77 429.251C596.65 430.751 598.805 435.935 600.54 439.4C604.475 440.315 610.435 441.01 613.605 443.65C614.785 444.635 615.475 446.03 615.39 447.595C615.155 451.88 610.41 455.825 607.66 458.65C608.87 462.305 610.495 467.27 608.665 470.96C608.055 472.195 606.955 473.125 605.635 473.52C601.425 474.8 596.775 471.835 593.23 469.9C588.415 470.395 584.255 474.14 579.075 474.055C577.62 474.035 576.18 473.665 575.265 472.435C572.705 469 574.23 461.55 574.915 457.62C572.46 455.48 569.57 453.08 568.24 450.035C567.62 448.605 567.39 447.01 568.11 445.555C570.085 441.575 576.85 440.925 580.745 439.795C583.83 435.82 585.32 431.756 589.69 428.859Z" fill="#F7D89C"/>
<path d="M308.364 539.884C310.071 539.784 311.167 539.764 312.751 540.449C314.667 542.309 315.398 544.894 315.989 547.439C319.358 561.964 320.351 588.154 311.808 601.054C309.562 604.444 306.41 607.174 302.305 607.879C297.976 608.614 293.642 607.009 290.155 604.509C278.914 596.449 276.295 579.599 274.141 566.949C273.556 562.069 271.743 553.759 274.894 549.509C275.9 548.154 277.573 547.434 279.25 547.429C280.94 547.429 281.975 548.134 282.729 549.584C284.113 552.254 283.864 557.119 284.214 560.224C285.302 569.874 287.959 585.294 294.704 592.769C296.187 594.414 298.593 596.429 300.965 596.269C302.115 596.189 303.054 595.594 303.8 594.739C311.274 586.229 306.548 556.424 305.982 545.159C305.863 542.784 306.418 541.959 307.981 540.284C308.107 540.149 308.236 540.014 308.364 539.884Z" fill="#EE7E63"/>
<path d="M372.175 541.195C373.35 541.26 374.54 541.39 375.69 541.61C379.02 542.235 382.69 544.145 384.585 547.05C385.755 548.845 385.695 550.785 385.205 552.78C381.51 556.44 374.535 550.41 369.795 552.255C367.485 553.155 364.27 555.58 363.385 558.02C359.185 569.645 383.995 570.31 389.94 582.78C392.34 587.815 392.98 594.63 391.01 599.885C389.41 604.15 386.44 607.235 382.29 609.075C375.25 612.195 367.85 611.1 360.905 608.52C357.205 606.485 353.74 603.71 352.56 599.47C351.925 597.185 351.9 594.77 353.1 592.675C354.02 591.065 355.1 590.49 356.865 590.065C360.905 590.585 363.085 595.435 365.98 597.98C367.96 599.725 370.445 600.84 373.12 600.525C375.78 600.21 378.52 598.64 380.15 596.525C381.475 594.8 381.94 592.635 381.56 590.5C380.195 582.76 366.335 580.325 360.655 576.15C356.41 573.03 353.54 568.375 352.935 563.105C352.315 557.72 353.555 552.51 357.035 548.31C360.95 543.59 366.26 541.735 372.175 541.195Z" fill="#EE7E63"/>
<path d="M344.091 459.273C344.64 459.398 345.175 459.498 345.695 459.728C347.17 460.388 347.74 461.968 348.14 463.413C349.265 467.468 348.89 471.863 349.62 476.008C351.17 484.833 354.045 493.553 356.975 502.008C359.44 497.213 360.8 488.398 365.18 485.123C366.13 484.408 366.7 484.298 367.84 484.463C373.575 488.193 372.82 496.688 375.945 501.993C376.495 502.923 376.72 502.928 377.7 503.143C379.185 502.078 379.65 499.753 380.17 498.073C381.725 493.103 382.625 487.953 382.845 482.748C383.055 477.828 382.515 471.988 383.845 467.273C384.23 465.903 384.795 465.193 385.995 464.478C387.29 464.408 388.22 464.798 389.255 465.543C392.095 467.583 392.375 469.558 392.865 472.878C393.4 477.518 392.985 482.433 392.36 487.038C391.225 495.398 388.72 507.418 381.41 512.628C379.515 513.983 377.365 514.693 375.03 514.273C370.655 513.493 367.84 509.563 365.6 506.093C364.1 508.438 362.64 510.793 360.45 512.568C358.715 513.968 356.505 515.058 354.22 514.693C352.255 514.383 350.675 513.103 349.555 511.518C344.793 504.803 338.386 473.138 339.821 465.213C340.355 462.268 341.681 460.908 344.091 459.273Z" fill="#F59A41"/>
<path d="M435.54 455.215C436.505 455.33 437.85 455.65 438.675 456.185C440.08 457.1 440.765 458.475 441.025 460.08C442.6 469.785 441.06 482.755 441.1 492.845C441.135 500.935 442.165 509.5 441.42 517.51C441.27 519.105 440.915 520.38 439.95 521.68C439.185 522.715 438.17 523.415 436.855 523.495C435.57 523.57 434.74 523.09 433.85 522.215C429.38 517.815 431.37 496.84 431.56 490.38C424.87 491 418.26 491.47 411.545 491.74C411.375 498.055 411.49 504.375 411.88 510.68C411.835 511.07 411.785 511.46 411.72 511.85C411.46 513.44 410.96 514.745 409.545 515.63C408.705 516.155 407.49 516.11 406.605 515.705C404.3 514.655 403.07 511.635 402.525 509.34C400.72 501.71 401.87 464.345 405.975 457.835C406.92 457.22 407.64 456.67 408.815 456.645C409.605 456.625 410.205 457.045 410.695 457.66C413.21 460.81 411.81 476.85 411.745 481.565C418.435 481.225 425.105 480.645 431.75 479.835C431.7 474.025 431.3 467.95 431.905 462.17C432.255 458.81 432.91 457.33 435.54 455.215Z" fill="#F59A41"/>
<path d="M179.137 537.5C180.252 537.82 181.275 538.09 182.14 538.905C185.847 542.39 193.841 558.825 197.361 564.625C200.264 558.19 205.987 542.415 211.914 539.2C212.902 538.665 213.816 538.525 214.914 538.91C216.432 539.435 217.724 540.435 218.372 541.935C218.974 543.325 218.257 545.69 217.851 547.085C216.392 552.11 213.963 557.09 212.007 561.955C209.212 568.91 206.582 575.93 204.121 583.01C201.911 588.68 195.866 606.76 191.792 609.81C190.874 610.5 189.267 610.79 188.143 610.43C186.88 610.02 186.179 609.36 185.615 608.175C183.001 602.675 191.457 582.06 193.708 575.495C187.315 569.805 182.622 561.355 178.728 553.84C176.788 550.1 173.512 544.555 174.854 540.275C176.085 538.8 177.403 538.265 179.137 537.5Z" fill="#EE7E63"/>
<path d="M523.68 458.454C524.755 458.414 525.895 458.319 526.895 458.789C528.09 459.354 528.735 460.389 529.15 461.594C531.245 467.709 530.04 503.949 526.81 509.234C526 510.554 525.175 510.954 523.72 511.289C522.095 510.934 521.1 510.104 520.04 508.874C517.485 505.929 515.64 502.089 513.61 498.749C510.61 493.749 507.395 488.874 503.975 484.144C503.89 492.199 505.68 508.879 502.49 515.554C501.6 516.014 500.475 516.474 499.465 516.534C498.245 516.604 497.1 516.269 496.29 515.309C494.47 513.144 494.525 482.044 494.55 476.574C494.565 473.299 494.87 468.164 497.76 465.999C498.815 465.209 499.91 465.029 501.18 465.329C506.18 466.514 517.11 484.569 520.47 489.344C520.515 483.734 519.74 465.174 521.44 461.349C521.96 460.189 522.8 459.344 523.68 458.454Z" fill="#F59A41"/>
<path d="M477.01 450.179C479.11 449.849 480.77 449.544 482.58 450.919C483.88 451.899 484.28 452.804 484.46 454.379C482.245 463.074 470.475 457.349 465.29 461.474C461 464.884 460.7 476.914 460.35 482.074C466.73 481.679 475.17 480.619 481.045 483.609C482.405 484.299 483.2 485.049 483.685 486.484C483.405 487.274 483.14 487.639 482.515 488.239C477.89 492.674 466.215 491.464 460.205 491.459C460.01 495.469 460.405 499.559 460.62 503.569C461.155 504.349 461.695 505.154 462.335 505.859C465.685 509.564 471.475 509.069 475.99 509.064C477.31 508.969 478.635 508.874 479.955 508.849C482.59 508.799 485.215 509.744 487.095 511.584C487.47 512.584 487.715 513.124 487.245 514.194C486.45 516.014 484.37 517.219 482.58 517.839C476.19 520.044 463.58 519.229 457.535 515.839C453.91 513.804 452.025 508.894 451.18 505.069C448.745 494.049 450.145 465.699 456.51 456.709C460.35 451.289 470.92 451.029 477.01 450.179Z" fill="#F59A41"/>
<path d="M285.835 866.836C294.851 861.791 310.67 857.086 321.037 859.836C322.518 860.231 324.209 861.056 324.975 862.451C325.728 863.821 325.483 865.516 324.916 866.896C321.974 874.066 292.884 892.756 284.669 895.836C283.382 896.316 280.528 897.401 279.225 896.681C275.683 894.721 269.133 882.906 266.268 878.941L267.797 877.096C268.827 878.246 269.689 879.776 270.581 881.051C275.111 879.176 281.541 876.056 283.475 871.256C283.894 870.221 283.613 870.131 283.238 869.146C284.646 868.756 284.957 868.331 285.982 867.331L285.835 866.836Z" fill="#353858"/>
<path d="M312.595 862.206C313.403 862.126 313.21 862.126 313.895 862.116C316.463 862.086 319.541 861.671 321.514 863.606C321.808 864.796 321.942 865.161 321.446 866.346C318.593 873.161 288.982 891.231 281.707 894.331L280.326 894.291C276.62 892.111 274.133 886.491 271.566 883.011C276.774 880.401 281.155 878.141 284.621 873.246C285.323 872.256 284.821 871.026 285.52 870.146C289.017 865.726 306.985 862.686 312.595 862.206Z" fill="#D77B70"/>
<path d="M230.969 463.879C231.961 464.119 233.138 464.339 233.931 465.024C238.181 468.689 250.986 507.029 250.625 512.834C250.545 514.114 249.889 514.919 248.823 515.594C247.817 516.234 246.797 516.449 245.651 516.049C241.086 514.464 238.337 503.844 236.562 499.624L228.498 500.654C226.691 500.889 224.926 501.394 223.161 501.839C221.166 505.729 220.073 514.624 216.454 516.959C215.472 517.594 214.518 517.929 213.352 517.534C212.518 517.254 211.976 516.719 211.542 515.994C209.585 512.729 211.095 507.334 212.05 503.874C214.707 494.239 221.721 474.659 227.452 466.804C228.417 465.484 229.565 464.684 230.969 463.879Z" fill="#F59A41"/>
<path d="M419.435 542.21C424.585 541.91 430.42 541.09 435.505 542.035C437.45 542.4 438.705 542.925 439.835 544.635C440.02 545.95 439.915 547.08 439.14 548.195C436.32 552.255 425.18 551.99 420.5 552.575C420.05 561.085 419.805 569.605 419.76 578.13C419.755 585.955 420.16 593.965 419.635 601.77C419.525 603.445 419.42 606.095 418.49 607.565C417.355 609.355 415.81 609.58 413.895 609.915C413.265 609.495 412.515 609.04 411.985 608.5C410.435 606.9 410 604.425 409.745 602.295C408.94 595.61 409.595 588.46 409.755 581.715C409.965 572.325 410.085 562.93 410.105 553.535C405.92 553.885 400.665 554.53 396.635 553.19C395.07 552.67 394.4 551.94 393.665 550.515C393.595 549.04 393.955 547.42 395.105 546.375C398.91 542.895 414.08 542.61 419.435 542.21Z" fill="#EE7E63"/>
<path d="M200.158 451.111C200.318 451.091 200.478 451.066 200.639 451.046C203.11 450.761 206.208 450.356 208.204 452.236C209.218 453.186 209.462 454.081 209.601 455.411C207.58 461.566 190.369 461.961 184.887 466.916C181.8 469.706 182.577 479.487 182.504 483.587C186.621 483.497 196.207 481.536 199.52 483.981C200.452 484.671 201.31 486.092 201.181 487.282C201.079 488.232 200.824 488.832 200.193 489.517C197.121 492.847 187.689 492.321 183.376 492.571C183.417 495.226 183.615 497.822 183.862 500.462C184.121 504.367 185.14 508.276 185.24 512.181C185.302 514.586 185.09 516.401 183.417 518.196C181.837 518.976 180.487 519.141 178.848 518.436C177.287 517.761 176.656 516.591 176.226 515.046C173.25 504.341 171.634 470.476 176.931 461.736C180.697 455.521 193.521 452.456 200.158 451.111Z" fill="#F59A41"/>
<path d="M284.437 454.377C284.982 454.357 285.739 454.267 286.291 454.367C287.962 454.657 288.727 455.292 289.296 456.937C290.519 460.467 289.292 465.752 288.92 469.472C288.098 477.692 285.247 499.257 290.423 505.437C294.291 510.052 299.875 508.192 304.999 508.657C308.084 508.932 310.907 509.797 312.959 512.192C313.198 513.062 313.487 513.377 313.08 514.262C312.231 516.107 308.648 517.437 306.818 517.932C303.402 518.212 299.93 518.387 296.503 518.382C291.954 518.377 287.16 517.517 283.891 514.097C277.939 507.877 277.706 498.667 277.726 490.582C277.75 481.362 277.994 460.812 284.437 454.377Z" fill="#F59A41"/>
<path d="M303.076 621.595C307.587 621.335 312.051 621.565 316.215 623.525C318.846 624.765 321.384 626.855 322.242 629.74C322.805 631.635 322.536 633.735 321.617 635.47C319.066 640.285 313.775 641.775 308.992 643.38C312.872 646.89 326.739 656.18 327.74 660.605C327.119 662.075 326.328 662.49 325.095 663.475C317.721 660.725 310.891 653.05 304.411 648.44C304.331 650.595 304.531 653.74 303.627 655.705C303.151 656.74 302.399 657.585 301.225 657.805C300.493 657.945 299.743 657.8 299.172 657.335C295.101 654.04 298.027 637.97 297.766 632.89C297.624 630.12 296.04 627.34 295.678 624.5C297.221 622.45 300.689 622.1 303.076 621.595Z" fill="#AE7567"/>
<path d="M410.02 623.141C410.85 623.466 411.64 623.896 412.44 624.286C413.145 625.371 413.425 625.781 413.485 627.106C413.67 630.986 412.445 654.306 410.66 656.421C410.025 656.506 409.38 656.616 408.735 656.551C402.705 655.986 394.89 644.941 391.02 640.486C390.885 645.491 392.075 652.796 390.5 657.506C390.045 658.871 389.545 659.166 388.29 659.766C386.65 659.616 385.925 659.176 384.62 658.186C383.555 653.101 382.97 629.481 385.6 625.391C386.305 624.991 386.59 624.651 387.445 624.736C391.68 625.176 402.835 641.381 406.57 645.391C406.61 638.651 405.475 628.601 410.02 623.141Z" fill="#AE7567"/>
<path d="M436.925 623.092C440.28 622.622 442.785 622.767 445.71 624.577C445.9 625.102 446.25 625.527 445.985 626.067C444.315 629.467 437.825 629.722 434.635 630.652C431.44 631.582 428.54 633.392 426.96 636.402C425.175 639.797 424.46 645.082 425.83 648.722C426.52 650.552 427.82 652.112 429.675 652.817C431.81 653.632 434 653.272 435.965 652.202C439.125 650.482 439.915 647.507 440.865 644.312C439.275 644.267 436.87 644.487 435.365 643.967C434.13 643.542 433.865 643.142 433.445 642.042L434.02 640.872C435.435 639.792 436.655 639.127 438.415 638.742C440.62 638.267 444.01 638.322 445.835 639.872C447.025 640.887 447.205 642.167 447.48 643.617C448.195 647.902 449.505 652.117 450.005 656.422C450.19 658.032 450.235 659.437 449.19 660.782C448.37 660.997 448.05 661.222 447.195 660.947C444.74 660.157 443.77 657.212 442.69 655.087C440.82 657.602 439.16 659.137 436.14 660.142C432.895 661.217 429.415 660.777 426.43 659.152C422.595 657.062 419.95 653.397 418.81 649.217C417.43 644.157 418.14 638.327 420.755 633.777C424.31 627.607 430.305 624.737 436.925 623.092Z" fill="#AE7567"/>
<path d="M500.55 690.27C501.09 690.33 501.48 690.35 502.02 690.505C505.18 691.415 507.245 696.195 508.775 698.82C511.235 699.375 514.64 699.744 516.705 701.234C517.86 702.069 517.935 702.815 518.07 704.14C517.025 707.105 514.58 709.164 512.47 711.419C512.76 713.409 513.235 715.659 512.945 717.669C512.755 719.004 512.23 719.76 511.175 720.575C508.125 721.375 505.83 719.92 503.14 718.68C499.755 717.955 496.25 721.254 493.075 720.359C490.915 717.939 491.705 713.7 491.86 710.695C490.18 708.965 486.795 706.284 486.185 703.914C485.99 703.149 486.01 702.455 486.495 701.83C488.12 699.74 492.06 699.835 494.5 699.565C496.305 696.395 497.995 692.9 500.55 690.27Z" fill="#F7D89C"/>
<path d="M354.675 621.789C355.505 621.874 356.57 621.964 357.32 622.334C358.38 622.864 358.965 623.809 359.11 624.959C359.735 629.989 353.39 637.854 350.085 641.279C350.155 645.644 350.205 650.009 350.23 654.374C350.23 657.359 350.365 660.544 348.125 662.779C346.65 663.299 346.525 663.374 345.035 662.949C341.151 658.904 342.472 648.064 342.403 642.594C341.477 639.924 332.337 634.404 330.118 630.259C329.06 628.284 328.922 626.264 329.521 624.144C330.313 623.259 330.632 622.754 331.95 622.789C335.642 622.874 339.753 630.079 342.324 632.664C343.736 634.084 344.694 634.769 346.72 634.779C350.47 632.434 352.06 625.464 354.675 621.789Z" fill="#AE7567"/>
<path d="M264.946 470.914C266.876 471.054 267.756 471.134 269.292 472.299C270.036 473.329 270.173 474.014 270.249 475.289C270.743 483.639 270.148 492.074 270.64 500.464C270.855 504.119 272.138 510.674 271.237 513.974C270.744 515.774 268.858 516.414 267.336 517.104C265.696 516.839 264.5 516.484 263.423 515.129C259.408 510.089 259.44 482.999 261.025 476.194C261.635 473.574 262.691 472.314 264.946 470.914Z" fill="#F59A41"/>
<path d="M282.763 622.295C284.491 622.085 286.486 621.755 288.203 622.19C289.373 622.49 289.915 622.76 290.548 623.815C290.449 624.26 290.426 624.515 290.14 624.925C287.579 628.585 281.799 628.83 277.811 629.175C277.485 636.4 279.927 655.05 275.686 660.47C274.306 661.115 274.106 661.04 272.583 660.8C271.228 659.71 271.152 659.27 270.56 657.69C270.455 648.285 270.433 638.88 270.495 629.47C267.92 629.55 264.874 629.91 262.36 629.335C260.837 628.985 259.893 628.38 259.027 627.05C259.025 626.34 258.827 625.905 259.367 625.36C262.206 622.505 278.155 622.66 282.763 622.295Z" fill="#AE7567"/>
<path d="M371.16 626.16C372.335 626.645 372.99 627.125 373.9 628.01C374.715 629.72 374.51 656.855 374.02 659.72C373.735 661.395 372.36 662.265 371.11 663.255C370.505 662.955 369.875 662.64 369.365 662.18C367.38 660.39 367.165 656.1 367.05 653.545C366.725 646.465 366.385 631.365 371.16 626.16Z" fill="#AE7567"/>
<path d="M619.385 347.621C620.285 347.802 621.125 348.022 621.995 348.311C623.125 349.167 624.005 349.734 625.345 350.253L624.78 350.837C626.205 351.359 627.665 351.561 629.155 351.809L626.9 352.196C629.095 352.582 631.69 353.369 633.865 352.67L633.465 360.911C631.595 361.63 629.73 362.308 627.775 362.762C624.495 363.523 616.005 365.293 613.175 363.536C612.135 358.325 620.57 354.497 619.48 348.125C619.45 347.957 619.415 347.789 619.385 347.621Z" fill="#4C3F51"/>
<path d="M265.293 451.922C266.539 451.977 268.102 451.887 269.191 452.577C270.195 453.207 270.935 454.012 271.072 455.217C271.318 457.392 270.261 458.577 268.96 460.127C267.791 460.172 266.387 460.332 265.308 459.797C264.286 459.287 263.465 458.117 263.305 456.992C263.005 454.887 263.964 453.402 265.293 451.922Z" fill="#F59A41"/>
</svg>
