<svg width="1024" height="2048" viewBox="0 0 1024 2048" fill="none" xmlns="http://www.w3.org/2000/svg">
<path d="M930.977 1778.97L6.10352e-05 1778.95V1946.04V2048H904.799C905.044 2037.99 907.065 2022.74 908.097 2012.21C910.297 1990.21 912.344 1968.19 914.237 1946.16C920.098 1891.02 924.346 1833.64 930.977 1778.97Z" fill="#2BA8D5"/>
<path d="M914.237 1946.16C879.835 1945.53 843.759 1946.06 809.262 1946.05L605.753 1946.02L-0.000183105 1946.04V2048H904.799C905.044 2037.99 907.065 2022.74 908.097 2012.21C910.297 1990.21 912.344 1968.19 914.237 1946.16Z" fill="#6FB3DD"/>
<path d="M1024 0H319.441H0V72.3028V73.2323L1024 72.9708V0Z" fill="#6FB3DD"/>
<path d="M319.441 0H-0.000183105V72.3028L338.716 72.1447C331.134 49.9889 327.093 22.5415 319.441 0Z" fill="#2BA8D5"/>
<path d="M1024 828.897C1021.33 832.174 1017.33 875.4 1016.49 882.908L1005.08 989.52L998.819 1049.13C998.329 1053.93 996.155 1071.98 996.296 1076.07C995.712 1081.42 994.797 1088.02 994.749 1093.3C995.328 1096.76 994.718 1103.45 994.816 1107.6C995.25 1125.89 994.283 1144.21 994.015 1162.5C993.784 1203.49 992.878 1244.47 991.297 1285.43C989.602 1342.37 987.034 1393.91 970.25 1448.69C967.25 1458.49 965.642 1474.58 961.852 1483.36C960.882 1487.62 958.897 1506.48 958.989 1510.88C955.761 1529.48 954.117 1552.11 952.382 1571.07C946.04 1640.39 937.308 1709.68 930.977 1778.97C924.346 1833.64 920.098 1891.02 914.237 1946.16C912.344 1968.19 910.297 1990.21 908.097 2012.21C907.065 2022.74 905.044 2037.99 904.799 2048H933.869H939.022H981.239H986.953H1015.99H1022.7H1024V1920.61V1913.76V1880.6V1874.92V1634.62V1626.14V1429.54V1419.39V828.897Z" fill="#0B3A7A"/>
<path d="M958.989 1510.88C955.761 1529.48 954.117 1552.11 952.382 1571.07C946.04 1640.39 937.307 1709.68 930.976 1778.97C924.346 1833.64 920.098 1891.02 914.237 1946.16C912.344 1968.19 910.297 1990.21 908.097 2012.21C907.065 2022.74 905.044 2037.99 904.799 2048H933.869C934.212 2004.26 941.443 1950.08 950.202 1907.41C959.42 1862.5 970.144 1824.12 973.072 1777.78C977.758 1703.6 966.136 1631.45 959.861 1557.89C958.662 1543.83 959.208 1525.39 958.989 1510.88Z" fill="#0B3A7A"/>
<path d="M1024 1880.6C973.564 1895.93 979.285 2007.09 986.953 2048H1015.99H1022.7H1024V1920.61V1913.76V1880.6Z" fill="#0B3A7A"/>
<path d="M1024 1920.61C999.345 1944.71 1005.9 2021.29 1022.7 2048H1024V1920.61Z" fill="#0B3A7A"/>
<path d="M1024 1913.76C1011.44 1922.26 1008.16 1932.85 1004.89 1946.93C999.279 1971.1 1002.74 2027.28 1015.99 2048H1022.7C1005.9 2021.29 999.345 1944.71 1024 1920.61V1913.76Z" fill="#051B62"/>
<path d="M996.296 1076.07C995.711 1081.42 994.796 1088.02 994.748 1093.3C995.328 1096.76 994.718 1103.45 994.816 1107.6C995.25 1125.89 994.283 1144.21 994.015 1162.5C993.784 1203.49 992.878 1244.47 991.297 1285.43C989.602 1342.37 987.034 1393.91 970.25 1448.69C967.249 1458.49 965.642 1474.58 961.851 1483.36C960.882 1487.62 958.897 1506.48 958.989 1510.88C959.208 1525.39 958.662 1543.83 959.861 1557.89C966.136 1631.45 977.758 1703.6 973.072 1777.78C970.144 1824.12 959.42 1862.5 950.202 1907.41C941.443 1950.08 934.212 2004.26 933.869 2048H939.022C940.886 2002.47 946.218 1957.15 954.972 1912.44C963.519 1868.95 975.027 1827.89 978.793 1783.17C986.626 1690.16 962.872 1602.42 965.829 1509.4C967.167 1467.32 989.356 1407.92 991.728 1374.43C994.604 1333.85 1008.09 1098.75 996.296 1076.07Z" fill="#051B62"/>
<path d="M1024 1429.54C999.473 1462.22 982.15 1510.48 988.129 1551.85C992.328 1579.66 1004.83 1605.55 1024 1626.14V1429.54Z" fill="#0B3A7A"/>
<path d="M1024 1419.39C996.693 1456.53 975.766 1506.13 982.813 1553C987.441 1583.92 1001.88 1612.53 1024 1634.62V1626.14C1004.83 1605.55 992.328 1579.66 988.129 1551.85C982.15 1510.48 999.473 1462.22 1024 1429.54V1419.39Z" fill="#051B62"/>
<path d="M1024 1874.92C962.632 1892.44 978.338 1999.56 981.239 2048H986.953C979.285 2007.09 973.564 1895.93 1024 1880.6V1874.92Z" fill="#051B62"/>
<path d="M95.5048 1275.72C85.8198 1275.97 80.8368 1276.29 71.2868 1277.42C29.3178 1301.95 9.41983 1399.14 -0.000167847 1444.32V1639.18C3.75983 1633 19.2298 1577.96 22.5998 1567.21C24.1088 1562.09 25.7878 1557.07 27.2888 1551.91C31.3898 1537.46 31.1338 1536.52 41.2058 1525.64C82.9388 1475.3 123.33 1404.88 134.59 1339.62C137.472 1322.91 137.109 1303.64 126.555 1289.47C116.585 1280.91 108.265 1277.68 95.5048 1275.72Z" fill="#000A3A"/>
<path d="M39.1731 1415.65C31.0691 1416.88 22.5501 1446.04 37.3811 1446.91C44.0521 1444.25 46.0061 1440 49.9451 1434.04C51.8531 1430.63 54.9801 1425.15 54.2661 1421.33C49.5901 1422.91 41.3861 1435.61 35.4811 1435.95C33.0991 1430.32 38.1871 1423.16 39.0841 1416.38L39.1731 1415.65Z" fill="#FEFEFE"/>
<path d="M21.9899 1457.74C16.7699 1461.19 13.9699 1477.96 19.4799 1484.28C27.1749 1487.3 30.4639 1480.35 34.3619 1474.74C37.8429 1469.58 39.2229 1465.91 41.6309 1460.22C36.3619 1464.61 27.8089 1478.36 21.5499 1472.09C19.8499 1467.91 21.2799 1462.37 21.9899 1457.74Z" fill="#FEFEFE"/>
<path d="M63.71 1376.32C55.473 1377.87 44.269 1394.63 45.78 1403.68C56.257 1402.87 64.747 1385.12 63.71 1376.32Z" fill="#FEFEFE"/>
<path d="M175.426 1212.08C171.437 1207.75 168.97 1203.04 167.152 1197.48C145.174 1206.03 120.229 1215.72 97.9881 1223.38C103.187 1233.84 125.843 1279.37 126.555 1289.47C137.109 1303.64 137.472 1322.91 134.59 1339.62C123.33 1404.88 82.9392 1475.3 41.2062 1525.64C53.8632 1521.22 64.3692 1516.56 76.6552 1511.14C80.3332 1508.92 81.0972 1508.4 85.2222 1507.34C90.4882 1502.91 98.2872 1497.58 104.291 1492.69L107.635 1490.31C117.19 1480.91 124.724 1475.14 132.519 1463.7C145.343 1445.38 153.324 1425.29 162.927 1405.26C183.419 1362.52 177.986 1318.93 160.932 1276.25C158.048 1269.04 149.9 1254.7 148.676 1247.7C146.631 1236.01 167.314 1223.4 174.874 1212.86L175.426 1212.08Z" fill="#D13342"/>
<path d="M987.691 1159.69L860.98 1002.63C853.302 993.275 825.103 956.403 817.176 951.687L816.02 952.048C816.999 959.473 830.013 979.079 834.308 986.522L868.392 1046C906.213 1112.4 944.541 1178.51 983.37 1244.33C979.836 1300.46 972.59 1357.36 968.038 1413.44C966.385 1433.8 961.957 1464.22 961.852 1483.36C965.642 1474.58 967.25 1458.49 970.25 1448.69C987.035 1393.91 989.602 1342.37 991.297 1285.43C992.878 1244.47 993.784 1203.49 994.015 1162.5C994.283 1144.21 995.25 1125.89 994.816 1107.6C994.718 1103.45 995.328 1096.76 994.749 1093.3C993.32 1097.85 988.194 1152.14 987.691 1159.69Z" fill="#0B3A7A"/>
<path d="M181.502 1183.72C176.722 1169.72 157.275 1155.82 144.569 1148.59C117.161 1132.99 72.7389 1145.15 58.4999 1175.1C55.5519 1181.25 54.0169 1187.99 54.0089 1194.81C53.9769 1204.31 58.1199 1220.05 60.2979 1229.61L71.2869 1277.42C80.8369 1276.29 85.8199 1275.97 95.5049 1275.72C108.265 1277.68 116.585 1280.91 126.555 1289.47C125.843 1279.37 103.187 1233.84 97.9879 1223.38C120.229 1215.72 145.174 1206.03 167.152 1197.48L168.482 1195.55C172.619 1191.37 176.613 1186.96 181.502 1183.72Z" fill="#D13342"/>
<path d="M124.212 1177.09C97.4889 1186.87 90.703 1203.75 56.749 1206.86C61.264 1218.68 71.6139 1230.56 78.4489 1241.65C85.7219 1253.46 90.0739 1262.98 95.5049 1275.72C108.265 1277.68 116.585 1280.91 126.555 1289.47C125.843 1279.37 103.187 1233.84 97.9879 1223.38C120.229 1215.72 145.174 1206.03 167.152 1197.48L168.482 1195.55C155.554 1189.14 138.112 1179.2 124.212 1177.09Z" fill="#FEFEFE"/>
<path d="M132.392 1182.51C128.596 1181.77 124.691 1183.12 122.171 1186.06C119.652 1188.99 118.908 1193.06 120.225 1196.7C121.542 1200.34 124.715 1202.99 128.53 1203.63C134.32 1204.61 139.821 1200.75 140.878 1194.98C141.934 1189.2 138.154 1183.65 132.392 1182.51Z" fill="#050000"/>
<path d="M258.151 1364.24C233.675 1391.55 211.182 1426.8 187.339 1454.46C182.415 1460.17 135.305 1491.76 130.056 1490.97C125.997 1494.45 120.631 1500.25 116 1500.99C112.632 1499.04 107.579 1495.1 104.291 1492.69C98.2869 1497.58 90.4879 1502.91 85.2219 1507.34L93.9099 1512.44L93.9419 1512.91C100.822 1513.59 105.246 1518.24 110.407 1520.25C111.262 1519.45 133.603 1507.15 135.484 1506.42C138.259 1509.05 135.321 1510.87 137.596 1515.41C140.785 1514.18 139.619 1514.89 142.08 1511.89C143.501 1507.33 141.833 1504.7 141.187 1499.63C155.76 1488.35 178.2 1476.65 193.638 1465.15C202.417 1458.6 211.616 1448.34 219.827 1443.44C221.971 1436.67 221.612 1440.67 225.747 1439.36L225.631 1437.43L225.42 1439.16L224.446 1439.51L225.558 1438.64L222.255 1437.45L221.808 1439L219.083 1437.54C213.213 1439.8 209.945 1443.17 205.332 1447.43C221.007 1425.01 244.734 1388.51 258.151 1364.24Z" fill="#0B3A7A"/>
<path d="M104.291 1492.69C98.287 1497.58 90.488 1502.91 85.222 1507.34L93.91 1512.44C99.492 1512.28 110.837 1504.29 116 1500.99C112.632 1499.04 107.579 1495.1 104.291 1492.69Z" fill="#FEFEFE"/>
<path d="M85.222 1507.34C81.097 1508.4 80.3331 1508.92 76.6551 1511.14C64.3691 1516.56 53.8631 1521.22 41.2061 1525.64C31.1341 1536.52 31.3901 1537.46 27.2891 1551.91C25.7881 1557.07 24.109 1562.09 22.6 1567.21C36.93 1561.01 52.366 1553.42 66.175 1546.09C78.577 1539.5 90.8071 1531.56 103.393 1525.31C99.4881 1521.07 97.9061 1519.4 93.2361 1515.81L93.9421 1512.91L93.91 1512.44L85.222 1507.34Z" fill="#0B3A7A"/>
<path d="M76.6552 1511.14C64.3692 1516.56 53.8632 1521.22 41.2062 1525.64C31.1342 1536.52 31.3902 1537.46 27.2892 1551.91C29.5462 1550.94 31.6152 1549.68 33.7092 1548.4C50.4282 1538.23 67.5762 1528.76 84.2632 1518.53L76.6552 1511.14Z" fill="#FEFEFE"/>
<path d="M85.2219 1507.34C81.0969 1508.4 80.3329 1508.92 76.6549 1511.14L84.2629 1518.53C87.2859 1518.75 90.3919 1517.05 93.2359 1515.81L93.9419 1512.91L93.9099 1512.44L85.2219 1507.34Z" fill="#000A3A"/>
<path d="M175.426 1212.08C190.13 1205.55 260.151 1193.88 263.386 1182.07L261.943 1179.92C253.429 1175.58 194.977 1182.6 181.502 1183.72C176.613 1186.96 172.619 1191.37 168.482 1195.55L167.152 1197.48C168.97 1203.04 171.437 1207.75 175.426 1212.08Z" fill="#051B62"/>
<path d="M288.024 1419.28C274.382 1421.66 230.913 1432.52 219.083 1437.54L221.808 1439L222.255 1437.45L225.558 1438.64L224.446 1439.51L225.42 1439.16L225.631 1437.43L225.747 1439.36C221.612 1440.67 221.971 1436.67 219.827 1443.44C237.061 1439.11 270.219 1425.87 288.024 1419.28Z" fill="#051B62"/>
<path d="M107.635 1490.31L104.291 1492.69C107.579 1495.1 112.632 1499.04 116 1500.99C120.631 1500.25 125.997 1494.45 130.056 1490.97C127.204 1489.72 111.718 1490.27 107.635 1490.31Z" fill="#000A3A"/>
<path d="M93.9423 1512.91L93.2363 1515.81C97.9063 1519.4 99.4883 1521.07 103.393 1525.31C105.622 1528.84 103.787 1531.18 105.945 1533.42C109.491 1532.32 108.236 1533.16 110.603 1530.06C111.621 1525.86 111.202 1524.54 110.407 1520.25C105.246 1518.24 100.822 1513.59 93.9423 1512.91Z" fill="#051B62"/>
<path d="M431.088 324.28L391.05 396.02V448H356.941V397.91L316.474 324.28H351.271L378.163 386.483L407.031 324.28H431.088ZM568.383 385.968C568.383 395.934 566.664 404.927 563.228 412.946C559.791 420.908 555.037 427.666 548.966 433.222C542.894 438.778 535.706 443.045 527.4 446.024C519.095 449.002 510.102 450.492 500.422 450.492C490.743 450.492 481.75 449.002 473.445 446.024C465.139 443.045 457.951 438.778 451.879 433.222C445.808 427.666 441.054 420.908 437.617 412.946C434.181 404.927 432.462 395.934 432.462 385.968C432.462 375.83 434.152 366.78 437.531 358.818C440.968 350.799 445.693 344.041 451.708 338.542C457.779 332.986 464.967 328.747 473.273 325.826C481.578 322.848 490.628 321.358 500.422 321.358C510.217 321.358 519.267 322.848 527.572 325.826C535.878 328.747 543.037 332.986 549.051 338.542C555.123 344.041 559.848 350.799 563.228 358.818C566.664 366.78 568.383 375.83 568.383 385.968ZM533.672 385.968C533.672 382.188 533.5 378.321 533.157 374.369C532.813 370.417 532.183 366.579 531.267 362.856C530.35 359.133 529.09 355.639 527.486 352.374C525.94 349.11 523.935 346.274 521.472 343.869C519.009 341.406 516.031 339.487 512.537 338.112C509.1 336.68 505.062 335.964 500.422 335.964C495.726 335.964 491.63 336.68 488.136 338.112C484.642 339.487 481.664 341.377 479.201 343.783C476.738 346.188 474.733 349.024 473.187 352.289C471.64 355.553 470.409 359.047 469.492 362.77C468.633 366.436 468.032 370.274 467.688 374.283C467.344 378.235 467.173 382.13 467.173 385.968C467.173 389.748 467.344 393.615 467.688 397.567C468.032 401.519 468.662 405.357 469.578 409.08C470.495 412.745 471.726 416.211 473.273 419.476C474.877 422.74 476.91 425.604 479.373 428.067C481.836 430.473 484.786 432.392 488.222 433.824C491.716 435.256 495.783 435.972 500.422 435.972C504.947 435.972 508.9 435.256 512.279 433.824C515.658 432.334 518.58 430.358 521.043 427.895C523.505 425.375 525.539 422.483 527.143 419.218C528.804 415.896 530.092 412.402 531.009 408.736C531.983 405.013 532.67 401.204 533.071 397.309C533.472 393.414 533.672 389.634 533.672 385.968ZM625.861 324.28C624.315 328.919 622.969 333.731 621.823 338.714C620.677 343.64 619.732 348.594 618.988 353.577C618.243 358.503 617.67 363.372 617.269 368.183C616.926 372.995 616.754 377.548 616.754 381.844C616.754 384.994 616.754 388.546 616.754 392.498C616.811 396.393 617.04 400.373 617.441 404.44C617.9 408.507 618.615 412.488 619.589 416.383C620.563 420.22 621.995 423.657 623.885 426.693C625.833 429.728 628.295 432.163 631.274 433.996C634.31 435.828 638.061 436.745 642.529 436.745C646.481 436.745 649.861 436.086 652.667 434.769C655.531 433.394 657.937 431.561 659.884 429.27C661.889 426.979 663.464 424.344 664.61 421.366C665.813 418.387 666.729 415.266 667.359 412.001C668.046 408.736 668.476 405.442 668.648 402.12C668.877 398.741 668.991 395.533 668.991 392.498V324.28H703.1V387.171C703.1 396.163 701.669 404.526 698.805 412.259C695.941 419.991 691.903 426.721 686.69 432.449C681.478 438.12 675.177 442.587 667.789 445.852C660.4 449.06 652.209 450.663 643.216 450.663C637.03 450.663 631.274 449.776 625.947 448C620.62 446.282 615.723 443.905 611.255 440.869C606.845 437.776 602.893 434.139 599.399 429.957C595.962 425.719 593.07 421.108 590.721 416.125C588.43 411.142 586.683 405.901 585.48 400.402C584.277 394.846 583.733 389.233 583.848 383.562V381.844C583.905 377.262 584.363 372.536 585.222 367.668C586.082 362.742 587.227 357.816 588.659 352.89C590.148 347.964 591.924 343.095 593.986 338.284C596.048 333.415 598.339 328.747 600.859 324.28H625.861ZM459.44 587.803V589.436C459.326 594.247 458.81 599.23 457.894 604.385C457.034 609.54 455.803 614.695 454.199 619.85C452.595 625.005 450.677 630.103 448.443 635.143C446.209 640.184 443.689 644.995 440.882 649.578C438.133 654.217 435.154 658.542 431.947 662.551C428.739 666.618 425.36 670.198 421.808 673.291L409.007 665.902C411.012 662.522 412.816 658.828 414.42 654.818C416.081 650.866 417.57 646.714 418.887 642.36C420.205 638.007 421.322 633.54 422.238 628.957C423.212 624.375 424.014 619.822 424.644 615.297C425.274 610.772 425.732 606.333 426.018 601.98C426.362 597.569 426.534 593.388 426.534 589.436C426.534 586.343 426.505 582.849 426.448 578.954C426.448 575.002 426.219 570.992 425.761 566.925C425.36 562.859 424.672 558.907 423.699 555.069C422.725 551.174 421.264 547.709 419.317 544.673C417.427 541.637 414.964 539.203 411.928 537.37C408.95 535.537 405.227 534.621 400.759 534.621C396.807 534.621 393.399 535.308 390.535 536.683C387.728 538 385.322 539.804 383.318 542.095C381.37 544.329 379.795 546.935 378.592 549.914C377.447 552.892 376.53 556.043 375.843 559.365C375.213 562.63 374.783 565.952 374.554 569.331C374.382 572.653 374.296 575.804 374.296 578.782V602.753H411.327V616.929H374.296V647H340.187V584.109C340.187 575.116 341.619 566.754 344.483 559.021C347.347 551.289 351.385 544.587 356.598 538.917C361.867 533.189 368.168 528.721 375.499 525.513C382.888 522.249 391.108 520.616 400.157 520.616C406.286 520.616 412.014 521.504 417.341 523.28C422.725 524.998 427.622 527.404 432.033 530.497C436.443 533.532 440.367 537.17 443.803 541.408C447.297 545.589 450.19 550.172 452.481 555.155C454.829 560.138 456.605 565.408 457.808 570.964C459.011 576.519 459.555 582.133 459.44 587.803ZM515.802 647H481.693V523.28H542.522C548.25 523.28 553.777 523.967 559.104 525.342C564.431 526.659 569.127 528.778 573.194 531.7C577.318 534.563 580.583 538.286 582.989 542.869C585.452 547.451 586.683 553.007 586.683 559.537C586.683 564.634 585.595 569.446 583.418 573.971C581.299 578.438 578.435 582.448 574.826 585.999C571.275 589.493 567.18 592.414 562.54 594.763C557.901 597.054 553.09 598.572 548.106 599.316C550.34 603.096 552.66 606.676 555.066 610.056C557.529 613.435 559.992 616.614 562.454 619.593C564.975 622.514 567.466 625.234 569.929 627.755C572.392 630.218 574.741 632.48 576.974 634.542C582.244 639.353 587.456 643.506 592.611 647H550.082C546.646 643.735 543.381 639.812 540.288 635.229C537.653 631.334 534.99 626.523 532.298 620.795C529.663 615.01 527.629 608.337 526.198 600.777H515.802V647ZM552.059 559.537C552.059 551.231 550.025 545.131 545.958 541.236C541.949 537.341 535.906 535.394 527.83 535.394H515.802V589.092H527.83C532.126 589.092 535.792 588.29 538.827 586.686C541.92 585.025 544.441 582.849 546.388 580.157C548.335 577.407 549.767 574.257 550.684 570.706C551.6 567.155 552.059 563.431 552.059 559.537ZM697.516 647H608.678V523.28H697.516V539.088H642.787V577.321H685.058V593.044H642.787V631.191H697.516V647ZM240.524 846H224.715V722.28H246.882L322.059 807.251V722.28H337.782V846H315.615L240.524 761.114V846ZM454.629 846H365.791V722.28H454.629V738.088H399.9V776.321H442.171V792.044H399.9V830.191H454.629V846ZM539.858 846H508.67L462.447 722.28H497.244L531.524 821.857L562.54 722.28H583.676L539.858 846ZM687.464 846H598.625V722.28H687.464V738.088H632.735V776.321H675.006V792.044H632.735V830.191H687.464V846ZM742.708 846H708.599V722.28H769.428C775.156 722.28 780.683 722.967 786.01 724.342C791.337 725.659 796.034 727.778 800.101 730.7C804.225 733.563 807.49 737.286 809.895 741.869C812.358 746.451 813.59 752.007 813.59 758.537C813.59 763.634 812.501 768.446 810.325 772.971C808.206 777.438 805.342 781.448 801.733 784.999C798.182 788.493 794.087 791.414 789.447 793.763C784.807 796.054 779.996 797.572 775.013 798.316C777.247 802.096 779.567 805.676 781.972 809.056C784.435 812.435 786.898 815.614 789.361 818.593C791.881 821.514 794.373 824.234 796.836 826.755C799.299 829.218 801.647 831.48 803.881 833.542C809.151 838.353 814.363 842.506 819.518 846H776.989C773.552 842.735 770.288 838.812 767.195 834.229C764.56 830.334 761.896 825.523 759.204 819.795C756.569 814.01 754.536 807.337 753.104 799.777H742.708V846ZM778.965 758.537C778.965 750.231 776.932 744.131 772.865 740.236C768.856 736.341 762.813 734.394 754.737 734.394H742.708V788.092H754.737C759.032 788.092 762.698 787.29 765.734 785.686C768.827 784.025 771.347 781.849 773.295 779.157C775.242 776.407 776.674 773.257 777.59 769.706C778.507 766.155 778.965 762.431 778.965 758.537ZM385.637 1045H351.528V937.088H317.849V921.28H419.317V937.088H385.637V1045ZM560.307 982.968C560.307 992.934 558.588 1001.93 555.152 1009.95C551.715 1017.91 546.961 1024.67 540.889 1030.22C534.818 1035.78 527.63 1040.05 519.324 1043.02C511.019 1046 502.026 1047.49 492.346 1047.49C482.666 1047.49 473.674 1046 465.368 1043.02C457.063 1040.05 449.875 1035.78 443.803 1030.22C437.732 1024.67 432.978 1017.91 429.541 1009.95C426.104 1001.93 424.386 992.934 424.386 982.968C424.386 972.83 426.076 963.78 429.455 955.818C432.892 947.799 437.617 941.041 443.631 935.542C449.703 929.986 456.891 925.747 465.197 922.826C473.502 919.848 482.552 918.358 492.346 918.358C502.141 918.358 511.191 919.848 519.496 922.826C527.801 925.747 534.961 929.986 540.975 935.542C547.047 941.041 551.772 947.799 555.152 955.818C558.588 963.78 560.307 972.83 560.307 982.968ZM525.596 982.968C525.596 979.188 525.424 975.321 525.081 971.369C524.737 967.417 524.107 963.579 523.19 959.856C522.274 956.133 521.014 952.639 519.41 949.374C517.864 946.11 515.859 943.274 513.396 940.869C510.933 938.406 507.955 936.487 504.461 935.112C501.024 933.68 496.986 932.964 492.346 932.964C487.65 932.964 483.554 933.68 480.06 935.112C476.566 936.487 473.588 938.377 471.125 940.783C468.662 943.188 466.657 946.024 465.111 949.289C463.564 952.553 462.333 956.047 461.416 959.77C460.557 963.436 459.956 967.274 459.612 971.283C459.268 975.235 459.096 979.13 459.096 982.968C459.096 986.748 459.268 990.615 459.612 994.567C459.956 998.519 460.586 1002.36 461.502 1006.08C462.419 1009.75 463.65 1013.21 465.197 1016.48C466.8 1019.74 468.834 1022.6 471.297 1025.07C473.76 1027.47 476.709 1029.39 480.146 1030.82C483.64 1032.26 487.707 1032.97 492.346 1032.97C496.871 1032.97 500.823 1032.26 504.203 1030.82C507.582 1029.33 510.503 1027.36 512.966 1024.9C515.429 1022.38 517.463 1019.48 519.066 1016.22C520.728 1012.9 522.016 1009.4 522.933 1005.74C523.906 1002.01 524.594 998.204 524.995 994.309C525.396 990.414 525.596 986.634 525.596 982.968ZM710.661 982.968C710.661 992.934 708.943 1001.93 705.506 1009.95C702.069 1017.91 697.315 1024.67 691.244 1030.22C685.172 1035.78 677.984 1040.05 669.679 1043.02C661.373 1046 652.381 1047.49 642.701 1047.49C633.021 1047.49 624.028 1046 615.723 1043.02C607.418 1040.05 600.229 1035.78 594.158 1030.22C588.086 1024.67 583.332 1017.91 579.896 1009.95C576.459 1001.93 574.741 992.934 574.741 982.968C574.741 972.83 576.43 963.78 579.81 955.818C583.246 947.799 587.972 941.041 593.986 935.542C600.057 929.986 607.246 925.747 615.551 922.826C623.856 919.848 632.906 918.358 642.701 918.358C652.495 918.358 661.545 919.848 669.851 922.826C678.156 925.747 685.316 929.986 691.33 935.542C697.401 941.041 702.127 947.799 705.506 955.818C708.943 963.78 710.661 972.83 710.661 982.968ZM675.951 982.968C675.951 979.188 675.779 975.321 675.435 971.369C675.092 967.417 674.461 963.579 673.545 959.856C672.629 956.133 671.368 952.639 669.765 949.374C668.218 946.11 666.213 943.274 663.75 940.869C661.288 938.406 658.309 936.487 654.815 935.112C651.378 933.68 647.34 932.964 642.701 932.964C638.004 932.964 633.909 933.68 630.415 935.112C626.921 936.487 623.942 938.377 621.479 940.783C619.016 943.188 617.012 946.024 615.465 949.289C613.919 952.553 612.687 956.047 611.771 959.77C610.912 963.436 610.31 967.274 609.967 971.283C609.623 975.235 609.451 979.13 609.451 982.968C609.451 986.748 609.623 990.615 609.967 994.567C610.31 998.519 610.94 1002.36 611.857 1006.08C612.773 1009.75 614.005 1013.21 615.551 1016.48C617.155 1019.74 619.188 1022.6 621.651 1025.07C624.114 1027.47 627.064 1029.39 630.501 1030.82C633.995 1032.26 638.061 1032.97 642.701 1032.97C647.226 1032.97 651.178 1032.26 654.557 1030.82C657.937 1029.33 660.858 1027.36 663.321 1024.9C665.784 1022.38 667.817 1019.48 669.421 1016.22C671.082 1012.9 672.371 1009.4 673.287 1005.74C674.261 1002.01 674.948 998.204 675.349 994.309C675.75 990.414 675.951 986.634 675.951 982.968ZM461.158 1181.97C461.158 1191.93 459.44 1200.93 456.003 1208.95C452.567 1216.91 447.813 1223.67 441.741 1229.22C435.67 1234.78 428.481 1239.05 420.176 1242.02C411.871 1245 402.878 1246.49 393.198 1246.49C383.518 1246.49 374.526 1245 366.22 1242.02C357.915 1239.05 350.727 1234.78 344.655 1229.22C338.584 1223.67 333.83 1216.91 330.393 1208.95C326.956 1200.93 325.238 1191.93 325.238 1181.97C325.238 1171.83 326.928 1162.78 330.307 1154.82C333.744 1146.8 338.469 1140.04 344.483 1134.54C350.555 1128.99 357.743 1124.75 366.048 1121.83C374.354 1118.85 383.404 1117.36 393.198 1117.36C402.993 1117.36 412.043 1118.85 420.348 1121.83C428.653 1124.75 435.813 1128.99 441.827 1134.54C447.899 1140.04 452.624 1146.8 456.003 1154.82C459.44 1162.78 461.158 1171.83 461.158 1181.97ZM426.448 1181.97C426.448 1178.19 426.276 1174.32 425.933 1170.37C425.589 1166.42 424.959 1162.58 424.042 1158.86C423.126 1155.13 421.866 1151.64 420.262 1148.37C418.715 1145.11 416.711 1142.27 414.248 1139.87C411.785 1137.41 408.806 1135.49 405.312 1134.11C401.876 1132.68 397.838 1131.96 393.198 1131.96C388.501 1131.96 384.406 1132.68 380.912 1134.11C377.418 1135.49 374.44 1137.38 371.977 1139.78C369.514 1142.19 367.509 1145.02 365.963 1148.29C364.416 1151.55 363.185 1155.05 362.268 1158.77C361.409 1162.44 360.807 1166.27 360.464 1170.28C360.12 1174.24 359.948 1178.13 359.948 1181.97C359.948 1185.75 360.12 1189.61 360.464 1193.57C360.807 1197.52 361.438 1201.36 362.354 1205.08C363.27 1208.75 364.502 1212.21 366.048 1215.48C367.652 1218.74 369.686 1221.6 372.149 1224.07C374.611 1226.47 377.561 1228.39 380.998 1229.82C384.492 1231.26 388.559 1231.97 393.198 1231.97C397.723 1231.97 401.675 1231.26 405.055 1229.82C408.434 1228.33 411.355 1226.36 413.818 1223.9C416.281 1221.38 418.315 1218.48 419.918 1215.22C421.579 1211.9 422.868 1208.4 423.785 1204.74C424.758 1201.01 425.446 1197.2 425.847 1193.31C426.248 1189.41 426.448 1185.63 426.448 1181.97ZM571.218 1244H482.38V1120.28H516.489V1228.28H571.218V1244ZM707.31 1181.97C707.31 1187.98 706.508 1193.71 704.905 1199.15C703.301 1204.54 701.038 1209.52 698.117 1214.1C695.253 1218.68 691.817 1222.84 687.807 1226.56C683.798 1230.22 679.359 1233.35 674.49 1235.92C669.679 1238.5 664.495 1240.51 658.939 1241.94C653.44 1243.31 647.77 1244 641.928 1244H587.37V1120.28H641.928C647.77 1120.28 653.44 1120.97 658.939 1122.34C664.438 1123.72 669.593 1125.69 674.404 1128.27C679.273 1130.79 683.712 1133.88 687.721 1137.55C691.788 1141.21 695.253 1145.34 698.117 1149.92C701.038 1154.45 703.301 1159.43 704.905 1164.87C706.508 1170.25 707.31 1175.95 707.31 1181.97ZM672.686 1181.97C672.686 1175.27 671.855 1168.91 670.194 1162.89C668.59 1156.82 666.07 1151.5 662.634 1146.91C659.197 1142.33 654.815 1138.69 649.488 1136C644.219 1133.31 637.89 1131.96 630.501 1131.96H621.479V1231.97H630.501C637.775 1231.97 644.047 1230.63 649.316 1227.93C654.643 1225.18 659.025 1221.52 662.462 1216.94C665.956 1212.3 668.533 1206.97 670.194 1200.96C671.855 1194.94 672.686 1188.61 672.686 1181.97ZM460.815 1443H426.706V1335.09H393.026V1319.28H494.494V1335.09H460.815V1443ZM635.484 1380.97C635.484 1390.93 633.766 1399.93 630.329 1407.95C626.892 1415.91 622.138 1422.67 616.067 1428.22C609.995 1433.78 602.807 1438.05 594.501 1441.02C586.196 1444 577.204 1445.49 567.524 1445.49C557.844 1445.49 548.851 1444 540.546 1441.02C532.24 1438.05 525.052 1433.78 518.981 1428.22C512.909 1422.67 508.155 1415.91 504.718 1407.95C501.282 1399.93 499.563 1390.93 499.563 1380.97C499.563 1370.83 501.253 1361.78 504.632 1353.82C508.069 1345.8 512.795 1339.04 518.809 1333.54C524.88 1327.99 532.069 1323.75 540.374 1320.83C548.679 1317.85 557.729 1316.36 567.524 1316.36C577.318 1316.36 586.368 1317.85 594.673 1320.83C602.979 1323.75 610.138 1327.99 616.153 1333.54C622.224 1339.04 626.949 1345.8 630.329 1353.82C633.766 1361.78 635.484 1370.83 635.484 1380.97ZM600.773 1380.97C600.773 1377.19 600.602 1373.32 600.258 1369.37C599.914 1365.42 599.284 1361.58 598.368 1357.86C597.451 1354.13 596.191 1350.64 594.587 1347.37C593.041 1344.11 591.036 1341.27 588.573 1338.87C586.11 1336.41 583.132 1334.49 579.638 1333.11C576.201 1331.68 572.163 1330.96 567.524 1330.96C562.827 1330.96 558.731 1331.68 555.237 1333.11C551.744 1334.49 548.765 1336.38 546.302 1338.78C543.839 1341.19 541.834 1344.02 540.288 1347.29C538.741 1350.55 537.51 1354.05 536.593 1357.77C535.734 1361.44 535.133 1365.27 534.789 1369.28C534.446 1373.24 534.274 1377.13 534.274 1380.97C534.274 1384.75 534.446 1388.61 534.789 1392.57C535.133 1396.52 535.763 1400.36 536.679 1404.08C537.596 1407.75 538.827 1411.21 540.374 1414.48C541.978 1417.74 544.011 1420.6 546.474 1423.07C548.937 1425.47 551.887 1427.39 555.323 1428.82C558.817 1430.26 562.884 1430.97 567.524 1430.97C572.049 1430.97 576.001 1430.26 579.38 1428.82C582.76 1427.33 585.681 1425.36 588.144 1422.9C590.607 1420.38 592.64 1417.48 594.244 1414.22C595.905 1410.9 597.194 1407.4 598.11 1403.74C599.084 1400.01 599.771 1396.2 600.172 1392.31C600.573 1388.41 600.773 1384.63 600.773 1380.97ZM278.757 1642H189.919V1518.28H224.028V1626.28H278.757V1642ZM383.747 1642H294.909V1518.28H383.747V1534.09H329.018V1572.32H371.289V1588.04H329.018V1626.19H383.747V1642ZM522.675 1582.8V1584.44C522.56 1589.25 522.045 1594.23 521.128 1599.39C520.269 1604.54 519.038 1609.7 517.434 1614.85C515.83 1620.01 513.911 1625.1 511.678 1630.14C509.444 1635.18 506.924 1640 504.117 1644.58C501.368 1649.22 498.389 1653.54 495.182 1657.55C491.974 1661.62 488.595 1665.2 485.043 1668.29L472.242 1660.9C474.246 1657.52 476.051 1653.83 477.654 1649.82C479.316 1645.87 480.805 1641.71 482.122 1637.36C483.44 1633.01 484.556 1628.54 485.473 1623.96C486.447 1619.38 487.249 1614.82 487.879 1610.3C488.509 1605.77 488.967 1601.33 489.253 1596.98C489.597 1592.57 489.769 1588.39 489.769 1584.44C489.769 1581.34 489.74 1577.85 489.683 1573.95C489.683 1570 489.454 1565.99 488.996 1561.93C488.595 1557.86 487.907 1553.91 486.934 1550.07C485.96 1546.17 484.499 1542.71 482.552 1539.67C480.662 1536.64 478.199 1534.2 475.163 1532.37C472.184 1530.54 468.461 1529.62 463.994 1529.62C460.042 1529.62 456.633 1530.31 453.77 1531.68C450.963 1533 448.557 1534.8 446.553 1537.1C444.605 1539.33 443.03 1541.94 441.827 1544.91C440.682 1547.89 439.765 1551.04 439.078 1554.36C438.448 1557.63 438.018 1560.95 437.789 1564.33C437.617 1567.65 437.531 1570.8 437.531 1573.78V1597.75H474.561V1611.93H437.531V1642H403.422V1579.11C403.422 1570.12 404.854 1561.75 407.718 1554.02C410.582 1546.29 414.62 1539.59 419.832 1533.92C425.102 1528.19 431.403 1523.72 438.734 1520.51C446.123 1517.25 454.342 1515.62 463.392 1515.62C469.521 1515.62 475.249 1516.5 480.576 1518.28C485.96 1520 490.857 1522.4 495.267 1525.5C499.678 1528.53 503.601 1532.17 507.038 1536.41C510.532 1540.59 513.425 1545.17 515.716 1550.15C518.064 1555.14 519.84 1560.41 521.043 1565.96C522.245 1571.52 522.79 1577.13 522.675 1582.8ZM579.036 1642H544.927V1518.28H605.757C611.484 1518.28 617.012 1518.97 622.339 1520.34C627.665 1521.66 632.362 1523.78 636.429 1526.7C640.553 1529.56 643.818 1533.29 646.223 1537.87C648.686 1542.45 649.918 1548.01 649.918 1554.54C649.918 1559.63 648.83 1564.45 646.653 1568.97C644.534 1573.44 641.67 1577.45 638.061 1581C634.51 1584.49 630.415 1587.41 625.775 1589.76C621.136 1592.05 616.324 1593.57 611.341 1594.32C613.575 1598.1 615.895 1601.68 618.3 1605.06C620.763 1608.44 623.226 1611.61 625.689 1614.59C628.21 1617.51 630.701 1620.23 633.164 1622.75C635.627 1625.22 637.975 1627.48 640.209 1629.54C645.479 1634.35 650.691 1638.51 655.846 1642H613.317C609.881 1638.74 606.616 1634.81 603.523 1630.23C600.888 1626.33 598.225 1621.52 595.532 1615.8C592.898 1610.01 590.864 1603.34 589.432 1595.78H579.036V1642ZM615.293 1554.54C615.293 1546.23 613.26 1540.13 609.193 1536.24C605.184 1532.34 599.141 1530.39 591.065 1530.39H579.036V1584.09H591.065C595.361 1584.09 599.026 1583.29 602.062 1581.69C605.155 1580.03 607.675 1577.85 609.623 1575.16C611.57 1572.41 613.002 1569.26 613.919 1565.71C614.835 1562.15 615.293 1558.43 615.293 1554.54ZM687.721 1642H671.913V1518.28H694.079L769.256 1603.25V1518.28H784.979V1642H762.813L687.721 1557.11V1642ZM846.066 1509.69L836.443 1608.06H818.831L809.294 1509.69H846.066ZM843.317 1629.11C843.317 1631.29 842.887 1633.35 842.028 1635.3C841.226 1637.19 840.109 1638.85 838.677 1640.28C837.303 1641.66 835.642 1642.74 833.694 1643.55C831.804 1644.41 829.799 1644.84 827.68 1644.84C825.503 1644.84 823.441 1644.41 821.494 1643.55C819.604 1642.74 817.943 1641.66 816.511 1640.28C815.136 1638.85 814.019 1637.19 813.16 1635.3C812.358 1633.35 811.957 1631.29 811.957 1629.11C811.957 1626.99 812.358 1624.99 813.16 1623.1C814.019 1621.15 815.136 1619.49 816.511 1618.12C817.943 1616.68 819.604 1615.57 821.494 1614.76C823.441 1613.91 825.503 1613.48 827.68 1613.48C829.799 1613.48 831.804 1613.91 833.694 1614.76C835.642 1615.57 837.303 1616.68 838.677 1618.12C840.109 1619.49 841.226 1621.15 842.028 1623.1C842.887 1624.99 843.317 1626.99 843.317 1629.11Z" fill="#EA5928"/>
</svg>
