<svg width="1024" height="2048" viewBox="0 0 1024 2048" fill="none" xmlns="http://www.w3.org/2000/svg">
<path d="M1024 0H161.046L159.571 0.980618C156.467 37.2987 151.953 85.3449 150.984 121.32C149.309 144.059 147.767 166.805 146.359 189.559C145.707 200.184 144.989 221.637 143 231.454C168.701 232.292 176.866 234.756 200.014 245.168L201.894 245.633C203.519 248.355 209.413 251.21 212.52 252.968C204.16 261.749 197.631 268.398 188.491 276.606C202.017 276.846 215.541 277.222 229.058 277.733C227.46 284.351 206.071 297.515 200.29 303.333C246.11 304.481 297.131 303.584 343.321 303.671C426.166 304.247 509.015 304.417 591.863 304.179C727.976 304.009 888 305.5 1024 304.5C1024 206 1024 102 1024 0Z" fill="#C4D1ED"/>
<path d="M1024 100.5C977.704 87.2381 885.155 125.096 862.189 176.765C859.219 183.45 857.22 190.14 855.258 197.082L780.838 196.978C751.313 196.938 723.972 195.183 695.511 203.732C660.01 214.395 629.15 235.075 616.954 266.579C604.375 235.498 581.9 215.205 547.197 200.843C536.452 196.374 525.059 193.158 513.321 191.282C487.598 156.674 456.301 134.476 408.854 124.966C362.599 115.696 327.48 126.73 285.79 142.388C267.646 149.203 248.814 155.973 231.906 165.214C228.668 167.018 225.534 168.954 222.513 171.017C197.77 147.493 184.168 136.233 151.197 122.022C149.477 144.674 147.894 167.333 146.449 189.999C145.779 200.584 145.042 221.956 143 231.735C169.386 232.569 177.77 235.024 201.535 245.397L203.465 245.86C205.133 248.571 211.185 251.415 214.374 253.167C205.791 261.915 199.088 268.538 189.704 276.714C203.592 276.954 217.476 277.328 231.354 277.837C229.713 284.43 207.753 297.544 201.819 303.339C248.86 304.483 301.242 303.59 348.664 303.676C433.719 304.25 518.778 304.419 603.836 304.183C743.58 304.013 884.335 305.793 1024 304.566C1024 237.5 1024 169 1024 100.5Z" fill="#E3E7F1"/>
<path d="M219.121 278.16C229.607 274.33 305.57 243.536 310.394 239.576C312.354 237.968 313.182 237.013 313.407 234.509C311.091 231.959 305.394 231.708 302.202 232.118C271.496 236.062 241.343 243.02 210.522 246.509L204.47 253.357C197.064 262.152 191.28 268.811 183.183 277.031C195.166 277.272 207.146 277.648 219.121 278.16Z" fill="#1B2349"/>
<path d="M158.87 0H100.846H72.0221H1.6701H0.00012207V2048H33.8301C34.8711 2019.74 37.9551 1990.38 38.8971 1961.87C39.1061 1955.52 40.8041 1918.11 41.7691 1914.31C41.8561 1899.19 43.3461 1881.33 44.2631 1866.08L48.9621 1788.11C48.9291 1775.08 50.7131 1755 51.4901 1741.63L57.1321 1644.51L56.9061 1641.05C58.1661 1636.76 59.9561 1593.62 60.2771 1587.14L67.0511 1450.48L67.2311 1445.02C68.3121 1435.95 68.6281 1420.01 69.1611 1410.39L73.0581 1339.66C76.6461 1271.94 80.5731 1204.24 84.8401 1136.56L100.577 889.267C103.611 842.683 108.683 788.676 108.954 742.523C115.048 733.283 119.838 725.733 123.305 715.231C123.975 711.799 126.677 705.892 128.167 702.523C131.014 700.651 149.2 646.903 151.52 639.192C151.224 638.111 150.986 635.931 150.819 634.724C150.039 635.148 149.073 635.671 147.923 636.295C146.21 636.072 143.573 635.498 141.812 635.566C138.212 635.706 131.755 637.609 128.432 637.111C124.97 636.592 122.792 632.831 119.585 634.891C115.156 637.737 114.002 640.661 108.214 638.987C105.576 638.224 102.108 633.707 100.633 632.372C100.413 632.173 90.7091 636.977 89.3601 636.961C84.3501 636.899 81.2911 633.416 76.0391 633.678L75.6921 631.792C77.0291 629.211 77.2871 628.675 77.9061 625.845C76.6981 622.294 79.3081 613.307 81.2381 610.174C81.2271 608.882 81.8371 608.277 82.5751 607.193C81.9401 601.748 86.3471 585.229 88.7601 580.231C88.4101 578.478 88.6381 578.069 89.0851 576.381C91.0721 572.102 95.1721 556.753 97.2531 550.581L98.0461 546.588C100.87 539.499 103.73 528.553 105.87 520.986C105.969 520.086 106.547 518.053 106.792 517.074C108.681 509.784 110.53 502.485 112.341 495.175C123.568 500.947 128.893 490.996 132.67 492.146C134.753 492.781 136.63 496.321 139.287 497.125C144.098 498.582 147.487 494.933 151.986 494.528C154.799 494.275 158.464 496.19 161.309 496.697C163.862 497.151 166.21 496.959 168.325 495.317C172.381 492.168 173.993 485.701 174.795 480.933L175.799 481.308L176.286 489.988L176.813 490.231L177.891 489.723C185.658 466.361 176.99 411.652 168.049 388.8C148.498 338.834 160.508 337.509 193.636 303.799C198.757 297.973 217.705 284.788 219.121 278.16C207.146 277.648 195.166 277.272 183.183 277.031C191.28 268.811 197.064 262.152 204.47 253.357C201.718 251.596 196.496 248.737 195.057 246.011L193.391 245.545C172.885 235.117 165.651 232.649 142.883 231.81C144.645 221.978 145.281 200.492 145.859 189.85C147.106 167.062 148.472 144.281 149.956 121.507C150.814 85.4761 154.813 37.3561 157.563 0.982126L158.87 0Z" fill="#1B2349"/>
<path d="M142.883 231.81C108.642 233.074 78.3051 235.337 63.0921 270.714L61.0311 279.31L60.6741 286.456C62.1691 312.373 64.5061 334.486 64.2031 360.693C63.9691 368.295 63.5421 370.751 61.5021 378.31C74.6021 377.694 89.5161 377.838 102.763 377.681C119.213 379.357 133.941 390.009 145.189 401.584C133.842 403.389 136.268 404.17 128.206 411.464C119.017 419.778 110.077 478.13 116.121 483.218C113.072 487.209 111.861 490.047 112.341 495.175C123.568 500.947 128.893 490.996 132.67 492.146C134.753 492.781 136.63 496.321 139.287 497.125C144.098 498.582 147.487 494.933 151.986 494.528C154.799 494.275 158.464 496.19 161.309 496.697C163.862 497.151 166.21 496.959 168.325 495.317C172.381 492.168 173.993 485.701 174.795 480.933L175.799 481.308L176.286 489.988L176.813 490.231L177.891 489.723C185.658 466.361 176.99 411.652 168.049 388.8C148.498 338.834 160.508 337.509 193.636 303.799C198.757 297.973 217.705 284.788 219.121 278.16C207.146 277.648 195.166 277.272 183.183 277.031C191.28 268.811 197.064 262.152 204.47 253.357C201.718 251.596 196.496 248.737 195.057 246.011L193.391 245.545C172.885 235.117 165.651 232.649 142.883 231.81Z" fill="#FEFEFE"/>
<path d="M142.883 231.81C108.642 233.074 78.3047 235.337 63.0917 270.714L61.0308 279.31L60.6738 286.456C62.1688 312.373 64.5058 334.486 64.2028 360.693C63.9688 368.295 63.5418 370.751 61.5018 378.31C74.6018 377.694 89.5158 377.838 102.763 377.681C100.655 374.733 97.1638 368.338 95.1948 364.983C84.7238 345.63 75.7708 321.638 84.8848 300.156C93.4188 281.947 100.902 273.312 121.868 275.346C124.05 279.964 123.886 286.557 126.869 290.755C141.728 311.666 171.204 289.493 183.183 277.031C191.28 268.811 197.064 262.152 204.47 253.357C201.718 251.596 196.496 248.737 195.057 246.011L193.391 245.545C172.885 235.117 165.651 232.649 142.883 231.81Z" fill="#C92E18"/>
<path d="M193.391 245.545L192.595 245.566C173.708 245.982 150.07 238.365 133.957 253.903C125.968 261.608 124.685 273.932 121.868 275.346C124.05 279.964 123.886 286.557 126.869 290.755C141.728 311.666 171.204 289.493 183.183 277.031C191.28 268.811 197.064 262.152 204.47 253.357C201.718 251.596 196.496 248.737 195.057 246.011L193.391 245.545Z" fill="#E9E6C4"/>
<path d="M161.198 257.401C157.22 255.614 152.589 256.113 149.082 258.705C145.576 261.297 143.742 265.579 144.283 269.906C144.825 274.232 147.659 277.93 151.696 279.577C157.79 282.064 164.752 279.208 167.345 273.158C169.937 267.109 167.202 260.097 161.198 257.401Z" fill="#1B2349"/>
<path d="M84.8848 300.156C75.7708 321.638 84.7238 345.63 95.1948 364.983C97.1638 368.338 100.655 374.733 102.763 377.681C119.213 379.357 133.941 390.009 145.189 401.584C133.842 403.389 136.268 404.17 128.206 411.464C119.017 419.778 110.077 478.13 116.121 483.218C113.072 487.209 111.861 490.047 112.341 495.175C123.568 500.947 128.893 490.996 132.67 492.146C134.753 492.781 136.63 496.321 139.287 497.125C144.098 498.582 147.487 494.933 151.986 494.528C154.799 494.275 158.464 496.19 161.309 496.697C163.862 497.151 166.21 496.959 168.325 495.317C172.381 492.168 173.993 485.701 174.795 480.933L175.799 481.308C174.054 459.989 170.041 427.384 158.668 408.924C156.065 404.701 147.248 402.662 146.305 400.114C140.262 383.79 139.385 360.802 128.918 346.894C124.844 341.482 117.358 336.513 111.752 332.755C98.0928 323.6 92.6328 314.243 84.8848 300.156Z" fill="#1B2349"/>
<path d="M174.795 480.933L173.392 479.499C167.626 482.543 168.487 495.777 158.53 492.922C155.621 490.766 154.7 487.113 153.392 483.639C150.517 489.337 147.727 497.933 140.181 494.256C137.553 490.688 136.937 488.939 135.226 484.804C130.134 484.981 128.662 493.53 123.658 495.569C118.17 493.84 117.652 488.357 116.121 483.218C113.072 487.209 111.861 490.047 112.341 495.175C123.568 500.947 128.893 490.996 132.67 492.146C134.753 492.781 136.63 496.321 139.287 497.125C144.098 498.582 147.487 494.933 151.986 494.528C154.799 494.275 158.464 496.19 161.309 496.697C163.862 497.151 166.21 496.959 168.325 495.317C172.381 492.168 173.993 485.701 174.795 480.933Z" fill="#FEFEFE"/>
<path d="M102.763 377.681C89.5159 377.838 74.602 377.694 61.502 378.31C60.591 380.251 57.1729 387.236 56.7109 389.067C45.2169 420.309 34.4949 449.175 26.6479 481.753C24.0579 492.507 20.3499 503.304 18.8699 514.299L19.5499 515.482L23.33 514.256C24.475 516.827 18.1399 552.886 17.4099 558.833L27.9569 551.306C27.0269 557.767 20.34 593.51 22.08 596.721C23.94 595.812 25.1429 595.047 27.1929 594.833C28.6089 599.288 24.0759 630.167 23.6699 638.262C27.4569 634.755 31.295 631.32 34.757 627.495C31.306 645.334 29.5319 660.195 27.9119 678.309L38.2659 667.266C37.8799 673.494 37.6639 679.967 37.1179 686.158C34.6769 713.812 36.5339 741.01 37.6299 768.73C49.4249 738.409 56.4939 709.466 63.4739 677.752C64.6659 672.336 66.0589 666.827 67.6979 661.53L69.9219 657.173C68.8949 654.329 73.1069 636.19 76.0389 633.678L75.692 631.792C77.029 629.211 77.2869 628.675 77.9059 625.845C76.6979 622.294 79.3079 613.307 81.2379 610.174C81.2269 608.882 81.837 608.277 82.575 607.193C81.94 601.748 86.3469 585.229 88.7599 580.231C88.4099 578.478 88.638 578.069 89.085 576.381C91.072 572.102 95.1719 556.753 97.2529 550.581L98.046 546.588C100.87 539.499 103.73 528.553 105.87 520.986C105.969 520.086 106.547 518.053 106.792 517.074C108.681 509.784 110.53 502.485 112.341 495.175C111.861 490.047 113.072 487.209 116.121 483.218C110.077 478.13 119.017 419.778 128.206 411.464C136.268 404.17 133.842 403.389 145.189 401.584C133.941 390.009 119.213 379.357 102.763 377.681Z" fill="#C4D1ED"/>
<path d="M96.4039 690.297C91.4259 700.466 89.5459 706.057 81.2849 713.795C79.0379 706.063 78.0099 701.914 76.7999 693.976C75.5009 701.68 71.7909 715.836 81.5679 719.07C89.2499 717.395 91.7809 709.242 94.5719 702.633C95.1939 708.458 94.6799 718.129 102.276 717.548C106.727 714.859 109.148 709.894 111.773 705.325C112.335 709.307 112.474 712.566 114.603 715.97C118.406 718.467 119.603 717.659 123.305 715.231C123.975 711.799 126.677 705.892 128.167 702.523L128.796 699.833L128.108 699.144C124.906 702.299 122.468 705.934 118.587 707.337C113.606 705.382 114.583 696.858 114.063 691.692C111.467 696.491 106.387 709.904 99.9729 706.339C97.1449 702.336 96.8359 695.252 96.4039 690.297Z" fill="#FEFEFE"/>
<path d="M60.6742 286.456C59.2632 295.584 58.8612 311.046 58.4062 320.809C57.2222 343.542 56.6562 366.303 56.7112 389.067C57.1732 387.236 60.5912 380.251 61.5022 378.31C63.5422 370.751 63.9692 368.295 64.2032 360.693C64.5062 334.486 62.1692 312.373 60.6742 286.456Z" fill="#192343"/>
<path d="M110.854 652.061C102.076 664.606 97.7688 665.399 91.2228 651.391C85.4988 661.861 80.2938 669.014 69.9218 657.173L67.6978 661.53C68.3668 662.179 69.0498 662.812 69.7478 663.431C79.5758 672.138 81.5798 664.869 91.4878 663.336C95.0808 665.628 97.0778 668.147 101.678 667.023C105.293 666.14 107.693 663.582 110.759 662.431C113.437 661.426 118.675 665.488 121.492 666.212C127.002 667.629 132.479 666.946 136.015 662.781C137.957 660.465 138.902 657.474 138.644 654.463C125.639 664.505 121.373 663.396 110.854 652.061Z" fill="#FEFEFE"/>
<path d="M158.87 0H100.846L101.03 0.739716C102.262 5.82128 103.723 21.5223 104.506 27.5886L112.836 94.4259C116.028 119.706 120.25 144.992 123.218 170.296C123.759 174.906 124.884 179.489 125.199 184.028L125.985 183.234C125.759 172.245 121.624 147.423 120.026 135.349C115.622 102.782 111.397 70.1901 107.352 37.576C106.539 31.0255 103.085 6.3396 103.836 1.71717C107.324 -0.534013 150.415 0.665878 157.563 0.982126L158.87 0Z" fill="#333949"/>
<path d="M72.0221 0H1.67007C6.66007 1.55484 22.9301 1.03858 28.9851 1.01574C28.9301 7.09288 28.7751 25.0421 30.6211 30.41C31.2461 20.3424 31.0341 11.1277 30.8651 1.07869L70.9691 1.04661C70.9851 16.3113 67.0651 38.1149 70.0161 53.2597L70.5351 52.8324C71.1101 35.0231 72.2651 17.8536 72.0221 0Z" fill="#333949"/>
<path d="M63.0919 270.714C60.3579 263.893 66.8239 205.525 64.7069 191.002C63.1869 193.858 60.8069 270.311 61.0309 279.31L63.0919 270.714Z" fill="#333949"/>
<path d="M55.4419 1194.54L54.1699 1195.15C53.2049 1230.96 49.9899 1268.31 47.8879 1304.16C44.0599 1370.89 39.7179 1437.6 34.8599 1504.27C32.5959 1533.36 30.7748 1562.2 28.9698 1591.31C27.0118 1622.89 23.6199 1656.81 24.0339 1688.42C25.4319 1685.91 30.3289 1591.04 31.0569 1579.63L55.4419 1194.54Z" fill="#333949"/>
<path d="M56.0758 866.501L54.4788 868.129C53.5768 878.38 54.8498 903.405 54.8618 915.738C55.3808 964.3 56.2918 1012.86 57.5938 1061.4L56.8618 1061.97L54.2998 1056.3L53.4858 1056.95C53.3358 1061.36 57.7128 1064.89 57.7728 1067.34C58.6468 1103.09 58.6858 1145.39 54.9648 1180.78C54.9088 1183.17 54.4158 1187.04 55.6878 1188.77C58.2228 1180.5 57.4688 1157.68 58.2458 1147.77C61.4928 1106.36 59.5398 1065.82 58.4928 1024.39C57.0488 971.769 56.2438 919.137 56.0758 866.501Z" fill="#333949"/>
<path d="M88.4942 737.969C84.5492 742 82.3232 750.541 74.2732 754.572C66.3792 754.545 69.9062 748.278 66.3532 745.802C65.1822 751.767 64.4062 759.568 68.9132 764.319C76.3422 766.893 79.3492 761.094 83.2172 755.558C84.3462 752.256 84.6392 751.327 86.4842 748.291C87.0412 752.664 87.3712 758.51 90.6432 761.553C99.6192 762.469 104.052 750.194 106.347 743.195C101.986 747.066 98.5132 751.736 92.6552 749.729C89.8552 746.777 89.3572 742.054 88.4942 737.969Z" fill="#FEFEFE"/>
<path d="M22.8602 774.599C21.6902 777.031 24.4082 797.153 24.5452 801.649C27.0262 882.862 26.6343 954.553 1.46028 1032.65C5.54028 1027.9 9.68027 1012.65 11.2603 1006.47C25.9703 948.762 28.2782 888.575 26.7202 829.298C26.2312 810.692 26.7612 792.9 22.8602 774.599Z" fill="#333949"/>
<path d="M31.4131 1031.3L30.2791 1030.88L29.334 1031.54C27.902 1041.71 27.641 1054.44 26.899 1065.03L22.11 1135.01L15.8301 1226.11C15.2701 1234.36 11.3101 1270.96 14.3901 1275.61L25.8431 1102.2C26.4451 1093.11 29.5461 1038.1 31.1151 1032.19L33.0391 1031.82L31.4131 1031.3Z" fill="#333949"/>
<path d="M82.0029 782.692C80.0429 783.579 67.7689 796.659 64.6949 799.612C64.8659 796.306 65.328 792.846 64.317 789.744C62.42 791.115 61.057 796.221 60.181 798.714C60.113 799.447 60.0599 800.181 60.0219 800.916C59.8439 804.605 60.232 805.633 62.403 808.007L65.0029 807.884C73.1759 803.471 78.4469 790.845 82.0029 782.692Z" fill="#FEFEFE"/>
<path d="M24.9581 1690.62C20.1701 1700.79 24.8531 1780.96 24.9861 1797.29L26.3481 1796.49C25.1991 1760.01 24.9401 1727.16 24.9581 1690.62Z" fill="#333949"/>
<path d="M57.3379 837.674C52.2639 843.267 47.9429 848.559 39.8429 843.201C38.6949 844.528 39.3019 847.963 39.3729 850.239C41.5979 853.208 41.9759 854.006 45.5429 855.137C53.9879 855.345 56.7959 844.35 57.3379 837.674Z" fill="#FEFEFE"/>
<path d="M27.9319 105.607C26.7759 107.91 24.1419 129.258 23.6699 133.623C21.1599 156.728 16.0399 177.339 8.92986 199.392L9.91985 199.085C17.5599 186.852 28.7679 120.775 27.9319 105.607Z" fill="#333949"/>
<path d="M12.0198 1302.54C9.53984 1306.61 6.71982 1365.23 6.18982 1374.51L7.92981 1374.5C9.21981 1355.42 12.3598 1320.43 12.0198 1302.54Z" fill="#333949"/>
<path d="M68.8901 772.616C64.6661 774.778 59.1451 783.091 53.4681 783.69C50.0701 781.194 53.4611 780.608 50.3401 777.169C49.5401 779.396 48.5611 784.267 47.9821 786.78C47.8051 788.977 48.0561 789.391 48.6971 791.551L50.6061 792.447C57.5331 790.568 65.1411 778.667 68.8901 772.616Z" fill="#FEFEFE"/>
<path d="M31.0068 47.5098C28.6698 51.069 28.2098 93.7933 27.5478 102.431L28.7618 101.819C30.4058 88.7242 30.9718 61.005 31.0068 47.5098Z" fill="#333949"/>
<path d="M30.7517 1840.58C28.0617 1847.62 35.1477 1875.4 37.1457 1883.49C39.0217 1878.17 32.0967 1848.88 30.7517 1840.58Z" fill="#333949"/>
<path d="M70.0658 73.4385L69.1348 74.1338C68.1108 87.3618 67.0218 95.8927 66.9338 109.491C70.5458 106.725 70.0558 79.0535 70.0658 73.4385Z" fill="#333949"/>
<path d="M16.45 734.64L15.14 736.106C15.74 744.838 19.27 762.339 20.95 771.214L21.49 771.117C22.6 768.489 17.3 739.759 16.45 734.64Z" fill="#333949"/>
<path d="M42.2778 366.567L41.4948 366.812C39.1888 371.072 35.8928 396.675 35.5108 402.576C38.4438 397.875 41.2988 373.439 42.2778 366.567Z" fill="#333949"/>
<path d="M36.5571 402.426C33.6441 406.357 31.9911 436.935 31.8361 443.463C33.8851 440.15 36.0631 408.659 36.5571 402.426Z" fill="#333949"/>
<path d="M126.9 184.52C124.276 189.396 128.592 205.186 129.095 212.519C131.335 209.13 127.712 189.32 126.9 184.52Z" fill="#333949"/>
<path d="M27.092 1800.56L25.873 1801.19C25.456 1807.66 26.529 1816.75 27.123 1823.45C29.131 1819.89 27.205 1806.06 27.092 1800.56Z" fill="#333949"/>
<path d="M65.9891 164.59C64.2541 167.817 64.0071 183.1 64.0071 187.484C67.1981 182.259 66.1171 170.917 65.9891 164.59Z" fill="#333949"/>
<path d="M130.966 213.522C128.849 217.219 131.559 225.744 132.561 230.284C133.657 225.344 131.913 218.65 130.966 213.522Z" fill="#333949"/>
<path d="M42.773 348.674C41.273 352.815 41.911 361.195 42.422 365.535C43.631 358.986 44.248 355.187 42.773 348.674Z" fill="#333949"/>
<path d="M44.9641 1040.01L44.6591 1041.26L50.9301 1050.82C52.0531 1046.33 47.9151 1042.73 44.9641 1040.01Z" fill="#333949"/>
<path d="M953.576 1612.24L951.58 1616.15C955.217 1670.91 958.249 1730.36 963.052 1784.74C963.567 1805.73 966.132 1833.3 968.208 1854.56C968.75 1852.1 968.496 1849.1 969.657 1847.17C970.787 1848.32 972.133 1850.72 973.046 1852.19L975.022 1851.86L976.615 1848.52C979.297 1848.51 985.058 1849.58 986.414 1849.18C985.78 1832.77 980.837 1800.59 978.67 1783.24C971.635 1726.05 963.268 1669.04 953.576 1612.24Z" fill="#E3E7F1"/>
<path d="M1006.55 1624.14L1004.48 1627.67C1007.74 1659.95 1009.11 1692.71 1011.07 1725.09C1011.61 1734.01 1012.32 1743.66 1012.23 1752.56C1014.18 1743.64 1020.09 1703.28 1024 1698.86V1698.23C1020.56 1694.5 1008.29 1633.42 1006.55 1624.14Z" fill="#566996"/>
<path d="M953.576 1612.24L951.45 1598.83L950.119 1598.5L951.281 1598.11L951.31 1598.13L950.151 1598.93C950.47 1603.05 950.949 1612.48 951.58 1616.15L953.576 1612.24Z" fill="#C4D1ED"/>
<path d="M1003.82 1606.5C1003.22 1611.99 1003.11 1622.46 1004.48 1627.67L1006.55 1624.14C1005.6 1618.35 1004.51 1612.31 1003.82 1606.5Z" fill="#333949"/>
<path d="M738.325 1803.83C724.216 1803.83 704.399 1806.23 689.771 1807.66C656.532 1810.92 623.358 1814.81 590.265 1819.31C489.331 1832.69 388.752 1848.63 288.624 1867.1C259.629 1872.42 230.713 1878.17 201.886 1884.34C194.403 1885.92 164.815 1892.86 159.021 1893.34L157.01 1894.17C134.3 1899.28 111.642 1904.61 89.037 1910.17C81.513 1912.05 47.256 1921.88 42.649 1921.65C42.278 1919.21 41.985 1916.77 41.769 1914.31C40.804 1918.11 39.106 1955.52 38.897 1961.87C37.955 1990.38 34.8711 2019.74 33.8301 2048H960.24C906.026 1961.78 848.344 1896.23 770.48 1830.65C760.483 1822.23 747.027 1815.97 737.07 1807.54C736.979 1805.51 737.163 1805.93 738.325 1803.83Z" fill="#A8B4D7"/>
<path d="M1024 1698.86C1020.09 1703.28 1014.18 1743.64 1012.23 1752.56C1010.56 1762.18 1008.99 1771.83 1007.52 1781.49L978.67 1783.24C980.837 1800.59 985.779 1832.77 986.413 1849.18C985.058 1849.58 979.297 1848.51 976.615 1848.52L975.021 1851.86L973.046 1852.19C972.133 1850.72 970.787 1848.32 969.657 1847.17C968.496 1849.1 968.75 1852.1 968.208 1854.56C966.132 1833.3 963.567 1805.73 963.052 1784.74C944.965 1785.85 926.85 1787.75 908.914 1788.78L896.787 1789.98C899.028 1793.54 901.304 1797.07 903.612 1800.59C895.588 1797.23 849.869 1724.55 837.311 1721.02L834.504 1724.7C831.764 1724.48 830.61 1724.22 827.936 1723.55L826.548 1724.58C826.657 1725.08 843 1749.17 844.927 1752.29C861.199 1778.68 877.955 1805.62 891.812 1833.35C893.15 1836.03 893.733 1838.91 895.03 1841.6C894.611 1839.89 867.526 1792.95 865.66 1790.93C859.531 1793.26 803.981 1798.2 796.075 1797.78C778.911 1800.19 753.914 1800.8 738.325 1803.83C737.163 1805.93 736.979 1805.51 737.07 1807.54C747.027 1815.97 760.483 1822.23 770.48 1830.65C848.344 1896.23 906.026 1961.78 960.24 2048H1024V1698.86Z" fill="url(#paint0_linear_38_398)"/>
<path d="M963.052 1784.74C944.965 1785.85 926.85 1787.75 908.914 1788.78L896.787 1789.98C899.028 1793.54 901.304 1797.07 903.612 1800.59C907.156 1804.45 910.345 1810 913.048 1814.48C934.792 1850.53 951.517 1888.3 964.812 1928.19C966.925 1934.53 977.397 1973.52 978.755 1974.89C976.899 1965.86 967.264 1861.15 968.208 1854.56C966.132 1833.3 963.567 1805.73 963.052 1784.74Z" fill="#A8B4D7"/>
<path d="M1007.52 1781.49L978.67 1783.24C980.837 1800.59 985.78 1832.77 986.414 1849.18C987.644 1853.67 988.914 1868.29 989.407 1873.33C990.942 1890.55 992.566 1907.76 994.279 1924.97C995.168 1923.24 996.346 1919.6 997.057 1917.62C997.359 1868.67 1000.9 1829.96 1007.52 1781.49Z" fill="#A8B4D7"/>
<path d="M997.057 1917.62C996.346 1919.6 995.168 1923.24 994.279 1924.97C994.168 1927.99 994.995 1941.08 996.505 1943.29C997.541 1935.77 997.139 1925.44 997.057 1917.62Z" fill="#C4D1ED"/>
<path d="M991.006 1960.54C986.276 1960.28 982.436 1959.04 980.494 1963.72C981.203 1966.42 981.305 1967.31 983.12 1969.52L983.811 1970.7C986.061 1971.92 986.394 1971.9 988.957 1971.67C991.966 1969.59 990.943 1970.68 992.694 1967.18C992.656 1964.18 992.87 1962.99 991.006 1960.54Z" fill="#E3E7F1"/>
<path d="M981.453 1856.38C977.305 1856.38 978.71 1855.81 975.923 1858.17C975.859 1861.68 975.544 1860.27 977.701 1863.63C981.856 1863.38 980.282 1863.97 983.62 1861.38L983.8 1858.81L981.453 1856.38Z" fill="#E3E7F1"/>
<path d="M986.644 1873.25L984.474 1875.1C983.299 1878.16 983.311 1876.83 984.616 1880.11L985.611 1880.56C987.152 1879.02 986.588 1876.08 986.644 1873.25Z" fill="#E3E7F1"/>
<path d="M159.41 1765.13C157.339 1804.78 159.607 1852.67 159.021 1893.34C164.815 1892.86 194.403 1885.92 201.886 1884.34C230.713 1878.17 259.629 1872.42 288.624 1867.1C388.752 1848.63 489.331 1832.69 590.265 1819.31C623.358 1814.81 656.532 1810.92 689.771 1807.66C704.399 1806.23 724.216 1803.83 738.325 1803.83C753.914 1800.8 778.911 1800.19 796.075 1797.78C785.304 1795.92 765.426 1795.03 753.763 1794.17L677.039 1788.64C546.185 1778.25 414.838 1775.49 283.662 1780.36C244.135 1781.93 198.283 1789.88 159.569 1790.32C159.704 1781.92 159.651 1773.53 159.41 1765.13Z" fill="#E3E7F1"/>
<path d="M154.76 1754.58C154.097 1765.87 154.281 1779.44 154.53 1790.88C116.084 1793.3 86.6867 1789.56 48.9617 1788.11L44.2628 1866.08C43.3458 1881.33 41.8557 1899.19 41.7687 1914.31C41.9847 1916.77 42.2777 1919.21 42.6487 1921.65C47.2557 1921.88 81.5127 1912.05 89.0367 1910.17C111.642 1904.61 134.3 1899.28 157.01 1894.17L155.711 1893.21C153.329 1888.34 155.453 1770.9 154.76 1754.58Z" fill="#E3E7F1"/>
<path d="M175.799 481.308L174.795 480.933C173.993 485.701 172.381 492.168 168.325 495.317C166.21 496.959 163.862 497.151 161.309 496.697C158.464 496.19 154.799 494.275 151.986 494.528C147.487 494.933 144.098 498.582 139.287 497.125C136.63 496.321 134.753 492.781 132.67 492.146C128.893 490.996 123.568 500.947 112.341 495.175C110.53 502.485 108.681 509.784 106.792 517.074C106.547 518.053 105.969 520.086 105.87 520.986C103.73 528.553 100.87 539.499 98.0459 546.588L97.2528 550.581C95.1718 556.753 91.0719 572.102 89.0849 576.381C88.6379 578.069 88.4098 578.478 88.7598 580.231C86.3468 585.229 81.9399 601.748 82.5749 607.193C81.8369 608.277 81.2268 608.882 81.2378 610.174C79.3078 613.307 76.6978 622.294 77.9058 625.845C77.2868 628.675 77.0289 629.211 75.6919 631.792L76.0388 633.678C81.2908 633.416 84.3498 636.899 89.3598 636.961C90.7088 636.977 100.413 632.173 100.633 632.372C102.108 633.707 105.576 638.224 108.214 638.987C114.002 640.661 115.156 637.737 119.585 634.891C122.792 632.831 124.97 636.592 128.432 637.111C131.755 637.609 138.212 635.706 141.812 635.566C143.573 635.498 146.21 636.072 147.923 636.295C149.073 635.671 150.039 635.148 150.819 634.724C150.986 635.931 151.224 638.111 151.52 639.192C158.576 620.422 174.87 562.325 175.808 543.045L176.203 537.237C178.011 534.488 176.959 518.505 176.809 514.059C177.484 511.143 176.938 509.591 176.38 506.659C177.573 504.029 176.514 493.35 176.286 489.988L175.799 481.308Z" fill="#1B2349"/>
<path d="M175.799 481.308L174.795 480.933C173.993 485.701 172.381 492.168 168.325 495.317C166.21 496.959 163.862 497.151 161.309 496.697C158.464 496.19 154.799 494.275 151.986 494.528C147.487 494.933 144.098 498.582 139.287 497.125C136.63 496.321 134.753 492.781 132.67 492.146C128.893 490.996 123.568 500.947 112.341 495.175C110.53 502.485 108.681 509.784 106.792 517.074C106.547 518.053 105.969 520.086 105.87 520.986C103.73 528.553 100.87 539.499 98.0459 546.588L97.2528 550.581C99.9198 552.122 102.016 553.643 105.113 553.723C107.482 552.33 107.69 552.173 110.267 551.346C113.04 550.456 113.189 551.377 116.033 553.156C123.884 558.067 125.788 552.207 132.93 551.699C133.655 551.647 141.863 555.325 144.368 554.406C147.822 553.139 149.224 551.113 152.39 549.939C153.613 549.485 156.253 551.679 157.767 552.484C160.295 553.828 161.837 554.89 164.992 553.954C170.986 552.176 172.982 548.131 175.808 543.045L176.203 537.237C178.011 534.488 176.959 518.505 176.809 514.059C177.484 511.143 176.938 509.591 176.38 506.659C177.573 504.029 176.514 493.35 176.286 489.988L175.799 481.308Z" fill="#1B2349"/>
<path d="M175.799 481.308L174.795 480.933C173.993 485.701 172.381 492.168 168.325 495.317C166.21 496.959 163.862 497.151 161.309 496.697C158.464 496.19 154.799 494.275 151.986 494.528C147.487 494.933 144.098 498.582 139.287 497.125C136.63 496.321 134.753 492.781 132.67 492.146C128.893 490.996 123.568 500.947 112.341 495.175C110.53 502.485 108.681 509.784 106.792 517.074C106.547 518.053 105.969 520.086 105.87 520.986C116.194 525.202 113.85 522.629 124.127 520.897C126.004 520.581 135.024 525.92 139.278 524.796C142.849 523.851 145.11 520.934 148.319 520.297C160.676 525.74 168.056 528.114 176.809 514.059C177.484 511.143 176.938 509.591 176.38 506.659C177.573 504.029 176.514 493.35 176.286 489.988L175.799 481.308Z" fill="#1B2349"/>
<path d="M176.38 506.659C167.02 510.737 158.038 536.574 148.078 507.189C140.444 523.578 131.994 527.906 125.03 507.472C120.122 515.961 117.975 522.362 106.792 517.074C106.547 518.053 105.969 520.086 105.87 520.986C116.194 525.202 113.85 522.629 124.127 520.897C126.004 520.581 135.024 525.92 139.278 524.796C142.849 523.851 145.11 520.934 148.319 520.297C160.676 525.74 168.056 528.114 176.809 514.059C177.484 511.143 176.938 509.591 176.38 506.659Z" fill="#FEFEFE"/>
<path d="M176.203 537.237C170.488 540.584 170.42 547.962 162.441 549.875C156.697 548.419 155.561 542.649 153.395 537.75C150.065 543.745 147.843 550.852 139.93 549.074C135.267 545.597 134.306 541.972 131.994 536.525C129.501 542.745 127.51 551.224 119.389 549.45C114.896 546.007 114.155 541.725 112.359 536.286C110.982 540.11 109.266 546.501 106.354 548.903C102.219 549.943 101.678 549.222 98.0461 546.588L97.2531 550.581C99.9201 552.122 102.016 553.643 105.113 553.723C107.482 552.33 107.69 552.173 110.267 551.346C113.04 550.456 113.189 551.377 116.033 553.156C123.884 558.067 125.788 552.207 132.93 551.699C133.655 551.647 141.863 555.325 144.368 554.406C147.822 553.139 149.224 551.113 152.39 549.939C153.613 549.485 156.253 551.679 157.767 552.484C160.295 553.828 161.837 554.89 164.992 553.954C170.986 552.176 172.982 548.131 175.808 543.045L176.203 537.237Z" fill="#FEFEFE"/>
<path d="M105.822 565.336C103.476 570.083 101.381 575.859 96.7648 578.226C92.1048 578.555 93.5968 578.563 89.0848 576.381C88.6378 578.069 88.4098 578.478 88.7598 580.231C91.9078 581.158 96.8738 583.082 99.6188 580.684C109.364 572.318 111.359 590.185 122.711 579.581C124.902 577.534 136.338 586.74 143.031 579.72C146.677 575.897 157.398 587.288 162.922 582.193C166.976 578.454 168.823 573.854 169.886 569.074L168.714 567.464C162.459 569.371 161.965 579.873 152.667 578.169C147.829 574.607 147.391 571.266 145.466 565.636C137.61 580.134 129.709 584.813 124.735 565.087C122.181 570.882 120.257 579.22 112.782 576.736C109.379 573.925 107.723 569.396 105.822 565.336Z" fill="#FEFEFE"/>
<path d="M111.646 596.05C102.726 613.182 98.2028 609.189 90.4308 594.651C88.1178 601.15 88.0257 603.944 82.5747 607.193C81.8367 608.277 81.2267 608.882 81.2377 610.174C90.0537 611.517 86.8627 607.475 92.3377 607.26C92.4247 607.257 100.232 613.763 104.001 612.003C104.976 611.547 112.183 607.452 112.276 607.504C113.045 607.927 118.757 612.878 120.833 612.515C121.098 612.521 121.364 612.526 121.629 612.531C125.301 613.524 132.087 608.232 134.52 609.032C138.085 610.205 142.492 613.831 146.991 613.481C149.974 613.249 153.151 611.702 154.952 609.19C156.981 606.361 157.31 604.015 156.755 600.692C150.967 600.22 143.494 622.248 133.46 595.492C125.256 611.426 120.331 612.084 111.646 596.05Z" fill="#FEFEFE"/>
<path d="M100.14 622.761C98.2149 625.338 94.2759 630.505 91.1189 630.979C83.8599 632.069 83.7109 627.472 79.5389 624.397L77.9059 625.845C77.2869 628.675 77.0289 629.211 75.6919 631.792L76.0389 633.678C81.2909 633.416 84.3499 636.899 89.3599 636.961C90.7089 636.977 100.413 632.173 100.633 632.372C102.108 633.707 105.576 638.224 108.214 638.987C114.002 640.661 115.156 637.737 119.585 634.891C122.792 632.831 124.97 636.592 128.432 637.111C131.755 637.609 138.212 635.706 141.812 635.566C143.573 635.498 146.21 636.072 147.923 636.295C149.073 635.671 150.039 635.148 150.819 634.724C147.062 630.609 145.523 627.567 140.681 626.478C133.079 627.906 132.067 642.868 121.613 624.051C112.115 638.55 108.531 636.486 100.14 622.761Z" fill="#FEFEFE"/>
<path d="M159.166 1484.65C159.353 1461.86 159.544 1439.05 159.728 1416.26C159.76 1412.27 160.525 1409.33 156.176 1407.88C153.697 1411.03 154.685 1443.3 154.73 1449.57C148.023 1448.55 123.028 1441.73 118.815 1445.33L119.804 1447.08C128.842 1449.64 145.623 1453.13 154.812 1454.55L154.669 1522.02C139.127 1506.96 118.944 1490.75 102.689 1475.93C94.9318 1468.86 74.8968 1450.41 67.2308 1445.02L67.0508 1450.48C81.6778 1462.72 96.7718 1476.78 111.148 1489.48C125.29 1501.98 141.604 1515.72 154.746 1528.98C154.64 1549.34 153.975 1573.22 154.761 1593.26C146.984 1585.3 99.3617 1536.35 93.8757 1534.34L91.9957 1534.71C92.5067 1539.02 147.789 1592.32 154.903 1599.76C154.853 1646.77 153.992 1696.2 154.716 1742.99C128.869 1717.56 97.5977 1684.79 74.2087 1657.32C77.4177 1651.24 90.4207 1628.81 89.3457 1624.12C87.2567 1624.66 85.4077 1625.22 84.2347 1627.45C79.7027 1636.04 75.2767 1644.95 70.7297 1653.51C67.5067 1649.47 63.1448 1643.56 59.3008 1640.38C57.4628 1640.52 58.0887 1640.13 56.9057 1641.05L57.1318 1644.51C80.0558 1671.8 104.039 1698.18 129.026 1723.59C135.731 1730.45 147.713 1741.94 154.38 1749.52C154.476 1749.63 154.775 1754.03 154.76 1754.58C155.453 1770.9 153.329 1888.34 155.711 1893.21L157.01 1894.17L159.021 1893.34C159.607 1852.67 157.339 1804.78 159.41 1765.13C167.996 1758.1 244.398 1692.87 247.991 1687.07L247.482 1685.97C240.757 1686.92 222.262 1704.42 215.843 1709.88C196.839 1726.01 178.036 1742.37 159.438 1758.96C159.878 1729.61 159.406 1698.94 159.571 1669.41C186.932 1643.65 233.974 1601 262.201 1573.58C262.996 1572.8 262.263 1571.63 261.866 1570.66L260.154 1570.35C253.55 1575.04 235.811 1592.3 228.664 1598.89C205.442 1620.16 182.4 1641.62 159.54 1663.28C160.114 1606.18 159.011 1548.32 159.357 1490.97C167.77 1482.56 231.309 1426.41 232.358 1422.97C232.844 1421.37 232.589 1421.25 231.84 1419.78C228.422 1419.72 166.193 1477.63 159.166 1484.65Z" fill="#00A395"/>
<path d="M760.247 1638.08L757.634 1639.46C796.013 1682.28 836.627 1741.4 865.66 1790.93C867.526 1792.95 894.611 1839.89 895.03 1841.6C893.733 1838.91 893.15 1836.03 891.812 1833.35C877.955 1805.62 861.199 1778.68 844.927 1752.29C843 1749.17 826.657 1725.08 826.548 1724.58L827.936 1723.55C830.61 1724.22 831.764 1724.48 834.504 1724.7L837.311 1721.02C849.869 1724.55 895.588 1797.23 903.612 1800.59C901.304 1797.07 899.028 1793.54 896.787 1789.98C894.185 1785.18 881.392 1768.63 877.682 1763.64C842.621 1716.49 802.741 1678.15 760.247 1638.08Z" fill="#E3E7F1"/>
<path d="M747.474 1627.69C750.548 1631.38 754.288 1636.15 757.634 1639.46L760.247 1638.08C755.535 1633.8 752.629 1631.41 747.474 1627.69Z" fill="#E9E6C4"/>
<path d="M863.978 634.227C868.206 641.176 863.289 716.154 866.485 728.086C867.482 698.727 866.033 666.229 866.67 636.499C866.909 625.352 867.887 578.332 865.92 569.683C864.289 582.248 866.474 598.258 863.936 609.485C863.414 617.757 863.756 625.949 863.978 634.227Z" fill="#FDDE44"/>
<path d="M119.996 1213.63C118.286 1217.24 119.2 1255.82 119.5 1262C121.948 1258.51 121.232 1218.89 119.996 1213.63Z" fill="#FDDE44"/>
<path d="M172.376 1197.49C166.213 1197.02 130.584 1196.78 125.965 1198.49C133.224 1199.15 164.42 1199.54 171.525 1198.68L172.376 1197.49Z" fill="#FDDE44"/>
<path d="M286.475 1118.51C283.845 1122.64 284.653 1147.32 286.294 1152.46C288.929 1146.94 286.584 1126.17 286.475 1118.51Z" fill="#FDDE44"/>
<path d="M256.936 1181.28L255.083 1182.84C254.471 1190.03 254.896 1199.99 255.013 1207.42C258.196 1203.72 256.995 1187.29 256.936 1181.28Z" fill="#FDDE44"/>
<path d="M295.07 607H279.674V486.508H301.262L374.478 569.263V486.508H389.791V607H368.202L295.07 524.329V607ZM503.589 607H417.069V486.508H503.589V501.904H450.288V539.14H491.456V554.452H450.288V591.604H503.589V607ZM586.594 607H556.22L511.203 486.508H545.091L578.478 583.487L608.685 486.508H629.269L586.594 607ZM730.348 607H643.828V486.508H730.348V501.904H677.047V539.14H718.215V554.452H677.047V591.604H730.348V607ZM784.151 607H750.932V486.508H810.174C815.752 486.508 821.136 487.177 826.323 488.516C831.511 489.799 836.086 491.863 840.046 494.708C844.063 497.497 847.242 501.123 849.585 505.586C851.984 510.048 853.183 515.459 853.183 521.819C853.183 526.783 852.123 531.469 850.003 535.876C847.94 540.227 845.15 544.132 841.636 547.591C838.177 550.993 834.189 553.838 829.67 556.126C825.152 558.357 820.466 559.835 815.613 560.56C817.789 564.242 820.048 567.728 822.391 571.02C824.789 574.311 827.188 577.407 829.587 580.308C832.041 583.153 834.468 585.802 836.867 588.257C839.265 590.655 841.552 592.859 843.728 594.867C848.86 599.553 853.936 603.597 858.957 607H817.538C814.191 603.82 811.011 599.999 807.999 595.537C805.433 591.743 802.839 587.057 800.217 581.479C797.651 575.845 795.67 569.346 794.276 561.983H784.151V607ZM819.462 521.819C819.462 513.73 817.482 507.789 813.521 503.996C809.616 500.203 803.731 498.306 795.866 498.306H784.151V550.603H795.866C800.049 550.603 803.62 549.822 806.576 548.26C809.588 546.642 812.043 544.523 813.94 541.901C815.836 539.223 817.231 536.155 818.123 532.697C819.016 529.238 819.462 525.612 819.462 521.819ZM430.708 764.183C430.708 769.371 430.038 773.945 428.699 777.906C427.416 781.866 425.576 785.297 423.177 788.198C420.834 791.098 418.045 793.525 414.809 795.477C411.574 797.43 408.032 798.992 404.183 800.163C400.389 801.335 396.345 802.171 392.05 802.674C387.81 803.176 383.487 803.427 379.08 803.427C373.279 803.427 367.923 802.98 363.014 802.088C358.106 801.251 353.476 799.912 349.124 798.071C344.829 796.175 340.673 793.748 336.657 790.792C332.696 787.835 328.736 784.237 324.775 779.998L341.845 762.677C343.407 766.526 345.554 770.096 348.288 773.387C351.021 776.623 354.005 779.412 357.241 781.755C360.532 784.098 363.935 785.938 367.449 787.277C370.964 788.616 374.283 789.285 377.407 789.285C381.088 789.285 384.547 789.034 387.782 788.532C391.018 787.975 393.835 787.082 396.234 785.855C398.632 784.628 400.501 783.01 401.84 781.002C403.234 778.938 403.932 776.372 403.932 773.304C403.932 770.961 403.402 768.952 402.342 767.279C401.282 765.605 399.887 764.183 398.158 763.012C396.485 761.784 394.56 760.752 392.384 759.916C390.209 759.079 387.978 758.381 385.69 757.824C383.459 757.21 381.256 756.68 379.08 756.234C376.905 755.732 374.98 755.23 373.307 754.728C370.015 753.779 366.585 752.775 363.014 751.715C359.444 750.6 355.93 749.345 352.471 747.95C349.013 746.555 345.722 744.966 342.598 743.181C339.53 741.34 336.824 739.192 334.481 736.738C332.138 734.227 330.27 731.354 328.875 728.119C327.48 724.828 326.783 721.062 326.783 716.823C326.783 711.747 327.397 707.256 328.624 703.351C329.907 699.391 331.692 695.96 333.979 693.059C336.266 690.158 338.972 687.732 342.096 685.779C345.22 683.771 348.65 682.181 352.388 681.01C356.125 679.783 360.086 678.918 364.27 678.416C368.509 677.858 372.832 677.579 377.239 677.579C383.264 677.579 388.731 678.137 393.64 679.253C398.604 680.368 403.179 681.958 407.362 684.022C411.546 686.086 415.367 688.569 418.826 691.469C422.34 694.314 425.631 697.494 428.699 701.008L411.63 718.329C410.291 714.313 408.422 710.687 406.023 707.451C403.681 704.216 401.059 701.455 398.158 699.167C395.257 696.825 392.217 695.039 389.037 693.812C385.858 692.529 382.79 691.888 379.833 691.888C375.984 691.888 372.442 692.167 369.206 692.724C365.971 693.226 363.182 694.091 360.839 695.318C358.552 696.49 356.767 698.108 355.484 700.172C354.201 702.18 353.559 704.69 353.559 707.702C353.559 710.101 354.033 712.137 354.982 713.811C355.93 715.484 357.185 716.907 358.747 718.078C360.365 719.249 362.178 720.226 364.186 721.007C366.194 721.732 368.258 722.373 370.378 722.931C372.553 723.489 374.673 723.991 376.737 724.437C378.857 724.828 380.782 725.274 382.511 725.776C385.858 726.724 389.372 727.729 393.054 728.788C396.736 729.848 400.361 731.103 403.932 732.554C407.502 733.948 410.905 735.566 414.14 737.407C417.375 739.248 420.22 741.451 422.675 744.017C425.129 746.528 427.082 749.456 428.532 752.803C429.982 756.094 430.708 759.888 430.708 764.183ZM506.183 801H472.964V695.904H440.163V680.508H538.983V695.904H506.183V801ZM676.294 740.587C676.294 750.293 674.621 759.051 671.274 766.861C667.927 774.614 663.296 781.197 657.383 786.608C651.47 792.019 644.47 796.175 636.381 799.075C628.292 801.976 619.534 803.427 610.107 803.427C600.68 803.427 591.922 801.976 583.833 799.075C575.744 796.175 568.744 792.019 562.831 786.608C556.918 781.197 552.288 774.614 548.941 766.861C545.594 759.051 543.92 750.293 543.92 740.587C543.92 730.713 545.566 721.899 548.857 714.145C552.204 706.336 556.806 699.753 562.663 694.398C568.576 688.987 575.577 684.859 583.666 682.014C591.754 679.113 600.568 677.663 610.107 677.663C619.646 677.663 628.46 679.113 636.548 682.014C644.637 684.859 651.61 688.987 657.467 694.398C663.38 699.753 667.982 706.336 671.274 714.145C674.621 721.899 676.294 730.713 676.294 740.587ZM642.489 740.587C642.489 736.905 642.322 733.14 641.987 729.29C641.653 725.441 641.039 721.704 640.146 718.078C639.254 714.452 638.027 711.049 636.465 707.87C634.959 704.69 633.006 701.929 630.607 699.586C628.209 697.187 625.308 695.318 621.905 693.98C618.558 692.585 614.625 691.888 610.107 691.888C605.533 691.888 601.544 692.585 598.141 693.98C594.739 695.318 591.838 697.159 589.439 699.502C587.041 701.845 585.088 704.606 583.582 707.786C582.076 710.966 580.877 714.368 579.984 717.994C579.147 721.564 578.562 725.302 578.227 729.207C577.892 733.056 577.725 736.849 577.725 740.587C577.725 744.268 577.892 748.034 578.227 751.883C578.562 755.732 579.175 759.469 580.068 763.095C580.96 766.665 582.16 770.04 583.666 773.22C585.228 776.4 587.208 779.189 589.607 781.587C592.005 783.93 594.878 785.799 598.225 787.194C601.628 788.588 605.589 789.285 610.107 789.285C614.514 789.285 618.363 788.588 621.654 787.194C624.945 785.743 627.79 783.819 630.189 781.42C632.588 778.966 634.568 776.148 636.13 772.969C637.748 769.733 639.003 766.331 639.895 762.76C640.844 759.135 641.513 755.425 641.904 751.632C642.294 747.838 642.489 744.157 642.489 740.587ZM730.181 801H696.962V680.508H762.061C767.695 680.508 773.078 681.261 778.21 682.767C783.398 684.273 787.972 686.56 791.933 689.628C795.894 692.641 799.045 696.462 801.388 701.092C803.787 705.666 804.986 711.049 804.986 717.241C804.986 721.146 804.428 724.828 803.313 728.286C802.197 731.689 800.635 734.813 798.627 737.658C796.675 740.503 794.36 743.069 791.682 745.356C789.004 747.643 786.076 749.568 782.896 751.13C779.716 752.692 776.342 753.891 772.771 754.728C769.257 755.564 765.687 755.983 762.061 755.983H730.181V801ZM771.349 717.241C771.349 709.487 769.369 703.407 765.408 699C761.503 694.537 755.59 692.306 747.669 692.306H730.181V744.603H747.669C751.908 744.603 755.506 743.934 758.463 742.595C761.475 741.2 763.93 739.276 765.826 736.821C767.723 734.367 769.118 731.494 770.01 728.203C770.903 724.856 771.349 721.202 771.349 717.241ZM241.769 995H155.249V874.508H188.468V979.687H241.769V995ZM377.239 934.587C377.239 944.293 375.566 953.051 372.219 960.861C368.872 968.614 364.242 975.197 358.329 980.608C352.416 986.019 345.415 990.175 337.326 993.075C329.238 995.976 320.48 997.427 311.052 997.427C301.625 997.427 292.867 995.976 284.778 993.075C276.69 990.175 269.689 986.019 263.776 980.608C257.863 975.197 253.233 968.614 249.886 960.861C246.539 953.051 244.865 944.293 244.865 934.587C244.865 924.713 246.511 915.899 249.802 908.145C253.149 900.336 257.751 893.753 263.609 888.398C269.522 882.987 276.522 878.859 284.611 876.014C292.7 873.113 301.513 871.663 311.052 871.663C320.591 871.663 329.405 873.113 337.494 876.014C345.582 878.859 352.555 882.987 358.412 888.398C364.325 893.753 368.928 900.336 372.219 908.145C375.566 915.899 377.239 924.713 377.239 934.587ZM343.435 934.587C343.435 930.905 343.267 927.14 342.932 923.29C342.598 919.441 341.984 915.704 341.092 912.078C340.199 908.452 338.972 905.049 337.41 901.87C335.904 898.69 333.951 895.929 331.553 893.586C329.154 891.187 326.253 889.318 322.85 887.98C319.503 886.585 315.571 885.888 311.052 885.888C306.478 885.888 302.49 886.585 299.087 887.98C295.684 889.318 292.783 891.159 290.385 893.502C287.986 895.845 286.033 898.606 284.527 901.786C283.021 904.966 281.822 908.368 280.929 911.994C280.092 915.564 279.507 919.302 279.172 923.207C278.837 927.056 278.67 930.849 278.67 934.587C278.67 938.268 278.837 942.034 279.172 945.883C279.507 949.732 280.12 953.469 281.013 957.095C281.905 960.665 283.105 964.04 284.611 967.22C286.173 970.4 288.153 973.189 290.552 975.587C292.951 977.93 295.823 979.799 299.17 981.194C302.573 982.588 306.534 983.285 311.052 983.285C315.459 983.285 319.308 982.588 322.599 981.194C325.891 979.743 328.736 977.819 331.134 975.42C333.533 972.966 335.513 970.148 337.075 966.969C338.693 963.733 339.948 960.331 340.841 956.76C341.789 953.135 342.458 949.425 342.849 945.632C343.239 941.838 343.435 938.157 343.435 934.587ZM523.671 934.587C523.671 944.293 521.997 953.051 518.65 960.861C515.303 968.614 510.673 975.197 504.76 980.608C498.847 986.019 491.846 990.175 483.758 993.075C475.669 995.976 466.911 997.427 457.484 997.427C448.056 997.427 439.298 995.976 431.21 993.075C423.121 990.175 416.12 986.019 410.207 980.608C404.294 975.197 399.664 968.614 396.317 960.861C392.97 953.051 391.297 944.293 391.297 934.587C391.297 924.713 392.942 915.899 396.234 908.145C399.581 900.336 404.183 893.753 410.04 888.398C415.953 882.987 422.954 878.859 431.042 876.014C439.131 873.113 447.945 871.663 457.484 871.663C467.023 871.663 475.836 873.113 483.925 876.014C492.014 878.859 498.987 882.987 504.844 888.398C510.757 893.753 515.359 900.336 518.65 908.145C521.997 915.899 523.671 924.713 523.671 934.587ZM489.866 934.587C489.866 930.905 489.699 927.14 489.364 923.29C489.029 919.441 488.416 915.704 487.523 912.078C486.63 908.452 485.403 905.049 483.841 901.87C482.335 898.69 480.383 895.929 477.984 893.586C475.585 891.187 472.685 889.318 469.282 887.98C465.935 886.585 462.002 885.888 457.484 885.888C452.909 885.888 448.921 886.585 445.518 887.98C442.115 889.318 439.215 891.159 436.816 893.502C434.417 895.845 432.465 898.606 430.959 901.786C429.453 904.966 428.253 908.368 427.361 911.994C426.524 915.564 425.938 919.302 425.603 923.207C425.269 927.056 425.101 930.849 425.101 934.587C425.101 938.268 425.269 942.034 425.603 945.883C425.938 949.732 426.552 953.469 427.444 957.095C428.337 960.665 429.536 964.04 431.042 967.22C432.604 970.4 434.585 973.189 436.983 975.587C439.382 977.93 442.255 979.799 445.602 981.194C449.005 982.588 452.965 983.285 457.484 983.285C461.891 983.285 465.74 982.588 469.031 981.194C472.322 979.743 475.167 977.819 477.566 975.42C479.964 972.966 481.945 970.148 483.507 966.969C485.124 963.733 486.379 960.331 487.272 956.76C488.22 953.135 488.89 949.425 489.28 945.632C489.671 941.838 489.866 938.157 489.866 934.587ZM577.557 995H544.338V874.508H577.557V931.909C587.822 924.044 597.388 915.313 606.258 905.719C615.183 896.124 622.854 885.692 629.269 874.424H651.945C646.032 884.521 639.254 893.948 631.612 902.706C623.969 911.464 615.657 919.581 606.676 927.056L654.79 995H620.148L583.917 943.791C582.857 944.516 581.797 945.213 580.737 945.883C579.733 946.552 578.673 947.222 577.557 947.891V995ZM701.397 995H668.178V874.508H701.397V995ZM744.155 995H728.758V874.508H750.346L823.562 957.263V874.508H838.875V995H817.287L744.155 912.329V995ZM975.6 904.38L961.291 910.404C960.176 906.779 958.67 903.459 956.773 900.447C954.932 897.435 952.701 894.869 950.079 892.749C947.513 890.573 944.584 888.9 941.293 887.729C938.002 886.501 934.404 885.888 930.499 885.888C926.315 885.888 922.466 886.585 918.952 887.98C915.493 889.374 912.369 891.271 909.58 893.669C906.847 896.012 904.448 898.774 902.384 901.953C900.32 905.133 898.591 908.536 897.196 912.162C895.857 915.732 894.825 919.441 894.1 923.29C893.431 927.14 893.096 930.905 893.096 934.587C893.096 940.444 893.766 946.273 895.104 952.075C896.499 957.876 898.674 963.092 901.631 967.722C904.643 972.352 908.52 976.117 913.262 979.018C918.003 981.863 923.749 983.285 930.499 983.285C934.181 983.285 937.053 982.477 939.117 980.859C941.181 979.185 942.213 976.285 942.213 972.157V935.172H975.432V995H965.81L959.953 985.545C954.597 989.617 948.684 992.629 942.213 994.582C935.798 996.478 929.244 997.427 922.55 997.427C916.637 997.427 910.947 996.701 905.48 995.251C900.069 993.801 895.021 991.737 890.335 989.059C885.649 986.381 881.382 983.146 877.533 979.353C873.739 975.559 870.476 971.348 867.743 966.718C865.065 962.088 862.973 957.067 861.467 951.656C860.017 946.19 859.291 940.5 859.291 934.587C859.291 928.674 860.017 923.012 861.467 917.601C862.973 912.134 865.065 907.085 867.743 902.455C870.476 897.77 873.739 893.53 877.533 889.737C881.382 885.943 885.649 882.708 890.335 880.03C895.021 877.353 900.069 875.289 905.48 873.838C910.947 872.388 916.637 871.663 922.55 871.663C928.24 871.663 933.79 872.332 939.201 873.671C944.668 875.01 949.744 877.046 954.43 879.779C959.116 882.457 963.272 885.86 966.898 889.988C970.579 894.06 973.48 898.857 975.6 904.38ZM453.635 1068.51C452.128 1073.03 450.818 1077.71 449.702 1082.57C448.586 1087.36 447.666 1092.19 446.941 1097.04C446.215 1101.84 445.658 1106.58 445.267 1111.27C444.932 1115.95 444.765 1120.39 444.765 1124.57C444.765 1127.64 444.765 1131.1 444.765 1134.95C444.821 1138.74 445.044 1142.62 445.434 1146.58C445.881 1150.54 446.578 1154.41 447.526 1158.21C448.475 1161.95 449.869 1165.29 451.71 1168.25C453.607 1171.21 456.005 1173.58 458.906 1175.36C461.863 1177.15 465.516 1178.04 469.868 1178.04C473.717 1178.04 477.008 1177.4 479.741 1176.11C482.53 1174.78 484.873 1172.99 486.77 1170.76C488.722 1168.53 490.256 1165.96 491.372 1163.06C492.544 1160.16 493.436 1157.12 494.05 1153.94C494.719 1150.76 495.137 1147.55 495.305 1144.32C495.528 1141.03 495.64 1137.9 495.64 1134.95V1068.51H528.859V1129.76C528.859 1138.52 527.464 1146.66 524.675 1154.19C521.886 1161.72 517.953 1168.28 512.877 1173.85C507.8 1179.38 501.664 1183.73 494.468 1186.91C487.272 1190.03 479.295 1191.59 470.537 1191.59C464.512 1191.59 458.906 1190.73 453.718 1189C448.53 1187.33 443.761 1185.01 439.41 1182.05C435.115 1179.04 431.265 1175.5 427.863 1171.43C424.516 1167.3 421.699 1162.81 419.412 1157.96C417.18 1153.1 415.479 1148 414.307 1142.64C413.136 1137.23 412.606 1131.77 412.718 1126.24V1124.57C412.773 1120.11 413.22 1115.51 414.056 1110.76C414.893 1105.97 416.009 1101.17 417.403 1096.37C418.854 1091.57 420.583 1086.83 422.591 1082.15C424.599 1077.41 426.831 1072.86 429.285 1068.51H453.635ZM587.933 1189H554.714V1068.51H619.813C625.447 1068.51 630.831 1069.26 635.963 1070.77C641.15 1072.27 645.725 1074.56 649.685 1077.63C653.646 1080.64 656.798 1084.46 659.141 1089.09C661.539 1093.67 662.739 1099.05 662.739 1105.24C662.739 1109.15 662.181 1112.83 661.065 1116.29C659.949 1119.69 658.388 1122.81 656.379 1125.66C654.427 1128.5 652.112 1131.07 649.434 1133.36C646.757 1135.64 643.828 1137.57 640.648 1139.13C637.469 1140.69 634.094 1141.89 630.524 1142.73C627.009 1143.56 623.439 1143.98 619.813 1143.98H587.933V1189ZM629.101 1105.24C629.101 1097.49 627.121 1091.41 623.16 1087C619.255 1082.54 613.342 1080.31 605.421 1080.31H587.933V1132.6H605.421C609.661 1132.6 613.259 1131.93 616.215 1130.59C619.228 1129.2 621.682 1127.28 623.579 1124.82C625.475 1122.37 626.87 1119.49 627.762 1116.2C628.655 1112.86 629.101 1109.2 629.101 1105.24ZM712.274 1060.14L702.903 1155.95H685.749L676.461 1060.14H712.274ZM709.597 1176.45C709.597 1178.57 709.178 1180.58 708.342 1182.47C707.561 1184.31 706.473 1185.93 705.078 1187.33C703.739 1188.67 702.122 1189.73 700.225 1190.51C698.384 1191.34 696.432 1191.76 694.368 1191.76C692.248 1191.76 690.24 1191.34 688.343 1190.51C686.502 1189.73 684.885 1188.67 683.49 1187.33C682.151 1185.93 681.063 1184.31 680.227 1182.47C679.446 1180.58 679.055 1178.57 679.055 1176.45C679.055 1174.38 679.446 1172.43 680.227 1170.59C681.063 1168.69 682.151 1167.08 683.49 1165.74C684.885 1164.34 686.502 1163.26 688.343 1162.47C690.24 1161.64 692.248 1161.22 694.368 1161.22C696.432 1161.22 698.384 1161.64 700.225 1162.47C702.122 1163.26 703.739 1164.34 705.078 1165.74C706.473 1167.08 707.561 1168.69 708.342 1170.59C709.178 1172.43 709.597 1174.38 709.597 1176.45Z" fill="#EA5928"/>
</svg>
