<svg width="1024" height="2048" viewBox="0 0 1024 2048" fill="none" xmlns="http://www.w3.org/2000/svg">
<path d="M0 0H429.86C418.164 11.6909 405.551 27.3638 394.339 39.8106C365.647 71.6627 337.81 105.75 308.552 136.929C291.067 119.506 268.808 101.102 243.809 123.497C236.797 129.778 240.993 133.909 230.891 139.165C232.68 127.964 232.513 95.9495 232.739 83.1832C236.311 79.1586 244.435 70.6302 245.172 65.5805C244.76 62.799 238.817 53.52 237.137 49.4491C225.541 21.3536 201.199 41.9296 206.185 66.3308C206.951 70.1161 207.996 73.8396 209.312 77.4707C202.737 97.0968 190.964 164.269 190.494 187.245C190.383 192.647 200.256 224.307 202.659 231.543C192.114 246.068 120.883 349.517 118.173 360.015C111.128 366.144 81.4882 401.176 74.7234 409.447C50.8874 438.59 23.5866 467.817 0 496.641V0Z" fill="#C4E0B7"/>
<path d="M87.6428 1859.16C82.9838 1852.05 65.9318 1834.63 59.6118 1827.29C40.1838 1804.72 19.1898 1782.42 -0.000183105 1759.67V2048.27H251.458H423.965C420.958 2043.64 414.66 2030.7 411.872 2025.36L386.262 1976.43C356.484 1920.61 324.814 1861.15 293.498 1806.49C239.744 1811.93 134.275 1824.87 97.3428 1866.36C93.9998 1870.74 91.0898 1875.85 84.8498 1873.75C79.9568 1868.15 83.8478 1864.17 87.6428 1859.16Z" fill="#FADA86"/>
<path d="M87.643 1859.16C82.984 1852.05 65.932 1834.63 59.612 1827.29C40.184 1804.72 19.19 1782.42 0 1759.67V2048.27H251.458C244.843 2041.15 238.079 2032.96 231.86 2025.48C187.505 1972.11 141.342 1919.99 97.343 1866.36C94 1870.74 91.09 1875.85 84.85 1873.75C79.957 1868.15 83.848 1864.17 87.643 1859.16Z" fill="#C4E0B7"/>
<path d="M0 496.641C23.5866 467.817 50.8874 438.59 74.7234 409.447C81.4882 401.176 111.128 366.144 118.173 360.015C121.691 373.711 124.365 381.514 134.455 392.174L119.969 460.587C118.083 469.336 116.041 478.123 114.232 486.88C110.677 504.091 103.256 519.555 96.5838 535.747C88.0175 556.441 79.5909 577.192 71.3046 597.999C66.017 611.31 53.2308 637.741 58.2201 649.794C68.4989 654.063 86.9688 652.04 98.3879 652.794C105.774 653.282 117.435 653.745 122.747 647.979C125.304 640.757 121.847 636.212 114.908 634.044C106.047 631.277 97.4633 629.06 88.9931 625.214C112.346 589.242 147.381 552.026 170.648 515.56C182.137 497.552 195.273 462.93 205.035 442.31C224.286 449.219 246.148 457.498 265.654 463.006C264.726 471.309 266.574 474.679 271.602 481.675C266.903 487.123 256.298 505.98 251.879 513.456C238.853 535.348 225.992 557.338 213.297 579.423C160.916 672.679 110.109 766.811 60.8987 861.778L20.6633 939.514C14.5913 951.242 6.53192 967.74 0 978.813V496.641Z" fill="#FADA86"/>
<path d="M209.312 77.4708C207.996 73.8397 206.951 70.1162 206.185 66.3309C201.199 41.9297 225.541 21.3537 237.137 49.4492C238.817 53.5201 244.76 62.7991 245.172 65.5806C244.435 70.6303 236.311 79.1587 232.739 83.1833C232.513 95.9496 232.68 127.964 230.891 139.165C240.993 133.909 236.797 129.778 243.809 123.497C268.808 101.102 291.067 119.506 308.552 136.929C320.512 145.747 324.477 146.873 337.657 139.952C339.123 160.127 333.135 184.543 307.693 182.008C306.014 194.712 300.126 233.076 279.628 231.617C277.307 231.452 272.549 228.944 270.403 227.791L265.766 237.932C268.778 247.214 268.342 252.553 269.239 261.521C271.902 288.13 260.389 300.977 252.897 324.297C263.517 342.253 274.375 359.136 288.392 374.705C292.914 379.727 293.91 379.76 299.372 383.307C306.766 388.109 308.828 401.755 309.491 409.665C308.631 414.967 308.081 413.385 310.861 417.978C312.93 421.397 319.969 428.865 320.988 432.148C333.143 471.313 340.208 512.994 351.52 552.208C362.144 555.259 390.826 559.227 381.081 576.439C379.97 571.74 379.602 566.988 376.244 563.879C373.022 560.5 354.444 557.211 347.629 554.676C344.19 553.097 341.64 551.557 337.873 551.744C334.108 553.774 334.146 554.513 332.702 559.308L332.127 562.16L330.722 566.403C330.15 566.564 329.179 566.904 328.65 566.899C310.634 542.977 288.439 507.312 271.602 481.675C266.574 474.679 264.726 471.309 265.654 463.006C246.148 457.498 224.286 449.219 205.035 442.31C195.273 462.93 182.137 497.552 170.648 515.56C147.381 552.026 112.346 589.242 88.9933 625.214C97.4635 629.06 106.047 631.277 114.908 634.044C121.847 636.212 125.304 640.757 122.747 647.979C117.435 653.745 105.774 653.282 98.3881 652.794C86.969 652.04 68.4991 654.063 58.2203 649.794C53.231 637.741 66.0172 611.31 71.3048 597.999C79.5911 577.192 88.0177 556.441 96.584 535.747C103.256 519.555 110.677 504.091 114.232 486.88C116.041 478.123 118.083 469.336 119.969 460.587L134.455 392.174C124.365 381.514 121.691 373.711 118.173 360.015C120.883 349.517 192.114 246.068 202.659 231.543C200.256 224.307 190.383 192.647 190.494 187.245C190.964 164.269 202.737 97.0969 209.312 77.4708Z" fill="#5C384C"/>
<path d="M230.891 139.165C240.993 133.909 236.797 129.778 243.809 123.497C268.808 101.102 291.067 119.506 308.552 136.929C320.512 145.747 324.477 146.873 337.657 139.952C339.123 160.127 333.135 184.543 307.693 182.008C306.014 194.712 300.126 233.076 279.628 231.617C277.307 231.452 272.549 228.944 270.403 227.791L265.766 237.932C268.778 247.214 268.342 252.553 269.239 261.521C271.902 288.13 260.389 300.977 252.897 324.297C263.517 342.253 274.375 359.136 288.392 374.705C292.914 379.727 293.91 379.76 299.372 383.307C306.766 388.109 308.828 401.755 309.491 409.665C308.631 414.967 308.081 413.385 310.861 417.978C312.93 421.397 319.969 428.865 320.988 432.148C333.143 471.313 340.208 512.994 351.52 552.208C362.144 555.259 390.826 559.227 381.081 576.439C379.97 571.74 379.602 566.988 376.244 563.879C373.022 560.5 354.444 557.211 347.629 554.676C347.664 554.494 347.705 554.313 347.733 554.129C348.865 546.71 323.368 445.137 319.059 434.709C315.915 427.098 309.995 422.171 305.378 415.645L304.989 415.088L302.006 416.582C297.901 415.727 280.949 401.167 275.708 397.378C269.146 396.047 240.073 375.501 232.948 370.572C232.402 370.195 232.949 366.084 233.025 365.063L234.597 362.377C230.042 361.275 229.105 361.14 224.427 361.178L222.852 360.08C222.167 356.342 226.749 347.162 228.873 343.966C236.195 331.114 246.453 289.521 248.101 274.348C249.002 266.059 248.487 254.364 249.617 245.847L249.729 245.039L250.382 242.261C248.635 239.355 245.535 226.988 244.016 222.473C240.032 215.465 230.046 189.855 228.393 182.138C226.192 171.863 227.389 143.885 228.798 132.801C228.909 134.634 228.937 139.858 229.889 140.987L230.891 139.165Z" fill="#090C1D"/>
<path d="M230.891 139.165C240.993 133.909 236.797 129.778 243.809 123.497C268.808 101.102 291.067 119.506 308.552 136.929C320.512 145.747 324.477 146.873 337.657 139.952C339.123 160.127 333.135 184.543 307.693 182.008L306.819 181.389L304.589 182.055C302.419 179.626 276.982 172.455 270.51 169.822C269.496 177.077 268.703 181.645 266.907 188.731C262.223 182.705 259.316 179.491 251.105 182.639C246.296 188.042 251.697 196.215 255.463 200.92C253.986 211.295 251.714 215.488 244.016 222.473C240.032 215.465 230.046 189.855 228.393 182.138C226.192 171.863 227.389 143.885 228.798 132.801C228.909 134.634 228.937 139.858 229.889 140.987L230.891 139.165Z" fill="#053254"/>
<path d="M270.51 169.822C276.982 172.455 302.419 179.626 304.589 182.055C302.186 193.138 296.712 229.883 278.959 227.581C276.224 227.227 271.401 223.275 269.155 221.485C267.94 224.136 264.174 232.325 263.877 234.738C262.467 246.211 264.327 246.745 260.012 257.651L250.382 242.261C248.635 239.355 245.535 226.988 244.016 222.473C251.714 215.488 253.986 211.295 255.463 200.92C251.697 196.215 246.296 188.042 251.105 182.639C259.316 179.491 262.223 182.705 266.907 188.731C268.703 181.645 269.496 177.077 270.51 169.822Z" fill="#F5BE9D"/>
<path d="M228.873 343.966C236.195 331.114 246.453 289.521 248.101 274.348C249.002 266.059 248.487 254.364 249.617 245.847L249.729 245.039C252.851 250.438 257.201 258.443 260.634 263.365L265.426 252.365C266.683 272.446 267.354 281.939 258.815 300.909C249.907 320.699 242.502 342.11 234.597 362.377C230.042 361.275 229.105 361.14 224.427 361.178L222.852 360.08C222.167 356.342 226.749 347.162 228.873 343.966Z" fill="#C4E0B7"/>
<path d="M239.258 359.596C243.34 348.074 246.791 338.748 251.679 327.533C261.958 345.446 276.691 368.456 291.959 382.551C285.898 389.529 283.559 391.985 275.708 397.378C274.044 393.172 263.432 384.552 258.665 383.552C257.663 379.619 251.574 373.756 248.612 370.52L239.258 359.596Z" fill="url(#paint0_linear_62_538)"/>
<path d="M291.959 382.551L293.893 382.031C302.891 387.484 307.265 405.04 304.989 415.088L302.006 416.582C297.901 415.727 280.949 401.167 275.708 397.378C283.559 391.985 285.898 389.529 291.959 382.551Z" fill="#CF5A5A"/>
<path d="M239.258 359.596L248.612 370.52C251.574 373.756 257.663 379.619 258.665 383.552C253.942 381.052 250.148 378.787 245.633 376L235.314 369.806C236.16 366.695 237.977 362.674 239.258 359.596Z" fill="#FAF2C5"/>
<path d="M212.21 76.4058C215.906 77.5229 228.158 80.5261 230.564 81.5679C230.229 98.6533 229.641 115.733 228.798 132.801C227.389 143.885 226.192 171.863 228.393 182.138C230.046 189.855 240.032 215.465 244.016 222.473C245.535 226.988 248.635 239.355 250.382 242.261L249.729 245.039L249.617 245.847C248.487 254.364 249.002 266.059 248.101 274.348C246.453 289.521 236.195 331.114 228.873 343.966C226.943 341.515 219.134 339.902 215.871 339.085C193.112 333.385 173.331 322.136 153.702 309.506C167.385 289.133 189.581 252.697 204.32 234.754C211.133 248.986 215.35 261.119 224.912 273.877C220.837 265.125 216.922 256.298 213.171 247.402C206.798 231.997 193.359 197.422 193.606 181.182C193.829 166.496 200.364 137.139 202.966 121.898C204.18 114.79 209.919 81.9384 212.21 76.4058Z" fill="#067D77"/>
<path d="M209.312 77.4708C207.996 73.8397 206.951 70.1162 206.185 66.3309C201.199 41.9297 225.541 21.3537 237.137 49.4492C238.817 53.5201 244.76 62.7991 245.172 65.5806C244.435 70.6303 236.311 79.1587 232.739 83.1833C232.513 95.9496 232.68 127.964 230.891 139.165L229.889 140.987C228.937 139.858 228.909 134.634 228.798 132.801C229.641 115.733 230.229 98.6535 230.564 81.5681C228.158 80.5263 215.906 77.5231 212.21 76.406C209.919 81.9386 204.18 114.79 202.966 121.898C200.364 137.139 193.829 166.496 193.606 181.182C193.359 197.422 206.798 231.997 213.171 247.402C216.922 256.298 220.837 265.125 224.912 273.877C215.35 261.119 211.133 248.986 204.32 234.754C189.581 252.697 167.385 289.133 153.702 309.506C149.39 315.825 144.787 322.36 140.891 328.909C138.834 331.969 136.05 335.862 134.326 339.017C138.853 343.311 145.302 350.9 149.184 355.932C145.328 365.33 142.243 373.457 139.173 383.151C133.86 409.371 128.297 435.54 122.486 461.654C120.09 472.48 115.202 497.37 111.439 506.955C101.558 532.121 90.0941 557.926 80.3031 583.229C77.5098 590.448 70.3771 606.883 68.8531 614.03C72.6571 615.191 87.4337 618.432 88.6883 619.861C92.7005 611.739 106.088 597.03 111.756 589.311C137.878 553.742 168.903 521.765 185.014 479.98C190.012 467.016 197.641 450.994 204.054 438.498C221.301 446.09 249.72 455.326 267.971 460.857C267.935 462.779 267.985 464.702 268.124 466.62C268.673 473.504 323.242 556.671 329.964 562.312L330.51 561.654L332.127 562.16L330.722 566.403C330.15 566.564 329.179 566.904 328.65 566.899C310.634 542.977 288.439 507.312 271.602 481.675C266.574 474.679 264.726 471.309 265.654 463.006C246.148 457.498 224.286 449.219 205.035 442.31C195.273 462.93 182.137 497.552 170.648 515.56C147.381 552.026 112.346 589.242 88.9933 625.214C97.4635 629.06 106.047 631.277 114.908 634.044C121.847 636.212 125.304 640.757 122.747 647.979C117.435 653.745 105.774 653.282 98.3881 652.794C86.969 652.04 68.4991 654.063 58.2203 649.794C53.231 637.741 66.0172 611.31 71.3048 597.999C79.5911 577.192 88.0177 556.441 96.584 535.747C103.256 519.555 110.677 504.091 114.232 486.88C116.041 478.123 118.083 469.336 119.969 460.587L134.455 392.174C124.365 381.514 121.691 373.711 118.173 360.015C120.883 349.517 192.114 246.068 202.659 231.543C200.256 224.307 190.383 192.647 190.494 187.245C190.964 164.269 202.737 97.0969 209.312 77.4708Z" fill="#090C1D"/>
<path d="M68.8527 614.03C72.6567 615.191 87.4334 618.432 88.688 619.861C86.28 623.67 85.7185 623.083 86.3768 626.423C95.6292 636.055 115.616 633.552 120.884 643.334C120.627 645.763 120.347 645.863 118.61 647.76C109.94 649.218 69.9276 648.468 61.4673 646.85C57.1634 641.667 66.905 620.829 68.8527 614.03Z" fill="#CF5A5A"/>
<path d="M212.21 76.4057C208.609 63.555 202.894 46.2282 220.122 39.9499C232.509 35.4354 231.738 51.1857 234.022 53.5392C245.72 65.5947 243.527 65.2577 230.564 81.5678C228.158 80.526 215.906 77.5228 212.21 76.4057Z" fill="#CF5A5A"/>
<path d="M134.326 339.017C138.853 343.311 145.302 350.9 149.184 355.932C145.328 365.33 142.243 373.457 139.173 383.151C138.174 384.13 136.993 387.276 135.529 389.366L133.362 388.61C126.428 381.148 122.919 368.654 120.749 358.939L134.326 339.017Z" fill="#0E4C54"/>
<path d="M153.702 309.506C173.331 322.136 193.112 333.385 215.871 339.085C219.134 339.902 226.943 341.515 228.873 343.966C226.749 347.162 222.167 356.342 222.852 360.08L224.427 361.178C229.105 361.14 230.042 361.275 234.597 362.377L233.025 365.063L230.549 365.06C204.014 372.013 172.294 372.318 149.184 355.932C145.302 350.9 138.853 343.311 134.326 339.017C136.05 335.862 138.834 331.969 140.891 328.909C144.787 322.36 149.39 315.825 153.702 309.506Z" fill="#FADA86"/>
<path d="M140.891 328.909C160.316 339.84 201.41 360.405 222.852 360.08L224.427 361.178C229.105 361.14 230.042 361.275 234.597 362.377L233.025 365.063L230.549 365.06C204.014 372.013 172.294 372.318 149.184 355.932C145.302 350.9 138.853 343.311 134.326 339.017C136.05 335.862 138.834 331.969 140.891 328.909Z" fill="#067D77"/>
<path d="M224.427 361.178C229.105 361.14 230.042 361.275 234.597 362.377L233.025 365.063L230.549 365.06C225.961 365.184 219.607 364.526 215.621 362.198C217.169 360.925 221.936 361.253 224.427 361.178Z" fill="#028478"/>
<path d="M429.86 0H604.263C593.905 11.4546 581.272 28.4205 571.587 40.8148C552.355 65.2369 533.484 89.9399 514.977 114.916C463.093 184.672 412.466 255.354 363.121 326.928L324.852 382.362C320.229 389.117 309.587 401.943 309.491 409.665C308.828 401.755 306.766 388.109 299.372 383.307C293.91 379.76 292.914 379.727 288.392 374.705C274.375 359.136 263.517 342.253 252.897 324.297C260.389 300.977 271.902 288.13 269.239 261.521C268.342 252.553 268.778 247.214 265.766 237.932L270.403 227.791C272.549 228.944 277.307 231.452 279.628 231.617C300.126 233.076 306.014 194.712 307.693 182.008C333.135 184.543 339.123 160.127 337.657 139.952C324.477 146.873 320.512 145.747 308.552 136.929C337.81 105.75 365.647 71.6627 394.339 39.8106C405.551 27.3638 418.164 11.6909 429.86 0Z" fill="#FADA86"/>
<path d="M158.691 1582.51C154.848 1577.83 146.468 1563.62 142.938 1557.95L110.353 1505.21L7.62939e-05 1330V1759.67C19.1901 1782.42 40.1841 1804.72 59.6121 1827.29C65.9321 1834.63 82.9841 1852.05 87.6431 1859.16C109.388 1836.55 134.134 1826.83 163.271 1817.41C167.451 1802.99 165.399 1791.9 163.48 1777.34C145.808 1785.31 130.025 1790.2 110.503 1784.2C95.1251 1779.53 82.2401 1768.93 74.6921 1754.74C58.2601 1723.47 75.0841 1685.41 113.589 1699C141.343 1708.81 157.081 1732.52 169.238 1757.83C176.319 1750.52 181.691 1741.73 184.967 1732.09C197.4 1696.57 187.033 1647.13 170.689 1614.16C166.964 1606.65 159.75 1598.62 155.437 1589.73C155.248 1586.72 156.882 1585.11 158.691 1582.51Z" fill="#FADA86"/>
<path d="M287.173 1795.42C282.911 1784.11 197.142 1640.5 192.841 1636.91C202.732 1671.42 208.727 1716.3 190.421 1749.14C185.949 1757.05 180.173 1764.14 173.338 1770.13C177.22 1785.72 179.079 1796.86 177.915 1813C217.368 1804.79 247.037 1799.77 287.173 1795.42Z" fill="#FADA86"/>
<path d="M103.199 1708.52C101.574 1708.44 99.9477 1708.4 98.3207 1708.42C64.8447 1708.93 75.5306 1777.49 135.747 1775.45C144.919 1773.44 151.702 1770.08 160.055 1765.99C149.173 1738.82 132.647 1716.19 103.199 1708.52Z" fill="#FADA86"/>
<path d="M332.702 559.308C334.146 554.513 334.108 553.774 337.873 551.744C341.64 551.557 344.19 553.097 347.629 554.676C354.444 557.211 373.022 560.5 376.244 563.879C375.439 564.889 374.916 565.957 373.434 565.981C368.212 566.068 335.953 566.78 333.365 565.019L332.702 559.308Z" fill="#CF5A5A"/>
<path d="M357.066 566.215C370.425 565.19 382.502 567.759 393.623 575.453C404.833 583.208 414.108 595.936 416.798 609.416C417.828 614.59 417.738 619.913 418.698 625.111L418.833 625.805C422.103 622.893 424.403 618.898 427.598 615.844C434.233 609.495 443.843 606.118 452.968 606.387C462.838 606.582 472.218 610.748 478.978 617.945C485.608 625.057 489.113 634.523 488.723 644.236C488.263 653.894 483.958 662.968 476.768 669.43C469.093 676.254 458.993 679.692 448.753 678.967C435.063 678.061 425.103 669.631 416.078 660.032C414.383 658.231 412.973 656.143 411.263 654.383C410.428 653.526 409.533 652.735 408.278 652.725C407.218 653.604 406.833 653.813 406.598 655.263C406.323 656.98 406.643 659.11 406.558 660.907C406.328 666.055 405.278 671.134 403.448 675.952C398.838 688.177 389.733 697.171 377.971 702.554C371.387 704.972 364.988 706.121 357.951 705.681C339.034 704.407 323.024 691.237 318.125 672.92C317.026 668.916 316.84 660.354 314.291 657.437C311.202 659.218 308.649 662.277 306.106 664.759C299.135 671.561 290.446 676.683 280.765 678.359C271.063 680.112 261.062 677.925 252.976 672.283C245.841 667.245 240.064 659.62 238.829 650.78C237.509 641.962 239.827 632.985 245.252 625.908C251.143 618.155 259.628 613.009 269.305 611.745C286.416 609.512 292.8 616.291 305.264 625.812C306.971 625.403 306.79 623.187 306.916 621.591C307.964 608.229 310.672 597.231 319.275 586.504C328.937 574.458 341.84 567.909 357.066 566.215Z" fill="white"/>
<path d="M718.278 420.37C733.169 419.053 747.161 421.049 760.504 429.603C779.306 441.658 790.197 462.906 796.181 486.482C805.884 524.69 803.783 569.915 787.379 605.161C776.171 629.243 760.53 643.606 738.166 651.086C721.807 653.801 708.263 650.593 694.33 639.79C673.101 623.33 660.568 594.148 655.885 565.303C650.055 529.385 652.221 487.67 670.195 456.795C681.888 436.707 697.966 424.6 718.278 420.37Z" fill="#DA4827"/>
<path d="M518.88 747.168C530.525 746.282 542.849 749.132 553.137 754.338C569.289 762.514 580.474 776.205 585.946 792.977C594.579 819.447 592.188 855.586 578.497 880.149C568.518 898.078 553.884 909.967 533.686 915.83C520.144 916.731 508.338 914.284 496.912 906.884C478.231 894.799 467.421 873.141 463.344 852.28C458.185 825.87 461.022 795.182 477.079 772.547C487.324 758.111 501.418 750.389 518.88 747.168Z" fill="#DA4827"/>
<path d="M368.498 1150.28C375.323 1149.57 380.873 1150.15 387.314 1153.11C400.587 1159.22 409.757 1173.02 415.122 1188.16C422.615 1209.31 423.101 1234.06 415.676 1255.34C409.312 1273.58 398.774 1285.18 383.472 1292.79C375.069 1294.91 367.472 1294.45 359.612 1289.92C346.679 1282.48 339.339 1266.4 335.176 1250.83C328.918 1227.42 329.267 1199.56 339.139 1177.56C345.761 1162.81 355.3 1155.02 368.498 1150.28Z" fill="#EE7E63"/>
<path d="M779.624 1153.31C787.041 1152.65 794.077 1152.9 801.161 1155.86C813.17 1160.88 821.917 1172.28 826.966 1185.67C834.43 1205.47 835.105 1230.49 828.231 1250.63C821.879 1269.25 810.84 1284.16 794.904 1292.1C786.394 1294.87 777.78 1294.9 769.717 1290.33C758.896 1284.17 751.984 1271.02 748 1258.2C740.897 1235.36 741.154 1206.77 750.111 1184.65C756.443 1169.03 765.628 1159.14 779.624 1153.31Z" fill="#EE7E63"/>
<path d="M708.228 742.223C712.08 741.986 715.956 741.503 719.36 743.72C723.304 746.296 724.431 750.538 725.017 754.844C728.479 780.277 726.409 807.98 726.156 833.63C726.018 849.104 727.214 865.71 725.029 880.993C724.397 885.45 723.66 889.53 720.602 893.047C718.256 895.739 714.507 897.151 710.93 897.013C707.86 896.898 704.893 895.876 702.443 894.081C686.148 882.255 659.434 838.831 643.634 820.813C642.472 841.957 647.187 878.104 642.208 896.545C640.31 903.556 637.274 906.27 631.03 909.913C626.959 910.159 623.187 910.125 619.979 907.288C610.629 899.009 611.917 870.084 611.584 858.041C611.078 839.721 610.077 794.788 612.987 778.386C613.872 773.461 616 768.059 619.737 764.508C622.681 761.709 626.028 760.512 630.179 760.87C635.101 761.293 639.908 764.994 643.323 768.187C657.709 781.676 683.055 818.642 696.441 836.302C697.211 820.811 697.453 805.297 697.165 789.787C697.039 778.776 696.073 767.052 697.545 756.159C698.476 749.191 702.811 746.238 708.228 742.223Z" fill="#DA4827"/>
<path d="M926.879 409C931.188 409.347 934.27 409.901 937.602 413.67C952.095 430.047 954.391 473.93 955.437 496.365C957.565 542.002 954.75 592.385 927.751 628.026C919.558 638.838 909.083 646.436 896.643 646.968C881.773 647.593 867.374 639.12 856.861 626.997C828.919 594.793 823.545 532.557 823 489.009C823.016 477.636 823.296 465.988 824.077 454.65C824.843 443.528 825.857 428.477 833.865 421.201C836.428 418.871 841.307 417.526 844.47 418.268C849.713 419.497 852.347 424.045 853.673 429.856C856.706 443.137 854.68 461.159 854.803 475.077C855.081 506.624 861.325 562.471 876.452 588.578C880.043 594.777 884.664 599.025 890.968 600.32C895.332 601.218 898.986 600.32 902.48 596.939C927.049 573.174 924.934 494.717 921.707 461.174C920.601 449.658 915.149 433.472 917.437 422.08C918.679 415.9 921.539 413.363 925.683 409.96L926.879 409Z" fill="#DA4827"/>
<path d="M846.773 726.637C849.144 726.515 851.733 726.305 854.07 726.829C867.902 729.934 887.686 781.419 895.474 794.385L896.478 796.052C903.958 776.088 913.32 738.786 933.298 728.053C937.072 726.027 941.132 725.317 945.271 726.791C949.433 728.277 953.219 731.51 954.975 735.497C961.737 750.937 933.104 798.686 925.886 813.375C921.222 822.876 917.197 832.457 913.468 842.332C907.493 856.339 891.324 911.515 880.765 918.001C877.948 919.736 873.592 920.587 870.354 919.57C867.241 918.598 865.565 917.084 864.014 914.321C856.077 900.141 877.72 845.835 883.422 829.955C874.79 815.008 832.872 750.115 837.331 735.8C838.745 731.287 842.873 728.929 846.773 726.637Z" fill="#DA4827"/>
<path d="M629.424 384C631.619 384.149 633.873 384.291 636.029 384.829C641.321 386.148 646.8 390.184 649.313 396.012C652.784 404.059 650.151 410.655 648.074 418.637C640.728 446.861 627.668 473.943 617.838 501.136C605.594 535.011 595.569 569.781 585.371 604.57C581.746 616.944 574.891 651.8 565.093 657.278C561.113 659.507 556.844 659.491 552.75 657.696C547.925 655.561 543.794 650.903 541.824 645.254C535.6 627.42 555.967 577.299 562.259 558.524C565.359 548.373 569.315 538.865 573.352 529.199C566.755 517.96 560.422 506.509 554.36 494.856C545.71 478.337 510.597 414.233 514.268 398.822C515.403 394.062 518.336 390.54 521.94 388.231C525.283 386.086 528.949 385.916 532.511 387.253C549.42 393.613 571.956 451.636 580.431 470.095C591.167 442.763 607.627 399.936 629.424 384Z" fill="#DA4827"/>
<path d="M866.788 1135.48C877.365 1134.21 887.052 1135.15 895.923 1142.83C904.177 1149.97 908.993 1160.99 910.463 1172.88C912.281 1187.49 909.489 1204.34 901.976 1216.2C891.642 1232.48 876.559 1234.53 860.914 1237.02L862.113 1261.25C862.422 1268.79 863.902 1278.21 862.675 1285.53C862.056 1289.25 860.932 1291.23 858.253 1293.38C855.752 1294.04 853.241 1294.48 850.814 1293.11C847.873 1291.47 846.355 1288.77 845.418 1285.18C841.006 1268.2 839.984 1165.69 847.713 1149.75C851.92 1141.1 859.171 1137.99 866.788 1135.48Z" fill="#EE7E63"/>
<path d="M769.771 728.028C771.918 727.986 774.576 727.931 776.572 728.729C780.635 730.359 782.411 734.396 783.072 738.244C784.929 749.003 781.911 761.505 780.519 772.253C777.454 796.032 766.3 858.49 778.615 879.363C792.241 902.454 820.33 886.624 840.34 892.778C843.717 893.813 846.7 895.725 848.081 898.976C849.602 902.58 849.114 907.626 847.501 911.141C844.878 916.846 839.179 919.311 833.492 921.556C817.579 925.06 801.051 924.662 785.127 921.29C772.173 918.538 760.335 912.037 753.278 901.076C734.753 872.303 748.298 779.086 756.678 746.429C759.162 736.738 760.81 733.291 769.771 728.028Z" fill="#DA4827"/>
<path d="M494.881 1138.12C498.117 1137.9 500.195 1137.86 503.199 1139.38C506.831 1143.53 508.217 1149.28 509.338 1154.95C515.726 1187.31 517.609 1245.66 501.411 1274.4C497.152 1281.96 491.176 1288.04 483.393 1289.61C475.185 1291.25 466.967 1287.67 460.356 1282.1C439.042 1264.14 434.076 1226.6 429.992 1198.42C428.883 1187.55 425.446 1169.03 431.42 1159.57C433.328 1156.55 436.5 1154.94 439.679 1154.93C442.884 1154.93 444.846 1156.5 446.276 1159.73C448.9 1165.68 448.428 1176.52 449.091 1183.44C451.154 1204.94 456.192 1239.29 468.981 1255.94C471.793 1259.61 476.354 1264.1 480.852 1263.74C483.032 1263.56 484.813 1262.24 486.227 1260.33C500.398 1241.37 491.437 1174.97 490.364 1149.87C490.139 1144.58 491.191 1142.75 494.154 1139.01C494.393 1138.71 494.638 1138.41 494.881 1138.12Z" fill="#EE7E63"/>
<path d="M615.044 1141.01C617.274 1141.15 619.532 1141.44 621.714 1141.93C628.034 1143.32 634.999 1147.56 638.595 1154.01C640.815 1158 640.701 1162.31 639.771 1166.74C632.759 1174.87 619.523 1161.48 610.527 1165.57C606.143 1167.57 600.042 1172.96 598.363 1178.38C590.392 1204.2 637.475 1205.68 648.757 1233.37C653.312 1244.56 654.526 1259.69 650.788 1271.37C647.751 1280.84 642.115 1287.69 634.239 1291.78C620.879 1298.71 606.836 1296.28 593.656 1290.55C586.635 1286.03 580.059 1279.86 577.82 1270.45C576.615 1265.37 576.567 1260.01 578.844 1255.35C580.59 1251.78 582.64 1250.5 585.989 1249.56C593.656 1250.71 597.793 1261.48 603.287 1267.14C607.045 1271.01 611.761 1273.49 616.837 1272.79C621.885 1272.09 627.085 1268.6 630.178 1263.9C632.693 1260.07 633.575 1255.26 632.854 1250.52C630.264 1233.33 603.961 1227.92 593.182 1218.65C585.126 1211.72 579.679 1201.38 578.531 1189.67C577.355 1177.71 579.708 1166.14 586.312 1156.81C593.742 1146.33 603.819 1142.21 615.044 1141.01Z" fill="#EE7E63"/>
<path d="M562.365 958.008C563.391 958.287 564.391 958.511 565.363 959.025C568.121 960.499 569.186 964.03 569.934 967.259C572.037 976.32 571.336 986.141 572.701 995.404C575.598 1015.12 580.972 1034.61 586.45 1053.5C591.058 1042.79 593.6 1023.09 601.788 1015.77C603.563 1014.17 604.629 1013.93 606.76 1014.3C617.481 1022.63 616.069 1041.62 621.911 1053.47C622.939 1055.55 623.36 1055.56 625.192 1056.04C627.968 1053.66 628.837 1048.46 629.809 1044.71C632.716 1033.6 634.398 1022.1 634.809 1010.46C635.202 999.471 634.192 986.421 636.679 975.885C637.398 972.823 638.455 971.237 640.698 969.639C643.119 969.482 644.857 970.354 646.792 972.019C652.101 976.577 652.624 980.991 653.54 988.409C654.54 998.778 653.764 1009.76 652.596 1020.05C650.474 1038.73 645.792 1065.59 632.127 1077.23C628.584 1080.26 624.565 1081.85 620.2 1080.91C612.022 1079.17 606.76 1070.39 602.573 1062.63C599.769 1067.87 597.039 1073.13 592.946 1077.1C589.702 1080.23 585.571 1082.66 581.3 1081.85C577.626 1081.16 574.673 1078.3 572.579 1074.75C563.677 1059.75 551.701 988.99 554.383 971.281C555.381 964.7 557.86 961.661 562.365 958.008Z" fill="#F59A41"/>
<path d="M734.394 949.008C736.202 949.264 738.721 949.976 740.266 951.167C742.898 953.204 744.182 956.264 744.669 959.837C747.619 981.439 744.734 1010.31 744.809 1032.77C744.875 1050.77 746.804 1069.84 745.409 1087.67C745.128 1091.22 744.463 1094.06 742.655 1096.95C741.222 1099.25 739.321 1100.81 736.857 1100.99C734.45 1101.16 732.895 1100.09 731.228 1098.14C722.855 1088.35 726.582 1041.66 726.938 1027.28C714.406 1028.66 702.024 1029.71 689.446 1030.31C689.127 1044.36 689.343 1058.43 690.073 1072.47C689.989 1073.33 689.895 1074.2 689.773 1075.07C689.286 1078.61 688.35 1081.51 685.699 1083.48C684.126 1084.65 681.85 1084.55 680.192 1083.65C675.874 1081.31 673.57 1074.59 672.549 1069.48C669.168 1052.5 671.322 969.33 679.012 954.84C680.782 953.471 682.131 952.246 684.332 952.191C685.812 952.146 686.935 953.081 687.853 954.45C692.565 961.462 689.942 997.165 689.82 1007.66C702.352 1006.9 714.847 1005.61 727.294 1003.81C727.201 990.877 726.451 977.354 727.585 964.489C728.24 957.01 729.467 953.716 734.394 949.008Z" fill="#F59A41"/>
<path d="M251.555 1132.01C253.63 1132.72 255.533 1133.32 257.143 1135.14C264.042 1142.91 278.918 1179.57 285.469 1192.5C290.871 1178.15 301.522 1142.97 312.551 1135.8C314.39 1134.61 316.091 1134.29 318.134 1135.15C320.959 1136.32 323.364 1138.55 324.57 1141.9C325.69 1145 324.356 1150.27 323.6 1153.39C320.885 1164.59 316.365 1175.7 312.725 1186.55C307.523 1202.06 302.629 1217.72 298.049 1233.51C293.936 1246.15 282.687 1286.48 275.105 1293.28C273.397 1294.82 270.406 1295.46 268.315 1294.66C265.964 1293.75 264.66 1292.27 263.61 1289.63C258.745 1277.37 274.482 1231.39 278.671 1216.75C266.774 1204.06 258.04 1185.21 250.794 1168.45C247.183 1160.11 241.087 1147.74 243.584 1138.2C245.875 1134.91 248.328 1133.71 251.555 1132.01Z" fill="#EE7E63"/>
<path d="M900.578 957.087C902.628 956.998 904.803 956.787 906.71 957.83C908.989 959.084 910.22 961.381 911.011 964.056C915.007 977.627 912.709 1058.06 906.548 1069.79C905.003 1072.72 903.429 1073.6 900.654 1074.35C897.554 1073.56 895.656 1071.72 893.634 1068.99C888.761 1062.45 885.242 1053.93 881.37 1046.52C875.647 1035.42 869.515 1024.6 862.991 1014.1C862.829 1031.98 866.243 1069 860.159 1083.81C858.461 1084.83 856.315 1085.85 854.389 1085.99C852.062 1086.14 849.878 1085.4 848.333 1083.27C844.861 1078.46 844.966 1009.44 845.014 997.302C845.042 990.034 845.624 978.637 851.136 973.832C853.149 972.079 855.237 971.679 857.66 972.345C867.197 974.975 888.046 1015.05 894.455 1025.64C894.54 1013.19 893.062 972.001 896.305 963.512C897.297 960.938 898.899 959.062 900.578 957.087Z" fill="#F59A41"/>
<path d="M812.106 937.636C816.087 936.896 819.234 936.213 822.666 939.294C825.13 941.49 825.889 943.518 826.23 947.047C822.031 966.532 799.716 953.703 789.886 962.946C781.752 970.587 781.183 997.545 780.52 1009.11C792.616 1008.22 808.617 1005.85 819.756 1012.55C822.334 1014.09 823.841 1015.77 824.761 1018.99C824.23 1020.76 823.728 1021.58 822.543 1022.92C813.774 1032.86 791.639 1030.15 780.245 1030.14C779.875 1039.12 780.624 1048.29 781.032 1057.27C782.046 1059.02 783.07 1060.83 784.283 1062.41C790.634 1070.71 801.612 1069.6 810.172 1069.59C812.674 1069.38 815.186 1069.16 817.689 1069.11C822.685 1068.99 827.662 1071.11 831.226 1075.24C831.937 1077.48 832.401 1078.69 831.51 1081.08C830.003 1085.16 826.059 1087.86 822.666 1089.25C810.551 1094.19 786.644 1092.37 775.183 1084.77C768.31 1080.21 764.736 1069.21 763.134 1060.64C758.518 1035.94 761.172 972.414 773.239 952.269C780.52 940.123 800.56 939.541 812.106 937.636Z" fill="#F59A41"/>
<path d="M349.171 969.008C351.029 969.538 353.234 970.025 354.719 971.539C362.679 979.642 386.662 1064.41 385.986 1077.24C385.836 1080.07 384.607 1081.85 382.611 1083.34C380.727 1084.76 378.816 1085.23 376.67 1084.35C368.12 1080.84 362.971 1057.37 359.647 1048.04L344.543 1050.31C341.159 1050.83 337.853 1051.95 334.547 1052.93C330.811 1061.53 328.764 1081.2 321.985 1086.36C320.146 1087.76 318.359 1088.51 316.176 1087.63C314.614 1087.01 313.598 1085.83 312.786 1084.23C309.12 1077.01 311.948 1065.08 313.737 1057.43C318.713 1036.13 331.85 992.841 342.584 975.475C344.392 972.556 346.542 970.788 349.171 969.008Z" fill="#F59A41"/>
<path d="M703.484 1144.37C713.17 1143.71 724.144 1141.9 733.708 1143.98C737.366 1144.79 739.726 1145.95 741.852 1149.73C742.199 1152.64 742.002 1155.13 740.544 1157.6C735.241 1166.57 714.289 1165.99 705.487 1167.28C704.64 1186.09 704.179 1204.92 704.095 1223.76C704.085 1241.05 704.847 1258.76 703.86 1276.01C703.653 1279.71 703.455 1285.57 701.706 1288.81C699.571 1292.77 696.666 1293.27 693.064 1294.01C691.879 1293.08 690.468 1292.07 689.472 1290.88C686.556 1287.34 685.738 1281.87 685.259 1277.17C683.745 1262.39 684.977 1246.59 685.278 1231.68C685.673 1210.93 685.898 1190.16 685.936 1169.4C678.065 1170.17 668.181 1171.6 660.602 1168.64C657.658 1167.49 656.398 1165.88 655.016 1162.73C654.884 1159.47 655.561 1155.89 657.724 1153.58C664.88 1145.88 693.412 1145.25 703.484 1144.37Z" fill="#EE7E63"/>
<path d="M290.968 939.706C291.274 939.661 291.579 939.605 291.887 939.56C296.605 938.919 302.521 938.009 306.332 942.234C308.269 944.369 308.735 946.38 309 949.369C305.141 963.201 272.276 964.089 261.807 975.224C255.913 981.494 257.396 1003.47 257.257 1012.69C265.119 1012.49 283.423 1008.08 289.75 1013.57C291.53 1015.12 293.168 1018.32 292.922 1020.99C292.727 1023.13 292.24 1024.48 291.035 1026.01C285.169 1033.5 267.158 1032.32 258.922 1032.88C259 1038.84 259.378 1044.68 259.85 1050.61C260.345 1059.39 262.291 1068.17 262.481 1076.95C262.6 1082.35 262.195 1086.43 259 1090.46C255.983 1092.22 253.405 1092.59 250.276 1091C247.295 1089.49 246.09 1086.86 245.269 1083.38C239.586 1059.33 236.5 983.224 246.615 963.583C253.806 949.616 278.294 942.729 290.968 939.706Z" fill="#F59A41"/>
<path d="M449.647 948.134C450.674 948.089 452.1 947.888 453.14 948.111C456.289 948.759 457.73 950.176 458.802 953.848C461.106 961.728 458.795 973.525 458.094 981.829C456.545 1000.18 451.173 1048.32 460.926 1062.11C468.214 1072.41 478.735 1068.26 488.39 1069.3C494.203 1069.91 499.522 1071.84 503.388 1077.19C503.838 1079.13 504.383 1079.84 503.616 1081.81C502.016 1085.93 495.265 1088.9 491.817 1090C485.381 1090.63 478.839 1091.02 472.382 1091.01C463.81 1091 454.777 1089.08 448.618 1081.44C437.403 1067.56 436.964 1047 437.002 1028.95C437.047 1008.37 437.507 962.498 449.647 948.134Z" fill="#F59A41"/>
<path d="M484.075 1320.2C492.658 1319.63 501.151 1320.14 509.073 1324.48C514.079 1327.23 518.907 1331.86 520.54 1338.25C521.611 1342.45 521.099 1347.1 519.351 1350.95C514.497 1361.62 504.431 1364.92 495.331 1368.48C502.713 1376.26 529.096 1396.84 531 1406.65C529.819 1409.91 528.314 1410.83 525.968 1413.01C511.938 1406.91 498.944 1389.91 486.615 1379.69C486.463 1384.47 486.843 1391.44 485.123 1395.79C484.218 1398.08 482.787 1399.96 480.554 1400.44C479.161 1400.75 477.734 1400.43 476.648 1399.4C468.902 1392.1 474.469 1356.49 473.973 1345.23C473.702 1339.09 470.689 1332.93 470 1326.64C472.936 1322.1 479.534 1321.32 484.075 1320.2Z" fill="#AE7567"/>
<path d="M685.45 1323.01C687.011 1323.74 688.496 1324.7 690 1325.57C691.326 1328 691.852 1328.92 691.965 1331.89C692.313 1340.57 690.01 1392.78 686.654 1397.52C685.46 1397.71 684.247 1397.96 683.034 1397.81C671.696 1396.54 657.002 1371.82 649.725 1361.84C649.471 1373.05 651.709 1389.4 648.747 1399.95C647.892 1403 646.952 1403.66 644.592 1405.01C641.509 1404.67 640.145 1403.69 637.692 1401.47C635.689 1390.09 634.589 1337.2 639.534 1328.05C640.86 1327.15 641.396 1326.39 643.003 1326.58C650.966 1327.56 671.941 1363.85 678.963 1372.82C679.039 1357.73 676.904 1335.23 685.45 1323.01Z" fill="#AE7567"/>
<path d="M736.684 1323.51C742.872 1322.48 747.493 1322.8 752.887 1326.78C753.238 1327.93 753.883 1328.86 753.395 1330.05C750.314 1337.52 738.344 1338.09 732.461 1340.13C726.568 1342.17 721.219 1346.15 718.305 1352.77C715.013 1360.23 713.694 1371.85 716.221 1379.85C717.493 1383.88 719.891 1387.31 723.312 1388.86C727.25 1390.65 731.289 1389.86 734.914 1387.5C740.742 1383.72 742.199 1377.18 743.951 1370.16C741.019 1370.06 736.583 1370.54 733.807 1369.4C731.529 1368.47 731.041 1367.59 730.266 1365.17L731.326 1362.6C733.936 1360.22 736.186 1358.76 739.433 1357.91C743.499 1356.87 749.752 1356.99 753.118 1360.4C755.313 1362.63 755.645 1365.44 756.152 1368.63C757.471 1378.05 759.887 1387.32 760.809 1396.78C761.15 1400.32 761.233 1403.41 759.306 1406.37C757.794 1406.84 757.203 1407.33 755.626 1406.73C751.098 1404.99 749.309 1398.52 747.317 1393.85C743.868 1399.37 740.807 1402.75 735.237 1404.96C729.251 1407.32 722.833 1406.35 717.327 1402.78C710.254 1398.19 705.376 1390.13 703.273 1380.94C700.728 1369.82 702.037 1357 706.86 1347C713.417 1333.44 724.474 1327.13 736.684 1323.51Z" fill="#AE7567"/>
<path d="M581.637 1320.01C583.187 1320.2 585.176 1320.4 586.577 1321.22C588.556 1322.39 589.649 1324.49 589.92 1327.05C591.087 1338.21 579.237 1355.68 573.065 1363.28C573.196 1372.97 573.289 1382.67 573.336 1392.36C573.336 1398.98 573.588 1406.06 569.405 1411.02C566.65 1412.17 566.417 1412.34 563.634 1411.4C556.38 1402.42 558.847 1378.35 558.718 1366.2C556.989 1360.27 539.92 1348.02 535.775 1338.81C533.8 1334.43 533.542 1329.94 534.661 1325.24C536.14 1323.27 536.735 1322.15 539.197 1322.23C546.092 1322.42 553.769 1338.41 558.571 1344.15C561.208 1347.31 562.997 1348.83 566.781 1348.85C573.784 1343.64 576.753 1328.17 581.637 1320.01Z" fill="#AE7567"/>
<path d="M412.388 984.008C416.072 984.32 417.751 984.498 420.683 987.096C422.103 989.393 422.364 990.921 422.509 993.764C423.452 1012.38 422.316 1031.19 423.255 1049.9C423.666 1058.05 426.114 1072.67 424.395 1080.03C423.454 1084.04 419.854 1085.47 416.949 1087.01C413.819 1086.42 411.537 1085.63 409.481 1082.6C401.818 1071.36 401.879 1010.96 404.905 995.782C406.069 989.939 408.084 987.13 412.388 984.008Z" fill="#F59A41"/>
<path d="M446.199 1321.71C449.484 1321.25 453.277 1320.52 456.542 1321.48C458.766 1322.14 459.797 1322.74 461 1325.06C460.812 1326.04 460.768 1326.61 460.224 1327.51C455.355 1335.58 444.366 1336.12 436.784 1336.88C436.164 1352.82 440.807 1393.94 432.744 1405.9C430.12 1407.32 429.74 1407.15 426.844 1406.62C424.268 1404.22 424.123 1403.25 422.998 1399.77C422.798 1379.03 422.756 1358.28 422.874 1337.53C417.978 1337.71 412.187 1338.5 407.407 1337.24C404.512 1336.46 402.717 1335.13 401.07 1332.2C401.067 1330.63 400.69 1329.67 401.717 1328.47C407.115 1322.17 437.438 1322.52 446.199 1321.71Z" fill="#AE7567"/>
<path d="M612.478 1329.01C614.807 1330.11 616.106 1331.19 617.91 1333.2C619.526 1337.07 619.119 1398.52 618.148 1405C617.583 1408.8 614.857 1410.77 612.379 1413.01C611.179 1412.33 609.93 1411.62 608.919 1410.57C604.984 1406.52 604.558 1396.81 604.33 1391.02C603.686 1374.99 603.012 1340.79 612.478 1329.01Z" fill="#AE7567"/>
<path d="M412.9 943.008C415.279 943.128 418.262 942.932 420.341 944.435C422.258 945.807 423.67 947.561 423.932 950.186C424.401 954.924 422.384 957.506 419.9 960.882C417.669 960.98 414.989 961.329 412.929 960.164C410.978 959.052 409.411 956.504 409.105 954.053C408.533 949.467 410.363 946.232 412.9 943.008Z" fill="#F59A41"/>
<path d="M805.569 1305C806.218 1305.06 806.866 1305.13 807.512 1305.2C812.229 1305.72 816.749 1306.71 819.628 1309.67C827.369 1317.61 813.838 1354.01 812.076 1365C811.193 1370.51 812.945 1376.29 811.627 1381.72C811.012 1384.26 807.803 1385.59 805.093 1387C804.292 1386.99 803.504 1386.96 802.705 1386.91C798.996 1386.66 795.918 1385.63 793.568 1383.51C786.669 1377.31 787.73 1367.12 788.729 1359.64C790.286 1348 796.241 1317.9 801.939 1308.14C802.708 1306.82 804.062 1305.9 805.569 1305Z" fill="#AE7567"/>
<path d="M791.949 1399C796.345 1399.09 800.656 1399.48 804.713 1400.82C808.321 1402 813.67 1404.68 814.735 1407.68C815.315 1409.31 814.905 1410.49 813.872 1411.91C811.939 1414.59 808.241 1415.25 804.569 1416C800.797 1415.65 796.936 1415.14 793.318 1414.27C788.534 1413.12 783.467 1410.93 781.18 1407.52C781.114 1406.72 780.787 1405.65 781.221 1404.91C783.224 1401.53 787.582 1400.34 791.949 1399Z" fill="#AE7567"/>
</svg>
