<svg width="1024" height="2048" viewBox="0 0 1024 2048" fill="none" xmlns="http://www.w3.org/2000/svg">
<path d="M0 0H27.9266H104.012H155.874L85.2337 122.979C70.2847 149.107 53.0349 180.914 37.2043 205.967C40.8357 247.297 41.7957 298.786 43.912 341.212L58.1966 603.822L118.024 1610.18C135.387 1593.99 151.561 1576.67 168.814 1560.3L261.234 1652.7L267.293 1643.8C266.874 1634.98 266.935 1626.89 267.03 1618.09C271.364 1614.13 278.599 1602.78 284.001 1597.9C305.113 1579.18 330.36 1561.32 356.543 1550.48C369.409 1545.16 378.887 1550.23 382.772 1563.12C379.729 1569.17 375.95 1573.95 369.046 1575.4C328.87 1583.87 277.072 1575.17 310.821 1635.22C326.516 1639.43 339.23 1646 347.873 1660.88C367.179 1694.11 337.028 1728.26 320.882 1755.8C318.144 1760.47 313.082 1766.98 311.061 1771.58C309.815 1791.84 306.088 1817.99 303.467 1838.27C299.679 1867.12 296.251 1896.01 293.184 1924.95C300.896 1917.24 308.465 1909.4 315.888 1901.41L317.815 1899.73C336.389 1881.16 358.991 1849.89 372.731 1827.03C375.087 1823.11 380.245 1808.41 382.064 1803.42C404.616 1798.97 429.104 1795.22 451.911 1791.28C490.674 1783.02 540.452 1776.16 580.119 1769.7C583.305 1764 590.078 1747.28 592.949 1740.71C602.738 1717.88 612.674 1695.12 622.755 1672.41C646.464 1619.95 670.412 1561.61 692.657 1508.26C710.07 1508.48 727.484 1508.5 744.897 1508.31C725.043 1570.43 703.179 1631.83 683.342 1693.73C676.562 1714.81 668.235 1738.53 662.199 1759.47C696.188 1756.37 731.874 1751.64 766 1747.77L916.855 1730.57C951.902 1725.71 987 1721.21 1022.14 1717.09L1024 1717.27V1860.82V2048H175.342H0V0Z" fill="#002D33"/>
<path d="M1024 1860.82V2048H175.342C190.138 2042.88 212.756 2037.41 228.303 2033.17L328.429 2006.17C468.591 1967.76 610.314 1935.3 753.22 1908.88C830.868 1894.2 909.073 1881.29 986.878 1867.39C999.276 1865.18 1011.65 1863.37 1024 1860.82Z" fill="#00A395"/>
<path d="M267.03 1618.09C271.364 1614.13 278.599 1602.78 284.001 1597.9C305.113 1579.18 330.36 1561.32 356.543 1550.48C369.409 1545.16 378.887 1550.23 382.772 1563.12C379.729 1569.17 375.95 1573.95 369.046 1575.4C328.87 1583.87 277.072 1575.17 310.821 1635.22C326.516 1639.43 339.23 1646 347.873 1660.88C367.179 1694.11 337.028 1728.26 320.882 1755.8C318.144 1760.47 313.082 1766.98 311.061 1771.58C304.177 1780.74 285.154 1811.84 279.75 1817.32C278.794 1819.55 278.578 1820.51 276.905 1822.2C271.232 1830.92 248.31 1866.51 242.635 1872.15C241.729 1874.71 241.73 1875.09 239.924 1877.03C233.683 1886.01 214.389 1915.03 208.323 1921.86C202.729 1928.21 196.209 1938.67 190.119 1942.71L188.252 1946.09C175.18 1965.02 160.607 1983.04 146.898 2001.73C159.462 1950.71 168.03 1898.76 184.31 1848.44C185.079 1846.07 185.962 1843.75 185.08 1841.35C188.143 1838.67 188.863 1833.67 189.941 1829.74C203.223 1781.31 219.529 1734.65 240.486 1689.02C247.257 1675.83 253.087 1665.12 261.234 1652.7L267.293 1643.8C266.874 1634.98 266.935 1626.89 267.03 1618.09Z" fill="#045472"/>
<path d="M239.924 1877.03C241.378 1863.43 249.846 1825.85 252.68 1811.46C256.147 1793.66 259.734 1775.87 263.439 1758.11C264.961 1750.51 267.625 1729.59 272.443 1724.4C261.833 1773.5 253.446 1823.33 242.635 1872.15C241.729 1874.71 241.73 1875.09 239.924 1877.03Z" fill="#A1E2CB"/>
<path d="M188.252 1946.09C188.259 1939.19 236.066 1802.13 238.524 1799.21C239.597 1801.95 194.632 1930.37 190.119 1942.71L188.252 1946.09Z" fill="#A1E2CB"/>
<path d="M276.905 1822.2C279.102 1807.28 291.497 1726.44 296.017 1717.11C296.182 1722.95 291.674 1745.28 290.445 1752.26C286.563 1773.9 282.998 1795.58 279.75 1817.32C278.794 1819.55 278.578 1820.51 276.905 1822.2Z" fill="#A1E2CB"/>
<path d="M243.49 1740.68C244.834 1745.16 232.006 1773.09 229.585 1779.45C213.161 1821.75 197.772 1864.45 183.431 1907.5C179.754 1918.51 161.733 1977.06 158.694 1982.09C156.205 1972.64 231.133 1763.19 243.49 1740.68Z" fill="#A1E2CB"/>
<path d="M118.024 1610.18C135.387 1593.99 151.561 1576.67 168.814 1560.3L261.234 1652.7C253.087 1665.12 247.257 1675.83 240.486 1689.02C223.065 1701.83 193.356 1734.1 174.775 1750.34C163.359 1738.83 131.945 1708.25 122.905 1696.57C121.268 1669.21 120.8 1637.08 118.024 1610.18Z" fill="#018B7A"/>
<path d="M311.061 1771.58C309.815 1791.84 306.088 1817.99 303.467 1838.27C299.679 1867.12 296.251 1896.01 293.184 1924.95C288.533 1930.87 267.711 1951.15 261.207 1957.75L189.525 2030.04C192.94 2016.26 196.61 1993.85 199.14 1979.61C201.917 1963.99 207.181 1937.27 208.323 1921.86C214.389 1915.03 233.683 1886.01 239.924 1877.03C241.73 1875.09 241.729 1874.71 242.635 1872.15C248.31 1866.51 271.232 1830.92 276.905 1822.2C278.578 1820.51 278.794 1819.55 279.75 1817.32C285.154 1811.84 304.177 1780.74 311.061 1771.58Z" fill="#E75215"/>
<path d="M240.486 1689.02C219.529 1734.65 203.223 1781.31 189.941 1829.74C188.863 1833.67 188.143 1838.67 185.08 1841.35C167.04 1844.39 149.034 1847.62 131.063 1851.04C131.034 1837.3 129.403 1821.86 128.831 1807.9C127.327 1771.17 123.816 1733.23 122.905 1696.57C131.945 1708.25 163.359 1738.83 174.775 1750.34C193.356 1734.1 223.065 1701.83 240.486 1689.02Z" fill="#00A395"/>
<path d="M27.9268 0H104.012C79.5386 32.9296 56.3503 66.8783 32.2951 100.134C31.4867 67.5118 29.4638 32.6734 27.9268 0Z" fill="#A1E2CB"/>
<path d="M317.815 1899.73C325.311 1899.13 365.149 1884.71 366.891 1885.63C358.282 1890.72 331.521 1898.59 321.068 1901.4C327.221 1902.03 362.98 1907.31 366.241 1910.19C357.733 1909.61 324.419 1903.9 315.888 1901.41L317.815 1899.73Z" fill="#A1E2CB"/>
<path d="M978.69 1789.4L979.219 1789.75C978.222 1791.69 907.605 1805.06 900.393 1806.47C853.94 1815.19 807.887 1825.92 762.366 1838.64C733.687 1846.87 704.852 1857.81 676.225 1865.23C650.236 1871.96 617.029 1872.22 591.049 1880.45C566.291 1888.3 557.416 1909.29 529.034 1916.19C485.262 1926.84 445.378 1915.41 404.169 1939.98L403.517 1939.14C404.996 1936.73 410.286 1934.68 412.926 1933.39C448.624 1915.93 489.316 1923.78 526.755 1914.8C534.896 1912.84 544.563 1908.77 551.733 1904.26C565.877 1894.17 574.255 1883.46 591.879 1878.29C620.817 1869.8 652.692 1870.1 681.455 1862.09C713.589 1853.1 744.777 1841.02 777.115 1832.61C843.432 1815.37 911.224 1801.45 978.69 1789.4Z" fill="#00A395"/>
<path d="M927.572 1776.52L928.909 1776.34L929.052 1777.05C921.036 1779.81 875.489 1786.37 864.608 1788.05C814.898 1795.93 765.093 1803.21 715.205 1809.87L712.961 1810L712.245 1809.06L713.523 1808.09C718.04 1808.11 753.662 1802.77 759.954 1801.92C795.787 1796.9 831.568 1791.52 867.291 1785.77C885.735 1782.83 909.448 1778.37 927.572 1776.52Z" fill="#00A395"/>
<path d="M976.765 1834.4C980.574 1833.78 979.218 1833.56 982.461 1834.7C981.35 1835.72 861.707 1852.11 850.402 1853.58C848.917 1854.14 846.506 1853.92 844.839 1853.89C847.242 1851.05 963.773 1836.1 976.765 1834.4Z" fill="#00A395"/>
<path d="M537.621 1850.49L539.484 1850.62C537.214 1852.74 517.984 1855.06 512.693 1856.14C478.682 1863.12 452.862 1873.01 417.886 1877.58L416.059 1876.75C417.553 1875.49 430.182 1874.22 434.179 1873.47C459.315 1868.75 483.148 1860.48 508.049 1855.17C517.814 1853.07 527.686 1851.51 537.621 1850.49Z" fill="#00A395"/>
<path d="M683.342 1693.73C687.651 1692.42 784.97 1592.67 795.857 1581.32L880.855 1666.96C893.566 1679.82 911.012 1698.69 924.089 1710.41L914.981 1719.56L916.855 1730.57L766 1747.77C731.874 1751.64 696.188 1756.37 662.199 1759.47C668.235 1738.53 676.562 1714.81 683.342 1693.73Z" fill="#00A395"/>
<path d="M412.524 1550.98C416.841 1552.32 418.97 1552.75 422.531 1555.48C416.25 1562.32 410.823 1567.76 403.192 1573.05L406.014 1579.62C408.064 1583.52 410.195 1587.82 412.575 1591.49C409.431 1596.45 403.371 1603.83 399.239 1608.08C401.901 1625.54 403.375 1641.38 404.647 1658.99C404.964 1663.38 406.114 1683.23 407.008 1686.32C408.141 1718.33 392.335 1773.13 382.064 1803.42C380.245 1808.41 375.087 1823.11 372.731 1827.03C358.991 1849.89 336.389 1881.16 317.815 1899.73L315.888 1901.41C308.465 1909.4 300.896 1917.24 293.184 1924.95C296.251 1896.01 299.679 1867.12 303.467 1838.27C306.088 1817.99 309.815 1791.84 311.061 1771.58C313.082 1766.98 318.144 1760.47 320.882 1755.8C337.028 1728.26 367.179 1694.11 347.873 1660.88C339.23 1646 326.516 1639.43 310.821 1635.22C277.072 1575.17 328.87 1583.87 369.046 1575.4C375.95 1573.95 379.729 1569.17 382.772 1563.12C392.833 1557.72 401.671 1554.44 412.524 1550.98Z" fill="#FDFEFD"/>
<path d="M342.181 1621.01C358.662 1608.72 388.319 1589.99 406.014 1579.62C408.064 1583.52 410.195 1587.82 412.575 1591.49C409.431 1596.45 403.371 1603.83 399.239 1608.08C389.367 1619.4 381.432 1632.65 371.204 1644.23C355.275 1639.03 349.909 1636.11 342.181 1621.01Z" fill="#E75215"/>
<path d="M446.201 1636.26C462.111 1651.97 477.849 1667.86 493.41 1683.92L493.541 1683.94L546.214 1736.68C556.876 1747.34 568.895 1759.9 580.119 1769.7C540.452 1776.16 490.674 1783.02 451.911 1791.28C429.104 1795.22 404.616 1798.97 382.064 1803.42C392.335 1773.13 408.141 1718.33 407.008 1686.32L407.002 1685.62C406.99 1684.12 406.908 1677.57 407.402 1676.93C416.924 1664.44 435.525 1647.1 446.201 1636.26Z" fill="#018B7A"/>
<path d="M446.201 1636.26C462.111 1651.97 477.849 1667.86 493.41 1683.92C477.852 1700.04 462.147 1716.02 446.296 1731.86C438.856 1739.3 426.602 1750.76 419.958 1758.34C430.694 1769.24 441.345 1780.22 451.911 1791.28C429.104 1795.22 404.616 1798.97 382.064 1803.42C392.335 1773.13 408.141 1718.33 407.008 1686.32L407.002 1685.62C406.99 1684.12 406.908 1677.57 407.402 1676.93C416.924 1664.44 435.525 1647.1 446.201 1636.26Z" fill="#00A395"/>
<path d="M564.267 1613.77C583.447 1633.63 602.945 1653.18 622.755 1672.41C612.674 1695.12 602.738 1717.88 592.949 1740.71C590.078 1747.28 583.305 1764 580.119 1769.7C568.895 1759.9 556.876 1747.34 546.214 1736.68L493.541 1683.94C514.251 1665.36 544.79 1634.13 564.267 1613.77Z" fill="#00A395"/>
<path d="M267.03 1618.09C268.495 1580.84 278.332 1547.03 319.844 1537.72C352.815 1530.32 383.374 1532.86 412.524 1550.98C401.671 1554.44 392.833 1557.72 382.772 1563.12C378.887 1550.23 369.409 1545.16 356.543 1550.48C330.36 1561.32 305.113 1579.18 284.001 1597.9C278.599 1602.78 271.364 1614.13 267.03 1618.09Z" fill="#E75215"/>
<path d="M969.306 1663.73C987.052 1681.32 1005.11 1698.83 1022.14 1717.09C987 1721.21 951.902 1725.71 916.855 1730.57L914.981 1719.56L924.089 1710.41C937.444 1695.04 954.754 1678.22 969.306 1663.73Z" fill="#018B7A"/>
<path d="M422.531 1555.48C422.726 1555.5 422.921 1555.52 423.117 1555.54C440.267 1556.75 522.163 1540.98 530.384 1549.47C530.599 1549.69 530.785 1549.94 530.986 1550.17C526.766 1560.98 431.014 1584.73 412.575 1591.49C410.195 1587.82 408.064 1583.52 406.014 1579.62L403.192 1573.05C410.823 1567.76 416.25 1562.32 422.531 1555.48Z" fill="#045472"/>
<path d="M466.239 317H372.257V186.115H408.341V300.367H466.239V317ZM577.309 317H483.327V186.115H577.309V202.84H519.411V243.287H564.13V259.92H519.411V300.276H577.309V317ZM660.203 317H624.118V202.84H588.489V186.115H695.832V202.84H660.203V317ZM371.348 397.115L328.992 473.01V528H292.908V475.01L250.098 397.115H286.909L315.358 462.921L345.898 397.115H371.348ZM516.593 462.376C516.593 472.919 514.775 482.433 511.14 490.916C507.504 499.339 502.475 506.489 496.052 512.367C489.629 518.244 482.024 522.759 473.238 525.909C464.451 529.06 454.938 530.636 444.698 530.636C434.457 530.636 424.944 529.06 416.157 525.909C407.371 522.759 399.767 518.244 393.344 512.367C386.92 506.489 381.891 499.339 378.255 490.916C374.62 482.433 372.802 472.919 372.802 462.376C372.802 451.651 374.589 442.077 378.165 433.654C381.8 425.171 386.799 418.021 393.162 412.204C399.585 406.326 407.189 401.842 415.976 398.751C424.762 395.601 434.336 394.025 444.698 394.025C455.059 394.025 464.633 395.601 473.419 398.751C482.206 401.842 489.78 406.326 496.142 412.204C502.565 418.021 507.565 425.171 511.14 433.654C514.775 442.077 516.593 451.651 516.593 462.376ZM479.873 462.376C479.873 458.377 479.691 454.287 479.327 450.106C478.964 445.924 478.297 441.865 477.328 437.926C476.358 433.987 475.025 430.291 473.329 426.837C471.692 423.383 469.572 420.384 466.966 417.839C464.361 415.233 461.21 413.203 457.513 411.749C453.878 410.234 449.606 409.477 444.698 409.477C439.729 409.477 435.396 410.234 431.7 411.749C428.004 413.203 424.853 415.203 422.247 417.748C419.642 420.293 417.521 423.292 415.885 426.746C414.249 430.2 412.946 433.896 411.976 437.835C411.067 441.713 410.431 445.773 410.068 450.015C409.704 454.196 409.522 458.316 409.522 462.376C409.522 466.375 409.704 470.465 410.068 474.646C410.431 478.827 411.098 482.887 412.067 486.826C413.037 490.704 414.34 494.37 415.976 497.824C417.672 501.278 419.823 504.307 422.429 506.913C425.035 509.458 428.155 511.488 431.791 513.003C435.487 514.518 439.789 515.275 444.698 515.275C449.485 515.275 453.666 514.518 457.241 513.003C460.816 511.427 463.906 509.337 466.512 506.731C469.117 504.065 471.268 501.005 472.965 497.551C474.722 494.037 476.086 490.34 477.055 486.462C478.085 482.524 478.812 478.494 479.237 474.374C479.661 470.253 479.873 466.254 479.873 462.376ZM577.4 397.115C575.764 402.024 574.34 407.114 573.128 412.385C571.916 417.596 570.916 422.838 570.129 428.11C569.341 433.321 568.735 438.471 568.311 443.561C567.947 448.651 567.765 453.469 567.765 458.013C567.765 461.346 567.765 465.103 567.765 469.284C567.826 473.404 568.068 477.616 568.493 481.918C568.977 486.22 569.735 490.431 570.765 494.552C571.795 498.612 573.31 502.247 575.309 505.459C577.37 508.67 579.975 511.246 583.126 513.185C586.338 515.124 590.307 516.093 595.033 516.093C599.214 516.093 602.789 515.396 605.758 514.003C608.788 512.548 611.333 510.609 613.393 508.186C615.514 505.762 617.18 502.974 618.392 499.823C619.665 496.673 620.634 493.37 621.301 489.916C622.028 486.462 622.482 482.978 622.664 479.464C622.907 475.889 623.028 472.495 623.028 469.284V397.115H659.112V463.648C659.112 473.162 657.597 482.009 654.567 490.189C651.538 498.369 647.266 505.489 641.752 511.549C636.237 517.547 629.572 522.274 621.755 525.728C613.939 529.121 605.274 530.818 595.76 530.818C589.216 530.818 583.126 529.878 577.491 528C571.856 526.182 566.675 523.667 561.948 520.456C557.282 517.184 553.101 513.336 549.405 508.913C545.77 504.429 542.709 499.551 540.225 494.279C537.801 489.007 535.953 483.463 534.681 477.646C533.408 471.768 532.833 465.83 532.954 459.831V458.013C533.014 453.166 533.499 448.166 534.408 443.016C535.317 437.805 536.529 432.594 538.044 427.382C539.619 422.171 541.498 417.021 543.679 411.931C545.86 406.78 548.284 401.842 550.95 397.115H577.4ZM723.282 528H687.198V397.115H751.549C757.609 397.115 763.456 397.843 769.091 399.297C774.727 400.691 779.695 402.933 783.998 406.023C788.36 409.053 791.814 412.991 794.359 417.839C796.965 422.686 798.268 428.564 798.268 435.472C798.268 440.865 797.116 445.955 794.814 450.742C792.572 455.468 789.542 459.71 785.725 463.467C781.968 467.163 777.635 470.253 772.727 472.738C767.819 475.161 762.729 476.767 757.457 477.555C759.82 481.554 762.274 485.341 764.819 488.916C767.425 492.492 770.031 495.855 772.636 499.005C775.302 502.096 777.938 504.974 780.544 507.64C783.149 510.246 785.634 512.639 787.997 514.821C793.572 519.911 799.086 524.304 804.539 528H759.548C755.912 524.546 752.458 520.395 749.186 515.548C746.399 511.427 743.581 506.337 740.733 500.278C737.946 494.158 735.794 487.099 734.28 479.1H723.282V528ZM761.638 435.472C761.638 426.686 759.487 420.232 755.185 416.112C750.943 411.991 744.55 409.931 736.007 409.931H723.282V466.739H736.007C740.551 466.739 744.429 465.89 747.641 464.194C750.913 462.437 753.579 460.134 755.639 457.286C757.699 454.377 759.214 451.045 760.184 447.288C761.153 443.531 761.638 439.592 761.638 435.472ZM236.373 703.461C236.373 707.157 235.767 710.611 234.555 713.823C233.343 717.034 231.677 719.973 229.556 722.639C227.435 725.245 224.951 727.578 222.103 729.638C219.316 731.698 216.286 733.425 213.014 734.819C209.802 736.213 206.469 737.273 203.016 738C199.562 738.667 196.168 739 192.836 739H115.85V608.115H186.201C189.291 608.115 192.533 608.358 195.926 608.843C199.319 609.267 202.622 609.964 205.833 610.933C209.105 611.903 212.196 613.175 215.104 614.751C218.073 616.326 220.649 618.265 222.83 620.568C225.072 622.81 226.829 625.415 228.102 628.384C229.435 631.354 230.101 634.747 230.101 638.564C230.101 642.2 229.374 645.502 227.92 648.472C226.466 651.441 224.496 654.107 222.012 656.47C219.588 658.773 216.771 660.833 213.559 662.651C210.408 664.408 207.075 665.953 203.561 667.286C207.984 668.498 212.165 670.104 216.104 672.103C220.103 674.103 223.587 676.557 226.557 679.466C229.586 682.374 231.98 685.828 233.737 689.827C235.494 693.766 236.373 698.311 236.373 703.461ZM193.472 641.746C193.472 634.353 191.503 628.96 187.564 625.567C183.686 622.173 178.141 620.477 170.931 620.477H151.934V662.923H167.84C171.112 662.923 174.294 662.529 177.384 661.742C180.474 660.893 183.201 659.621 185.564 657.924C187.988 656.167 189.897 653.955 191.29 651.289C192.745 648.623 193.472 645.442 193.472 641.746ZM199.834 701.189C199.834 697.614 199.38 694.281 198.471 691.191C197.562 688.04 196.168 685.343 194.29 683.101C192.411 680.799 190.048 679.011 187.2 677.739C184.413 676.406 181.111 675.739 177.293 675.739H151.934V726.275H174.112C177.808 726.275 181.232 725.669 184.383 724.457C187.534 723.245 190.26 721.549 192.563 719.367C194.866 717.186 196.653 714.55 197.926 711.46C199.198 708.369 199.834 704.946 199.834 701.189ZM294.089 739H258.005V608.115H322.357C328.416 608.115 334.264 608.843 339.899 610.297C345.534 611.691 350.503 613.933 354.805 617.023C359.168 620.053 362.622 623.991 365.167 628.839C367.773 633.686 369.075 639.564 369.075 646.472C369.075 651.865 367.924 656.955 365.621 661.742C363.379 666.468 360.35 670.71 356.532 674.467C352.775 678.163 348.443 681.253 343.535 683.738C338.626 686.161 333.537 687.767 328.265 688.555C330.628 692.554 333.082 696.341 335.627 699.916C338.233 703.492 340.838 706.855 343.444 710.005C346.11 713.096 348.746 715.974 351.351 718.64C353.957 721.246 356.441 723.639 358.805 725.821C364.379 730.911 369.893 735.304 375.347 739H330.355C326.72 735.546 323.266 731.395 319.994 726.548C317.206 722.427 314.389 717.337 311.541 711.278C308.753 705.158 306.602 698.099 305.087 690.1H294.089V739ZM332.446 646.472C332.446 637.686 330.295 631.232 325.992 627.112C321.751 622.991 315.358 620.931 306.814 620.931H294.089V677.739H306.814C311.359 677.739 315.237 676.89 318.448 675.194C321.721 673.437 324.387 671.134 326.447 668.286C328.507 665.377 330.022 662.045 330.992 658.288C331.961 654.531 332.446 650.592 332.446 646.472ZM486.326 739H392.344V608.115H486.326V624.84H428.428V665.287H473.147V681.92H428.428V722.276H486.326V739ZM633.299 676.375V678.102C633.177 683.192 632.632 688.464 631.662 693.918C630.754 699.371 629.451 704.825 627.754 710.278C626.057 715.732 624.028 721.125 621.664 726.457C619.301 731.789 616.635 736.879 613.666 741.727C610.757 746.635 607.606 751.21 604.213 755.451C600.82 759.754 597.245 763.541 593.488 766.813L579.945 758.996C582.066 755.421 583.974 751.513 585.671 747.271C587.428 743.09 589.004 738.697 590.397 734.092C591.791 729.487 592.973 724.76 593.942 719.913C594.972 715.065 595.821 710.248 596.487 705.461C597.154 700.674 597.639 695.978 597.942 691.373C598.305 686.707 598.487 682.283 598.487 678.102C598.487 674.83 598.457 671.134 598.396 667.013C598.396 662.832 598.154 658.591 597.669 654.289C597.245 649.986 596.518 645.805 595.487 641.746C594.457 637.625 592.912 633.959 590.852 630.748C588.852 627.536 586.247 624.961 583.035 623.022C579.884 621.083 575.946 620.113 571.219 620.113C567.038 620.113 563.433 620.84 560.403 622.295C557.434 623.688 554.889 625.597 552.768 628.021C550.708 630.384 549.042 633.141 547.769 636.292C546.557 639.443 545.588 642.776 544.861 646.29C544.194 649.744 543.74 653.258 543.497 656.834C543.315 660.348 543.225 663.681 543.225 666.832V692.191H582.399V707.188H543.225V739H507.14V672.467C507.14 662.954 508.655 654.107 511.685 645.927C514.715 637.746 518.987 630.657 524.501 624.658C530.075 618.598 536.741 613.872 544.497 610.479C552.314 607.025 561.009 605.298 570.583 605.298C577.067 605.298 583.126 606.237 588.761 608.115C594.457 609.933 599.638 612.478 604.304 615.75C608.97 618.962 613.12 622.81 616.756 627.294C620.452 631.717 623.512 636.565 625.936 641.836C628.421 647.108 630.299 652.683 631.572 658.561C632.844 664.438 633.42 670.376 633.299 676.375ZM681.108 641.382L670.928 739H648.659L670.928 608.115H703.922L734.552 708.006L765.546 608.115H798.54L817.082 739H780.362L769.546 643.927L744.005 739H711.011L681.108 641.382ZM948.24 699.007C948.24 704.643 947.512 709.612 946.058 713.914C944.664 718.216 942.665 721.943 940.059 725.094C937.514 728.244 934.485 730.88 930.97 733.001C927.456 735.122 923.608 736.819 919.427 738.091C915.306 739.364 910.913 740.272 906.247 740.818C901.642 741.363 896.946 741.636 892.159 741.636C885.857 741.636 880.04 741.151 874.708 740.182C869.376 739.273 864.346 737.818 859.62 735.819C854.954 733.759 850.44 731.123 846.077 727.911C841.775 724.7 837.472 720.791 833.17 716.186L851.712 697.371C853.409 701.552 855.742 705.431 858.711 709.006C861.68 712.52 864.922 715.55 868.436 718.095C872.011 720.64 875.708 722.639 879.525 724.094C883.343 725.548 886.948 726.275 890.341 726.275C894.341 726.275 898.097 726.002 901.612 725.457C905.126 724.851 908.186 723.882 910.792 722.549C913.398 721.215 915.428 719.458 916.882 717.277C918.397 715.035 919.154 712.247 919.154 708.915C919.154 706.37 918.578 704.188 917.427 702.371C916.276 700.553 914.761 699.007 912.883 697.735C911.065 696.402 908.974 695.281 906.611 694.372C904.248 693.463 901.824 692.706 899.34 692.1C896.916 691.433 894.522 690.858 892.159 690.373C889.796 689.827 887.705 689.282 885.888 688.737C882.313 687.707 878.586 686.616 874.708 685.465C870.83 684.253 867.012 682.889 863.255 681.374C859.499 679.86 855.924 678.133 852.53 676.194C849.197 674.194 846.259 671.861 843.714 669.195C841.169 666.468 839.139 663.348 837.624 659.833C836.109 656.258 835.352 652.168 835.352 647.563C835.352 642.048 836.018 637.171 837.351 632.929C838.745 628.627 840.684 624.9 843.168 621.749C845.653 618.598 848.592 615.962 851.985 613.842C855.378 611.66 859.105 609.933 863.165 608.661C867.224 607.328 871.527 606.388 876.071 605.843C880.676 605.237 885.373 604.934 890.16 604.934C896.704 604.934 902.642 605.54 907.974 606.752C913.367 607.964 918.336 609.691 922.881 611.933C927.425 614.175 931.576 616.871 935.333 620.022C939.15 623.113 942.725 626.567 946.058 630.384L927.516 649.199C926.062 644.836 924.032 640.897 921.426 637.383C918.881 633.868 916.033 630.869 912.883 628.384C909.732 625.839 906.429 623.9 902.975 622.567C899.521 621.174 896.189 620.477 892.977 620.477C888.796 620.477 884.948 620.78 881.434 621.386C877.919 621.931 874.89 622.87 872.345 624.203C869.86 625.476 867.921 627.233 866.528 629.475C865.134 631.656 864.437 634.383 864.437 637.655C864.437 640.261 864.952 642.473 865.982 644.29C867.012 646.108 868.376 647.653 870.072 648.926C871.83 650.198 873.799 651.259 875.98 652.107C878.162 652.895 880.404 653.592 882.706 654.198C885.07 654.804 887.372 655.349 889.614 655.834C891.917 656.258 894.007 656.743 895.886 657.288C899.521 658.318 903.339 659.409 907.338 660.56C911.337 661.711 915.276 663.075 919.154 664.65C923.032 666.165 926.728 667.922 930.243 669.922C933.757 671.922 936.848 674.315 939.514 677.103C942.18 679.829 944.301 683.01 945.876 686.646C947.452 690.221 948.24 694.342 948.24 699.007ZM534.59 914.461C534.59 918.157 533.984 921.611 532.772 924.823C531.56 928.034 529.894 930.973 527.773 933.639C525.652 936.245 523.168 938.578 520.32 940.638C517.532 942.698 514.503 944.425 511.231 945.819C508.019 947.213 504.686 948.273 501.232 949C497.778 949.667 494.385 950 491.052 950H414.067V819.115H484.417C487.508 819.115 490.749 819.358 494.143 819.843C497.536 820.267 500.839 820.964 504.05 821.933C507.322 822.903 510.412 824.175 513.321 825.751C516.29 827.326 518.865 829.265 521.047 831.568C523.289 833.81 525.046 836.415 526.319 839.384C527.652 842.354 528.318 845.747 528.318 849.564C528.318 853.2 527.591 856.502 526.137 859.472C524.683 862.441 522.713 865.107 520.229 867.47C517.805 869.773 514.987 871.833 511.776 873.651C508.625 875.408 505.292 876.953 501.778 878.286C506.201 879.498 510.382 881.104 514.321 883.103C518.32 885.103 521.804 887.557 524.773 890.466C527.803 893.374 530.197 896.828 531.954 900.827C533.711 904.766 534.59 909.311 534.59 914.461ZM491.689 852.746C491.689 845.353 489.719 839.96 485.781 836.567C481.903 833.173 476.358 831.477 469.147 831.477H450.151V873.923H466.057C469.329 873.923 472.51 873.529 475.601 872.742C478.691 871.893 481.418 870.621 483.781 868.924C486.205 867.167 488.114 864.955 489.507 862.289C490.962 859.623 491.689 856.442 491.689 852.746ZM498.051 912.189C498.051 908.614 497.597 905.281 496.688 902.191C495.779 899.04 494.385 896.343 492.507 894.101C490.628 891.799 488.265 890.011 485.417 888.739C482.63 887.406 479.327 886.739 475.51 886.739H450.151V937.275H472.329C476.025 937.275 479.449 936.669 482.6 935.457C485.75 934.245 488.477 932.549 490.78 930.367C493.082 928.186 494.87 925.55 496.142 922.46C497.415 919.369 498.051 915.946 498.051 912.189ZM650.204 950H556.222V819.115H650.204V835.84H592.306V876.287H637.025V892.92H592.306V933.276H650.204V950ZM371.348 1030.12L328.992 1106.01V1161H292.908V1108.01L250.098 1030.12H286.909L315.358 1095.92L345.898 1030.12H371.348ZM516.593 1095.38C516.593 1105.92 514.775 1115.43 511.14 1123.92C507.504 1132.34 502.475 1139.49 496.052 1145.37C489.629 1151.24 482.024 1155.76 473.238 1158.91C464.451 1162.06 454.938 1163.64 444.698 1163.64C434.457 1163.64 424.944 1162.06 416.157 1158.91C407.371 1155.76 399.767 1151.24 393.344 1145.37C386.92 1139.49 381.891 1132.34 378.255 1123.92C374.62 1115.43 372.802 1105.92 372.802 1095.38C372.802 1084.65 374.589 1075.08 378.165 1066.65C381.8 1058.17 386.799 1051.02 393.162 1045.2C399.585 1039.33 407.189 1034.84 415.976 1031.75C424.762 1028.6 434.336 1027.03 444.698 1027.03C455.059 1027.03 464.633 1028.6 473.419 1031.75C482.206 1034.84 489.78 1039.33 496.142 1045.2C502.565 1051.02 507.565 1058.17 511.14 1066.65C514.775 1075.08 516.593 1084.65 516.593 1095.38ZM479.873 1095.38C479.873 1091.38 479.691 1087.29 479.327 1083.11C478.964 1078.92 478.297 1074.86 477.328 1070.93C476.358 1066.99 475.025 1063.29 473.329 1059.84C471.692 1056.38 469.572 1053.38 466.966 1050.84C464.361 1048.23 461.21 1046.2 457.513 1044.75C453.878 1043.23 449.606 1042.48 444.698 1042.48C439.729 1042.48 435.396 1043.23 431.7 1044.75C428.004 1046.2 424.853 1048.2 422.247 1050.75C419.642 1053.29 417.521 1056.29 415.885 1059.75C414.249 1063.2 412.946 1066.9 411.976 1070.84C411.067 1074.71 410.431 1078.77 410.068 1083.01C409.704 1087.2 409.522 1091.32 409.522 1095.38C409.522 1099.38 409.704 1103.47 410.068 1107.65C410.431 1111.83 411.098 1115.89 412.067 1119.83C413.037 1123.7 414.34 1127.37 415.976 1130.82C417.672 1134.28 419.823 1137.31 422.429 1139.91C425.035 1142.46 428.155 1144.49 431.791 1146C435.487 1147.52 439.789 1148.28 444.698 1148.28C449.485 1148.28 453.666 1147.52 457.241 1146C460.816 1144.43 463.906 1142.34 466.512 1139.73C469.117 1137.07 471.268 1134.01 472.965 1130.55C474.722 1127.04 476.086 1123.34 477.055 1119.46C478.085 1115.52 478.812 1111.49 479.237 1107.37C479.661 1103.25 479.873 1099.25 479.873 1095.38ZM577.4 1030.12C575.764 1035.02 574.34 1040.11 573.128 1045.39C571.916 1050.6 570.916 1055.84 570.129 1061.11C569.341 1066.32 568.735 1071.47 568.311 1076.56C567.947 1081.65 567.765 1086.47 567.765 1091.01C567.765 1094.35 567.765 1098.1 567.765 1102.28C567.826 1106.4 568.068 1110.62 568.493 1114.92C568.977 1119.22 569.735 1123.43 570.765 1127.55C571.795 1131.61 573.31 1135.25 575.309 1138.46C577.37 1141.67 579.975 1144.25 583.126 1146.18C586.338 1148.12 590.307 1149.09 595.033 1149.09C599.214 1149.09 602.789 1148.4 605.758 1147C608.788 1145.55 611.333 1143.61 613.393 1141.19C615.514 1138.76 617.18 1135.97 618.392 1132.82C619.665 1129.67 620.634 1126.37 621.301 1122.92C622.028 1119.46 622.482 1115.98 622.664 1112.46C622.907 1108.89 623.028 1105.5 623.028 1102.28V1030.12H659.112V1096.65C659.112 1106.16 657.597 1115.01 654.567 1123.19C651.538 1131.37 647.266 1138.49 641.752 1144.55C636.237 1150.55 629.572 1155.27 621.755 1158.73C613.939 1162.12 605.274 1163.82 595.76 1163.82C589.216 1163.82 583.126 1162.88 577.491 1161C571.856 1159.18 566.675 1156.67 561.948 1153.46C557.282 1150.18 553.101 1146.34 549.405 1141.91C545.77 1137.43 542.709 1132.55 540.225 1127.28C537.801 1122.01 535.953 1116.46 534.681 1110.65C533.408 1104.77 532.833 1098.83 532.954 1092.83V1091.01C533.014 1086.17 533.499 1081.17 534.408 1076.02C535.317 1070.8 536.529 1065.59 538.044 1060.38C539.619 1055.17 541.498 1050.02 543.679 1044.93C545.86 1039.78 548.284 1034.84 550.95 1030.12H577.4ZM723.282 1161H687.198V1030.12H751.549C757.609 1030.12 763.456 1030.84 769.091 1032.3C774.727 1033.69 779.695 1035.93 783.998 1039.02C788.36 1042.05 791.814 1045.99 794.359 1050.84C796.965 1055.69 798.268 1061.56 798.268 1068.47C798.268 1073.86 797.116 1078.95 794.814 1083.74C792.572 1088.47 789.542 1092.71 785.725 1096.47C781.968 1100.16 777.635 1103.25 772.727 1105.74C767.819 1108.16 762.729 1109.77 757.457 1110.55C759.82 1114.55 762.274 1118.34 764.819 1121.92C767.425 1125.49 770.031 1128.85 772.636 1132.01C775.302 1135.1 777.938 1137.97 780.544 1140.64C783.149 1143.25 785.634 1145.64 787.997 1147.82C793.572 1152.91 799.086 1157.3 804.539 1161H759.548C755.912 1157.55 752.458 1153.4 749.186 1148.55C746.399 1144.43 743.581 1139.34 740.733 1133.28C737.946 1127.16 735.794 1120.1 734.28 1112.1H723.282V1161ZM761.638 1068.47C761.638 1059.69 759.487 1053.23 755.185 1049.11C750.943 1044.99 744.55 1042.93 736.007 1042.93H723.282V1099.74H736.007C740.551 1099.74 744.429 1098.89 747.641 1097.19C750.913 1095.44 753.579 1093.13 755.639 1090.29C757.699 1087.38 759.214 1084.04 760.184 1080.29C761.153 1076.53 761.638 1072.59 761.638 1068.47ZM232.646 1372H199.653L165.295 1241.12H202.107L223.83 1334.01L243.099 1241.12H276.184L297.271 1336.37L320.993 1241.12H343.262L305.178 1372H272.094L253.642 1288.38L232.646 1372ZM397.979 1372H361.895V1241.12H397.979V1372ZM444.425 1372H427.701V1241.12H451.151L530.681 1331.01V1241.12H547.315V1372H523.865L444.425 1282.2V1372ZM695.832 1273.56L680.29 1280.11C679.078 1276.17 677.442 1272.56 675.382 1269.29C673.382 1266.02 670.958 1263.23 668.11 1260.93C665.323 1258.57 662.142 1256.75 658.567 1255.48C654.991 1254.14 651.083 1253.48 646.841 1253.48C642.297 1253.48 638.116 1254.23 634.298 1255.75C630.541 1257.26 627.148 1259.32 624.118 1261.93C621.149 1264.47 618.544 1267.47 616.302 1270.93C614.06 1274.38 612.181 1278.08 610.666 1282.02C609.212 1285.89 608.091 1289.92 607.303 1294.11C606.576 1298.29 606.213 1302.38 606.213 1306.38C606.213 1312.74 606.94 1319.07 608.394 1325.37C609.909 1331.67 612.272 1337.34 615.484 1342.37C618.756 1347.4 622.967 1351.49 628.118 1354.64C633.268 1357.73 639.51 1359.28 646.841 1359.28C650.841 1359.28 653.961 1358.4 656.203 1356.64C658.445 1354.82 659.566 1351.67 659.566 1347.19V1307.01H695.65V1372H685.198L678.835 1361.73C673.018 1366.15 666.595 1369.42 659.566 1371.55C652.598 1373.61 645.478 1374.64 638.207 1374.64C631.784 1374.64 625.603 1373.85 619.665 1372.27C613.787 1370.7 608.303 1368.46 603.213 1365.55C598.123 1362.64 593.488 1359.12 589.307 1355C585.186 1350.88 581.642 1346.31 578.672 1341.28C575.764 1336.25 573.492 1330.8 571.856 1324.92C570.28 1318.98 569.492 1312.8 569.492 1306.38C569.492 1299.95 570.28 1293.8 571.856 1287.92C573.492 1281.99 575.764 1276.5 578.672 1271.47C581.642 1266.38 585.186 1261.78 589.307 1257.66C593.488 1253.54 598.123 1250.02 603.213 1247.11C608.303 1244.21 613.787 1241.96 619.665 1240.39C625.603 1238.81 631.784 1238.03 638.207 1238.03C644.387 1238.03 650.417 1238.75 656.294 1240.21C662.233 1241.66 667.747 1243.87 672.837 1246.84C677.927 1249.75 682.441 1253.45 686.38 1257.93C690.379 1262.35 693.53 1267.57 695.832 1273.56ZM828.535 1332.01C828.535 1337.64 827.808 1342.61 826.353 1346.91C824.96 1351.22 822.96 1354.94 820.354 1358.09C817.809 1361.24 814.78 1363.88 811.265 1366C807.751 1368.12 803.903 1369.82 799.722 1371.09C795.601 1372.36 791.208 1373.27 786.543 1373.82C781.937 1374.36 777.241 1374.64 772.454 1374.64C766.152 1374.64 760.335 1374.15 755.003 1373.18C749.671 1372.27 744.641 1370.82 739.915 1368.82C735.249 1366.76 730.735 1364.12 726.372 1360.91C722.07 1357.7 717.768 1353.79 713.465 1349.19L732.007 1330.37C733.704 1334.55 736.037 1338.43 739.006 1342.01C741.975 1345.52 745.217 1348.55 748.731 1351.09C752.307 1353.64 756.003 1355.64 759.82 1357.09C763.638 1358.55 767.243 1359.28 770.636 1359.28C774.636 1359.28 778.393 1359 781.907 1358.46C785.422 1357.85 788.482 1356.88 791.087 1355.55C793.693 1354.22 795.723 1352.46 797.177 1350.28C798.692 1348.03 799.449 1345.25 799.449 1341.91C799.449 1339.37 798.874 1337.19 797.722 1335.37C796.571 1333.55 795.056 1332.01 793.178 1330.74C791.36 1329.4 789.269 1328.28 786.906 1327.37C784.543 1326.46 782.119 1325.71 779.635 1325.1C777.211 1324.43 774.817 1323.86 772.454 1323.37C770.091 1322.83 768.001 1322.28 766.183 1321.74C762.608 1320.71 758.881 1319.62 755.003 1318.46C751.125 1317.25 747.307 1315.89 743.551 1314.37C739.794 1312.86 736.219 1311.13 732.825 1309.19C729.493 1307.19 726.554 1304.86 724.009 1302.19C721.464 1299.47 719.434 1296.35 717.919 1292.83C716.404 1289.26 715.647 1285.17 715.647 1280.56C715.647 1275.05 716.313 1270.17 717.646 1265.93C719.04 1261.63 720.979 1257.9 723.463 1254.75C725.948 1251.6 728.887 1248.96 732.28 1246.84C735.673 1244.66 739.4 1242.93 743.46 1241.66C747.52 1240.33 751.822 1239.39 756.366 1238.84C760.972 1238.24 765.668 1237.93 770.455 1237.93C776.999 1237.93 782.937 1238.54 788.269 1239.75C793.662 1240.96 798.631 1242.69 803.176 1244.93C807.72 1247.17 811.871 1249.87 815.628 1253.02C819.445 1256.11 823.021 1259.57 826.353 1263.38L807.811 1282.2C806.357 1277.84 804.327 1273.9 801.721 1270.38C799.177 1266.87 796.329 1263.87 793.178 1261.38C790.027 1258.84 786.724 1256.9 783.27 1255.57C779.817 1254.17 776.484 1253.48 773.272 1253.48C769.091 1253.48 765.243 1253.78 761.729 1254.39C758.214 1254.93 755.185 1255.87 752.64 1257.2C750.155 1258.48 748.216 1260.23 746.823 1262.48C745.429 1264.66 744.732 1267.38 744.732 1270.66C744.732 1273.26 745.247 1275.47 746.277 1277.29C747.307 1279.11 748.671 1280.65 750.367 1281.93C752.125 1283.2 754.094 1284.26 756.275 1285.11C758.457 1285.89 760.699 1286.59 763.001 1287.2C765.365 1287.8 767.667 1288.35 769.909 1288.83C772.212 1289.26 774.302 1289.74 776.181 1290.29C779.817 1291.32 783.634 1292.41 787.633 1293.56C791.632 1294.71 795.571 1296.07 799.449 1297.65C803.327 1299.17 807.024 1300.92 810.538 1302.92C814.053 1304.92 817.143 1307.32 819.809 1310.1C822.475 1312.83 824.596 1316.01 826.171 1319.65C827.747 1323.22 828.535 1327.34 828.535 1332.01ZM886.069 1232.03L875.889 1336.1H857.257L847.168 1232.03H886.069ZM883.161 1358.37C883.161 1360.67 882.706 1362.85 881.797 1364.91C880.949 1366.91 879.767 1368.67 878.253 1370.18C876.798 1371.64 875.041 1372.79 872.981 1373.64C870.981 1374.54 868.86 1375 866.618 1375C864.316 1375 862.134 1374.54 860.074 1373.64C858.075 1372.79 856.317 1371.64 854.802 1370.18C853.348 1368.67 852.167 1366.91 851.258 1364.91C850.409 1362.85 849.985 1360.67 849.985 1358.37C849.985 1356.12 850.409 1354 851.258 1352C852.167 1349.94 853.348 1348.19 854.802 1346.73C856.317 1345.22 858.075 1344.04 860.074 1343.19C862.134 1342.28 864.316 1341.82 866.618 1341.82C868.86 1341.82 870.981 1342.28 872.981 1343.19C875.041 1344.04 876.798 1345.22 878.253 1346.73C879.767 1348.19 880.949 1349.94 881.797 1352C882.706 1354 883.161 1356.12 883.161 1358.37Z" fill="#EA5928"/>
</svg>
