<svg width="955" height="984" viewBox="0 0 955 984" fill="none" xmlns="http://www.w3.org/2000/svg">
<path d="M152.738 58.1805C148.721 50.3485 147.642 45.7895 147.188 37.015C145.846 34.8405 143.144 35.1605 141.075 33.9467C139.03 32.7469 138.163 30.501 137.747 28.2773C136.616 22.231 138.686 16.0784 142.142 11.1393C145.897 5.77461 151.713 1.56606 158.282 0.606911C162.689 -0.0365393 166.079 0.883312 169.557 3.58646C172.088 3.00646 174.66 2.53526 177.254 2.35041C190.705 1.39171 206.779 6.40786 217.027 15.2428C222.54 19.9957 225.684 25.4475 226.18 32.7129C228.93 30.6048 230.651 28.1995 234.354 27.9217L235.04 28.5124C235.008 28.7081 234.994 28.9075 234.944 29.0994C234.016 32.669 230.347 34.5285 227.367 36.138C229.204 43.2375 230.335 54.576 226.365 61.0565C224.899 63.4505 223.712 63.9645 221.044 64.6605L220.37 64.8305C218.936 67.2265 218.591 73.2795 217.684 76.4185C242.468 60.906 273.718 47.912 301.739 39.534C301.75 39.458 301.761 39.382 301.77 39.3055C302.136 36.382 302.834 33.9714 304.043 31.294C309.192 19.8863 318.807 10.0988 330.629 5.69646C340.747 2.00816 351.917 2.49971 361.672 7.06256C373.776 12.7412 381.773 23.8457 386.101 36.2345C395.258 62.45 387.953 92.03 380.694 117.853C378.665 125.073 376.87 133.415 373.528 140.14C372.585 142.037 371.353 144.05 369.521 145.21C366.374 147.201 361.379 148.15 357.796 149.398C343.353 154.425 328.849 159.273 314.286 163.941C297.929 169.109 281.204 173.839 265.042 179.534C260.561 181.113 252.753 186.409 248.445 186.316C243.532 187.429 238.53 189.986 233.872 191.917C219.709 197.789 195.735 209.434 181.398 211.504C174.754 208.083 171.636 202.943 168.554 196.468C156.458 190.002 144.977 182.538 132.665 176.439C132.529 180.911 131.697 185.345 130.571 189.662C148.864 200.565 170.78 213.479 181.185 232.673C186.171 241.87 190.972 255.493 187.725 265.922C185.22 273.965 179.739 281.626 174.691 288.255C157.283 311.119 133.867 334.343 113.48 354.77C107.112 361.15 99.2673 370.654 91.4308 374.858L87.9608 371.958C85.5948 375.822 83.2983 379.508 80.0033 382.661C84.1303 394.12 91.3838 406.947 93.3443 418.842C93.9703 422.64 94.1548 429.547 91.4368 432.626C90.6048 433.569 89.6173 434.197 88.3148 434.163C86.1218 434.106 83.9378 432.481 82.2663 431.201C76.6038 426.865 71.6558 421.374 66.5418 416.396C59.9138 409.944 53.0928 403.689 46.4393 397.261C50.8058 405.826 53.7343 412.2 53.7038 422.003C53.6903 426.364 52.6683 430.635 49.3408 433.732C48.1523 434.838 46.6378 435.708 44.9628 435.589C42.6503 435.424 40.4998 432.641 38.9453 430.987C33.438 425.13 29.2262 418.174 23.9111 412.151C16.3185 403.547 7.78865 395.802 0.395996 386.997C2.19625 383.619 4.86135 378.018 8.92005 377.115C9.9353 376.889 11.678 377.157 12.5425 376.672C13.5121 376.127 14.8158 374.556 15.5939 373.74C22.1125 366.907 23.5335 362.211 33.263 359.078C31.7094 357.696 30.2312 356.222 28.7328 354.779C35.8093 343.674 44.3193 333.116 52.0948 322.466C62.3228 308.455 71.6803 293.86 81.4478 279.532C88.0738 269.812 95.4163 260.473 101.373 250.321C94.3958 247.872 86.8368 246.779 79.7263 244.67C63.6203 239.894 45.4223 228.122 37.2823 213.029C32.6802 204.495 27.6969 183.835 30.4487 174.822C40.1648 142.999 84.4508 111.648 112.962 96.364C111.603 95.5985 110.159 94.8295 108.945 93.8405C105.96 91.411 103.586 87.6135 103.216 83.743C102.929 80.8415 103.818 77.947 105.684 75.7065C109.101 71.6285 113.404 71.413 118.311 70.9325C117.492 68.385 116.868 66.183 117.456 63.51C118.184 60.2 120.945 57.532 123.732 55.798C131.624 50.8885 137.679 59.6755 144.869 61.187C147.833 61.81 150.377 59.6755 152.738 58.1805Z" fill="black"/>
<path d="M307.886 41.9375C327.048 49.036 342.775 77.6875 351.08 95.694C357.643 109.925 363.593 126.262 365.835 141.812C340.28 151.976 313.362 159.847 287.186 168.309C281.856 170.033 276.375 171.424 271.092 173.266L270.581 172.124C276.671 170.659 280.953 170.091 284.423 164.411C285.943 161.923 288.793 158.504 289.351 155.745C289.015 154.851 288.648 154.092 288.15 153.276C288.669 151.261 289.473 149.169 289.052 147.088C288.143 145.626 286.997 145.131 285.376 144.777C278.256 143.224 273.076 147.559 266.555 147.726C267.49 145.713 269.271 142.774 268.712 140.512C268.555 139.876 268.078 139.682 267.595 139.295C262.885 138.628 258.154 142.082 254.565 144.805C249.06 148.983 243.314 153.572 238.406 158.425L234.777 156.4C227.108 158.606 219.601 161.626 212.158 164.498C213.448 132.932 220.732 113.077 244.373 91.174C258.692 77.9085 278.929 67.0415 298.913 67.4235C302.486 69.9935 306.037 72.596 310.72 71.774C312.645 71.436 314.424 70.3995 315.512 68.753C316.449 67.3165 316.774 65.566 316.415 63.889C315.945 61.7145 314.413 59.9435 312.487 58.895C310.036 57.5605 306.098 56.925 303.412 57.841C299.798 59.073 299.595 63.489 296.51 64.735C294.039 65.733 290.184 65.384 287.483 65.7865C283.948 66.3125 280.4 67.252 277.01 68.373C251.348 76.8605 227.411 98.797 216.667 123.615C212.681 132.822 210.634 142.8 209.716 152.757C209.381 156.393 209.67 160.569 208.919 164.094C208.655 165.334 208.487 165.364 207.466 165.994C206.341 165.756 206.089 165.759 205.4 164.753C199.356 155.917 203.717 106.129 206.16 95.784C208.124 87.469 213.516 83.766 220.409 79.6115C243.1 65.9385 281.992 48.1235 307.886 41.9375Z" fill="#BE9D98"/>
<path d="M155.264 82.5625C155.977 82.659 156.556 82.8325 157.193 83.1765C160.712 85.0765 164.04 90.6555 166.404 93.8455C170.183 98.9465 174.128 103.925 177.221 109.489C186.414 126.025 190.204 146.84 194.957 165.07C195.644 167.703 196.364 171.541 198.823 172.98C206.109 172.432 227.133 162.97 235.729 160.113C240.093 163.317 243.36 167.595 245.569 172.532C246.924 175.563 247.642 178.524 246.431 181.698C241.58 185.621 198.452 202.399 189.838 204.978C187.422 205.701 184.654 206.373 182.128 206.267C180.718 206.208 179.958 205.927 178.929 204.974C170.335 197.013 158.022 156.944 154.354 144.203C152.595 138.093 148.726 119.19 145.291 115.598C144.004 115.514 144.15 115.677 143.186 116.407C142.211 120.704 148.049 137.109 149.43 141.879C151.008 146.913 152.444 151.991 153.733 157.106C145.306 160.139 135.638 160.537 127.015 157.98C124.005 157.088 121.081 155.644 118.039 154.912C116.211 154.472 114.136 154.181 112.484 155.175L112.859 156.157C117.35 160.13 123.794 161.833 129.426 163.481C128.067 172.024 129.392 182.815 125.395 190.59C123.677 193.931 120.423 195.535 116.965 196.606C97.5773 202.61 64.7983 205.677 46.5168 195.713C41.7213 193.099 35.1543 188.369 33.8251 182.823C32.4379 177.034 38.3183 167.019 41.3433 162.142C46.7178 153.611 53.1213 145.773 60.4093 138.805C81.1093 119.156 127.479 89.1005 155.264 82.5625Z" fill="#7F847C"/>
<path d="M35.3481 193.219C38.6881 195.507 41.9576 198.402 45.6011 200.161C62.2066 208.18 82.4356 206.887 100.244 204.426C116.929 216.218 137.182 223.062 152.872 236.267C157.392 240.072 162.39 244.681 162.745 250.948C164.17 276.055 105.941 332.89 89.7016 350.914C86.6871 354.044 83.8381 357.354 80.9371 360.59C77.7656 357.54 75.0096 354.077 72.1836 350.712C76.3071 344.357 81.0481 338.336 85.4016 332.128L114.391 290.484C120.212 282.106 126.722 273.718 131.438 264.656C131.858 263.849 131.933 263.765 132.693 263.138C133.996 263.165 135.374 263.305 136.622 262.872C137.369 262.612 137.369 262.16 137.689 261.502C134.754 251.834 85.3901 242.208 74.6416 238.097C67.1756 235.177 60.2421 231.046 54.1201 225.87C44.2061 217.59 36.5086 206.373 35.3481 193.219Z" fill="white"/>
<path d="M129.385 193.906C141.468 202.925 155.062 209.635 165.97 220.312C175.55 229.69 184.597 245.213 184.435 259.002C184.354 265.955 179.734 273.404 175.958 279.017C166.429 293.18 153.85 305.978 142.171 318.39C125.895 335.955 109.137 353.067 91.915 369.706C88.602 367.557 85.8065 365.101 82.9045 362.434C82.7005 360.646 86.027 357.876 87.293 356.561C110.366 332.604 134.041 309.099 152.38 281.187C157.931 272.737 167.01 258.631 164.521 247.968C160.751 231.824 116.388 212.814 102.786 203.983C111.285 202.663 123.589 200.936 129.385 193.906Z" fill="white"/>
<path d="M338.309 24.5696C339.478 24.4882 340.649 24.4302 341.821 24.3958C347.212 24.2565 352.384 26.9631 356.166 30.6737C371.564 45.7844 370.353 80.6994 369.086 100.982C368.532 109.86 367.224 118.703 367.361 127.612C366.149 123.187 364.721 118.872 363.237 114.533C354.167 88.6084 340.614 63.0879 320.353 44.2219C321.51 41.6229 322.653 39.0029 323.916 36.4539C327.011 30.2089 331.861 26.7677 338.309 24.5696Z" fill="white"/>
<path d="M175.916 6.09971C178.547 5.89081 181.192 5.91782 183.818 6.18032C191.667 7.02887 210.843 12.3597 215.367 18.9831C216.146 20.1232 216.425 21.0376 216.101 22.4022C214.273 30.1061 189.499 44.6754 181.689 48.8714C173.869 52.8014 166.606 57.6054 158.08 59.8679C155.874 55.7869 153.514 51.5369 152.346 47.0204C150.113 38.3839 152.542 28.2693 157.036 20.722C161.314 13.537 167.74 8.13741 175.916 6.09971Z" fill="#BE9D98"/>
<path d="M340.619 7.65177C347.938 7.05582 355.276 8.54377 361.785 11.9436C372.453 17.5292 379.509 28.8063 382.987 40.0488C390.59 64.6323 383.499 92.0483 376.823 116.06C374.782 123.4 372.843 131.853 369.319 138.623C371.483 126.079 372.428 112.719 373.099 100.003C374.624 82.2213 374.208 54.7818 366.723 38.6503C363.119 30.8846 357.019 23.8032 348.719 20.9688C342.939 18.9945 336.935 20.0631 331.566 22.7083C323.203 26.8283 319.973 33.7884 317.277 42.1798C313.45 39.7543 310.529 38.6053 306.025 38.0308C308 33.184 310.132 28.5729 313.242 24.3336C320.083 15.008 329.202 9.34807 340.619 7.65177Z" fill="#BE9D98"/>
<path d="M106.062 251.531C111.161 252.769 116.135 254.283 120.968 256.33C116.357 267.152 108.496 276.955 101.723 286.52C83.696 311.974 64.067 336.172 45.4455 361.173L42.898 364.194L34.5415 354.487C41.7765 344.1 49.519 334.071 56.8265 323.734C67.136 308.928 77.314 294.031 87.3595 279.045C93.583 269.917 100.329 260.97 106.062 251.531Z" fill="white"/>
<path d="M206.148 42.0273C206.315 42.0698 206.487 42.0963 206.65 42.1543C208.797 42.9223 211.723 49.7608 212.872 52.0598C215.956 58.2263 216.345 66.6413 214.06 73.1293C211.985 79.0213 207.755 84.0833 202.063 86.7503C198.981 88.1943 195.541 89.0013 192.129 88.8943C179.262 88.4893 180.903 76.4838 175.475 74.4418C175.414 74.6098 175.334 74.7718 175.292 74.9458C174.373 78.7043 177.05 83.2768 178.674 86.5283L173.161 94.6933L172.287 94.5798C169.096 90.7993 166.386 86.5298 163.562 82.4693C163.639 82.3178 163.718 82.1678 163.792 82.0148L164.155 81.2483C165.754 77.9538 166.438 70.8138 168.246 68.5723C169.511 67.0043 171.304 68.4073 172.528 67.0478C172.282 65.1498 170.173 62.9248 169.174 61.2093C169.534 60.1933 170.002 59.8983 170.864 59.2858C172.854 59.7128 173.169 61.3498 174.66 62.5393C175.822 63.4663 176.435 63.2258 177.789 63.0503C179.326 61.8338 176.936 57.7278 177.546 55.5248C178.206 55.1608 178.397 54.8818 179.187 55.0073C181.531 55.3793 182.822 58.1958 184.161 59.9423C185.755 62.0203 187.322 63.0593 189.975 63.3233C192.666 63.5913 195.143 62.4098 197.186 60.7428C203.101 55.9138 205.42 49.3513 206.148 42.0273Z" fill="white"/>
<path d="M206.287 57.0032C208.08 56.7917 209.414 56.6312 211.157 57.1657C212.231 58.1722 212.372 58.3667 212.782 59.7767C212.455 61.0107 212.572 61.0897 211.496 61.7387L210.596 61.2652C209.632 60.8547 209.185 60.7402 208.115 60.8267C206.703 60.9407 205.014 61.4022 203.857 60.5102C204.149 59.0307 205.298 58.0732 206.287 57.0032Z" fill="black"/>
<path d="M122.849 257.035C125.121 257.762 127.188 258.839 129.317 259.899C123.895 270.005 116.092 279.565 109.497 288.963L80.0409 331.751C75.9839 337.551 69.3224 344.914 66.3789 350.938C66.8934 352.584 67.7334 353.098 68.9759 354.264C63.4144 359.451 58.3029 365.175 53.0979 370.719C50.1329 369.748 47.5109 367.824 44.9434 366.105C52.7054 354.907 61.2744 344.236 69.6219 333.473C81.3869 318.512 92.7884 303.268 103.816 287.754C110.702 278.006 118.351 268.168 122.849 257.035Z" fill="white"/>
<path d="M68.3354 360.375C72.6714 365.378 78.0539 369.384 82.2249 374.508C80.5744 376.996 78.4499 378.936 76.5159 381.189C76.1564 386.152 85.9434 408.301 88.1389 415.016L82.0429 409.02C71.7089 398.577 61.4904 387.949 50.7319 377.943C57.1794 372.83 62.7234 366.365 68.3354 360.375Z" fill="#AE7567"/>
<path d="M30.8021 363.32C35.2474 364.966 42.6754 372.294 44.9174 376.462C42.0389 379.42 39.1244 382.377 36.8224 385.817C40.7819 393.455 48.5409 409.933 50.4224 417.902C48.7599 416.581 47.5929 414.907 46.3164 413.23C36.9444 401.236 25.4423 390.054 14.6504 379.318C20.3932 374.255 24.4696 367.751 30.8021 363.32Z" fill="#AE7567"/>
<path d="M263.827 143.473L264.252 143.941C262.832 146.909 258.88 148.292 257.405 151.457C256.969 152.394 257.051 152.622 257.351 153.545C257.935 153.92 257.937 153.962 258.689 154.222C260.217 154.75 262.591 154.382 264.193 154.269C272.866 153.66 279.503 152.022 287.39 148.381C282.211 154.435 274.593 156.428 268.964 161.925C269.132 161.876 269.3 161.825 269.469 161.779C275.559 160.108 281.063 157.086 287.037 155.101C283.605 158.59 280.391 160.944 276.027 163.155C273.73 163.933 271.478 164.679 269.289 165.737L269.218 166.431L270.394 167.152C273.983 167.367 276.869 165.83 280.041 164.373L280.372 164.689L279.76 165.878C272.173 171.387 255.376 169.259 246.489 168.667C245.104 165.939 243.384 163.372 241.765 160.778C249.391 154.974 255.075 147.901 263.827 143.473Z" fill="white"/>
<path d="M46.9965 380.312C52.4485 383.302 58.742 391.483 63.166 396.026C71.362 404.442 79.885 413.271 89.4705 420.099C89.5025 422.155 89.693 424.497 89.361 426.517C89.161 427.736 88.7805 428.265 87.772 428.896L86.043 428.407C78.19 421.907 71.4695 413.859 63.9605 406.926C56.452 399.992 47.732 394.054 40.9375 386.428C42.766 384.127 44.8115 382.263 46.9965 380.312Z" fill="white"/>
<path d="M10.439 380.422C23.9589 392.047 39.424 410.479 50.2205 424.688C48.882 427.26 47.6115 429.173 45.346 431.038C39.0735 424.687 34.3725 416.706 28.5075 409.947C21.1601 401.479 12.695 394.207 4.89014 386.192C6.57589 384.123 8.54274 382.296 10.439 380.422Z" fill="white"/>
<path d="M154.921 161.648C157.086 164.49 163.836 185.407 165.514 189.929L152.117 182.029C145.85 178.34 139.546 174.974 132.939 171.937L133.55 164.129C141.011 164.246 147.683 163.513 154.921 161.648Z" fill="white"/>
<path d="M198.294 108.578L199.944 108.64C200.77 110.184 199.885 114.459 199.745 116.296C199.251 122.79 198.667 129.295 198.453 135.806C198.293 140.642 199.318 149.89 198.182 154.029L197.585 154.27C196.235 152.355 195.738 149.674 195.08 147.437C191.016 136.805 188.404 125.441 184.602 114.658C188.844 111.415 193.117 109.681 198.294 108.578Z" fill="#BE9D98"/>
<path d="M181.304 89.7734C188.009 94.0659 195.576 92.9824 202.896 91.4304C201.831 95.7779 201.094 99.8784 200.921 104.362C198.373 104.611 195.95 105.067 193.455 105.61C189.671 106.948 186.436 108.879 183.225 111.255C180.772 106.907 177.956 102.877 175.087 98.8014C177.264 95.8574 179.289 92.8304 181.304 89.7734Z" fill="white"/>
<path d="M159.493 4.65645C161.37 4.5408 163.55 4.76765 165.172 5.75235C165.299 7.0986 161.714 9.5372 160.613 10.4877C153.872 16.3084 151.188 24.1218 148.199 32.2095C146.744 31.8727 145.236 31.5606 143.981 30.7096C142.442 29.6664 141.525 27.908 141.241 26.0996C140.571 21.8351 143.211 16.5445 145.642 13.2108C149.177 8.3622 153.576 5.4973 159.493 4.65645Z" fill="#BE9D98"/>
<path d="M248.137 172.483C255.488 172.576 263.296 173.089 270.582 172.125L271.093 173.267C263.999 175.14 257.37 178.649 250.495 181.18C249.883 178.212 249.043 175.374 248.137 172.483Z" fill="#BE9D98"/>
<path d="M304.75 60.1406C305.668 60.1731 306.599 60.2046 307.509 60.3411C309.639 60.6611 312.677 62.0846 313.735 64.0751C314.073 64.7116 314.213 65.5306 313.983 66.2171C313.364 68.0666 311.793 68.8306 310.14 69.5646C309.346 69.5621 308.537 69.5566 307.751 69.4396C305.743 69.1421 302.309 67.5011 301.359 65.6006C300.744 64.3701 300.869 63.9526 301.164 62.6941C302.211 61.3346 303.21 60.8536 304.75 60.1406Z" fill="#F4D69A"/>
<path d="M219.466 24.2383C220.309 24.6852 220.509 24.8123 221.087 25.5071C222.238 26.8919 223.163 28.3462 222.979 30.2055L222.215 30.5898L221.713 30.3532L220.882 29.9481C219.506 29.2869 218.066 28.8756 217.31 27.4597C217.605 25.7384 218.244 25.4379 219.466 24.2383Z" fill="#D6A687"/>
<path d="M903.855 646.396C904.265 642.601 904.7 639.641 907.885 637.086C910.09 635.316 912.845 634.656 915.635 634.996C918.65 635.366 921.495 636.881 923.33 639.326C924.875 641.386 925.605 644.261 925.185 646.811C924.855 648.816 923.82 650.786 922.87 652.561C930.495 657.106 935.965 663.286 938.25 672.016C939.8 677.926 940.44 689.456 937.455 694.816C936.825 695.936 936.15 696.401 934.975 696.936C928.03 697.391 915.885 691.546 909.21 689.016C908.455 691.786 907.815 694.646 906.75 697.316C929.875 713.346 946.42 733.806 951.545 762.101C955.415 783.476 952.95 808.676 942.405 827.921C946.635 833.066 955.67 843.036 954.905 849.896C954.61 852.541 953.075 854.781 950.93 856.306C948.615 857.956 946.025 858.376 943.25 857.891C937.13 856.821 931.46 852.916 925.455 851.116L925.035 850.986C902.635 870.416 881.585 879.701 851.58 878.531C847.325 883.976 837.675 898.891 830.645 899.601C828.25 899.846 826.12 898.971 824.34 897.386C822.935 896.136 821.995 894.596 821.11 892.956C820.7 885.801 821.845 878.506 822.145 871.341C798.94 859.616 780.165 840.991 771.91 815.831C763.85 790.621 765.92 763.266 777.68 739.551C779.66 735.736 781.81 732.006 784.125 728.381L777.695 721.021C773.19 726.051 766.1 735.711 760.405 738.716C758.78 738.471 757.885 737.476 756.935 736.186C755.2 733.836 753.81 731.156 752.36 728.626C748.235 718.411 746.61 710.246 749.79 699.491C750.88 698.201 751.69 696.166 752.57 694.686C754.59 691.281 756.76 688.286 759.36 685.301C756.885 682.381 754.355 679.901 753.705 675.981C753.47 674.566 753.58 672.736 754.595 671.621C755.59 670.526 756.945 670.246 758.355 670.406C762.97 670.926 765.675 674.386 768.345 677.761C773.465 674.726 778.08 672.796 783.98 671.841L792.35 672.441C797.12 673.701 809.2 678.266 811.62 682.516C811.975 683.136 812.4 683.876 812.165 684.606C811.195 687.586 802.03 695.391 799.41 698.271C801.075 700.806 802.68 703.431 804.51 705.846C822.16 691.536 845.535 682.186 868.57 684.711C874.32 685.341 879.955 686.721 885.575 688.036C886.245 685.666 886.89 683.291 887.515 680.911C880.25 678.571 872.065 676.661 865.495 672.671C871.315 661.321 879.645 652.091 892.105 648.091C896.09 646.816 899.705 646.521 903.855 646.396Z" fill="black"/>
<path d="M855.84 688.699C877.39 687.044 899.7 695.084 916.035 709.044C935.735 725.884 946.915 749.364 948.92 775.074C951.075 799.629 943.13 823.999 926.91 842.564C911.625 860.224 889.525 872.204 866.12 873.989C844.225 876.194 822.335 869.744 805.13 856.014C786.18 841.069 774.09 819.079 771.635 795.064C768.935 769.029 776.695 742.989 793.21 722.679C808.72 703.454 831.27 691.224 855.84 688.699Z" fill="#CCA56C"/>
<path d="M855.835 700.2C855.865 700.195 855.895 700.19 855.93 700.19C873.74 698.935 891.34 704.63 905.04 716.08C922.85 730.88 934.22 750.385 936.275 773.62C938.22 795.59 931.945 816.56 917.595 833.39C904.315 848.965 885.67 859.25 865.125 860.96C846.415 862.495 827.46 857.42 812.675 845.67C795.95 832.375 785.885 814.175 783.47 792.93C781.07 770.125 787.88 747.31 802.385 729.55C815.995 712.72 834.25 702.495 855.835 700.2Z" fill="black"/>
<path d="M858.53 704.217C875.235 703.627 891.53 709.432 904.1 720.447C920.88 735.087 931.07 754.417 932.455 776.757C933.765 797.892 926.37 817.337 912.4 833.052C899.28 847.817 880.655 856.042 861.025 857.202C843.425 857.762 826.24 851.787 812.785 840.427C797.48 827.372 788.68 809.527 787.105 789.497C785.42 768.027 793.56 745.607 807.57 729.372C820.635 714.237 838.605 705.607 858.53 704.217Z" fill="white"/>
<path d="M837.98 712.648C838.885 712.778 839.57 712.943 840.405 713.348C842.545 714.383 843.55 716.853 844.205 718.993C845.56 723.428 845.055 728.418 846.1 732.993C848.7 744.328 852.19 755.628 855.375 766.818C858.115 766.513 860.865 766.633 863.48 767.588C868.535 769.438 870.83 773.528 872.905 778.153C878.47 777.553 884.005 776.203 889.485 775.078C884.275 777.608 878.625 779.503 873.135 781.338C872.14 785.338 870.895 788.473 867.545 791.143C864.455 793.608 860.485 794.673 856.575 794.088C852.785 793.518 849.22 791.443 847.05 788.243C844.46 784.428 844.335 780.263 845.08 775.863C845.315 775.043 846.125 773.008 845.855 772.208C844.8 769.123 831.925 757.673 828.935 755.268C826.555 753.358 823.49 752.003 821.36 749.853C820.355 748.838 819.5 747.528 819.08 746.158C818.49 744.253 818.635 741.943 819.82 740.278C820.6 739.188 821.715 738.488 823.055 738.343C824.595 738.173 826.085 738.863 827.17 739.918C829.565 742.243 830.625 746.723 830.52 749.918C830.51 750.118 830.5 750.318 830.49 750.518C833.61 753.808 845.35 767.513 849.115 768.563C849.95 768.798 849.755 768.653 850.57 768.098C851.745 764.283 843.805 738.093 841.945 733.103C840.565 729.393 838.165 725.868 837.04 722.103C836.005 718.633 836.355 715.823 837.98 712.648Z" fill="black"/>
<path d="M855.56 770.555C856.99 770.365 858.715 770.215 860.12 770.57C863.23 771.36 866.105 774.005 867.505 776.83C868.655 779.15 868.92 781.83 867.99 784.265C866.795 787.4 864.35 788.6 861.435 789.845C859.8 789.915 858.13 789.945 856.525 789.555C853.635 788.86 851.08 787.045 849.635 784.42C848.365 782.135 848.125 779.42 848.98 776.945C850.15 773.605 852.505 772.04 855.56 770.555Z" fill="#CCA56C"/>
<path d="M804.4 803.629C804.69 803.689 804.99 803.739 805.28 803.809C806.95 804.209 808.645 805.009 809.425 806.634C809.995 807.814 809.87 809.014 809.33 810.169C808.345 812.259 806.64 812.904 804.625 813.724C804.465 813.709 804.305 813.704 804.15 813.689C803.9 813.669 803.655 813.639 803.405 813.614C802.515 813.529 801.615 813.489 800.8 813.074C799.49 812.409 798.36 811.084 798.09 809.619C797.865 808.354 798.285 807.144 799.03 806.134C800.445 804.209 802.185 804.004 804.4 803.629Z" fill="black"/>
<path d="M878.845 828.949C880.71 828.899 882.305 828.854 883.84 830.089C885.085 831.094 885.835 832.589 885.905 834.189C886.04 836.959 884.91 838.979 883.13 840.989C881.74 841.254 880.46 841.064 879.28 840.244C877.755 839.179 876.915 837.504 876.71 835.684C876.38 832.819 877.01 831.109 878.845 828.949Z" fill="black"/>
<path d="M916.81 752.656C919.625 752.466 922.08 754.561 922.34 757.371C922.6 760.181 920.575 762.686 917.775 763.021C915.895 763.246 914.04 762.436 912.93 760.901C911.825 759.361 911.635 757.346 912.44 755.636C913.25 753.921 914.92 752.781 916.81 752.656Z" fill="black"/>
<path d="M900.34 650.655C903.465 650.385 906.52 650.43 909.605 651.02C917.955 652.62 925.73 657.65 930.41 664.775C936.095 673.42 935.825 683.44 933.81 693.19C927.125 691.24 920.605 688.855 914.055 686.485C905.845 683.365 897.6 680.345 889.315 677.435C883.1 675.3 876.715 673.505 870.705 670.845C871.625 669.305 872.575 667.75 873.655 666.32C880.32 657.495 889.495 652.275 900.34 650.655Z" fill="#CCA56C"/>
<path d="M781.795 676.619C791.725 675.589 799.135 678.319 806.785 684.444C794.235 697.834 781.085 710.684 769.33 724.804C766.48 728.029 763.585 731.214 760.655 734.359C757.975 730.469 755.725 726.184 754.25 721.684C751.55 713.444 751.875 705.079 755.905 697.309C761.35 686.809 770.755 680.199 781.795 676.619Z" fill="#CCA56C"/>
<path d="M826.3 872.664C833.145 875.359 839.85 877.079 847.175 877.804C843.955 881.299 840.985 884.989 837.99 888.674C836.675 890.319 835.35 892.209 833.785 893.609C832.555 894.719 830.745 895.464 829.095 895.339C828.095 895.264 827.185 894.649 826.595 893.849C823.28 889.304 825.775 877.989 826.3 872.664Z" fill="#CCA56C"/>
<path d="M940.195 831.781C940.335 831.916 940.485 832.046 940.62 832.186C943.84 835.561 951.185 845.486 950.595 850.216C950.445 851.456 949.985 852.506 948.915 853.226C946.87 854.606 943.415 853.631 941.265 853.071C936.775 851.546 932.37 849.351 928.01 847.466C932.585 842.571 936.385 837.266 940.195 831.781Z" fill="#CCA56C"/>
<path d="M796.295 701.496C798.34 703.496 800.15 705.691 802 707.866C796.315 713.081 791.25 718.401 786.685 724.631C784.555 722.391 782.66 719.891 780.71 717.491L796.295 701.496Z" fill="#CCA56C"/>
<path d="M891.46 682.273C895.86 684.378 900.765 685.973 905.285 687.838L903.05 694.883C898.555 692.863 894.02 690.928 889.45 689.078L891.46 682.273Z" fill="#CCA56C"/>
<path d="M912.55 638.949C913.95 638.954 915.2 639.009 916.535 639.454C918.625 640.159 919.975 641.714 920.87 643.689C921.69 645.499 921.36 646.819 920.665 648.564C919.655 649.469 919.65 649.459 918.29 649.504C914.75 648.159 911.285 647.964 908.375 645.309C908.155 644.624 907.855 644.174 908.065 643.449C908.69 641.309 910.785 640.074 912.55 638.949Z" fill="#CCA56C"/>
<path d="M757.525 674.234C758.14 674.389 758.73 674.534 759.31 674.809C761.7 675.959 763.305 677.334 764.205 679.844L763.35 681.639L762.52 681.769C761.595 681.329 760.955 680.794 760.26 680.064C758.615 678.334 757.445 676.674 757.525 674.234Z" fill="#D6A687"/>
<path d="M574.32 797.633C580.325 796.738 586.915 797.693 592.005 801.088C602.135 807.833 606.065 822.683 608.38 833.858C614.985 865.763 611.645 899.098 604.495 930.588C602.645 938.748 600.895 948.258 596.115 955.258C593.745 958.728 590.48 960.743 586.325 961.383C580.385 962.298 574.685 960.893 569.83 957.338C564.985 953.793 562.85 948.583 561.475 942.933C558.735 931.648 559.43 919.468 559.055 907.908C558.57 892.788 557.835 877.943 555.73 862.943C546.04 871.053 538.275 881.848 531.715 892.593C524.245 904.843 510.99 938.758 498.62 943.463C494.005 945.213 488.44 945.098 484.01 942.853C481.271 941.463 478.948 939.178 477.629 936.393C473.874 928.463 472.795 918.603 470.903 910.063C467.12 892.988 463.542 875.728 457.725 859.208L456.843 859.213C443.645 872.233 431.678 907.878 426.01 925.898C423.278 934.588 421.026 943.943 417.39 952.293C415.646 956.298 413.374 960.898 408.986 962.448C406.434 963.348 403.08 963.098 400.69 961.818C398.177 960.478 396.413 957.563 395.776 954.858C394.078 947.648 395.537 938.428 396.637 931.228C401.556 899.038 413.556 861.308 430.626 833.478C437.668 821.993 447.861 807.638 461.927 804.603C467.374 803.428 472.781 804.513 477.412 807.608C490.095 816.098 499.195 844.123 502.435 858.978C503.38 857.558 504.34 856.158 505.325 854.768C517.325 837.853 536.14 815.723 554.08 805.083C560.44 801.313 567.035 798.858 574.32 797.633Z" fill="#AE7567"/>
<path d="M426.029 167.664C438.937 166.158 453.348 171.454 464.15 178.2C478.217 186.985 488.085 200.372 491.7 216.598C497.105 240.847 489.54 266.639 476.442 287.217C461.917 310.035 441.364 327.456 414.62 333.421C413.68 333.611 412.737 333.779 411.79 333.924C397.014 336.177 381.495 333.344 369.427 324.266C357.301 315.145 350.916 301.411 348.888 286.621C345.001 258.269 355.915 226.087 373.147 203.673C385.823 187.186 404.736 170.451 426.029 167.664Z" fill="#F59A41"/>
<path d="M575.325 168.162C588.27 166.657 599.79 171.241 610.72 177.777C625.025 186.333 637.53 199.518 641.55 216.054C647.195 239.24 638.625 266.657 626.5 286.41C611.745 310.448 591.05 326.793 563.555 333.319C547.635 335.67 531.99 333.887 518.73 324.089C506.65 315.16 499.34 301.852 497.175 287.084C493.135 259.546 503.935 229.111 520.42 207.256C533.35 190.109 553.14 171.271 575.325 168.162Z" fill="#F59A41"/>
<path d="M684.195 162.695C693.61 161.334 705.035 162.997 714.09 165.778C735.28 172.284 754.245 189.591 764.53 208.998C775.16 229.064 778.305 252.352 771.39 274.22C764.57 295.786 747.93 312.546 728.175 322.802C717.48 327.964 706.085 331.533 694.355 333.397C683.415 335.07 660.765 335.865 651.61 328.666C649.7 327.166 648.735 326.083 648.455 323.627C647.67 316.837 648.825 309.368 649.35 302.568C650.715 285.001 652.695 267.565 654.625 250.057C657.385 225.045 659.025 199.363 663.595 174.63C664.04 172.226 664.51 168.904 666.13 167.027C669.435 163.204 679.34 163.19 684.195 162.695Z" fill="#F59A41"/>
<path d="M503.625 563.074C506.21 563.394 508.515 563.959 510.285 566.019C517.03 573.894 513.03 608.754 512.325 619.759L510.615 648.429C527.825 634.714 544.205 619.989 559.67 604.334C563.685 600.214 567.755 596.114 571.565 591.804C575.705 587.114 579.495 581.894 584.36 577.914C587.475 575.369 591.39 573.309 595.54 573.899C598.44 574.309 600.745 576.039 602.33 578.444C605.585 583.369 604.81 589.709 603.77 595.214C599.28 618.949 574.655 646.529 555.67 660.934C547.29 667.289 538.19 672.339 529.535 678.249C555.63 692.429 580.625 709.424 604.23 727.409C611.545 732.684 622.665 741.219 625.355 750.229C626.065 752.609 626.38 755.669 625.025 757.884C623.975 759.604 622.155 760.509 620.245 760.954C600.55 765.529 526.225 718.739 507.855 707.119C508.92 719.184 511.355 743.529 506.49 754.219C504.495 758.599 501.405 760.994 496.93 762.569C490.88 764.699 483.728 764.349 477.971 761.474C473.598 759.289 471.228 755.939 469.673 751.389C466.436 741.914 465.751 730.549 465.246 720.554C463.387 682.074 467.976 643.554 478.823 606.589C481.597 597.199 484.67 587.499 489.01 578.709C492.315 572.014 496.215 565.599 503.625 563.074Z" fill="#EE7E63"/>
<path d="M397.166 607.204C403.585 606.999 409.813 607.394 415.926 609.519C429.321 614.169 441.341 626.699 441.88 641.424C442.103 647.514 439.503 653.504 438.223 659.384C434.696 675.589 432.356 696.169 435.78 712.339C438.898 727.069 450.594 723.139 452.489 728.844C453.228 731.069 452.124 733.759 451.031 735.669C448.291 740.464 443.64 743.319 438.339 744.554C431.238 746.199 423.449 744.849 417.231 741.049C407.843 735.314 402.051 725.304 399.48 714.854C391.463 721.899 383.283 728.249 374.461 734.249C362.392 741.769 348.709 748.979 334.329 750.214C324.321 751.074 314.106 748.534 306.379 741.924C299.898 736.389 296.823 728.659 296.258 720.319C294.473 693.909 312.071 665.589 329.038 646.429C346.66 626.529 369.698 608.814 397.166 607.204Z" fill="#EE7E63"/>
<path d="M700.055 806.672C700.1 806.667 700.145 806.657 700.19 806.652C710.175 805.852 721.69 807.072 729.46 814.062C734.58 818.667 737.255 825.192 737.55 832.012C738.275 848.792 728.01 866.792 717.005 878.747C701.635 895.437 685.08 904.102 662.385 904.942C662.82 907.112 663.24 909.312 663.89 911.427C665.935 918.127 669.865 923.922 676.23 927.172C693.975 936.232 722.8 923.272 736.94 912.027C742.07 907.952 751.7 896.252 757.195 894.687C758.455 894.327 759.73 894.407 760.82 895.207C762.27 896.272 763.02 898.157 763.425 899.847C765.455 908.307 760.145 917.157 755.87 924.047C741.16 944.912 715.84 959.827 690.775 964.097C674.87 966.802 656.945 965.022 643.525 955.382C632.195 947.252 625.325 933.432 623.23 919.872C619.145 893.447 627.975 863.602 643.775 842.322C657.435 823.927 677.14 809.962 700.055 806.672Z" fill="#AE7567"/>
<path d="M752.36 728.626C741.03 737.681 728.455 745.061 715.025 750.526C697.055 757.836 674.05 762.471 655.49 754.526C643.755 749.496 635.425 738.681 630.855 727.011C622.14 704.776 625.965 676.556 635.495 655.236C645.935 631.886 662.86 615.181 686.925 606.186C698.175 601.976 712.125 599.116 723.485 604.556C729.335 607.356 733.555 612.366 735.575 618.506C739.41 630.171 733.97 643.651 728.525 653.911C715.275 678.871 692.875 696.491 666 704.621C666.95 707.466 667.935 710.291 669.605 712.811C673.075 718.056 678.335 721.096 684.465 722.231C707.085 726.426 731.975 711.846 749.79 699.491C746.61 710.246 748.235 718.411 752.36 728.626Z" fill="#EE7E63"/>
<path d="M287.534 779.717C303.481 778.917 326.303 780.862 338.689 792.227C343.011 796.197 346.013 801.337 346.202 807.307C346.343 811.752 344.771 815.957 341.564 819.067C333.622 826.777 310.574 826.022 299.973 825.982C294.925 843.797 291.091 862.027 287.53 880.187C284.025 898.062 280.549 916.407 279.538 934.607C279.01 944.107 279.855 953.172 279.973 962.617C280.017 966.137 279.878 968.927 277.24 971.477C273.86 974.747 268.781 975.567 264.246 975.562C257.058 975.552 251.036 972.862 246.054 967.797C243.704 964.877 241.769 961.882 240.228 958.462C228.568 932.592 236.844 883.037 244.131 856.167C246.766 846.447 250.286 837.102 253.821 827.687C245.744 829.027 211.982 837.757 205.932 832.962C204.178 831.572 203.684 828.852 203.628 826.742C203.453 820.142 207.353 812.872 211.696 808.107C228.461 789.717 263.212 781.027 287.534 779.717Z" fill="#AE7567"/>
<path d="M288.658 573.206C288.698 573.201 288.738 573.191 288.778 573.191C303.891 572.151 327.835 572.481 339.909 583.316C343.613 586.641 345.679 591.141 345.916 596.106C346.189 601.816 344.285 607.481 340.27 611.591C330.34 621.756 312.437 619.871 299.424 619.916C295.349 632.836 292.89 646.626 289.928 659.836C285.099 681.381 278.01 706.716 277.896 728.796C277.855 736.686 280.585 751.846 276.794 758.446C275.448 760.791 273.14 762.281 270.542 762.896C263.02 764.666 254.038 760.941 247.758 757.056C243.274 753.681 240.011 749.926 237.64 744.836C223.253 713.941 241.045 653.091 252.018 622.411C241.232 622.686 230.444 625.096 219.726 626.266C216.187 626.651 211.209 627.396 208.337 624.866C206.753 623.471 206.393 621.461 206.25 619.466C205.768 612.731 208.589 606.411 212.892 601.361C228.704 582.821 264.93 575.151 288.658 573.206Z" fill="#EE7E63"/>
<path d="M72.4687 752.624C75.7397 752.264 78.3867 752.229 81.4002 753.754C87.4997 756.844 90.2917 764.239 92.1322 770.399C93.7112 775.839 94.9047 781.384 95.7047 786.989C97.5067 799.549 101.252 844.564 98.6207 855.264C98.2827 856.639 97.5397 857.944 96.8732 859.184C106.139 876.709 117.72 891.774 130.039 907.169C124.709 882.419 118.187 851.439 132.178 828.329C135.292 823.189 140.03 818.144 146.116 816.844C149.318 816.159 152.44 816.734 155.16 818.559C160.02 821.814 162.43 827.729 163.521 833.279C169.2 862.174 152.67 890.824 137.103 913.814C155.741 934.379 177.671 951.704 201.995 965.069C206.574 967.619 211.252 970.144 216.02 972.314C218.624 973.504 221.743 974.194 224.14 975.734C225.572 976.654 226.563 977.694 226.952 979.359C226.353 979.959 226.386 980.084 225.483 980.269C216.78 982.044 186.253 962.029 178.13 956.244C172.627 952.924 167.461 948.349 162.167 944.619C142.928 955.539 118.347 964.954 95.9647 959.869C89.2467 958.344 80.1687 954.774 76.5422 948.584C75.0332 946.009 74.6027 942.959 75.4632 940.084C76.7312 935.859 80.3582 932.769 84.1492 930.794C103.886 920.514 133.046 929.704 152.906 936.314C134.543 922.284 118.955 902.254 105.22 883.819C86.6487 887.659 59.6832 889.849 42.2722 881.054C38.8182 879.309 35.4867 876.594 34.4022 872.724C33.6932 870.224 34.0827 867.539 35.4732 865.339C37.9052 861.439 42.4547 859.484 46.7612 858.479C64.7687 854.279 83.6272 863.584 98.5107 872.694C95.6857 867.699 93.0372 862.039 89.5277 857.524C87.1372 854.449 84.1377 851.769 81.5447 848.854C75.6427 842.244 70.6842 834.844 66.8092 826.869C58.2052 808.714 54.7087 783.559 61.7382 764.329C63.8697 758.499 66.9002 755.244 72.4687 752.624Z" fill="#DCC8C2"/>
<path d="M74.6523 757.979C74.9198 757.974 75.1878 757.969 75.4558 757.969C78.0168 757.979 79.8948 759.014 81.5783 760.899C92.2668 772.874 94.7778 834.859 93.6328 852.619C91.4808 850.879 89.5578 848.769 87.5928 846.814C80.8333 839.684 75.1023 832.139 71.0968 823.119C63.4153 805.824 60.0923 783.204 67.5028 765.234C69.0653 761.449 70.9308 759.564 74.6523 757.979Z" fill="white"/>
<path d="M148.312 821.547C149.709 821.542 151.025 821.807 152.209 822.577C155.682 824.832 157.371 831.142 158.19 835.047C163.096 858.422 149.918 884.827 137.416 903.912L134.875 907.292C134.112 899.817 132.193 892.432 130.995 885.012C128.477 869.407 127.918 849.312 134.675 834.617C137.563 828.332 141.792 823.942 148.312 821.547Z" fill="white"/>
<path d="M99.6198 932.17C117.375 930.02 137.788 936.145 154.483 942.06C147.401 946.685 139.192 949.49 131.189 952.075C128.63 952.795 126.048 953.435 123.448 953.99C111.149 956.545 95.5573 957.01 84.7213 949.53C82.7478 948.165 80.2148 945.87 80.0598 943.27C79.9783 941.9 80.3493 940.715 81.1988 939.645C84.9863 934.865 93.8728 932.99 99.6198 932.17Z" fill="white"/>
<path d="M49.2486 863.618C67.5901 862.118 83.5667 868.723 98.5607 878.738C94.8322 879.733 91.0112 880.248 87.2022 880.828C74.4197 883.008 56.3892 881.523 44.4657 876.173C42.4867 875.283 39.9967 873.898 39.4047 871.623C39.0602 870.303 39.4697 868.963 40.1942 867.853C42.1442 864.858 46.0001 864.193 49.2486 863.618Z" fill="white"/>
<path d="M821.81 909.081C824.91 908.911 828.205 908.796 831.25 909.461C839.075 911.176 842.9 916.566 846.85 922.966C855.56 919.346 863.865 918.206 873.01 920.896C887.8 925.246 896.84 934.411 903.985 947.686C906.91 946.131 910.11 944.786 913.405 944.351C918.33 943.701 923.04 945.311 926.88 948.386C931.66 952.216 942.65 967.406 943.14 973.526C943.295 975.456 942.94 977.466 941.58 978.926C939.77 980.871 936.995 981.516 934.47 981.871C925.795 983.091 916.265 982.396 907.495 982.401L861.25 982.466C834.955 982.471 808.67 983.101 782.375 982.971C770.965 982.916 758.915 983.431 747.58 982.261C744.965 981.991 741.875 981.586 739.73 979.981C737.875 978.591 737 976.486 736.835 974.216C736.57 970.486 738.225 966.641 740.73 963.936C745.685 958.581 753.015 956.916 759.995 956.626C760.325 950.101 760.685 943.841 763.32 937.766C766.65 930.106 772.585 923.791 780.485 920.791C789.285 917.456 797.47 918.761 805.79 922.656C806.515 921.296 807.25 919.936 808.09 918.646C811.475 913.446 815.755 910.426 821.81 909.081Z" fill="#DCC8C2"/>
<path d="M822.165 914.561C825.68 914.351 828.775 914.426 832.085 915.776C838.885 918.556 841.66 924.331 844.195 930.721C846.41 929.491 848.665 928.271 850.97 927.216C858.66 923.706 866.695 923.966 874.49 926.941C889.405 932.636 895.455 941.971 901.645 955.971C903.815 953.386 905.755 951.516 908.995 950.281C912.775 948.846 917.185 948.921 920.835 950.721C926.18 953.356 928.12 957.906 929.935 963.191C933.445 964.811 936.66 967.171 938.46 970.716C939.225 972.226 939.09 973.156 938.57 974.711C937.255 976.016 936.285 976.491 934.505 976.806C925.775 978.341 915.915 977.431 907.025 977.426L860.875 977.516L785.27 978.111C773.65 978.176 757.8 979.046 746.5 977.461C744.425 977.171 743.03 976.916 741.705 975.156C741.315 973.636 741.39 972.701 742.075 971.311C747.82 959.641 759.245 964.346 764.33 961.561C765.43 960.956 765.79 960.136 765.915 958.936C766.06 957.496 765.45 955.521 765.315 954.041C764.92 949.736 765.945 945.206 767.64 941.251C770.52 934.531 775.695 928.356 782.655 925.691C792.765 921.816 797.515 925.896 806.395 929.371C806.63 929.461 807.83 929.816 808.065 929.746C809.53 929.301 813.27 920.676 814.915 918.896C816.98 916.661 819.41 915.646 822.165 914.561Z" fill="white"/>
<path d="M556.335 367.582C556.9 367.592 557.465 367.606 558.03 367.662C561.56 368.018 563.46 370.387 565.51 373.018C566.15 383.519 559.7 405.997 557.115 417.385C553.025 435.08 549.1 452.814 545.35 470.584C542.72 483.449 540.17 496.33 537.7 509.225C536.415 515.805 535.56 523.14 533.38 529.475C532.735 531.355 530.78 533.195 529 534.04C526.515 535.215 523.88 535.005 521.345 534.1C519.54 533.455 518.525 532.625 517.37 531.085C511.07 522.685 505.255 508.93 500.49 499.345C488.915 476.051 477.79 452.64 466.607 429.161L464.235 489C463.827 502.49 464.093 516.195 463.152 529.645C462.904 533.19 462.508 536.415 459.567 538.795C457.421 540.53 454.661 541.08 451.958 540.77C448.313 540.35 445.901 538.76 443.736 535.875C442.8 534.015 442.372 532.055 442.245 529.98C441.679 520.725 442.472 511.18 442.743 501.9C443.138 484.24 443.822 466.588 444.795 448.949C445.5 434.448 446.405 419.957 447.509 405.481C448.037 398.163 448.183 390.502 449.454 383.275C449.957 380.413 450.763 377.989 453.317 376.352C455.499 374.979 458.155 374.582 460.642 375.258C462.776 375.831 464.469 377.001 465.705 378.836C470.954 386.631 476.752 401.694 480.883 410.666C488.365 426.921 496.395 442.877 504.01 459.061C509.325 470.355 514.095 482.324 520.225 493.175C525.02 458.805 532.765 422.561 542.69 389.289C544.35 383.722 545.69 377.251 548.685 372.261C550.42 369.366 553.195 368.354 556.335 367.582Z" fill="#DA4827"/>
<path d="M783.98 671.839C784.115 671.554 784.26 671.269 784.395 670.979C787.74 663.599 787.875 652.139 789.285 644.029C790.575 636.624 792.73 628.889 795.16 621.779C804.09 595.614 823.58 575.934 846.33 561.054C857.955 553.454 870.19 546.409 880.86 537.464C887.225 532.129 894.25 525.474 898.56 518.299C900.285 515.434 903.23 506.689 905.72 505.199C906.495 505.244 906.815 505.079 907.395 505.694C911.39 509.929 911.255 545.214 910.59 552.084C907.55 583.494 891.85 606.214 867.84 625.819C854.02 637.104 833.95 648.964 818.24 657.764C811.335 661.634 797.655 667.364 792.35 672.439L783.98 671.839Z" fill="#DCC8C2"/>
<path d="M905.18 524.355C905.915 528.025 905.625 532.34 905.615 536.115C905.585 551.85 904.065 566.135 897.425 580.63C884.035 609.885 856.99 627.175 830.83 643.755C821.3 649.79 811.385 656.73 800.76 660.68C800.1 655.12 842.815 612.1 848.72 605.72C857.505 596.235 866.63 586.575 874.59 576.385C886.88 560.655 897.81 542.93 905.18 524.355Z" fill="white"/>
<path d="M897.33 529.434C897.445 532.514 893.64 536.879 892.145 539.599C888.005 547.144 883.915 554.639 878.935 561.684C862.11 585.469 839.705 605.174 820.505 626.979C810.53 638.099 801.31 649.869 792.905 662.214C792.73 661.789 792.67 661.704 792.62 661.179C792.155 656.059 795.21 643.684 796.31 638.204C802.03 609.739 819.085 586.794 842.755 570.384C855.99 561.214 870.43 553.234 883 543.169C888.175 539.029 892.715 534.179 897.33 529.434Z" fill="white"/>
<path d="M643.34 363.657C644.51 363.512 645.685 363.428 646.86 363.405C654.45 363.221 666.425 364.092 672.1 369.808C673.735 371.456 674.575 373.522 674.445 375.849C674.345 377.72 673.61 379.462 672.125 380.647C668.385 383.619 661.95 381.394 657.695 380.773C645.11 378.938 630.215 388.427 620.53 395.612C600.195 410.692 583.4 435.315 579.865 460.664C577.81 475.425 580.525 489.789 589.74 501.759C596.84 510.979 607.32 518.274 619.065 519.644C628.65 520.764 638.935 517.689 646.41 511.599C658.355 501.869 664.06 486.564 665.59 471.654C656.78 471.001 643.96 474.66 636.305 469.433C634.4 468.135 633.18 466.344 632.86 464.047C632.555 461.83 632.965 459.656 634.375 457.882C638.825 452.287 651.325 452.12 657.875 451.509C664.65 451.159 672.865 450.596 678.795 454.529C682.04 456.682 683.29 459.804 684.03 463.521C687.265 479.755 680.775 496.694 671.63 509.874C661.34 524.714 646.65 535.234 628.65 538.339C613.55 540.964 598.035 537.364 585.635 528.364C570.59 517.649 560.455 501.374 557.465 483.151C553.135 456.299 562.66 429.01 578.475 407.448C594.14 386.086 616.5 367.693 643.34 363.657Z" fill="#DA4827"/>
<path d="M248.446 186.316C252.754 186.409 260.561 181.113 265.042 179.534C281.205 173.839 297.93 169.109 314.286 163.941C319.664 167.399 328.839 170.261 330.345 177.242C330.819 179.442 330.632 181.645 329.255 183.482C328.272 184.793 327.077 185.555 325.425 185.735C319.999 186.326 314.152 183.017 308.553 182.903C290.754 182.543 265.829 198.94 254.43 211.879C240.448 227.751 230.163 250.308 231.549 271.791C232.43 285.452 238.24 297.878 248.644 306.87C257.167 314.236 268.085 318.914 279.482 318.038C290.533 317.188 298.818 311.274 305.765 302.981C314.137 292.988 318.209 281.493 320.594 268.822C312.461 270.991 296.518 277.334 288.97 272.839C287.225 271.799 286.152 270.279 285.687 268.307C285.061 265.653 285.586 263.049 287.161 260.831C290.159 256.607 295.415 255.769 300.202 255.102C307.034 254.149 322.307 251.651 328.726 252.642C330.922 252.981 333.052 253.8 334.812 255.172C337.6 257.344 338.964 260.715 339.35 264.151C341.05 279.306 330.87 301.705 321.348 313.217C310.224 326.666 296.209 335.563 278.577 337.179C262.599 338.645 246.943 333.974 234.654 323.623C219.788 310.943 210.557 292.884 208.983 273.408C207.028 248.228 215.593 221.034 232.168 201.917C236.658 196.738 241.709 191.62 247.184 187.485C247.992 186.875 247.644 187.167 248.446 186.316Z" fill="#F59A41"/>
<path d="M387.017 363.984C390.103 364.104 393.082 364.75 395.385 366.971C396.724 368.262 397.482 369.818 397.523 371.685C397.74 381.539 395.99 391.98 395.004 401.786C393.157 420.706 391.184 439.615 389.084 458.509C386.653 481.589 386.086 504.927 383.323 527.942C383.035 530.337 383.051 532.617 381.196 534.367C379.256 536.197 376.446 536.952 373.824 536.787C371.219 536.627 369.011 535.607 367.363 533.562C366.067 531.957 365.566 530.407 365.249 528.387C364.336 522.572 365.041 516.322 365.316 510.452C365.921 496.422 367.023 482.414 368.621 468.459C345.274 477.109 322.241 484.242 297.963 489.827C296.503 498.547 295.173 507.292 293.975 516.052C293.199 521.707 292.792 527.817 291.288 533.322C290.758 535.257 290.073 537.317 288.539 538.697C286.869 540.202 284.458 540.807 282.253 540.647C279.985 540.477 277.693 539.567 276.232 537.767C273.846 534.827 274.344 530.892 274.574 527.387C275.902 518.192 276.55 508.877 277.841 499.662C279.606 487.067 281.932 474.508 284.074 461.968C287.214 443.581 290.387 425.16 294.658 406.994C295.996 401.306 297.733 389.228 303.079 386.229C304.468 385.45 305.982 385.365 307.477 385.863C310.786 386.963 312.312 389.319 313.845 392.257C313.4 401.873 310.806 411.854 309.132 421.337C306.289 437.539 303.653 453.777 301.225 470.047C324.396 462.028 347.698 454.394 371.122 447.147C373.097 430.38 375.327 413.687 377.57 396.959C378.697 388.554 379.245 379.654 381.273 371.44C382.193 367.712 383.725 365.955 387.017 363.984Z" fill="#DA4827"/>
<path d="M746.765 362.192C753.27 361.733 762.365 361.596 767.765 365.756C769.91 367.407 771.005 369.972 771.34 372.61C771.62 374.829 771.18 377.316 769.7 379.055C765.575 383.892 757.17 381.551 751.56 381.995C744.295 382.569 738.695 385.211 733.935 390.788C730.355 394.983 728.165 400.091 727.325 405.527C722.27 438.424 770.56 453.9 773.31 490.691C774.24 503.076 770.155 514.791 762.04 524.156C751.855 535.906 738.66 540.326 723.525 541.331C717.09 541.076 708.505 540.886 703.015 537.066C700.765 535.486 699.245 533.061 698.8 530.346C698.375 527.861 698.855 525.186 700.46 523.191C704.68 517.941 717.92 522.546 724.41 521.926C731.345 521.251 737.715 517.791 742.065 512.346C765.38 483.469 732.135 463.196 716.35 442.68C709.88 434.275 704.64 423.83 703.57 413.162C702.37 401.2 705.735 388.634 713.445 379.345C721.895 369.161 733.7 363.425 746.765 362.192Z" fill="#DA4827"/>
<path d="M362.102 843.127C364.106 843.012 366.02 843.112 367.994 843.517C372.667 844.472 376.544 847.132 379.074 851.182C381.118 854.452 382.143 858.197 382.471 862.017C384.155 881.672 375.49 908.512 373.312 928.797C372.468 936.662 373.236 951.852 371.579 958.047C370.878 960.667 369.154 962.777 366.774 964.067C362.114 966.592 356.79 965.267 352.063 963.727C350.232 962.912 348.418 961.902 346.807 960.702C336.943 953.362 332.58 939.767 330.711 928.132C327.341 907.152 328.604 873.452 341.394 856.047C346.515 849.077 353.527 844.497 362.102 843.127Z" fill="#AE7567"/>
<path d="M283.334 360.705C285.561 360.298 288.062 360.508 290.329 360.502C290.847 360.816 291.357 361.143 291.859 361.482C294.318 363.124 296.429 365.318 296.891 368.356C297.316 371.148 296.36 374.275 294.578 376.44C289.64 382.44 268.732 382.843 260.585 383.649C259.284 394.518 258.913 405.59 258.018 416.512L251.219 500.722C250.332 511.067 250.184 527.502 248.15 536.982C247.821 538.517 246.884 539.962 245.78 541.062C243.651 543.177 240.73 544.292 237.734 544.142C235.112 544.007 232.829 542.872 231.093 540.907C226.236 535.412 228.618 525.232 229.096 518.547C232.377 474.569 236.906 430.703 240.36 386.737C232.846 388.199 213.144 393.686 207.053 389.648C205.419 388.564 204.355 386.835 203.998 384.918C203.52 382.349 203.865 379.363 205.494 377.249C211.469 369.489 271.33 361.871 283.334 360.705Z" fill="#DA4827"/>
<path d="M65.4593 637.445C66.3398 637.795 66.9903 637.895 67.6308 638.625C70.5943 641.985 74.4903 655 76.6513 659.895C96.8268 666.375 113.898 674.385 124.251 693.635C127.432 699.55 129.76 705.95 132.517 712.07C134.702 716.92 137.452 723.245 141.613 726.755C150.351 734.125 177.076 732.225 179.676 734.43C180.177 735.835 180.141 735.905 179.693 737.335C178.44 738.42 178.291 738.39 176.625 738.54C168.564 738.67 160.652 738.47 152.778 736.535C147.8 735.305 142.817 733.405 137.732 732.7C134.049 732.19 130.167 732.42 126.456 732.395C117.098 732.33 108.028 731.43 99.3013 727.825C87.6323 723.005 78.2703 714.5 73.4408 702.71C68.9138 691.66 68.1053 674.475 72.7108 663.395C70.4798 658.73 63.6798 644.775 63.8498 640.215C63.9093 638.605 64.3268 638.465 65.4593 637.445Z" fill="#DCC8C2"/>
<path d="M76.1787 669.738C78.6362 671.428 80.9057 676.293 82.5412 678.853C91.3567 692.658 101.576 703.198 114.043 713.693C116.696 715.923 129.388 724.878 130.114 727.073C125.128 727.073 120.145 727.023 115.192 726.383C102.997 724.803 90.8562 719.543 83.2527 709.528C74.5407 698.058 74.2062 683.438 76.1787 669.738Z" fill="white"/>
<path d="M80.7017 666.426C84.0647 667.481 87.5322 669.256 90.7117 670.796C115.193 682.686 121.002 695.436 129.505 720.021C123.74 715.051 117.705 710.396 112.063 705.286C99.5822 693.976 89.4192 680.791 80.7017 666.426Z" fill="white"/>
<path d="M548.205 70.0537C548.67 69.9967 549.13 69.9357 549.595 69.9037C555.18 69.5182 560.675 71.4557 564.785 75.2577C569.16 79.3572 570.5 84.1417 570.775 89.9092C575.14 90.7277 579.435 92.1622 582.835 95.1362C585.105 97.1177 586.925 100.008 587.07 103.081C587.16 105.013 586.495 106.885 585.155 108.289C583.585 109.916 581.525 110.983 579.29 111.327C572.28 112.464 564.275 111.85 557.165 111.887L513.42 111.989C512.1 111.987 510.775 111.999 509.455 112.025C504.04 112.11 485 113.634 481.864 109.652C480.382 107.77 480.917 104.594 481.055 102.362C481.524 101.57 482.011 100.788 482.514 100.017C486.67 93.6157 493.865 90.8197 501.04 89.3282C501.66 84.2787 502.91 80.0567 506.705 76.4007C510.425 72.8187 516.015 70.7767 521.16 70.9297C526.895 71.0997 530.755 73.8502 534.505 77.8612C538.415 73.2522 542.485 71.4592 548.205 70.0537Z" fill="#DCC8C2"/>
<path d="M548.55 74.6647C548.895 74.6462 549.24 74.6337 549.585 74.6272C553.85 74.5607 558.47 75.9802 561.49 79.0932C565.86 83.6037 565.615 89.0402 565.55 94.8692C569.21 94.5652 571.995 94.1312 575.39 95.8677C577.69 97.0442 581.01 99.6717 581.545 102.386C581.805 103.714 581.66 104.079 581.065 105.199C579.795 106.047 578.7 106.171 577.22 106.309C568.66 107.11 559.575 106.562 550.965 106.589L507.125 106.983C502.37 106.938 490.47 108.467 486.71 106.62C486.035 105.556 485.81 105.35 486.11 104.039C486.46 102.5 487.885 100.852 488.905 99.7137C496.155 91.6227 502.905 96.9162 509.06 92.8937C508.585 91.0872 507 89.5857 505.83 88.1357C506.38 86.2337 507.04 84.4487 508.205 82.8237C510.795 79.1732 514.815 76.7927 519.265 76.2727C528.835 75.1417 527.935 80.7657 533.775 85.5032C537.33 86.0552 540.365 76.9027 548.55 74.6647Z" fill="white"/>
<path d="M420.006 371.074C421.028 371.104 422.09 371.116 423.098 371.295C424.974 371.628 426.831 372.882 427.902 374.447C429.108 376.209 429.498 377.972 429.555 380.084C429.831 390.384 428.957 401.003 428.566 411.305L426.382 470.01L424.857 514.551C424.594 521.406 424.999 529.066 423.585 535.756C422.686 536.876 421.781 538.056 420.738 539.046C418.553 541.126 416.263 541.456 413.366 541.461C412.774 541.311 412.186 541.146 411.604 540.961C408.426 539.931 405.441 538.096 403.994 534.971C400.19 526.766 409.594 422.41 411.023 405.783C411.616 398.878 411.719 381.545 414.032 376.011C415.167 373.295 417.391 372.097 420.006 371.074Z" fill="#DA4827"/>
<path d="M721.655 70.7013C724.95 70.6358 729.31 72.1323 732.09 73.8763C738.15 77.6768 740.56 83.1048 742.19 89.7618C748.355 89.7563 754.075 90.2138 758.74 94.7583C761.39 97.3378 764.075 101.328 764.065 105.171C764.06 106.831 763.455 108.279 762.26 109.433C760.73 110.915 758.76 111.127 756.73 111.354C750.39 112.063 743.65 111.535 737.255 111.52L698.875 111.493C691.475 111.547 668.07 113.235 662.635 109.382C661.07 108.271 659.955 106.678 659.775 104.731C659.435 100.975 661.77 96.5018 664.185 93.7693C667.865 89.6113 672.36 87.6758 677.81 87.2708C678.13 86.6163 678.46 85.9693 678.81 85.3293C680.835 81.6243 683.77 78.2858 688.01 77.2023C693.275 75.8563 698.155 78.1533 702.645 80.6478C708.83 74.1703 712.545 71.5518 721.655 70.7013Z" fill="#DCC8C2"/>
<path d="M718.01 76.0682C722.42 75.7922 726.925 76.4037 730.55 79.1297C735.98 83.2142 736.99 89.7807 737.975 96.0422C741.645 95.0732 745.125 94.1967 748.955 94.9987C752.47 95.7362 755.29 98.2627 757.185 101.212C758.025 102.512 759.06 104.113 758.72 105.705C753.9 107.594 708.835 106.503 700.25 106.505C696.105 106.521 669.055 107.31 667.105 106.26C666.62 106.002 666.265 105.556 665.85 105.203C665.555 104.452 665.285 103.783 665.315 102.962C665.42 100.383 667.2 97.3097 669.105 95.6362C672.67 92.5062 677.245 92.8172 681.66 93.0012C682.575 90.2712 683.37 87.5557 685.24 85.2967C686.745 83.4717 688.645 82.0312 691.09 81.9222C696.41 81.6852 699.5 86.9747 702.87 90.2162C705.755 89.0937 707.04 84.4607 708.585 81.9842C710.81 78.4007 714.055 77.0037 718.01 76.0682Z" fill="white"/>
<path d="M608.655 23.207C614.51 23.3186 618.345 25.1624 623.335 27.9724L626.48 33.1451C629.445 31.5296 632.34 30.0825 635.77 29.768C641.55 29.2377 647.15 31.5613 651.515 35.2623C654.79 38.0363 657.7 42.0058 657.9 46.4423C658.005 48.7343 657.255 50.9228 655.63 52.5633C650.425 57.8303 636.94 56.1848 630.125 56.1738C621.005 56.1248 611.88 56.2218 602.765 56.4653C596.81 56.6278 589.3 58.0913 583.515 56.7118C581.57 56.2468 579.685 55.0273 578.675 53.2693C577.35 50.9713 577.705 48.0963 578.54 45.6933C580.53 39.9618 586.25 36.7913 591.38 34.2873C592.36 32.769 593.35 31.2367 594.53 29.8643C598.365 25.421 602.965 23.6978 608.655 23.207Z" fill="#DCC8C2"/>
<path d="M607.275 28.0765C609.745 27.9382 612.54 28.0481 614.855 28.9774C620.105 31.0817 622.18 36.6773 624.345 41.4368C627.36 39.5468 629.82 35.9368 633.295 35.0108C637.275 33.9503 642.155 35.2058 645.615 37.2598C648.525 38.9883 652.275 42.2943 652.935 45.7998C653.14 46.9418 652.8 48.1138 652.015 48.9673C648.635 52.6183 637.085 51.3413 632.375 51.2828C625.41 51.2128 587.375 52.5328 584.535 51.4493C583.5 51.0543 583.415 50.4813 583 49.5473C583.025 47.2398 584.05 44.9993 585.695 43.3638C587.285 41.7803 589.235 41.5273 591.375 41.6198C592.495 41.6683 593.45 41.6943 594.565 41.5128C596.63 39.0648 596.32 36.4188 597.695 33.7425C599.365 30.4958 604.035 29.0243 607.275 28.0765Z" fill="white"/>
<path d="M370.928 787.064C374.888 786.584 378.501 786.914 382.078 788.834C386.073 790.974 388.889 794.684 390.108 799.029C391.43 803.739 390.618 808.814 388.2 813.034C385.066 818.504 380.316 820.899 374.459 822.434C370.374 822.704 366.41 822.359 362.734 820.429C358.951 818.409 356.187 814.894 355.113 810.744C353.862 806.094 354.792 801.104 357.166 796.969C360.327 791.459 364.999 788.724 370.928 787.064Z" fill="#AE7567"/>
</svg>
