<svg viewBox="0 0 256 256" fill="none" xmlns="http://www.w3.org/2000/svg">
<path d="M109.241 187.041C80.2688 187.041 52.4828 177.188 31.996 159.65C11.5093 142.11 -8.05964e-07 118.323 0 93.5203C8.05964e-07 68.7172 11.5093 44.9299 31.996 27.3914C52.4828 9.85298 80.2688 -2.95774e-07 109.241 0H128V55.7381H109.241C97.5364 55.7381 86.3109 59.7187 78.0343 66.8043C69.7577 73.8898 65.1079 83.4998 65.1079 93.5203C65.1079 103.541 69.7577 113.151 78.0343 120.236C86.3109 127.322 97.5364 131.302 109.241 131.302H128V187.041H109.241Z" fill="#FD801A"/>
<path d="M146.759 68.9595C175.731 68.9595 203.517 78.8125 224.004 96.3505C244.491 113.89 256 137.677 256 162.48C256 187.282 244.491 211.07 224.004 228.609C203.517 246.147 175.731 256 146.759 256H128V200.262H146.759C158.464 200.262 169.689 196.281 177.965 189.195C186.242 182.111 190.892 172.501 190.892 162.48C190.892 152.459 186.242 142.849 177.965 135.764C169.689 128.678 158.464 124.698 146.759 124.698H128V68.9595H146.759Z" fill="#AF52DE"/>
</svg>
